<?xml version="1.0" encoding="UTF-8"?>
<!DOCTYPE svg PUBLIC "-//W3C//DTD SVG 1.1//EN" "http://www.w3.org/Graphics/SVG/1.1/DTD/svg11.dtd">
<!-- Creator: CorelDRAW 2018 (64 Bit) -->
<svg xmlns="http://www.w3.org/2000/svg" xml:space="preserve" width="69.3683mm" height="37.2221mm" version="1.1" style="shape-rendering:geometricPrecision; text-rendering:geometricPrecision; image-rendering:optimizeQuality; fill-rule:evenodd; clip-rule:evenodd"
viewBox="0 0 4713.95 2529.44"
 xmlns:xlink="http://www.w3.org/1999/xlink">
 <defs>
  <style type="text/css">
   <![CDATA[
    .str0 {stroke:#FFCC00;stroke-width:53.94;stroke-linecap:round;stroke-linejoin:round;stroke-miterlimit:22.9256;stroke-dasharray:53.936179 161.808536}
    .fil7 {fill:none}
    .fil5 {fill:#003399}
    .fil0 {fill:#1CB01C}
    .fil1 {fill:#FFCC00}
    .fil4 {fill:white}
    .fil2 {fill:black;fill-rule:nonzero}
    .fil3 {fill:#003399;fill-rule:nonzero}
    .fil6 {fill:url(#id0)}
   ]]>
  </style>
  <linearGradient id="id0" gradientUnits="userSpaceOnUse" x1="1198.03" y1="2318.19" x2="1878.93" y2="1935.32">
   <stop offset="0" style="stop-opacity:1; stop-color:#C6E5F7"/>
   <stop offset="1" style="stop-opacity:1; stop-color:#FEFEFE"/>
  </linearGradient>
 </defs>
 <g id="Ebene_x0020_1">
  <metadata id="CorelCorpID_0Corel-Layer"/>
  <circle class="fil0" cx="1555.85" cy="1274.35" r="322.24"/>
  <circle class="fil1" cx="1539.38" cy="400.71" r="297.51"/>
  <path class="fil2" d="M626.08 1274.62l0 292.3c-45.52,19.73 -88.5,34.39 -129.3,44.17 -40.62,9.61 -79.39,14.49 -116.31,14.49 -41.47,0 -80.57,-5.06 -117.16,-15.34 -36.58,-10.12 -70.13,-25.29 -100.81,-45.35 -51.25,-33.71 -91.2,-76.53 -119.68,-128.62 -28.49,-52.26 -42.82,-109.24 -42.82,-171.27 0,-46.35 9.44,-91.37 28.15,-135.03 18.71,-43.49 45.52,-81.76 80.07,-114.29 36.58,-35.23 77.71,-61.36 123.39,-78.56 45.85,-17.02 97.1,-25.63 153.74,-25.63 38.61,0 77.21,4.55 115.81,13.83 38.78,9.27 78.39,23.09 118.85,41.64l0 107.38c-43.83,-23.76 -84.96,-41.3 -123.56,-52.76 -38.44,-11.29 -75.86,-17.02 -112.1,-17.02 -80.75,0 -147.33,25.12 -200.1,75.35 -52.76,50.23 -79.06,113.11 -79.06,188.8 0,74.85 25.96,137.22 78.05,187.45 51.92,50.23 117.32,75.35 196.04,75.35 23.6,0 47.37,-2.53 71.14,-7.58 23.6,-5.23 48.21,-12.98 73.49,-23.6l0 -133.68 -129.46 0 0 -92.05 231.62 0z"/>
  <polygon id="1" class="fil2" points="756.55,1613.45 756.55,922.64 854.66,922.64 854.66,1524.44 1183.37,1524.44 1183.37,1613.45 "/>
  <path id="2" class="fil2" d="M1295.81 1268.72c0,35.23 6.58,68.95 19.73,100.8 13.15,31.86 32.2,60.18 56.8,84.96 24.11,24.61 52.26,43.65 84.79,56.97 32.37,13.32 66.25,20.06 101.48,20.06 36.08,0 70.13,-6.57 101.99,-19.55 31.69,-12.99 60.18,-32.2 85.13,-57.48 24.61,-24.78 43.66,-53.1 56.98,-84.96 13.32,-31.86 20.06,-65.57 20.06,-100.8 0,-35.23 -6.58,-68.44 -19.72,-99.96 -13.15,-31.35 -32.71,-60.18 -58.33,-86.14 -24.61,-25.46 -52.94,-44.67 -84.96,-57.99 -31.86,-13.31 -65.57,-20.05 -101.14,-20.05 -34.39,0 -67.43,6.74 -99.62,20.22 -32.03,13.49 -61.02,32.71 -86.65,57.82 -24.61,23.93 -43.65,52.09 -56.8,84.45 -13.15,32.2 -19.73,66.08 -19.73,101.65zm-105.19 -3.71c0,-46.02 9.44,-90.86 28.15,-134.18 18.71,-43.49 45.52,-81.92 80.07,-115.13 35.23,-33.88 75.02,-59.68 119.52,-77.54 44.33,-17.7 91.2,-26.64 140.25,-26.64 49.9,0 97.43,8.94 142.45,26.97 44.84,17.87 84.45,43.66 118.67,77.21 35.91,34.9 62.88,73.83 81.08,116.48 18.04,42.82 27.14,89.34 27.14,139.41 0,47.03 -9.27,92.21 -27.98,135.53 -18.54,43.32 -45.01,81.42 -79.23,114.29 -35.91,34.22 -75.86,60.18 -120.19,77.71 -44.33,17.7 -91.7,26.47 -141.94,26.47 -49.05,0 -96.08,-9.1 -141.1,-27.14 -44.84,-18.21 -84.45,-43.82 -118.67,-77.03 -35.57,-34.56 -62.54,-73.67 -80.74,-116.99 -18.38,-43.49 -27.48,-90.01 -27.48,-139.41z"/>
  <path id="3" class="fil2" d="M2136.14 1309.01l0 214.42 131.49 0c48.04,0 83.11,-8.43 105.19,-25.45 22.25,-17.03 33.37,-43.49 33.37,-79.74 0,-37.59 -12.47,-65.24 -37.25,-82.77 -24.78,-17.7 -63.89,-26.46 -117.16,-26.46l-115.65 0zm-98.11 304.44l0 -690.81 202.29 0c68.95,0 122.05,15.68 159.3,46.86 37.42,31.35 56.13,75.69 56.13,133.34 0,35.57 -8.43,65.24 -25.12,88.84 -16.86,23.76 -42.48,41.97 -77.03,54.79 50.23,11.97 89.17,33.54 116.65,64.73 27.47,31.35 41.13,69.29 41.13,114.12 0,57.31 -20.9,103 -62.87,137.05 -41.98,34.05 -98.79,51.08 -170.6,51.08l-239.88 0zm98.11 -394.46l66.76 0c50.4,0 87.83,-9.1 112.1,-27.14 24.44,-18.04 36.58,-45.68 36.58,-82.93 0,-33.88 -9.61,-58.67 -28.83,-74 -19.39,-15.51 -50.06,-23.27 -92.21,-23.27l-94.4 0 0 207.35z"/>
  <path id="4" class="fil2" d="M2755.47 1321.15l215.27 0 -109.07 -248.81 -106.2 248.81zm-227.74 292.3l299.38 -690.81 71.98 0 303.26 690.81 -102.16 0 -89.01 -203.3 -294.33 0 -87.83 203.3 -101.31 0z"/>
  <polygon id="5" class="fil2" points="3256.98,1613.45 3256.98,922.64 3355.09,922.64 3355.09,1524.44 3683.8,1524.44 3683.8,1613.45 "/>
  <path id="6" class="fil3" d="M1135.84 2322.5l0 111.43c-40.46,21.07 -81.76,37.09 -123.73,48.04 -41.98,10.95 -83.61,16.52 -124.75,16.52 -39.61,0 -77.37,-5.23 -113.28,-15.51 -35.9,-10.45 -69.78,-25.79 -101.82,-46.19 -51.25,-33.55 -91.2,-76.53 -119.68,-128.62 -28.49,-52.26 -42.82,-108.9 -42.82,-170.26 0,-46.35 9.44,-91.37 28.15,-135.03 18.71,-43.49 45.52,-81.76 80.07,-114.29 36.91,-34.9 78.22,-61.02 123.9,-78.22 45.86,-17.36 96.6,-25.97 152.23,-25.97 38.94,0 77.37,4.38 115.64,13.32 38.1,8.94 78.22,22.93 120.02,42.15l0 107.38c-43.83,-23.76 -84.96,-41.3 -123.56,-52.76 -38.44,-11.29 -75.86,-17.02 -112.1,-17.02 -80.75,0 -147.33,25.12 -200.1,75.35 -52.76,50.23 -79.06,113.11 -79.06,188.8 0,74.85 25.96,137.22 77.88,187.45 51.92,50.23 116.99,75.35 195.37,75.35 40.29,0 80.91,-6.74 122.05,-20.23 41.3,-13.48 83.11,-34.05 125.59,-61.7z"/>
  <path id="7" class="fil3" d="M1316.72 2141.63c0,35.23 6.58,68.95 19.73,100.8 13.15,31.86 32.2,60.18 56.8,84.96 24.11,24.61 52.26,43.65 84.79,56.97 32.37,13.32 66.25,20.06 101.48,20.06 36.08,0 70.13,-6.57 101.99,-19.55 31.69,-12.99 60.18,-32.2 85.13,-57.48 24.61,-24.78 43.66,-53.1 56.98,-84.96 13.32,-31.86 20.06,-65.57 20.06,-100.8 0,-35.23 -6.58,-68.44 -19.72,-99.96 -13.15,-31.35 -32.71,-60.18 -58.33,-86.14 -24.61,-25.46 -52.94,-44.67 -84.96,-57.99 -31.86,-13.31 -65.57,-20.05 -101.14,-20.05 -34.39,0 -67.43,6.74 -99.62,20.22 -32.03,13.49 -61.02,32.71 -86.65,57.82 -24.61,23.93 -43.65,52.09 -56.8,84.45 -13.15,32.2 -19.73,66.08 -19.73,101.65zm-105.19 -3.71c0,-46.02 9.44,-90.86 28.15,-134.18 18.71,-43.49 45.52,-81.92 80.07,-115.13 35.23,-33.88 75.02,-59.68 119.52,-77.54 44.33,-17.7 91.2,-26.64 140.25,-26.64 49.9,0 97.43,8.94 142.45,26.97 44.84,17.87 84.45,43.66 118.67,77.21 35.91,34.9 62.88,73.83 81.08,116.48 18.04,42.82 27.14,89.34 27.14,139.41 0,47.03 -9.27,92.21 -27.98,135.53 -18.54,43.32 -45.01,81.42 -79.23,114.29 -35.91,34.22 -75.86,60.18 -120.19,77.71 -44.33,17.7 -91.7,26.47 -141.94,26.47 -49.05,0 -96.08,-9.1 -141.1,-27.14 -44.84,-18.21 -84.45,-43.82 -118.67,-77.03 -35.57,-34.56 -62.54,-73.67 -80.74,-116.99 -18.38,-43.49 -27.48,-90.01 -27.48,-139.41z"/>
  <path id="8" class="fil3" d="M3615.7 2141.63c0,35.23 6.58,68.95 19.73,100.8 13.15,31.86 32.2,60.18 56.8,84.96 24.11,24.61 52.26,43.65 84.79,56.97 32.37,13.32 66.25,20.06 101.48,20.06 36.08,0 70.13,-6.57 101.99,-19.55 31.69,-12.99 60.18,-32.2 85.13,-57.48 24.61,-24.78 43.66,-53.1 56.98,-84.96 13.32,-31.86 20.06,-65.57 20.06,-100.8 0,-35.23 -6.58,-68.44 -19.72,-99.96 -13.15,-31.35 -32.71,-60.18 -58.33,-86.14 -24.61,-25.46 -52.94,-44.67 -84.96,-57.99 -31.86,-13.31 -65.57,-20.05 -101.14,-20.05 -34.39,0 -67.43,6.74 -99.62,20.22 -32.03,13.49 -61.02,32.71 -86.65,57.82 -24.61,23.93 -43.65,52.09 -56.8,84.45 -13.15,32.2 -19.73,66.08 -19.73,101.65zm-105.19 -3.71c0,-46.02 9.44,-90.86 28.15,-134.18 18.71,-43.49 45.52,-81.92 80.07,-115.13 35.23,-33.88 75.02,-59.68 119.52,-77.54 44.33,-17.7 91.2,-26.64 140.25,-26.64 49.9,0 97.43,8.94 142.45,26.97 44.84,17.87 84.45,43.66 118.67,77.21 35.91,34.9 62.88,73.83 81.08,116.48 18.04,42.82 27.14,89.34 27.14,139.41 0,47.03 -9.27,92.21 -27.98,135.53 -18.54,43.32 -45.01,81.42 -79.23,114.29 -35.91,34.22 -75.86,60.18 -120.19,77.71 -44.33,17.7 -91.7,26.47 -141.94,26.47 -49.05,0 -96.08,-9.1 -141.1,-27.14 -44.84,-18.21 -84.45,-43.82 -118.67,-77.03 -35.57,-34.56 -62.54,-73.67 -80.74,-116.99 -18.38,-43.49 -27.48,-90.01 -27.48,-139.41z"/>
  <path id="9" class="fil3" d="M4322.53 2432.41l0 -130.14c31.35,35.91 61.19,61.7 89.68,77.54 28.49,15.68 58.83,23.6 91.03,23.6 34.22,0 61.19,-7.92 80.91,-23.93 19.73,-16.02 29.67,-37.59 29.67,-64.9 0,-22.42 -6.57,-42.14 -19.89,-59 -13.32,-17.02 -45.18,-41.47 -95.41,-73.33 -78.22,-50.4 -127.1,-89.51 -147.16,-117.16 -19.89,-27.64 -29.84,-60.68 -29.84,-98.79 0,-53.77 19.05,-97.77 56.98,-132.33 38.1,-34.39 87.15,-51.58 146.99,-51.58 26.63,0 52.93,3.87 78.89,11.63 25.79,7.75 51.92,19.73 78.22,35.91l0 112.27c-30.34,-24.44 -58.16,-42.14 -83.95,-53.27 -25.63,-10.95 -51.25,-16.52 -76.87,-16.52 -31.01,0 -56.3,7.59 -75.86,22.93 -19.55,15.34 -29.33,35.06 -29.33,59.17 0,34.22 40.62,76.7 121.71,127.44l14.83 8.93c66.25,41.13 109.74,77.37 130.13,108.73 20.4,31.52 30.68,70.46 30.68,116.82 0,52.6 -19.05,96.09 -57.31,130.47 -38.27,34.39 -87.15,51.58 -146.82,51.58 -37.26,0 -70.8,-5.23 -100.81,-15.85 -30,-10.45 -58.83,-27.14 -86.47,-50.23z"/>
  <path id="10" class="fil3" d="M2041.75 2431.4l0 -153.4c52.09,32.37 95.92,54.79 131.66,67.77 35.74,12.81 70.29,19.21 104.01,19.21 33.88,0 59.51,-5.23 77.04,-15.51 17.36,-10.45 26.13,-25.79 26.13,-46.19 0,-16.52 -5.4,-29.83 -16.36,-39.78 -10.78,-10.11 -36.07,-22.09 -75.85,-35.91 -98.45,-34.56 -166.21,-69.95 -203.3,-106.03 -36.91,-36.07 -55.46,-82.1 -55.46,-138.06 0,-59.01 24.1,-106.88 72.32,-143.79 48.21,-36.92 110.92,-55.3 188.29,-55.3 39.12,0 78.56,4.72 118,14.33 39.45,9.61 78.56,23.6 116.99,41.98l0 141.94c-46.35,-23.43 -87.99,-40.79 -124.91,-51.92 -36.75,-11.29 -70.29,-16.85 -100.64,-16.85 -32.88,0 -57.99,4.72 -75.19,14.32 -17.36,9.61 -25.96,23.27 -25.96,40.96 0,14.5 7.75,28.15 23.26,40.79 15.34,12.82 38.78,24.78 69.96,36.41 6.57,2.7 16.69,6.41 30.17,11.29 65.91,24.44 113.11,45.35 141.77,62.71 30.01,18.38 52.6,42.15 67.93,71.14 15.34,28.99 22.93,62.87 22.93,101.65 0,63.89 -24.11,113.95 -72.32,150.53 -48.38,36.58 -115.31,54.79 -200.94,54.79 -42.82,0 -84.12,-5.57 -124.24,-16.69 -39.95,-11.29 -78.38,-27.98 -115.3,-50.4z"/>
  <polygon id="11" class="fil3" points="2656.86,2486.36 2656.86,1795.55 2809.42,1795.55 3031.09,2073.69 3253.78,1795.55 3406.34,1795.55 3406.34,2486.36 3236.42,2486.36 3236.42,2058.86 3031.09,2311.38 2827.8,2058.86 2827.8,2486.36 "/>
  <path class="fil4" d="M1799.59 2281.5c-44.8,73.49 -125.7,122.56 -218.08,122.56 -140.95,0 -255.21,-114.26 -255.21,-255.21 0,-56.46 15.13,-97.82 38.12,-134.75 -7.96,28.01 -12.6,57.97 -12.6,91.52 0,142.73 115.71,258.43 258.43,258.43 74.78,0 142.14,-31.78 189.33,-82.56z"/>
  <path class="fil5" d="M1574.08 1345.84c18.18,342.9 380.55,551.74 380.55,806.05 0,208.51 -169.04,377.55 -377.55,377.55 -208.51,0 -377.55,-169.04 -377.55,-377.55 0,-308.76 305.72,-312.65 374.56,-806.05z"/>
  <path class="fil6" d="M1574.51 1430.39c15.58,293.91 326.19,472.92 326.19,690.9 0,178.72 -144.89,323.61 -323.62,323.61 -178.73,0 -323.62,-144.89 -323.62,-323.61 0,-264.65 262.04,-267.98 321.05,-690.9z"/>
  <path class="fil5" d="M1810.07 2234.09c-47.86,78.52 -134.3,130.96 -232.99,130.96 -150.6,0 -272.68,-122.08 -272.68,-272.68 0,-60.32 16.17,-104.52 40.73,-143.97 -8.51,29.93 -13.46,61.93 -13.46,97.79 0,152.49 123.62,276.11 276.12,276.11 79.9,0 151.87,-33.96 202.28,-88.21z"/>
  <circle class="fil7 str0" cx="1539.38" cy="400.71" r="377.58"/>
 </g>
</svg>
