<?xml version="1.0" encoding="UTF-8" standalone="no"?>
<svg
   width="600"
   height="600"
   version="1.1"
   id="svg1"
   sodipodi:docname="2d_features.svg"
   inkscape:version="1.3.2 (091e20e, 2023-11-25, custom)"
   xmlns:inkscape="http://www.inkscape.org/namespaces/inkscape"
   xmlns:sodipodi="http://sodipodi.sourceforge.net/DTD/sodipodi-0.dtd"
   xmlns="http://www.w3.org/2000/svg"
   xmlns:svg="http://www.w3.org/2000/svg">
  <defs
     id="defs1" />
  <sodipodi:namedview
     id="namedview1"
     pagecolor="#505050"
     bordercolor="#eeeeee"
     borderopacity="1"
     inkscape:showpageshadow="0"
     inkscape:pageopacity="0"
     inkscape:pagecheckerboard="0"
     inkscape:deskcolor="#505050"
     inkscape:zoom="1.3871078"
     inkscape:cx="306.03245"
     inkscape:cy="326.21834"
     inkscape:window-width="1920"
     inkscape:window-height="991"
     inkscape:window-x="-9"
     inkscape:window-y="-9"
     inkscape:window-maximized="1"
     inkscape:current-layer="svg1" />
  <g
     id="Layer_1"
     transform="translate(0,100)">
    <title
       id="title1">Layer 1</title>
    <rect
       id="svg_2"
       height="250"
       width="250"
       y="75"
       x="320"
       stroke-width="3"
       stroke="#000000"
       fill="#d8d8d8" />
    <rect
       stroke="#000000"
       stroke-width="3"
       id="svg_1"
       height="250"
       width="250"
       y="75"
       x="30"
       fill="#d8d8d8" />
    <path
       id="svg_24"
       d="m 105.11053,282.15203 c -3.38438,-4.31874 5.30107,-4.43434 3.93655,-9.22175 2.49482,-6.34395 8.98161,-10.18392 9.93689,-17.39285 -2.63091,-2.00357 -4.14403,-6.84912 0.8753,-6.27385 3.68087,-3.02869 3.22084,-9.22653 4.32779,-13.77485 1.03696,-7.34109 1.27178,-14.7713 1.71718,-22.1727 -4.25899,-0.3576 -8.62333,-0.10851 -12.77319,-1.30145 0.11937,-4.92224 8.56334,-3.03357 8.94766,-7.67828 6.13956,-0.12128 0.34007,-10.14536 -2.16019,-12.53694 -3.20031,-4.03445 -5.33187,-10.40326 -2.89896,-15.38574 3.47986,-2.52739 11.3481,-0.98895 10.99246,-7.63088 -2.3666,-1.47463 -5.37134,-0.53818 -8.02384,-0.79897 0.16312,-3.09714 0.32624,-6.19427 0.48937,-9.29141 3.50789,-0.29495 7.01579,-0.58992 10.52368,-0.8849 -1.78056,-2.02288 -4.44536,-3.51161 -5.11219,-6.37308 2.26817,-4.07577 7.73463,-3.71598 11.65073,-3.67745 3.80797,-0.28712 10.75086,2.48942 5.56036,6.96165 -0.4207,1.09826 -4.51502,3.82903 -1.98478,3.53132 3.23966,0 6.47932,0 9.71897,0 -0.009,3.02773 -0.0838,6.08555 0.56672,9.04856 -2.47293,2.01316 -10.492,-1.71965 -8.20871,4.49194 2.57096,2.59701 6.50848,2.52847 9.7694,3.6722 1.90204,0.20772 3.41511,0.74952 2.72968,3.17985 0.3575,4.5123 -0.68397,9.05142 -3.52137,12.47672 -2.00854,3.57421 -6.51969,8.0487 -5.18424,12.18588 2.52662,-0.44958 4.55626,1.36388 2.5382,3.40327 2.07099,1.67619 9.36375,1.29234 7.78643,5.48875 -3.69488,1.33698 -7.66412,0.77998 -11.49751,0.91641 1.02069,11.45472 2.43197,22.91052 4.79012,34.12766 1.37784,2.48907 6.85115,4.40209 2.35927,7.64703 -1.67637,6.04292 3.67804,10.56762 7.04083,14.44611 3.69736,3.02703 1.90348,9.11767 7.13416,10.08905 4.11939,4.36204 -5.65562,4.2459 -8.16525,4.25542 -16.614,0.19583 -33.24593,0.4698 -49.85343,-0.11542 -1.35952,-0.18756 -3.03917,-0.14465 -4.00807,-1.41131 v 0 z"
       stroke-width="3"
       stroke="#000000"
       fill="#707070" />
    <path
       id="svg_25"
       d="m 439.97896,240.04677 c -3.38438,-4.31874 5.30107,-4.43434 3.93654,-9.22175 2.49482,-6.34395 8.98161,-10.18392 9.93689,-17.39285 -2.6309,-2.00357 -4.14403,-6.84912 0.8753,-6.27386 3.68087,-3.02869 3.22084,-9.22653 4.32779,-13.77485 1.03696,-7.34108 1.27179,-14.77129 1.71718,-22.1727 -4.25899,-0.35759 -8.62333,-0.1085 -12.77318,-1.30144 0.11937,-4.92224 8.56334,-3.03357 8.94766,-7.67828 6.13956,-0.12128 0.34007,-10.14536 -2.16019,-12.53694 -3.20031,-4.03446 -5.33188,-10.40326 -2.89896,-15.38575 3.47985,-2.52739 11.3481,-0.98894 10.99245,-7.63088 -2.36659,-1.47463 -5.37134,-0.53818 -8.02384,-0.79897 0.16313,-3.09714 0.32624,-6.19427 0.48937,-9.29141 3.50789,-0.29495 7.01579,-0.58992 10.52368,-0.8849 -1.78056,-2.02288 -4.44536,-3.51161 -5.1122,-6.37308 2.26817,-4.07576 7.73463,-3.71598 11.65073,-3.67744 3.80798,-0.28712 10.75086,2.48942 5.56036,6.96165 -0.42069,1.09826 -4.51501,3.82902 -1.98478,3.53132 3.23966,0 6.47932,0 9.71897,0 -0.009,3.02773 -0.0838,6.08555 0.56672,9.04855 -2.47294,2.01316 -10.492,-1.71964 -8.20872,4.49195 2.57097,2.597 6.50849,2.52847 9.7694,3.6722 1.90204,0.20772 3.41511,0.74952 2.72968,3.17985 0.35751,4.51231 -0.68396,9.05143 -3.52136,12.47673 -2.00854,3.5742 -6.51969,8.0487 -5.18424,12.18588 2.52661,-0.44958 4.55626,1.36388 2.5382,3.40327 2.071,1.67619 9.36376,1.29233 7.78643,5.48874 -3.69488,1.33698 -7.66412,0.77998 -11.49751,0.91641 1.02069,11.45472 2.43197,22.91052 4.79012,34.12766 1.37784,2.48907 6.85115,4.40209 2.35927,7.64703 -1.67636,6.04292 3.67804,10.56762 7.04083,14.44611 3.69736,3.02703 1.90348,9.11767 7.13416,10.08906 4.11939,4.36203 -5.65563,4.2459 -8.16525,4.25541 -16.61401,0.19583 -33.24593,0.4698 -49.85343,-0.11542 -1.35953,-0.18756 -3.03918,-0.14465 -4.00807,-1.41131 z"
       stroke-width="3"
       stroke="#000000"
       fill="#707070" />
    <path
       stroke="#000000"
       id="svg_36"
       d="m 144.85567,154.62673 3.50913,-3.19012 3.7277,3.38879 3.7277,-3.38879 3.50917,3.19012 -3.7277,3.38882 3.7277,3.38882 -3.50917,3.19015 -3.7277,-3.38882 -3.7277,3.38882 -3.50913,-3.19015 3.72767,-3.38882 z"
       stroke-width="0"
       fill="#ff0000" />
    <path
       stroke="#000000"
       id="svg_39"
       d="m 479.06618,111.86357 3.50913,-3.19012 3.7277,3.38879 3.72769,-3.38879 3.50917,3.19012 -3.7277,3.38882 3.7277,3.38882 -3.50917,3.19015 -3.72769,-3.38882 -3.7277,3.38882 -3.50913,-3.19015 3.72766,-3.38882 z"
       stroke-width="0"
       fill="#ff0000" />
    <path
       stroke="#000000"
       id="svg_40"
       d="m 452.75039,170.4162 3.50913,-3.19012 3.7277,3.38879 3.72769,-3.38879 3.50917,3.19012 -3.7277,3.38882 3.7277,3.38882 -3.50917,3.19015 -3.72769,-3.38882 -3.7277,3.38882 -3.50913,-3.19015 3.72766,-3.38882 z"
       stroke-width="0"
       fill="#ff0000" />
    <path
       stroke="#000000"
       id="svg_41"
       d="m 117.88198,213.83726 3.50913,-3.19012 3.7277,3.38879 3.72769,-3.38879 3.50917,3.19012 -3.7277,3.38882 3.7277,3.38882 -3.50917,3.19015 -3.72769,-3.38882 -3.7277,3.38882 -3.50913,-3.19015 3.72766,-3.38882 z"
       stroke-width="0"
       fill="#ff0000" />
    <path
       stroke="#000000"
       id="svg_42"
       d="m 483.01355,211.20567 3.50913,-3.19012 3.7277,3.38879 3.72769,-3.38879 3.50917,3.19012 -3.7277,3.38882 3.7277,3.38882 -3.50917,3.19015 -3.72769,-3.38882 -3.7277,3.38882 -3.50913,-3.19015 3.72766,-3.38882 z"
       stroke-width="0"
       fill="#ff0000" />
    <path
       stroke="#000000"
       id="svg_43"
       d="m 146.82933,254.62672 3.50913,-3.19012 3.7277,3.38879 3.72769,-3.38879 3.50917,3.19012 -3.7277,3.38882 3.7277,3.38882 -3.50917,3.19015 -3.72769,-3.38882 -3.7277,3.38882 -3.50913,-3.19015 3.72766,-3.38882 z"
       stroke-width="0"
       fill="#ff0000" />
    <line
       stroke-width="3"
       id="svg_44"
       y2="115.00001"
       x2="487.76315"
       y1="157.10527"
       x1="150.92105"
       stroke="#0000bf"
       fill="none" />
    <line
       stroke-width="3"
       id="svg_45"
       y2="173.55264"
       x2="458.81577"
       y1="216.97369"
       x1="123.94737"
       stroke="#0000bf"
       fill="#d8d8d8" />
    <line
       stroke-width="3"
       id="svg_47"
       y2="213.68422"
       x2="490.39474"
       y1="257.76315"
       x1="153.55263"
       stroke="#0000bf"
       fill="#d8d8d8" />
  </g>
</svg>
