<?xml version="1.0" encoding="UTF-8"?>
<svg id="Layer_1" data-name="Layer 1" xmlns="http://www.w3.org/2000/svg" viewBox="0 0 717.93 160">
  <path d="m170.16,86.56l-6.1-16.37c-.42-1.13-1.35-2.02-2.51-2.4-3.69-.82-7.74-1.91-12.05-3.36-4.06-1.36-7.74-2.84-11.02-4.32-.33-.11-.98-.28-1.78-.18-.59.07-1.16.27-1.67.6l-14.7,9.45c-.76.49-1.3,1.21-1.57,2.01-.37,1.1-.09,2.1.05,2.55.92,3.11,2.27,6.03,3.09,8.24.32.86,2.29,6.32,3.02,8.13.09.22.37.9.98,1.48.43.41.95.73,1.53.92,3.93.9,8.23,2.09,12.78,3.65,3.74,1.28,7.17,2.65,10.29,4.03.33.11.98.28,1.78.18.59-.07,1.16-.27,1.67-.6l14.7-9.45c1.53-.98,2.15-2.87,1.52-4.57Zm-11.46.32c-1.76,3.3-6.69,4.09-11.02,1.76-4.33-2.33-6.41-6.9-4.66-10.2s6.69-4.09,11.02-1.76c4.33,2.33,6.41,6.9,4.66,10.2Z"/>
  <path d="m172.53,86.99l-6.44-18.53c-.44-1.28-1.44-2.27-2.71-2.7-4.03-.88-8.46-2.06-13.16-3.64-4.43-1.49-8.44-3.11-12.01-4.74-.36-.12-1.07-.3-1.95-.18-.65.09-1.28.33-1.84.71l-16.26,10.98c-.84.57-1.44,1.39-1.75,2.31-.42,1.26-.13,2.39.01,2.9.96,3.52,2.4,6.82,3.26,9.32.33.97,2.41,7.16,3.18,9.21.09.25.39,1.02,1.05,1.67.46.46,1.03.82,1.67,1.03,4.3.97,8.98,2.25,13.95,3.95,4.08,1.4,7.82,2.9,11.22,4.43.36.12,1.07.3,1.95.18.65-.09,1.28-.33,1.84-.71l16.26-10.98c1.69-1.14,2.4-3.29,1.74-5.22Zm-3.02,4.57l-15.32,10.06c-.53.35-1.12.56-1.74.64-.84.11-1.5-.06-1.85-.18-3.23-1.44-6.79-2.86-10.66-4.19-4.72-1.62-9.17-2.84-13.25-3.77-.6-.2-1.14-.53-1.59-.96-.63-.61-.92-1.33-1.01-1.56-.74-1.91-2.76-7.66-3.08-8.56-.83-2.32-2.22-5.39-3.16-8.67-.14-.48-.42-1.53-.04-2.69.28-.85.85-1.61,1.64-2.13l15.32-10.06c.53-.35,1.12-.56,1.74-.64.84-.11,1.5.06,1.85.18,3.4,1.54,7.21,3.07,11.42,4.49,4.47,1.5,8.66,2.62,12.49,3.47,1.21.4,2.16,1.33,2.59,2.52l6.24,17.23c.65,1.79-.02,3.78-1.61,4.83Z"/>
  <g>
    <path d="m94.44,97.06c9.42,27.13,39.05,41.49,66.18,32.07,27.13-9.42,41.49-39.05,32.07-66.18-9.42-27.13-39.05-41.49-66.18-32.07-27.13,9.42-41.49,39.05-32.07,66.18Zm93.52-32.47c8.51,24.52-4.46,51.3-28.98,59.82-24.52,8.51-51.3-4.46-59.82-28.98-8.51-24.52,4.46-51.3,28.98-59.82,24.52-8.51,51.3,4.46,59.82,28.98Z"/>
    <path d="m29.05,128.23c-4.17,1.45-8.73-.76-10.18-4.93s.76-8.73,4.93-10.18l7.12-2.47c-2.47-1.11-5.34-1.32-8.1-.36-5.74,1.99-8.78,8.26-6.78,14s8.26,8.78,14,6.78c2.76-.96,4.88-2.91,6.13-5.31l-7.12,2.47Z"/>
    <polygon points="23.8 113.12 26.63 112.13 38.92 107.87 92.76 89.17 98.01 104.29 44.16 122.98 31.88 127.25 29.05 128.23 30.03 131.06 101.83 106.14 94.61 85.35 22.82 110.28 23.8 113.12"/>
    <path d="m29.04,114.47c.18.52.75.8,1.27.62l49.12-17.06c.52-.18.8-.75.62-1.27s-.75-.8-1.27-.62l-49.12,17.06c-.52.18-.8.75-.62,1.27Z"/>
    <path d="m95.3,108.4l1.92-.67c-1.86-3.11-3.43-6.46-4.67-10.02s-2.08-7.16-2.55-10.76l-1.92.67c.5,3.59,1.35,7.19,2.58,10.75s2.8,6.91,4.63,10.04Z"/>
    <path d="m128.8,37.49c-13.87,4.82-24.55,16.13-28.54,30.27h0c-.09.3-.05.63.15.9.34.45.98.53,1.42.19.18-.14.29-.34.35-.54h0c3.7-13.04,13.49-24.14,27.27-28.92,3.28-1.14,6.61-1.85,9.93-2.17h0c.32-.05.62-.22.77-.53.26-.5.06-1.11-.44-1.37-.17-.09-.35-.11-.53-.09h0c-3.54.34-7.03,1.11-10.39,2.27Z"/>
  </g>
  <g>
    <path d="m294.02,98.25c-.94,9.99-4.63,17.77-11.05,23.36-6.43,5.59-14.97,8.39-25.64,8.39-7.45,0-14.02-1.77-19.7-5.3-5.68-3.53-10.06-8.56-13.14-15.07-3.08-6.51-4.69-14.07-4.82-22.69v-8.74c0-8.82,1.56-16.6,4.69-23.33,3.13-6.73,7.62-11.91,13.46-15.55s12.61-5.46,20.28-5.46c10.32,0,18.64,2.8,24.94,8.39,6.3,5.59,9.96,13.51,10.99,23.75h-16.2c-.77-6.73-2.73-11.58-5.88-14.56-3.15-2.98-7.77-4.47-13.85-4.47-7.07,0-12.5,2.58-16.29,7.75s-5.73,12.75-5.82,22.74v8.3c0,10.12,1.81,17.84,5.43,23.16s8.92,7.98,15.91,7.98c6.38,0,11.18-1.43,14.4-4.31,3.21-2.87,5.25-7.65,6.1-14.33h16.2Z"/>
    <path d="m337.92,130c-9.9,0-17.92-3.12-24.07-9.35s-9.22-14.53-9.22-24.9v-1.93c0-6.94,1.34-13.14,4.02-18.6,2.68-5.46,6.44-9.71,11.28-12.76s10.24-4.56,16.2-4.56c9.47,0,16.78,3.02,21.95,9.06,5.16,6.04,7.74,14.59,7.74,25.64v6.3h-45.44c.47,5.74,2.39,10.28,5.75,13.62s7.59,5.01,12.69,5.01c7.16,0,12.98-2.89,17.48-8.67l8.42,8.03c-2.79,4.16-6.5,7.38-11.15,9.67-4.65,2.29-9.86,3.44-15.65,3.44Zm-1.86-59.58c-4.28,0-7.74,1.5-10.38,4.5-2.63,3-4.32,7.18-5.04,12.53h29.76v-1.16c-.34-5.23-1.74-9.18-4.18-11.86-2.44-2.68-5.83-4.02-10.15-4.02Z"/>
    <path d="m394.8,128.71h-15.62V30h15.62v98.71Z"/>
    <path d="m428.67,128.71h-15.62V30h15.62v98.71Z"/>
    <path d="m463.71,94.01v34.7h-16.26V35.14h35.8c10.45,0,18.75,2.72,24.9,8.17,6.15,5.45,9.22,12.65,9.22,21.62s-3.01,16.32-9.03,21.42-14.45,7.66-25.29,7.66h-19.34Zm0-13.11h19.54c5.78,0,10.19-1.36,13.24-4.08,3.04-2.72,4.56-6.65,4.56-11.79s-1.54-9.09-4.63-12.11c-3.08-3.02-7.32-4.57-12.72-4.66h-19.99v32.65Z"/>
    <path d="m530.36,41.12c0-2.4.76-4.39,2.28-5.98,1.52-1.58,3.7-2.38,6.52-2.38s5.01.79,6.56,2.38c1.54,1.59,2.32,3.58,2.32,5.98s-.77,4.32-2.32,5.88c-1.54,1.56-3.73,2.35-6.56,2.35s-5-.78-6.52-2.35-2.28-3.52-2.28-5.88Zm16.58,87.6h-15.62V59.18h15.62v69.54Z"/>
    <path d="m592.77,117.53c3.9,0,7.14-1.13,9.71-3.4,2.57-2.27,3.94-5.08,4.11-8.42h14.72c-.17,4.33-1.52,8.37-4.05,12.12s-5.95,6.71-10.28,8.9c-4.33,2.19-9,3.28-14.01,3.28-9.73,0-17.44-3.15-23.14-9.45-5.7-6.3-8.55-14.99-8.55-26.09v-1.61c0-10.58,2.83-19.06,8.48-25.42,5.66-6.36,13.37-9.54,23.14-9.54,8.27,0,15.01,2.41,20.21,7.23,5.21,4.82,7.94,11.15,8.2,18.99h-14.72c-.17-3.98-1.53-7.26-4.08-9.83-2.55-2.57-5.79-3.86-9.74-3.86-5.06,0-8.96,1.83-11.69,5.49-2.74,3.66-4.14,9.22-4.18,16.68v2.5c0,7.54,1.36,13.16,4.08,16.87,2.72,3.71,6.65,5.56,11.79,5.56Z"/>
    <path d="m655.95,98.89l-6.94,7.13v22.69h-15.62V30h15.62v56.94l4.88-6.11,19.22-21.66h18.77l-25.84,28.98,28.6,40.55h-18.06l-20.63-29.82Z"/>
  </g>
</svg>