<?xml version="1.0" encoding="UTF-8"?>
<svg id="Layer_1" data-name="Layer 1" xmlns="http://www.w3.org/2000/svg" viewBox="0 0 220 220">
  <path d="m174.78,93.6l-6.1-16.37c-.42-1.13-1.35-2.02-2.51-2.4-3.69-.82-7.74-1.91-12.05-3.36-4.06-1.36-7.74-2.84-11.02-4.32-.33-.11-.98-.28-1.78-.18-.59.07-1.16.27-1.67.6l-14.7,9.45c-.76.49-1.3,1.21-1.57,2.01-.37,1.1-.09,2.1.05,2.55.92,3.11,2.27,6.03,3.09,8.24.32.86,2.29,6.32,3.02,8.13.09.22.37.9.98,1.48.43.41.95.73,1.53.92,3.93.9,8.23,2.09,12.78,3.65,3.74,1.28,7.17,2.65,10.29,4.03.33.11.98.28,1.78.18.59-.07,1.16-.27,1.67-.6l14.7-9.45c1.53-.98,2.15-2.87,1.52-4.57Zm-11.46.32c-1.76,3.3-6.69,4.09-11.02,1.76-4.33-2.33-6.41-6.9-4.66-10.2s6.69-4.09,11.02-1.76c4.33,2.33,6.41,6.9,4.66,10.2Z"/>
  <path d="m177.16,94.02l-6.44-18.53c-.44-1.28-1.44-2.27-2.71-2.7-4.03-.88-8.46-2.06-13.16-3.64-4.43-1.49-8.44-3.11-12.01-4.74-.36-.12-1.07-.3-1.95-.18-.65.09-1.28.33-1.84.71l-16.26,10.98c-.84.57-1.44,1.39-1.75,2.31-.42,1.26-.13,2.39.01,2.9.96,3.52,2.4,6.82,3.26,9.32.33.97,2.41,7.16,3.18,9.21.09.25.39,1.02,1.05,1.67.46.46,1.03.82,1.67,1.03,4.3.97,8.98,2.25,13.95,3.95,4.08,1.4,7.82,2.9,11.22,4.43.36.12,1.07.3,1.95.18.65-.09,1.28-.33,1.84-.71l16.26-10.98c1.69-1.14,2.4-3.29,1.74-5.22Zm-3.02,4.57l-15.32,10.06c-.53.35-1.12.56-1.74.64-.84.11-1.5-.06-1.85-.18-3.23-1.44-6.79-2.86-10.66-4.19-4.72-1.62-9.17-2.84-13.25-3.77-.6-.2-1.14-.53-1.59-.96-.63-.61-.92-1.33-1.01-1.56-.74-1.91-2.76-7.66-3.08-8.56-.83-2.32-2.22-5.39-3.16-8.67-.14-.48-.42-1.53-.04-2.69.28-.85.85-1.61,1.64-2.13l15.32-10.06c.53-.35,1.12-.56,1.74-.64.84-.11,1.5.06,1.85.18,3.4,1.54,7.21,3.07,11.42,4.49,4.47,1.5,8.66,2.62,12.49,3.47,1.21.4,2.16,1.33,2.59,2.52l6.24,17.23c.65,1.79-.02,3.78-1.61,4.83Z"/>
  <g>
    <path d="m99.07,104.09c9.42,27.13,39.05,41.49,66.18,32.07s41.49-39.05,32.07-66.18-39.05-41.49-66.18-32.07c-27.13,9.42-41.49,39.05-32.07,66.18Zm93.52-32.47c8.51,24.52-4.46,51.3-28.98,59.82-24.52,8.51-51.3-4.46-59.82-28.98-8.51-24.52,4.46-51.3,28.98-59.82,24.52-8.51,51.3,4.46,59.82,28.98Z"/>
    <path d="m33.68,135.27c-4.17,1.45-8.73-.76-10.18-4.93s.76-8.73,4.93-10.18l7.12-2.47c-2.47-1.11-5.34-1.32-8.1-.36-5.74,1.99-8.78,8.26-6.78,14s8.26,8.78,14,6.78c2.76-.96,4.88-2.91,6.13-5.31l-7.12,2.47Z"/>
    <polygon points="28.43 120.15 31.26 119.17 43.55 114.9 97.39 96.21 102.64 111.32 48.79 130.02 36.51 134.28 33.68 135.27 34.66 138.1 106.46 113.17 99.24 92.39 27.45 117.32 28.43 120.15"/>
    <path d="m33.67,121.51c.18.52.75.8,1.27.62l49.12-17.06c.52-.18.8-.75.62-1.27s-.75-.8-1.27-.62l-49.12,17.06c-.52.18-.8.75-.62,1.27Z"/>
    <path d="m99.93,115.44l1.92-.67c-1.86-3.11-3.43-6.46-4.67-10.02s-2.08-7.16-2.55-10.76l-1.92.67c.5,3.59,1.35,7.19,2.58,10.75s2.8,6.91,4.63,10.04Z"/>
    <path d="m133.43,44.53c-13.87,4.82-24.55,16.13-28.54,30.27h0c-.09.3-.05.63.15.9.34.45.98.53,1.42.19.18-.14.29-.34.35-.54h0c3.7-13.04,13.49-24.14,27.27-28.92,3.28-1.14,6.61-1.85,9.93-2.17h0c.32-.05.62-.22.77-.53.26-.5.06-1.11-.44-1.37-.17-.09-.35-.11-.53-.09h0c-3.54.34-7.03,1.11-10.39,2.27Z"/>
  </g>
  <g>
    <path d="m47.42,170.93c-.36,3.82-1.77,6.79-4.22,8.93-2.46,2.14-5.72,3.21-9.8,3.21-2.85,0-5.36-.68-7.53-2.03-2.17-1.35-3.84-3.27-5.02-5.76-1.18-2.49-1.79-5.38-1.84-8.67v-3.34c0-3.37.6-6.34,1.79-8.91,1.19-2.57,2.91-4.55,5.15-5.94s4.82-2.09,7.75-2.09c3.95,0,7.12,1.07,9.53,3.2,2.41,2.14,3.81,5.16,4.2,9.07h-6.19c-.29-2.57-1.04-4.42-2.25-5.56-1.2-1.14-2.97-1.71-5.29-1.71-2.7,0-4.78.99-6.23,2.96s-2.19,4.87-2.22,8.69v3.17c0,3.87.69,6.82,2.08,8.85s3.41,3.05,6.08,3.05c2.44,0,4.27-.55,5.5-1.65,1.23-1.1,2-2.92,2.33-5.48h6.19Z"/>
    <path d="m64.19,183.07c-3.78,0-6.85-1.19-9.2-3.57s-3.52-5.55-3.52-9.52v-.74c0-2.65.51-5.02,1.54-7.11,1.02-2.09,2.46-3.71,4.31-4.87s3.91-1.74,6.19-1.74c3.62,0,6.41,1.15,8.39,3.46s2.96,5.57,2.96,9.8v2.41h-17.36c.18,2.19.91,3.93,2.2,5.21s2.9,1.92,4.85,1.92c2.73,0,4.96-1.1,6.68-3.31l3.22,3.07c-1.06,1.59-2.48,2.82-4.26,3.7-1.78.88-3.77,1.31-5.98,1.31Zm-.71-22.76c-1.64,0-2.96.57-3.97,1.72-1.01,1.15-1.65,2.74-1.93,4.79h11.37v-.44c-.13-2-.66-3.51-1.6-4.53-.93-1.02-2.23-1.53-3.88-1.53Z"/>
    <path d="m85.93,182.57h-5.97v-37.72h5.97v37.72Z"/>
    <path d="m98.87,182.57h-5.97v-37.72h5.97v37.72Z"/>
    <path d="m112.26,169.31v13.26h-6.21v-35.76h13.68c3.99,0,7.17,1.04,9.52,3.12,2.35,2.08,3.52,4.83,3.52,8.26s-1.15,6.24-3.45,8.19-5.52,2.93-9.66,2.93h-7.39Zm0-5.01h7.47c2.21,0,3.9-.52,5.06-1.56,1.16-1.04,1.74-2.54,1.74-4.51s-.59-3.47-1.77-4.63c-1.18-1.15-2.8-1.75-4.86-1.78h-7.64v12.48Z"/>
    <path d="m137.73,149.1c0-.92.29-1.68.87-2.28.58-.61,1.41-.91,2.49-.91s1.92.3,2.5.91c.59.61.88,1.37.88,2.28s-.29,1.65-.88,2.25c-.59.6-1.42.9-2.5.9s-1.91-.3-2.49-.9-.87-1.35-.87-2.25Zm6.34,33.47h-5.97v-26.57h5.97v26.57Z"/>
    <path d="m161.57,178.3c1.49,0,2.73-.43,3.71-1.3.98-.87,1.51-1.94,1.57-3.22h5.62c-.07,1.65-.58,3.2-1.55,4.63s-2.28,2.57-3.93,3.4c-1.65.83-3.44,1.25-5.35,1.25-3.72,0-6.66-1.2-8.84-3.61-2.18-2.41-3.27-5.73-3.27-9.97v-.61c0-4.04,1.08-7.28,3.24-9.71s5.11-3.65,8.84-3.65c3.16,0,5.73.92,7.72,2.76,1.99,1.84,3.03,4.26,3.13,7.26h-5.62c-.07-1.52-.59-2.77-1.56-3.76-.97-.98-2.21-1.47-3.72-1.47-1.93,0-3.42.7-4.47,2.1-1.05,1.4-1.58,3.52-1.6,6.37v.96c0,2.88.52,5.03,1.56,6.45,1.04,1.42,2.54,2.12,4.51,2.12Z"/>
    <path d="m185.72,171.18l-2.65,2.73v8.67h-5.97v-37.72h5.97v21.76l1.87-2.33,7.34-8.28h7.17l-9.87,11.08,10.93,15.5h-6.9l-7.88-11.39Z"/>
  </g>
</svg>