<?xml version="1.0" encoding="UTF-8"?>
<!DOCTYPE svg PUBLIC "-//W3C//DTD SVG 1.1//EN" "http://www.w3.org/Graphics/SVG/1.1/DTD/svg11.dtd">
<!-- Creator: CorelDRAW 2018 (64 Bit) -->
<svg xmlns="http://www.w3.org/2000/svg" xml:space="preserve" width="202px" height="354px" version="1.1" style="shape-rendering:geometricPrecision; text-rendering:geometricPrecision; image-rendering:optimizeQuality; fill-rule:evenodd; clip-rule:evenodd"
viewBox="0 0 6.82 11.94"
 xmlns:xlink="http://www.w3.org/1999/xlink">
 <defs>
  <style type="text/css">
   <![CDATA[
    .fil6 {fill:#99A7AC}
    .fil10 {fill:#9AA7AC}
    .fil2 {fill:#A6A4A5}
    .fil1 {fill:#A6A5A5}
    .fil25 {fill:#B0B9BE}
    .fil5 {fill:#B1B9BF}
    .fil24 {fill:#B2BABF}
    .fil7 {fill:#BBC5C8}
    .fil26 {fill:#BCC0B1}
    .fil3 {fill:#BDC0B2}
    .fil0 {fill:#C3C6C3}
    .fil11 {fill:#C6C8C2}
    .fil17 {fill:#C9CBC6}
    .fil20 {fill:#CACCC8}
    .fil4 {fill:#CBC4C4}
    .fil27 {fill:#CBC4C5}
    .fil21 {fill:#CBCECE}
    .fil13 {fill:#CBCFD0}
    .fil15 {fill:#CCCECA}
    .fil22 {fill:#CCCFCE}
    .fil18 {fill:#CDD1D2}
    .fil23 {fill:#CED1CE}
    .fil19 {fill:#CED1CF}
    .fil16 {fill:#CED2D4}
    .fil14 {fill:#CFD2CF}
    .fil12 {fill:#CFD3D5}
    .fil9 {fill:#D6D1CC}
    .fil8 {fill:#E6E9E7}
   ]]>
  </style>
 </defs>
 <g id="Ebene_x0020_1">
  <metadata id="CorelCorpID_0Corel-Layer"/>
  <g id="_3079361644704">
   <g>
    <path class="fil0" d="M0.48 7.21l0 -0.04 -0.05 0c0,0.05 -0.01,0.04 0.05,0.04z"/>
    <polygon class="fil0" points="0.57,6.81 0.57,6.76 0.54,6.81 "/>
   </g>
   <g>
    <path class="fil1" d="M6.48 3.8c-0.14,0.09 0.01,0.11 -0.14,0.16 0.11,0.16 0.11,0.19 0,0.34l0.14 -0.04 0.07 -0.28 -0.07 -0.18z"/>
    <path class="fil1" d="M3.34 3.96l0.07 0.31 0.13 0.03c-0.1,-0.1 -0.07,-0.13 -0.07,-0.37 -0.06,0.03 -0.03,0.02 -0.13,0.03z"/>
    <path class="fil1" d="M6.48 3.8c0.14,0 0.11,-0.02 0.2,0.03l0 -0.1c-0.17,0 -0.13,-0.03 -0.2,0.07z"/>
   </g>
   <g>
    <path class="fil2" d="M4.15 4.64c0,0.21 -0.01,0.26 0.34,0.44 0,0.22 0.01,0.2 -0.24,0.2 -0.01,-0.01 -0.03,-0.06 -0.05,-0.08 -0.05,-0.06 -0.01,-0.03 -0.08,-0.05 0.04,0.09 0.03,0.03 0.03,0.16 0.16,0.01 0.24,0.09 0.38,-0.02 0.19,-0.16 0.04,-0.29 -0.1,-0.39 -0.13,-0.08 -0.18,-0.08 -0.18,-0.26 0.26,-0.06 0.14,0.05 0.34,0.1 -0.04,-0.09 -0.03,-0.04 -0.04,-0.17 -0.17,0.08 -0.13,-0.09 -0.4,0.07z"/>
    <path class="fil2" d="M6.01 4.13c0,-0.07 0.01,-0.04 0.03,-0.13 0.23,0 0.21,0.09 0.17,0.27 -0.09,0 -0.08,0.02 -0.14,-0.03 -0.02,-0.01 -0.06,-0.1 -0.06,-0.11zm-0.07 -0.1l0 0.2c0.2,0.14 0.17,0.14 0.37,0l0 -0.2c-0.17,-0.11 -0.2,-0.11 -0.37,0z"/>
    <path class="fil2" d="M4.32 4.3l0.1 -0.03 0 -0.2c0.09,-0.05 0.04,-0.04 0.17,-0.04l-0.27 -0.07c0.03,0.14 0.07,0.2 0,0.34z"/>
    <path class="fil2" d="M4.93 3.83c0.09,-0.02 0.04,0 0.1,-0.07l-0.1 0 0 0.07z"/>
   </g>
   <g>
    <path class="fil2" d="M3.41 4.94c-0.1,0.03 -0.11,0.04 -0.24,0.04l0 -0.37c0.22,0.01 0.33,0.13 0.24,0.33zm-0.48 -0.3c0.18,0.01 0.14,0.12 0.14,0.47 0,0.12 -0.02,0.17 -0.14,0.17l0.24 0 0 -0.27c0.15,0 0.13,0.01 0.21,0.09 0.25,0.26 0.2,0.21 0.7,0.21 0,0 -0.01,-0.02 -0.02,-0.01 0,0.01 -0.02,-0.01 -0.03,-0.03 -0.06,-0.07 -0.05,0.04 -0.05,-0.09l0 -0.44c0,-0.13 0.05,-0.03 0.1,-0.17l-0.27 0c0.02,0.09 -0.01,0.04 0.07,0.07 0,1 -0.06,0.62 -0.44,0.37 0.03,-0.04 0.14,-0.16 0.14,-0.2 0,-0.29 -0.62,-0.3 -0.65,-0.17z"/>
    <path class="fil2" d="M2.6 5.28c-0.14,0 -0.11,-0.09 -0.11,-0.34l0.24 0c0.11,0.22 0.05,0.34 -0.13,0.34zm0.13 -0.4l-0.24 0 0 -0.27c0.12,0 0.27,0.05 0.27,0.13 0,0.01 -0.03,0.14 -0.03,0.14zm-0.37 -0.24l0 0.64 -0.14 0.03c0.18,0 0.54,0.04 0.63,-0.04 0.14,-0.13 0.07,-0.28 -0.05,-0.36 0.04,-0.07 0.06,-0.09 0.1,-0.17l-0.05 -0.06c-0.04,-0.05 0,-0.01 -0.04,-0.05 -0.12,-0.1 -0.36,-0.06 -0.55,-0.06 0.03,0.08 -0.07,0.07 0.1,0.07z"/>
    <path class="fil2" d="M5.5 4.98c0,-0.56 0.57,-0.4 0.57,-0.04 0,0.21 -0.05,0.22 -0.13,0.34 -0.14,0 -0.44,0.03 -0.44,-0.3zm-0.14 -0.07c0,0.66 0.85,0.5 0.85,0.03 0,-0.5 -0.85,-0.47 -0.85,-0.03z"/>
    <path class="fil2" d="M4.62 4.77c0.12,-0.04 0.03,0.03 0.1,-0.13l0.21 0 0 0.64 0.13 0 0 -0.64 0.2 0c0.06,0.11 0.01,0.06 0.1,0.13 0,-0.1 -0.01,-0.12 -0.03,-0.2l-0.67 0c-0.01,0.1 -0.02,0.13 -0.04,0.2z"/>
    <path class="fil2" d="M6.31 4.64l0 0.64 0.44 0.03c0.04,-0.06 0.05,-0.08 0.07,-0.16 -0.17,0.11 -0.02,0.1 -0.37,0.1l0 -0.61c0.17,-0.02 0.06,0.03 0.1,-0.07l-0.34 0c0.03,0.08 -0.07,0.07 0.1,0.07z"/>
    <path class="fil2" d="M2.56 4.34c0.37,0 0.25,-0.4 0.28,-0.5l0.06 -0.08 -0.2 0c0.1,0.16 0.08,0.27 0.03,0.47 -0.27,0.07 -0.16,0.05 -0.34,-0.06l0.01 -0.33c0,-0.01 0.01,-0.02 0.01,-0.03l0.03 -0.03c0.01,-0.01 0.02,-0.01 0.02,-0.02l-0.19 0.05c0.03,0.05 0.02,0.02 0.02,0.08 0.01,0.11 -0.05,0.45 0.27,0.45z"/>
    <path class="fil2" d="M5.53 4.34c0,0.02 -0.1,0.12 -0.13,0.16 0.21,-0.01 0.13,-0.15 0.34,-0.54l-0.14 0c0.06,0.12 0.01,0.1 0,0.24 -0.06,-0.04 -0.14,-0.13 -0.1,-0.21l-0.12 0.02c0.01,0.01 0.01,0.02 0.02,0.02l0.13 0.31z"/>
    <path class="fil2" d="M4.15 4l0 0.07 -0.14 0c0.08,-0.11 -0.02,-0.06 0.14,-0.07zm-0.2 0.03c0,0.46 0.26,0.31 0.3,0.17 -0.07,0.05 -0.21,0.17 -0.24,-0.1l0.24 0c-0.01,-0.16 -0.03,-0.11 -0.13,-0.17 -0.08,0.04 -0.11,0.06 -0.17,0.1z"/>
    <path class="fil2" d="M4.62 3.96l0 0.17c0.13,0.04 0.15,0.06 0.1,0.17 -0.04,-0.03 0,0.01 -0.05,-0.04 -0.01,-0.01 -0.01,-0.02 -0.02,-0.02 0,-0.01 -0.01,-0.02 -0.01,-0.02 -0.01,0 -0.01,-0.01 -0.02,-0.02l0 0.14c0.1,-0.01 0.13,-0.02 0.2,-0.04 0,-0.32 -0.06,-0.05 -0.13,-0.3l0.13 0.04 0 -0.08c-0.13,-0.02 -0.04,-0.01 -0.2,0z"/>
    <path class="fil2" d="M3.71 4.34c0.11,-0.08 0.1,-0.18 0.24,-0.38l-0.11 0.04c-0.03,0.07 -0.04,0.12 -0.06,0.2 -0.09,-0.06 -0.11,-0.14 -0.07,-0.24l-0.17 0c0.07,0.11 0.14,0.24 0.17,0.38z"/>
    <path class="fil2" d="M4.89 3.96c0.03,0.14 0.09,0.23 -0.03,0.34l0.2 0c-0.09,-0.19 0.07,-0.42 -0.17,-0.34z"/>
    <path class="fil2" d="M5.09 4c0.03,0.06 0.02,0.57 0.24,0.23 -0.14,0.04 -0.13,0.07 -0.13,-0.23l0 -0.04c0,-0.17 0,-0.05 -0.04,-0.1 -0.02,0.1 -0.01,0.06 -0.07,0.14z"/>
    <path class="fil2" d="M3.07 4c-0.08,-0.02 -0.08,-0.03 -0.17,-0.04 0.03,0.14 0.07,0.2 0,0.34l0.17 0c-0.11,-0.16 -0.08,-0.18 0,-0.3z"/>
    <path class="fil2" d="M3.07 4l0.1 0c0,0.18 0.03,0.19 -0.05,0.29 0,0 -0.01,0.01 -0.02,0.01l0.14 -0.04c0.01,-0.12 0.04,-0.08 0.02,-0.18l-0.09 -0.15 -0.1 0.07z"/>
   </g>
   <g>
    <path class="fil3" d="M1.45 7.17l0.03 0 -0.03 0.04 0 -0.04zm0 0c-0.18,-0.01 -0.21,-0.09 -0.37,-0.13l0 -0.07c0.09,-0.02 0.1,-0.03 0.17,-0.07 0.08,0.12 0.12,0.12 0.2,0.27zm-0.97 0c0.02,-0.05 0.04,-0.09 0.06,-0.17l0.22 0.06 -0.28 0.11zm0.6 -0.27l0 0.04 -0.04 -0.03 0.04 -0.01zm-0.48 -0.03l0.15 0.05c0.04,0.03 0.03,0.03 0.06,0.05 -0.3,-0.03 -0.18,-0.07 -0.21,-0.1zm0.48 0.03c0.01,-0.06 0,-0.05 0.03,-0.1 0.1,0.02 0.05,0 0.1,0.07l-0.13 0.03zm-0.17 0.03c-0.13,-0.02 -0.14,-0.07 -0.27,-0.1l0.19 -0.37c0.01,0.18 0.08,0.28 0.08,0.47zm0.34 -0.1l-0.07 -0.07c0.03,-0.14 0.06,-0.1 0.1,-0.23 0.17,0 0.24,0.06 0.4,0.07l0 0.07c-0.16,0.03 -0.29,0.13 -0.43,0.16zm-0.34 -0.33l0.2 0.23c-0.05,0.08 -0.06,0.12 -0.13,0.17 -0.03,-0.12 -0.07,-0.25 -0.07,-0.4zm0 0l-0.04 0 0.03 -0.04 0.01 0.04zm0.03 -0.07c0.15,0 0.18,0.04 0.31,0.07 -0.06,0.11 -0.03,0.09 -0.14,0.17 -0.06,-0.09 -0.12,-0.16 -0.17,-0.24zm0 0l-0.04 -0.03c0.05,-0.01 0.04,-0.02 0.04,0.03zm0.2 -0.03l-0.06 -0.01 -0.07 -0.03c-0.18,0 -0.06,0 -0.11,0.04l-0.13 0.02 -0.2 0.39 -0.03 0 0 0.02c0.02,0.04 0.03,-0.04 0,0.11 -0.16,0 -0.28,-0.03 -0.38,-0.03l-0.03 0.06 0.37 0.02c-0.03,0.08 -0.04,0.1 -0.07,0.18l0.05 0 0 0.04 0.06 0.03c0.02,-0.02 0.02,-0.03 0.07,-0.06 0.05,-0.03 0.06,-0.02 0.1,-0.04 0.09,-0.03 0.11,-0.05 0.2,-0.07l0 -0.14c0.14,0.01 0.14,0.01 0.11,0.14l0.36 0.17 0.17 0.03 0.04 -0.06c-0.09,-0.06 -0.23,-0.24 -0.28,-0.34 0.11,-0.03 0.12,-0.05 0.22,-0.09 0.08,-0.04 0.14,-0.06 0.23,-0.09l-0.01 -0.13c-0.1,0 -0.33,-0.06 -0.4,-0.1 0.04,-0.07 0.06,-0.11 0.11,-0.19 0.06,-0.1 0.1,-0.1 0.12,-0.23l-0.06 0.03c-0.04,0.1 -0.15,0.26 -0.21,0.36 -0.02,0 -0.08,0 -0.1,0 -0.06,-0.02 -0.04,-0.02 -0.07,-0.03z"/>
    <path class="fil3" d="M1.75 6.56l0.07 -0.01c-0.04,-0.14 -0.12,-0.35 -0.14,-0.5l-0.06 0c0.03,0.15 0.12,0.37 0.13,0.51z"/>
    <path class="fil3" d="M1.61 7.21l0.04 0.02c0.02,-0.09 0.05,-0.15 0.08,-0.25 0.03,-0.1 0.05,-0.21 0.09,-0.28l-0.06 -0.01c-0.03,0.09 -0.05,0.17 -0.07,0.25 -0.03,0.1 -0.06,0.15 -0.08,0.27z"/>
   </g>
   <g>
    <path class="fil4" d="M1.65 5.21l0.01 0.01c0,0 -0.01,0 -0.01,-0.01zm0.07 -0.06l0.01 0.01c0,0 -0.02,-0.01 -0.01,-0.01zm-0.1 -0.04l0.01 0.01c0,0 -0.02,0 -0.01,-0.01zm-0.31 -0.07l0.04 0 -0.03 0.04 -0.01 -0.04zm0 0l-0.03 0 0.03 -0.03 0 0.03zm-0.03 -0.1l0 0.04 -0.04 -0.03 0.04 -0.01zm-0.1 -0.03l0.01 0.01c0,0 -0.02,-0.01 -0.01,-0.01zm0.03 -0.07c0.03,-0.03 0.12,0.05 0.04,0.02 0,0 -0.1,0.04 -0.04,-0.02zm0.61 -0.3c0.01,0.14 -0.01,0.06 0.07,0.17l-0.06 0.1c-0.03,-0.09 -0.04,-0.1 -0.08,-0.17l0.07 -0.1zm-0.07 0.1l-0.03 0 0.03 -0.04 0 0.04zm-0.47 0.3c0,0 0.01,-0.02 0.02,-0.01 0,0 0.01,-0.01 0.01,-0.02l0.02 -0.03c0,-0.02 0,-0.04 0.01,-0.08 0.04,-0.1 0.05,-0.08 0.11,-0.16l-0.14 0.04 0.1 -0.14c0.14,0.09 0.07,0.09 0.11,0.27 0.19,0 0.15,-0.01 0.27,0.07 -0.02,0.06 0.02,0 -0.03,0.07 -0.02,0.05 -0.02,0.04 -0.04,0.06l0.07 0.1c-0.12,-0.03 -0.11,-0.02 -0.14,-0.13 -0.19,0 -0.22,-0.03 -0.37,-0.04zm0.54 -0.4l0.07 -0.04 -0.07 0.04zm-0.78 -0.14l0 0.91c0.62,-0.09 0.13,0.04 0.85,0.04 0.07,0 0.1,-0.02 0.1,-0.1l0 -0.85c-0.2,0.01 -0.13,0.06 -0.35,0.01 -0.28,-0.06 -0.35,-0.13 -0.6,-0.01z"/>
    <path class="fil4" d="M0.47 4.17l0.01 0.01c0,0 -0.01,-0.01 -0.01,-0.01zm0.13 -0.04l-0.06 0.04 0.06 -0.04zm-0.37 -0.17c-0.02,0.09 0.02,0.05 -0.07,0.07l0.07 -0.07zm0.37 0.17c0,-0.08 -0.1,0 -0.14,0 -0.14,0 -0.06,0.03 -0.13,-0.1 0.13,0.01 0.11,0.04 0.27,0.04l0 -0.14c0.09,0.04 0.04,0.03 0.17,0.03 -0.04,0.09 -0.03,0.04 -0.03,0.17l-0.14 0zm0 -0.2l-0.23 0 0 -0.17 0.07 -0.06 0.16 -0.01 0 0.24zm-0.37 0.03c0.01,-0.16 -0.03,-0.13 0.1,-0.16l0 0.13c-0.04,0.03 -0.03,0.02 -0.1,0.03zm0.41 -0.1l0.09 -0.11c-0.03,0.16 0.03,0.06 -0.09,0.11zm-0.24 -0.23l0.1 0 0 0.03 -0.1 0 0 -0.03zm-0.34 0.71c0.22,0 0.14,0.04 0.34,0 0.58,-0.12 0.2,-0.07 0.58,-0.04l0 -0.91 -0.21 0 0 0.1 -0.1 0 0 -0.1 -0.1 0 0 0.1 -0.1 0 0 -0.1 -0.14 0 -0.27 0 0 0.95z"/>
    <path class="fil4" d="M0.64 5.01l0 0.07 0.17 0 -0.04 0.06c-0.13,-0.02 -0.13,-0.03 -0.27,0.01 0.03,-0.12 0.02,-0.11 0.14,-0.14zm0.17 0.07l0.01 -0.07 -0.01 0.07zm-0.51 -0.04l0.01 0.01c0,0 -0.01,0 -0.01,-0.01zm0.17 -0.4c0.2,0 0.26,0.07 0.3,0.24 -0.06,0.12 0.01,0.09 -0.13,0.13 0.09,-0.18 -0.02,-0.14 -0.07,-0.27 -0.13,0.1 -0.03,0.15 -0.24,0.17 0.03,0.05 0.02,0.04 0.04,0.1l-0.1 0c-0.04,-0.17 0,-0.42 0.2,-0.47l0 0.1zm-0.41 -0.24l0 0.85c0,0.22 0.54,0.03 0.71,0.03 0.13,0 0.07,0.02 0.21,0.03l0 -0.94c-0.29,-0.02 0.03,-0.08 -0.54,0.04 -0.24,0.04 -0.16,0 -0.38,-0.01z"/>
    <path class="fil4" d="M1.31 4.1l0.01 0.01c0,0 -0.01,-0.01 -0.01,-0.01zm0.61 -0.64c-0.17,0.04 -0.41,0.36 -0.57,0.4 0.06,-0.23 0.15,-0.01 0.06,-0.37l0.08 -0.1c-0.18,0.01 -0.18,0.06 -0.18,0.24 -0.14,0.07 -0.06,-0.01 -0.1,0.1l-0.07 0c0,-0.3 -0.05,-0.27 -0.1,-0.31l0 0.88c0.16,0 0.14,-0.03 0.31,-0.03l0.03 -0.1c0,0.08 0.01,0.08 0.03,0.13 0.12,0 0.15,0.02 0.27,0.04 0.18,0.04 0.08,0 0.27,0l0 -0.04c-0.11,0 -0.27,-0.04 -0.37,-0.07 0.2,-0.14 0.1,-0.1 0.22,-0.15 0.13,-0.06 0.17,0.02 0.19,-0.18 -0.15,0.09 -0.09,0.07 -0.27,0.03 -0.11,0.07 -0.08,0.1 -0.24,0.14 0.08,-0.12 0.41,-0.5 0.44,-0.61z"/>
    <polygon class="fil4" points="1.95,3.42 1.99,3.42 1.96,3.38 "/>
    <polygon class="fil4" points="0.47,4.64 0.43,4.64 0.46,4.68 "/>
   </g>
   <g>
    <path class="fil5" d="M1.31 2.34c0,0.07 0.11,0.21 0.16,0.25 0.28,0.26 0.96,0.14 0.96,-0.42l0 -0.94c0,-0.14 -0.1,-0.1 -0.34,-0.1l0 1.15c-0.15,0.12 -0.09,0.1 -0.37,0.1 -0.08,-0.09 -0.1,-0.09 -0.1,-0.17l0 -1.08 -0.31 0 0 1.21z"/>
    <path class="fil5" d="M3.81 1.23c0,0.3 -0.04,0.24 0.58,0.24 -0.03,0.1 -0.09,0.16 -0.15,0.25 -0.07,0.1 -0.1,0.17 -0.16,0.25 -0.05,0.09 -0.3,0.46 -0.3,0.54 0,0.3 0.64,0.2 1.04,0.2l0 -0.33 -0.6 0 0.6 -1.02c0,-0.33 -0.37,-0.23 -0.91,-0.23 -0.08,0 -0.1,0.02 -0.1,0.1z"/>
    <path class="fil5" d="M5.57 6.29c0,0.39 0.07,0.38 0.57,0.51 0.11,0.03 0.15,0.06 0.27,0.07 -0.01,0.15 -0.03,0.09 -0.1,0.2 -0.51,0 -0.28,0.01 -0.51,-0.13l-0.21 0.19c0.21,0.3 0.31,0.24 0.72,0.24 0.3,0 0.71,-0.61 0.07,-0.81 -0.17,-0.05 -0.38,-0.09 -0.54,-0.16 0.03,-0.13 0.03,-0.08 0.1,-0.17 0.54,0 0.31,-0.02 0.54,0.13l0.17 -0.19c-0.21,-0.31 -0.25,-0.25 -0.71,-0.25 -0.17,0 -0.37,0.2 -0.37,0.37z"/>
    <polygon class="fil5" points="2.06,7.37 2.33,7.37 2.33,6.8 2.8,6.8 2.8,7.37 3.1,7.37 3.1,5.92 2.8,5.92 2.8,6.5 2.33,6.5 2.33,5.92 2.06,5.92 "/>
    <path class="fil5" d="M2.66 1.23l0 1.48 0.31 0 0 -0.64 0.61 0 0 -0.3 -0.61 0 0 -0.3c0.79,0 0.71,0.06 0.71,-0.24 0,-0.17 -0.31,-0.1 -0.78,-0.1 -0.12,0 -0.16,0.05 -0.24,0.1z"/>
    <polygon class="fil5" points="3.85,6.03 3.85,7.37 4.15,7.37 4.15,6.8 4.72,6.8 4.72,6.5 4.15,6.5 4.15,6.23 4.79,6.23 4.79,5.92 3.95,5.92 "/>
    <path class="fil5" d="M1.58 7.27l0.01 0.01c0,0 -0.01,0 -0.01,-0.01zm-1.18 -0.03l0.01 0.01c0,0 -0.01,-0.01 -0.01,-0.01zm0.41 -0.91l0.01 0.01c0,0 -0.02,-0.01 -0.01,-0.01zm0.81 -0.37l0.01 0.01c0,0 -0.02,-0.01 -0.01,-0.01zm0.03 1.27l-0.04 -0.02 -0.02 0 -0.04 0.06 -0.17 -0.03 -0.34 0.01 -0.06 0 -0.44 -0.01 -0.06 -0.03c-0.06,0 -0.05,0.01 -0.05,-0.04 -0.09,0.03 -0.06,0.02 -0.13,0.07l-0.16 -0.14 -0.01 -0.13 0.03 -0.06c0.1,-0.18 0.2,-0.17 0.38,-0.08l0 -0.02 0.03 -0.05c0,-0.2 0.05,-0.27 0.2,-0.34l0.13 -0.02c0.05,-0.04 -0.07,-0.04 0.11,-0.04l0.07 0.03 0.06 0.01c0.18,-0.14 0.04,-0.21 0.38,-0.33l0.06 -0.03 0.04 0.01 0.06 0 0 -0.13c-0.24,0 -0.5,0.09 -0.57,0.34 -0.25,-0.12 -0.6,0.07 -0.68,0.41 -0.35,-0.17 -0.67,0.51 -0.18,0.68 0.16,0.06 1.32,0.04 1.43,-0.01 0,-0.16 0,-0.06 -0.03,-0.11z"/>
    <path class="fil5" d="M3.34 7.37l0.2 0c0.08,0 0.1,-0.02 0.1,-0.1l0 -1.35 -0.3 0 0 1.45z"/>
   </g>
   <g>
    <path class="fil6" d="M0.16 9.54c0,0.15 0.02,0.32 0.06,0.45 0.13,0.5 0.38,0.23 0.38,0.19 0,-0.45 -0.32,-0.4 0.17,-1.39 0.14,-0.26 0.16,-0.5 0.58,-0.5 0.1,0 0.22,0.06 0.27,0.12 0.27,0.32 0,0.76 -0.24,1.26 0.22,0.42 0.37,0 0.49,-0.29 0.12,-0.3 0.42,-0.71 0,-1.18 -0.03,-0.04 -0.18,-0.15 -0.23,-0.17 -0.55,-0.23 -0.89,0.05 -1.11,0.52 -0.05,0.08 -0.08,0.13 -0.12,0.22 -0.04,0.11 -0.05,0.14 -0.1,0.24 -0.06,0.12 -0.15,0.35 -0.15,0.53z"/>
    <path class="fil6" d="M2.8 11.46l-0.1 0 0 -0.2 0.1 0c0.08,0 0.1,0.02 0.1,0.1 0,0.08 -0.02,0.1 -0.1,0.1zm-0.34 0.47l0.24 0 0 -0.27 0.1 0c0.03,0.12 0.08,0.18 0.13,0.27l0.48 0 0 -0.87c-0.32,0 -0.24,-0.03 -0.24,0.81 -0.09,-0.07 -0.11,-0.17 -0.17,-0.27 0.26,-0.18 0.15,-0.54 -0.17,-0.54l-0.37 0 0 0.87z"/>
    <path class="fil6" d="M4.25 11.16c0,0.86 -0.07,0.77 0.24,0.77l0 -0.44c0.08,0.06 0.27,0.34 0.33,0.44l0.21 0 0 -0.87 -0.24 0 0 0.43c-0.19,-0.12 -0.22,-0.43 -0.44,-0.43 -0.08,0 -0.1,0.02 -0.1,0.1z"/>
    <path class="fil6" d="M3.47 11.93c0.31,0 0.24,-0.02 0.24,-0.44l0.16 0.22c0.05,0.09 0.09,0.15 0.14,0.22l0.21 0 0 -0.87 -0.24 0 0 0.43c-0.06,-0.04 -0.28,-0.34 -0.3,-0.43l-0.21 0 0 0.87z"/>
    <path class="fil6" d="M5.3 11.53c0,-0.17 0.03,-0.17 0.1,-0.27 0.23,0 0.13,0.01 0.27,0.1 0,0.21 0.02,0.21 -0.07,0.37l-0.24 0c-0.03,-0.07 -0.06,-0.1 -0.06,-0.2zm-0.24 -0.04c0,0.61 0.85,0.6 0.85,0 0,-0.47 -0.52,-0.55 -0.75,-0.3 -0.06,0.07 -0.1,0.17 -0.1,0.3z"/>
    <path class="fil6" d="M6.14 11.93l0.31 0c0.05,-0.12 0.26,-0.73 0.27,-0.87l-0.24 0 -0.2 0.6c0,-0.13 -0.04,-0.2 -0.08,-0.32 -0.02,-0.06 -0.04,-0.11 -0.05,-0.16 -0.04,-0.14 0.01,-0.12 -0.28,-0.12 0.01,0.13 0.09,0.32 0.13,0.44 0.05,0.14 0.11,0.29 0.14,0.43z"/>
    <polygon class="fil6" points="0.13,11.93 0.74,11.93 0.74,11.76 0.37,11.76 0.37,11.6 0.7,11.6 0.7,11.39 0.37,11.39 0.37,11.26 0.74,11.26 0.74,11.06 0.13,11.06 "/>
    <path class="fil6" d="M1.85 11.93l0.31 0c0.06,-0.29 0.26,-0.68 0.27,-0.87l-0.24 0c-0.02,0.1 -0.06,0.17 -0.09,0.28 -0.02,0.09 -0.08,0.25 -0.08,0.32l-0.03 0c0,-0.08 -0.05,-0.2 -0.08,-0.29 -0.02,-0.1 -0.06,-0.2 -0.09,-0.31l-0.24 0c0.01,0.23 0.2,0.57 0.27,0.87z"/>
   </g>
   <path class="fil7" d="M3.54 10.04c-0.32,0 -0.57,-0.31 -0.36,-0.73l0.29 -0.65c-0.12,-0.24 -0.25,-0.24 -0.36,0.01 -0.04,0.11 -0.1,0.19 -0.14,0.29 -0.18,0.39 -0.37,0.86 0.04,1.21 0.37,0.31 0.85,0.28 1.16,-0.1 0.14,-0.17 0.65,-1.45 0.78,-1.59 0.25,-0.28 0.79,-0.22 0.79,0.35 0,0.11 -0.13,0.35 -0.17,0.44 -0.4,0.79 0.07,0.67 0.17,0.44 0.2,-0.45 0.58,-1.07 0.11,-1.5 -0.37,-0.33 -0.88,-0.28 -1.19,0.08 -0.05,0.07 -0.12,0.22 -0.16,0.31 -0.11,0.27 -0.53,1.29 -0.74,1.39 -0.07,0.04 -0.13,0.05 -0.22,0.05z"/>
   <path class="fil8" d="M1.11 9.64c0,-0.28 0.17,-0.56 0.3,-0.85 0.08,-0.15 0.05,-0.11 0.04,-0.27l-0.24 -0.03c-0.15,0.23 -0.14,0.28 -0.25,0.49 -0.17,0.36 -0.34,0.76 0.02,1.12 0.46,0.45 1.12,0.24 1.31,-0.23 0.06,-0.16 0.12,-0.24 0.18,-0.39l0.18 -0.4c0.15,-0.38 0.36,-0.98 0.86,-0.73 0.47,0.24 0.11,0.77 0.04,0.95 -0.05,0.12 -0.08,0.15 -0.12,0.26 -0.06,0.13 -0.05,0.16 0.01,0.28l0.2 0c0.19,-0.27 0.44,-0.83 0.44,-1.15 0,-0.77 -1.21,-1.01 -1.51,-0.23 -0.06,0.15 -0.12,0.24 -0.18,0.4l-0.36 0.78c-0.13,0.32 -0.36,0.48 -0.69,0.34 -0.12,-0.06 -0.23,-0.2 -0.23,-0.34z"/>
   <path class="fil9" d="M6.24 8.25c0,0.17 0.24,0.56 0,1.02 -0.14,0.27 -0.24,0.68 -0.47,0.81 -0.36,0.2 -0.68,-0.12 -0.68,-0.41 0,-0.2 0.38,-0.82 0.38,-0.91 0,-0.06 -0.05,-0.13 -0.07,-0.17l-0.2 0 -0.36 0.76c-0.02,0.05 -0.08,0.24 -0.08,0.29 -0.02,0.34 0.28,0.81 0.71,0.81 0.75,0 0.74,-0.38 1.07,-1.03 0.16,-0.33 0.19,-0.68 0.08,-1.04 -0.06,-0.19 -0.05,-0.18 -0.21,-0.26 -0.04,0.02 -0.17,0.07 -0.17,0.13z"/>
   <path class="fil10" d="M0.81 11.93l0.23 0 0 -0.44c0.01,0.01 0.02,0.01 0.02,0.02l0.14 0.2c0.06,0.09 0.09,0.15 0.15,0.22l0.2 0 0 -0.87c-0.3,0 -0.24,0.02 -0.24,0.43l-0.3 -0.43 -0.2 0 0 0.87z"/>
   <polygon class="fil5" points="5.03,7.37 5.33,7.37 5.33,5.92 5.03,5.92 "/>
   <path class="fil11" d="M5.47 1.93c-0.03,0.41 -0.2,0.8 -0.47,1.06 -0.14,0.15 -0.18,0.1 -0.18,0.37 0.11,-0.03 0.26,-0.16 0.33,-0.25 0.33,-0.45 0.48,-0.66 0.48,-1.32l-0.16 0.14z"/>
   <path class="fil12" d="M3.55 0.18l0.13 -0.17c-0.32,0 -0.53,0.1 -0.75,0.21 -0.09,0.04 -0.19,0.11 -0.29,0.18 -0.1,0.07 -0.14,0.15 -0.25,0.22l0 0.27c0.15,-0.1 0.21,-0.25 0.48,-0.43l0.49 -0.22c0.11,-0.03 0.09,0 0.19,-0.06z"/>
   <path class="fil13" d="M4.11 0.22c0.17,0 0.18,0.04 0.31,0.05l0.13 -0.1c-0.12,-0.08 -0.17,-0.08 -0.33,-0.12 -0.06,0.09 -0.07,0.05 -0.11,0.17z"/>
   <path class="fil14" d="M4.99 0.68c0.06,0.04 0.05,0.06 0.1,0.12 0.01,0.01 0.03,0.04 0.04,0.05l0.06 0.06c0,0 0.01,0.01 0.02,0.02 0.07,-0.08 0.05,-0.05 0.1,-0.14 -0.05,-0.07 -0.04,-0.07 -0.09,-0.13 -0.04,-0.04 -0.06,-0.06 -0.1,-0.11 -0.05,0.14 -0.01,0.07 -0.13,0.13z"/>
   <path class="fil15" d="M5.33 1.09l0.03 0.17c0.02,0.06 0.03,0.09 0.04,0.15 0.1,-0.06 0.06,-0.07 0.17,-0.11 -0.03,-0.06 -0.04,-0.11 -0.07,-0.17 -0.03,-0.07 -0.05,-0.09 -0.07,-0.17 -0.04,0.11 0,0.07 -0.1,0.13z"/>
   <path class="fil16" d="M3.68 0.01l-0.13 0.17 0.29 0 0.13 -0.17c-0.06,0 -0.09,0 -0.14,-0.01 -0.08,0 -0.03,0 -0.15,0.01z"/>
   <path class="fil17" d="M5.47 1.62l0 0.31 0.16 -0.14c0,-0.14 0.02,-0.13 -0.03,-0.25 -0.07,0.04 -0.07,0.03 -0.13,0.08z"/>
   <path class="fil18" d="M3.84 0.18c0.14,0 0.17,-0.01 0.27,0.04 0.04,-0.12 0.05,-0.08 0.11,-0.17 -0.11,-0.03 -0.11,-0.04 -0.25,-0.04l-0.13 0.17z"/>
   <path class="fil19" d="M4.83 0.52c0.06,0.09 0.07,0.05 0.16,0.16 0.12,-0.06 0.08,0.01 0.13,-0.13l-0.16 -0.13c-0.1,0.04 -0.07,0.02 -0.13,0.1z"/>
   <path class="fil20" d="M5.4 1.41c0.02,0.06 0.01,0.04 0.02,0.1 0.01,0.01 0.01,0.04 0.01,0.05 0.03,0.09 -0.03,0.04 0.04,0.06 0.06,-0.05 0.06,-0.04 0.13,-0.08 0,-0.15 0,-0.13 -0.03,-0.24 -0.11,0.04 -0.07,0.05 -0.17,0.11z"/>
   <path class="fil21" d="M4.42 0.27c0.01,0.01 0.01,0.01 0.02,0.02 0,0.02 0.01,0.02 0.02,0.02 0.11,0.07 0.08,0.02 0.18,0.11 0.05,-0.09 0.04,-0.07 0.1,-0.14 -0.02,-0.02 0.02,-0.01 -0.06,-0.05 -0.04,-0.03 -0.08,-0.04 -0.13,-0.06l-0.13 0.1z"/>
   <path class="fil22" d="M4.64 0.42c0.07,0.04 0.12,0.07 0.19,0.1 0.06,-0.08 0.03,-0.06 0.13,-0.1l-0.09 -0.08c-0.1,-0.07 0,-0.03 -0.13,-0.06 -0.06,0.07 -0.05,0.05 -0.1,0.14z"/>
   <path class="fil23" d="M5.21 0.93c0,0 0,0.01 0.01,0.02l0.04 0.08c0,0.13 -0.01,0.01 0.07,0.06 0.1,-0.06 0.06,-0.02 0.1,-0.13 -0.06,-0.09 -0.07,-0.09 -0.12,-0.17 -0.05,0.09 -0.03,0.06 -0.1,0.14z"/>
   <path class="fil24" d="M0.94 6.97l0.01 0.01c0,0 -0.01,-0.01 -0.01,-0.01zm-0.03 0.1l0.03 0.01 0.08 -0.01c0.03,-0.13 0.03,-0.13 -0.11,-0.14l0 0.14z"/>
   <path class="fil25" d="M1.79 6.6l0.01 0.01c-0.01,0 -0.02,-0.01 -0.01,-0.01zm-0.03 0.09l0.06 0.01c0.07,-0.05 0.04,0 0.07,-0.1l-0.07 -0.05 -0.07 0.01 0.01 0.13z"/>
   <path class="fil26" d="M0.98 7.25l0.06 0c-0.02,-0.09 -0.03,-0.08 -0.02,-0.18l-0.08 0.01c0.05,0.08 0.03,0.03 0.04,0.17z"/>
   <path class="fil1" d="M3.47 3.83l0 -0.07 -0.1 0c0.06,0.08 0.01,0.04 0.1,0.07z"/>
   <polygon class="fil27" points="1.95,3.42 1.92,3.46 "/>
  </g>
 </g>
</svg>
