<?xml version="1.0" encoding="UTF-8"?>
<svg width="128" height="128" version="1.1" viewBox="0 0 33.867 33.867" xmlns="http://www.w3.org/2000/svg">
 <path d="m16.933 5.6628c-6.2242 0-11.27 5.046-11.27 11.27s5.046 11.27 11.27 11.27 11.27-5.0455 11.27-11.27-5.046-11.27-11.27-11.27zm0.01757 5.4116c0.97085 0 1.4563 0.49693 1.4563 1.4904 0 0.24836-0.03407 0.45174-0.1018 0.60979l-0.16898 0.40618-0.44029 1.4221c-0.022578 0.045156-0.034107 0.10177-0.034107 0.1695 0 0.2032 0.090163 0.30489 0.27079 0.30489 0.090312 0 0.23709-0.1127 0.44029-0.33848l0.67748-0.74518c0.65476-0.7225 1.2303-1.0837 1.727-1.0837 0.4064 0 0.75656 0.15779 1.0501 0.47388 0.29351 0.31609 0.44029 0.68879 0.44029 1.1178 0 0.83538-0.67726 1.3659-2.0319 1.5916l-1.4227 0.2372c-0.13547 0-0.20309 0.067622-0.20309 0.20309 0 0.11289 0.18084 0.20305 0.54209 0.27079l1.1173 0.20361c1.2644 0.22578 1.8965 0.77881 1.8965 1.6593 0 0.42898-0.13524 0.79015-0.40618 1.0837-0.27094 0.29351-0.60957 0.44029-1.016 0.44029-0.49672 0-1.0728-0.36117-1.7276-1.0837l-0.88006-0.98238c-0.022578-0.067734-0.090717-0.10129-0.20361-0.10129-0.15805 0-0.23668 0.090163-0.23668 0.27079l0.03359 0.03359 0.067697 0.2713 0.339 1.0837 0.13539 0.47388c0.067734 0.24836 0.10129 0.46327 0.10129 0.6439 0 1.0612-0.47388 1.5916-1.4222 1.5916s-1.4227-0.50794-1.4227-1.524c0-0.31609 0.067623-0.71133 0.20309-1.1855l0.30489-1.0837 0.1018-0.2713v-0.03359c0-0.15805-0.067622-0.2372-0.20309-0.2372-0.11289 0-0.18103 0.022541-0.20361 0.067697l-0.20309 0.2372-0.71108 0.74518c-0.18062 0.22578-0.37248 0.44018-0.57568 0.64338-0.29351 0.29351-0.65468 0.44029-1.0837 0.44029-0.4064 0-0.75656-0.14677-1.0501-0.44029-0.27094-0.29351-0.40618-0.65468-0.40618-1.0837 0-0.88054 0.63218-1.4336 1.8965-1.6593l1.1173-0.20361c0.36125-0.067734 0.54209-0.1579 0.54209-0.27079 0-0.13547-0.067622-0.20309-0.20309-0.20309l-1.4227-0.2372c-1.3547-0.22578-2.0319-0.75626-2.0319-1.5916 0-0.42898 0.14677-0.80168 0.44029-1.1178 0.29351-0.31609 0.64367-0.47388 1.0501-0.47388 0.49672 0 1.0723 0.36117 1.727 1.0837l0.67748 0.74518c0.2032 0.22578 0.34998 0.33848 0.44029 0.33848 0.18062 0 0.27079-0.1127 0.27079-0.33848-0.022578-0.11289-0.034107-0.15849-0.034107-0.13591l-0.10129-0.30438-0.339-1.1178-0.16898-0.40618c-0.067734-0.15805-0.1018-0.36143-0.1018-0.60979 0-0.99343 0.49693-1.4904 1.4904-1.4904z" fill="#ee4e5f"/>
</svg>
