<?xml version="1.0" encoding="UTF-8"?>
<svg width="128" height="128" version="1.1" viewBox="0 0 33.867 33.867" xmlns="http://www.w3.org/2000/svg">
 <path d="m4.2334 7.9376v17.992h25.4v-17.992zm2.6465 2.6461 3.1739-6.3e-5v3.175l-3.1739 6.3e-5zm4.2333-3.3e-5 3.1739-5.2e-5v3.175l-3.1739 5.2e-5zm4.2323-5.2e-5 3.1751 5.2e-5 1e-3 3.175-3.1761-5.2e-5zm8.4673 2.2e-5 3.1767 6.3e-5 5.17e-4 3.175-3.1772-6.3e-5zm-16.933 4.7626 3.1739-6.3e-5v0.52917h1e-3v2.3813h-1e-3v0.26459l-3.1739 6.3e-5zm8.4656-8.5e-5 3.1761 5.2e-5v3.175l-3.1761-5.2e-5zm4.2345 5.2e-5h3.175v3.175h-3.175zm4.2328-3e-5 3.1767 6.3e-5v3.175l-3.1767-6.3e-5zm-16.933 4.7626 3.1739-6.3e-5v3.175l-3.1739 6.3e-5zm4.2333-3.3e-5 3.1739-5.2e-5v3.175l-3.1739 5.2e-5zm8.4668 0h3.175v3.175h-3.175zm4.2328-3e-5 3.1761 6.3e-5v3.175l-3.1761-6.3e-5z" fill="#ee4e5f"/>
</svg>
