<?xml version="1.0" encoding="UTF-8"?>
<svg width="128" height="128" version="1.1" viewBox="0 0 33.867 33.867" xml:space="preserve" xmlns="http://www.w3.org/2000/svg"><path transform="matrix(.75245 0 0 .75245 22.138 58.914)" d="m-1.363-72.251c-2.2378 0.05236-3.479 3.0821-6.2119 3.1056-2.7236 0.02343-3.7389-3.9773-6.2009-2.8124-2.8233 1.3359-0.85911 4.9617-3.0486 7.1892-1.9093 1.9424-5.4562-0.16848-6.3733 2.3962-1.0517 2.941 2.9009 4.116 2.9277 7.2393 0.02343 2.7236-3.9773 3.7389-2.8124 6.2009 1.3359 2.8233 4.9617 0.85911 7.1892 3.0486 1.9424 1.9093-0.16848 5.4562 2.3962 6.3733 2.941 1.0517 4.116-2.9009 7.2393-2.9277 2.7236-0.02343 3.7389 3.9773 6.2009 2.8124 2.8233-1.3359 0.85911-4.9617 3.0486-7.1892 1.9093-1.9424 5.4562 0.16848 6.3733-2.3962 1.0517-2.941-2.9009-4.116-2.9277-7.2393-0.023431-2.7236 3.9773-3.7389 2.8124-6.2009-1.3359-2.8233-4.9617-0.85911-7.1892-3.0486-1.9424-1.9093 0.16848-5.4562-2.3962-6.3733-0.36763-0.13146-0.70774-0.18536-1.0274-0.17788zm-5.2475 8.853c2.2532-0.03354 7.4587 3.5867 9.4746 3.9452l-2.5205 2.5953c-2.2593-1.4493-4.9243-3.3371-6.4301-2.6142-0.79933-1.464-1.6955-2.9236-1.2726-3.6825 0.17085-0.16399 0.42671-0.23902 0.74859-0.24381zm-1.9891 1.1754c0.18815 3.7811 5.9561 8.9574 4.7106 9.8814-0.75888 0.42294-2.2185-0.47327-3.6825-1.2726-0.5344-2.1994-2.3885-3.5634-3.0108-6.0498zm-4.8875 6.9443c1.8843 0.04722 5.7874 3.5062 8.8838 4.0709l-2.2046 1.9985c-1.9913 0.19111-6.0511-3.1556-10.179-3.6647l2.4078-2.3296c0.13452-0.07576 0.89739-0.08013 1.0923-0.07525z" fill="#ee4e5f"/></svg>
