<?xml version="1.0" encoding="UTF-8"?>
<svg width="128" height="128" version="1.1" viewBox="0 0 33.867 33.867" xml:space="preserve" xmlns="http://www.w3.org/2000/svg"><g transform="matrix(.91675 .075662 -.075662 .91675 1.6407 .40392)" fill="#ee4e5f" stroke-linecap="square" stroke-width="2.8764"><path d="m3.5276 11.477c0.12459 0.99728 2.5922 3.3686 6.2041 4.1598l10.912 2.1032s0.61298 0.92591 0.97482 1.3112c0.91583 0.97523 2.1877 1.667 3.6608 1.9906 1.4731 0.32354 2.9182 0.2284 4.1584-0.27326 1.2402-0.50165 2.3472-1.5038 2.6579-2.9186 0.31075-1.4148-0.27404-2.7908-1.1899-3.7661-0.91583-0.9753-2.1881-1.6652-3.6611-1.9887-1.4731-0.32354-2.9178-0.23032-4.1581 0.27137-1.1657 0.47154-2.2916 1.0824-2.6714 2.3655zm21.464 3.5781c0.46831-0.06501 1.0177-0.0549 1.5876 0.07028 0.9119 0.20029 1.6531 0.64586 2.0651 1.0845s0.46977 0.75611 0.42168 0.975c-0.048 0.21892-0.23286 0.48239-0.79071 0.70803-0.55786 0.22566-1.4176 0.31729-2.3296 0.117-0.9119-0.20029-1.654-0.64387-2.0659-1.0826-0.41192-0.43872-0.46717-0.75532-0.41909-0.97421 0.048-0.21891 0.23096-0.48268 0.78882-0.70833 0.2092-0.08461 0.46111-0.15077 0.7421-0.18977z"/><path d="m11.33 2.744c1.0045 0.034033 3.5889 2.2774 4.703 5.8031l3.0799 10.677s0.97747 0.52687 1.3939 0.85244c1.0539 0.82403 1.8578 2.0283 2.313 3.4661 0.45523 1.4379 0.49098 2.8857 0.10334 4.1661-0.38762 1.2804-1.2858 2.4734-2.6667 2.9106-1.381 0.43723-2.8042-0.02092-3.8582-0.84494-1.054-0.82402-1.856-2.0288-2.3112-3.4666-0.45523-1.4379-0.49284-2.8851-0.1052-4.1656 0.36435-1.2036 0.87104-2.38 2.1146-2.8741zm5.5016 21.053c-0.02246 0.47226 0.03722 1.0185 0.21336 1.5748 0.28181 0.89009 0.7925 1.5881 1.2666 1.9587 0.47407 0.37062 0.79544 0.39957 1.0091 0.33192 0.21369-0.06757 0.45939-0.27546 0.63374-0.85141 0.17436-0.57596 0.18799-1.4405-0.09383-2.3306-0.28181-0.89009-0.7906-1.5891-1.2647-1.9597-0.47413-0.37063-0.79442-0.39706-1.0081-0.32941-0.21368 0.06757-0.45985 0.2736-0.63421 0.84956-0.06538 0.21598-0.10851 0.47284-0.12199 0.7562z"/></g></svg>
