<?xml version="1.0" encoding="UTF-8"?>
<!DOCTYPE svg PUBLIC "-//W3C//DTD SVG 1.1//EN" "http://www.w3.org/Graphics/SVG/1.1/DTD/svg11.dtd">
<!-- Creator: CorelDRAW 2018 (64 Bit) -->
<svg xmlns="http://www.w3.org/2000/svg" xml:space="preserve" width="136px" height="34px" version="1.1" style="shape-rendering:geometricPrecision; text-rendering:geometricPrecision; image-rendering:optimizeQuality; fill-rule:evenodd; clip-rule:evenodd"
viewBox="0 0 72.617 17.916"
 xmlns:xlink="http://www.w3.org/1999/xlink">
 <defs>
  <style type="text/css">
   <![CDATA[
    .fil0 {fill:#00589C}
    .fil2 {fill:white}
    .fil1 {fill:#00589C;fill-rule:nonzero}
   ]]>
  </style>
 </defs>
 <g id="Ebene_x0020_1">
  <metadata id="CorelCorpID_0Corel-Layer"/>
  <path class="fil0" d="M18.005 11.239c-1.208,-0.888 -1.256,-0.852 -1.272,-2.301 -0.018,-1.911 0.288,-1.1 1.167,-2.344 -0.289,-0.733 -0.578,-1.465 -0.867,-2.198 -1.693,-0.412 -1.112,0.587 -2.602,-0.915 -1.143,-1.156 -0.722,-0.827 -0.77,-2.507 -0.751,-0.316 -1.503,-0.634 -2.256,-0.952 -1.35,1.025 -0.462,1.223 -2.401,1.24 -1.992,0.018 -1.111,-0.312 -2.523,-1.262 -0.701,0.336 -1.405,0.667 -2.107,1.001 -0.173,1.687 0.386,1.34 -0.956,2.653 -0.941,0.916 -1.007,0.786 -2.404,0.602 -0.338,0.817 -0.677,1.633 -1.014,2.452 1.121,0.818 1.278,0.907 1.29,2.244 0.016,1.64 -0.184,1.364 -1.196,2.384 0.311,0.776 0.624,1.552 0.938,2.327 1.516,0.029 1.375,-0.338 2.501,0.771 1.176,1.16 0.837,1.074 0.789,2.578 0.798,0.303 1.597,0.604 2.397,0.904 1.538,-1.594 1.135,-1.237 3.403,-1.218 0.451,0.398 0.901,0.797 1.351,1.194 0.734,-0.323 1.465,-0.649 2.197,-0.973 0.179,-2.851 0.052,-1.288 1.6,-3.345 0.577,0.053 1.155,0.104 1.735,0.156 0.332,-0.831 0.666,-1.661 1,-2.491z"/>
  <polygon class="fil1" points="30.432,5.525 30.582,4.789 34.042,4.789 33.892,5.525 32.775,5.702 31.263,13.78 30.16,13.78 26.686,7.037 25.596,12.826 27.067,13.003 26.931,13.739 23.485,13.739 23.621,13.003 24.752,12.84 26.073,5.852 25.95,5.62 24.929,5.525 25.078,4.789 27.803,4.789 30.977,10.892 31.944,5.702 "/>
  <path id="1" class="fil1" d="M37.14 7.691c-0.19,0 -0.392,0.079 -0.606,0.238 -0.213,0.159 -0.415,0.379 -0.606,0.661 -0.191,0.281 -0.352,0.604 -0.484,0.967 -0.131,0.363 -0.206,0.745 -0.224,1.144 0.617,-0.218 1.103,-0.461 1.457,-0.729 0.354,-0.267 0.604,-0.542 0.75,-0.824 0.145,-0.281 0.217,-0.545 0.217,-0.79 0,-0.227 -0.05,-0.395 -0.15,-0.504 -0.099,-0.109 -0.217,-0.163 -0.354,-0.163zm-1.457 6.252c-0.709,0 -1.283,-0.227 -1.723,-0.681 -0.441,-0.454 -0.661,-1.08 -0.661,-1.88 0,-0.59 0.102,-1.151 0.306,-1.682 0.205,-0.531 0.489,-1.003 0.852,-1.417 0.363,-0.413 0.79,-0.74 1.28,-0.98 0.491,-0.241 1.022,-0.361 1.594,-0.361 0.618,0 1.088,0.136 1.41,0.408 0.322,0.273 0.484,0.627 0.484,1.063 0,0.572 -0.325,1.105 -0.974,1.6 -0.65,0.495 -1.651,0.911 -3.004,1.247 0.045,0.436 0.186,0.758 0.422,0.967 0.236,0.209 0.541,0.313 0.913,0.313 0.4,0 0.754,-0.1 1.062,-0.299 0.309,-0.2 0.568,-0.432 0.777,-0.695l0.381 0.272c-0.181,0.345 -0.424,0.681 -0.728,1.008 -0.305,0.327 -0.657,0.595 -1.056,0.804 -0.4,0.209 -0.845,0.313 -1.335,0.313z"/>
  <path id="2" class="fil1" d="M38.032 16.831l0.109 -0.531 0.818 -0.136 1.634 -7.806 -0.953 -0.15 0.081 -0.504 2.779 -0.776 0.259 0.218 -0.231 1.171c0.363,-0.426 0.762,-0.762 1.198,-1.008 0.436,-0.245 0.845,-0.367 1.226,-0.367 0.391,0 0.725,0.133 1.001,0.401 0.277,0.268 0.416,0.761 0.416,1.478 0,0.636 -0.13,1.258 -0.388,1.867 -0.259,0.608 -0.604,1.158 -1.036,1.648 -0.431,0.49 -0.908,0.881 -1.43,1.171 -0.522,0.291 -1.042,0.436 -1.56,0.436 -0.218,0 -0.417,-0.031 -0.599,-0.095 -0.091,0.445 -0.17,0.854 -0.238,1.226 -0.068,0.372 -0.134,0.731 -0.198,1.076l0.995 0.15 -0.11 0.531 -3.773 0zm5.612 -8.486c-0.199,0 -0.408,0.063 -0.626,0.19 -0.218,0.128 -0.432,0.286 -0.64,0.477l-0.736 3.61c0.236,0.209 0.481,0.313 0.736,0.313 0.263,0 0.501,-0.075 0.715,-0.225 0.213,-0.149 0.424,-0.392 0.633,-0.728 0.2,-0.318 0.366,-0.713 0.498,-1.185 0.131,-0.473 0.197,-0.913 0.197,-1.322 0,-0.399 -0.064,-0.688 -0.191,-0.865 -0.127,-0.177 -0.322,-0.265 -0.586,-0.265z"/>
  <path id="3" class="fil1" d="M47.124 11.655l0.818 -3.719 -1.022 0 0.109 -0.654 1.199 -0.15 0.899 -1.852 1.253 0 -0.395 1.88 1.417 0 -0.15 0.844 -1.43 -0.041 -0.804 3.869c-0.055,0.254 -0.082,0.449 -0.082,0.586 0,0.19 0.082,0.286 0.245,0.286 0.209,0 0.536,-0.282 0.981,-0.845l0.409 0.273c-0.173,0.308 -0.386,0.601 -0.64,0.878 -0.255,0.277 -0.545,0.502 -0.872,0.675 -0.327,0.172 -0.686,0.258 -1.076,0.258 -0.309,0 -0.561,-0.077 -0.756,-0.231 -0.196,-0.155 -0.293,-0.386 -0.293,-0.695 0,-0.2 0.02,-0.42 0.061,-0.661 0.041,-0.24 0.084,-0.474 0.129,-0.701z"/>
  <path id="4" class="fil1" d="M53.656 13.943c-0.49,0 -0.935,-0.093 -1.335,-0.279 -0.4,-0.186 -0.717,-0.472 -0.953,-0.858 -0.237,-0.386 -0.355,-0.874 -0.355,-1.465 0,-0.572 0.1,-1.119 0.3,-1.641 0.2,-0.522 0.479,-0.992 0.838,-1.41 0.358,-0.418 0.778,-0.747 1.26,-0.987 0.481,-0.241 1.008,-0.361 1.58,-0.361 0.499,0 0.944,0.093 1.335,0.279 0.39,0.186 0.701,0.47 0.933,0.851 0.232,0.382 0.347,0.872 0.347,1.471 0,0.573 -0.1,1.12 -0.299,1.642 -0.2,0.522 -0.477,0.992 -0.831,1.41 -0.354,0.417 -0.772,0.747 -1.254,0.987 -0.481,0.241 -1.003,0.361 -1.566,0.361zm0.163 -0.735c0.264,0 0.507,-0.121 0.729,-0.361 0.223,-0.241 0.416,-0.561 0.579,-0.961 0.164,-0.399 0.288,-0.84 0.375,-1.321 0.086,-0.481 0.129,-0.958 0.129,-1.43 0,-0.554 -0.075,-0.933 -0.225,-1.138 -0.149,-0.204 -0.347,-0.306 -0.592,-0.306 -0.273,0 -0.52,0.12 -0.743,0.361 -0.222,0.24 -0.415,0.558 -0.578,0.953 -0.164,0.395 -0.289,0.829 -0.375,1.301 -0.086,0.473 -0.13,0.94 -0.13,1.403 0,0.581 0.08,0.977 0.239,1.185 0.159,0.209 0.356,0.314 0.592,0.314z"/>
  <path id="5" class="fil1" d="M60.651 13.943c-0.491,0 -0.936,-0.093 -1.335,-0.279 -0.4,-0.186 -0.718,-0.472 -0.954,-0.858 -0.236,-0.386 -0.354,-0.874 -0.354,-1.465 0,-0.572 0.1,-1.119 0.299,-1.641 0.2,-0.522 0.48,-0.992 0.838,-1.41 0.359,-0.418 0.779,-0.747 1.26,-0.987 0.482,-0.241 1.008,-0.361 1.581,-0.361 0.499,0 0.944,0.093 1.334,0.279 0.391,0.186 0.702,0.47 0.934,0.851 0.231,0.382 0.347,0.872 0.347,1.471 0,0.573 -0.1,1.12 -0.3,1.642 -0.199,0.522 -0.477,0.992 -0.831,1.41 -0.354,0.417 -0.772,0.747 -1.253,0.987 -0.481,0.241 -1.003,0.361 -1.566,0.361zm0.163 -0.735c0.263,0 0.506,-0.121 0.729,-0.361 0.222,-0.241 0.415,-0.561 0.579,-0.961 0.163,-0.399 0.288,-0.84 0.374,-1.321 0.087,-0.481 0.13,-0.958 0.13,-1.43 0,-0.554 -0.075,-0.933 -0.225,-1.138 -0.15,-0.204 -0.347,-0.306 -0.592,-0.306 -0.273,0 -0.521,0.12 -0.743,0.361 -0.223,0.24 -0.415,0.558 -0.579,0.953 -0.163,0.395 -0.288,0.829 -0.374,1.301 -0.087,0.473 -0.13,0.94 -0.13,1.403 0,0.581 0.08,0.977 0.238,1.185 0.159,0.209 0.357,0.314 0.593,0.314z"/>
  <path id="6" class="fil1" d="M67.019 13.739l-1.771 0.109 -0.191 -0.163 1.117 -5.327 -0.954 -0.15 0.096 -0.504 2.779 -0.776 0.258 0.218 -0.245 1.253c0.473,-0.454 0.945,-0.81 1.417,-1.069 0.472,-0.259 0.926,-0.388 1.362,-0.388 0.291,0 0.536,0.095 0.736,0.286 0.2,0.19 0.299,0.476 0.299,0.858 0,0.182 -0.015,0.372 -0.047,0.572 -0.032,0.2 -0.075,0.404 -0.13,0.613l-0.64 2.575c-0.036,0.127 -0.066,0.238 -0.088,0.333 -0.023,0.096 -0.034,0.18 -0.034,0.252 0,0.182 0.072,0.273 0.218,0.273 0.236,0 0.572,-0.282 1.008,-0.845l0.408 0.273c-0.172,0.299 -0.39,0.587 -0.654,0.865 -0.263,0.277 -0.56,0.504 -0.892,0.681 -0.331,0.177 -0.692,0.265 -1.083,0.265 -0.327,0 -0.579,-0.075 -0.756,-0.224 -0.177,-0.15 -0.266,-0.362 -0.266,-0.634 0,-0.209 0.025,-0.422 0.075,-0.64 0.05,-0.218 0.103,-0.427 0.157,-0.627l0.504 -2.043c0.055,-0.209 0.098,-0.402 0.129,-0.579 0.032,-0.177 0.048,-0.32 0.048,-0.429 0,-0.154 -0.034,-0.263 -0.102,-0.327 -0.068,-0.064 -0.152,-0.095 -0.252,-0.095 -0.2,0 -0.434,0.065 -0.702,0.197 -0.267,0.132 -0.56,0.343 -0.878,0.634l-0.354 1.648c-0.1,0.481 -0.196,0.965 -0.286,1.451 -0.091,0.485 -0.187,0.974 -0.286,1.464z"/>
  <path class="fil2" d="M8.929 3.139c3.416,0 6.186,2.632 6.186,5.879 0,0.376 -0.038,0.743 -0.108,1.099 -0.671,0.185 -1.373,0.33 -2.098,0.429 -0.746,0.101 -1.522,0.154 -2.322,0.154 -1.52,0 -2.969,-0.195 -4.291,-0.548 -1.326,-0.354 -2.526,-0.868 -3.54,-1.503 0.2,-3.075 2.887,-5.51 6.173,-5.51zm5.937 7.534c-0.065,0.211 -0.142,0.417 -0.231,0.617 -0.615,0.157 -1.253,0.278 -1.909,0.361 -0.681,0.086 -1.397,0.131 -2.139,0.131 -1.519,0 -2.965,-0.197 -4.282,-0.553 -1.325,-0.36 -2.517,-0.881 -3.52,-1.525 -0.019,-0.156 -0.032,-0.314 -0.038,-0.474 1,0.59 2.155,1.068 3.42,1.406 1.365,0.365 2.857,0.566 4.42,0.566 0.814,0 1.613,-0.056 2.388,-0.161 0.654,-0.088 1.285,-0.212 1.891,-0.368zm-0.931 1.798c-1.124,1.47 -2.948,2.426 -5.006,2.426 -2.66,0 -4.927,-1.595 -5.801,-3.834 0.88,0.464 1.861,0.848 2.919,1.134 1.4,0.38 2.934,0.589 4.54,0.589 0.763,0 1.521,-0.049 2.264,-0.143 0.369,-0.047 0.73,-0.104 1.084,-0.172z"/>
 </g>
</svg>
