<svg width="758" height="312" viewBox="0 0 758 312" fill="none" xmlns="http://www.w3.org/2000/svg">
<path d="M110.001 179.463C110.595 183.262 110.809 186.667 110.637 189.979C110.317 196.144 108.664 202.162 105.419 209.925L104.316 212.567L107.082 213.304L110.637 214.252C108.853 225.376 105.585 231.829 99.4338 243.209L97.1965 247.349L101.879 246.886L103.368 246.725C106.761 246.324 109.601 245.727 112.287 244.611C113.662 244.04 114.964 243.344 116.26 242.505C115.093 247.686 112.7 252.47 109.221 260.967L107.994 263.961L111.201 264.392C137.116 267.869 153.973 268.698 172.228 261.085C172.816 270.865 173.727 276.42 176.649 284H105.822C106.327 277.921 105.794 263.098 103.156 255.06C102.782 253.919 102.014 250.49 100.111 248.967C98.2058 247.444 84.9473 251.646 78.7864 251.614C75.8634 251.6 74.2037 250.791 73.8362 250.49C73.4004 250.135 71.9327 249.601 71.552 247.38C71.1712 245.159 69.864 240.25 69.2668 239.067C68.6692 237.884 64.6973 236.401 63.9358 235.259C63.1742 234.117 63.5295 233.197 64.3166 232.593C69.7117 229.781 69.2487 228.604 60.509 227.263C59.4211 227.127 57.8429 226.882 57.4621 225.739C57.0814 224.597 58.742 222.348 57.4621 219.647C55.3207 215.128 48.7292 213.728 45.6584 211.639C44.7123 210.995 44.8762 210.46 44.8967 210.127C44.8967 210.127 45.1464 209.299 45.6584 208.685C50.1309 202.797 52.2312 199.228 53.2737 191.088C53.2603 191.079 53.247 191.07 53.2336 191.062C53.5791 188.806 53.8846 186.147 54.0198 183.687H69.1008V183.503C69.8855 184.812 70.779 186.151 71.7981 187.585L72.3 188.291L73.1311 188.535L99.0246 196.152L100.81 196.677L101.825 195.116C104.233 191.417 106.362 188.4 108.122 184.484C108.803 182.968 109.425 181.328 110.001 179.463ZM138.95 47.9114C172.215 27.5031 220.972 23.4697 258.519 32.6799C252.329 60.2467 243.706 71.2898 221.604 85.2287C236.681 107.385 246.472 138.638 249.76 178.903C251.03 201.854 253.257 213.892 261.505 229.922C258.078 230.677 255.266 230.857 252.142 230.377C248.76 229.858 244.877 228.546 239.342 226.115L237.143 225.151L236.09 227.309C230.21 239.357 224.096 246.78 216.047 252.012C208.746 256.758 199.682 259.812 187.322 262.682C188.459 258.993 188.985 255.687 188.663 250.71L188.392 246.5L184.829 248.76C180.304 251.631 176.051 253.941 171.916 255.777L171.091 256.138C154.582 263.24 139.411 262.989 115.097 259.86C118.921 250.794 121.64 245.231 122.028 236.899L122.306 230.928L117.86 234.922C115.006 237.486 112.755 239.002 110.368 239.993C109.094 240.523 107.735 240.92 106.163 241.236C111.318 231.478 114.313 224.509 115.915 212.749L116.213 210.565L114.082 209.996L111.104 209.201C113.796 202.315 115.31 196.412 115.63 190.238C115.99 183.304 114.837 176.212 112.426 167.212L107.542 167.464C106.389 174.666 105.101 179.01 103.562 182.434C102.221 185.417 100.673 187.758 98.6545 190.831L75.3821 183.986C73.4587 181.22 72.175 178.997 71.2444 176.669C70.2373 174.15 69.5949 171.391 69.0793 167.529L64.1008 167.86V178.687H49.0959V181.187C49.0959 183.177 48.9055 185.527 48.6457 187.707C2.17635 149.589 47.5172 46.8916 129.957 47.9114C129.855 43.7155 132.621 41.3774 136.811 37.2492C138.244 42.1415 138.419 44.4766 137.572 47.9114H138.95Z" fill="url(#paint0_linear_3018_560)"/>
<path d="M69.6013 98.0651L103.872 81.3104" stroke="#F5F5F5" stroke-width="2"/>
<path d="M69.6013 98.0651L103.872 115.581" stroke="#F5F5F5" stroke-width="2"/>
<path d="M69.6013 98.0651L103.872 149.852" stroke="#F5F5F5" stroke-width="2"/>
<path d="M69.6013 132.336L103.872 81.3104" stroke="#F5F5F5" stroke-width="2"/>
<path d="M69.6013 132.336L103.872 115.581" stroke="#F5F5F5" stroke-width="2"/>
<path d="M69.6013 132.336L103.872 149.852" stroke="#F5F5F5" stroke-width="2"/>
<path d="M103.872 81.3104H138.143" stroke="#F5F5F5" stroke-width="2"/>
<path d="M103.872 81.3104L138.143 115.581" stroke="#F5F5F5" stroke-width="2"/>
<path d="M103.872 81.3104L138.143 149.852" stroke="#F5F5F5" stroke-width="2"/>
<path d="M103.872 115.581L138.143 81.3104" stroke="#F5F5F5" stroke-width="2"/>
<path d="M103.872 115.581H138.143" stroke="#F5F5F5" stroke-width="2"/>
<path d="M103.872 115.581L138.143 149.852" stroke="#F5F5F5" stroke-width="2"/>
<path d="M103.872 149.852L138.143 81.3104" stroke="#F5F5F5" stroke-width="2"/>
<path d="M103.872 149.852L138.143 115.581" stroke="#F5F5F5" stroke-width="2"/>
<path d="M103.872 149.852H138.143" stroke="#F5F5F5" stroke-width="2"/>
<path d="M138.143 81.3104H172.414" stroke="#F5F5F5" stroke-width="2"/>
<path d="M138.143 81.3104L172.414 115.581" stroke="#F5F5F5" stroke-width="2"/>
<path d="M138.143 81.3104L172.414 149.852" stroke="#F5F5F5" stroke-width="2"/>
<path d="M138.143 115.581L172.414 81.3104" stroke="#F5F5F5" stroke-width="2"/>
<path d="M138.143 115.581H172.414" stroke="#F5F5F5" stroke-width="2"/>
<path d="M138.143 115.581L172.414 149.852" stroke="#F5F5F5" stroke-width="2"/>
<path d="M138.143 149.852L172.414 81.3104" stroke="#F5F5F5" stroke-width="2"/>
<path d="M138.143 149.852L172.414 115.581" stroke="#F5F5F5" stroke-width="2"/>
<path d="M138.143 149.852H172.414" stroke="#F5F5F5" stroke-width="2"/>
<path d="M172.414 81.3104L206.685 98.0651" stroke="#F5F5F5" stroke-width="2"/>
<path d="M172.414 81.3104L206.685 132.336" stroke="#F5F5F5" stroke-width="2"/>
<path d="M172.414 81.3104L206.685 166.607" stroke="#F5F5F5" stroke-width="2"/>
<path d="M172.414 115.581L206.685 98.0651" stroke="#F5F5F5" stroke-width="2"/>
<path d="M172.414 115.581L206.685 132.336" stroke="#F5F5F5" stroke-width="2"/>
<path d="M172.414 115.581L206.685 166.607" stroke="#F5F5F5" stroke-width="2"/>
<path d="M172.414 149.852L206.685 98.0651" stroke="#F5F5F5" stroke-width="2"/>
<path d="M172.414 149.852L206.685 132.336" stroke="#F5F5F5" stroke-width="2"/>
<path d="M172.414 149.852L206.685 166.607" stroke="#F5F5F5" stroke-width="2"/>
<path d="M69.6013 104.158C72.9662 104.158 75.6939 101.43 75.6939 98.0651C75.6939 94.7003 72.9662 91.9725 69.6013 91.9725C66.2365 91.9725 63.5087 94.7003 63.5087 98.0651C63.5087 101.43 66.2365 104.158 69.6013 104.158Z" fill="#F5F5F5"/>
<path d="M69.6013 138.429C72.9662 138.429 75.6939 135.701 75.6939 132.336C75.6939 128.971 72.9662 126.243 69.6013 126.243C66.2365 126.243 63.5087 128.971 63.5087 132.336C63.5087 135.701 66.2365 138.429 69.6013 138.429Z" fill="#F5F5F5"/>
<path d="M103.872 87.4031C107.237 87.4031 109.965 84.6753 109.965 81.3105C109.965 77.9456 107.237 75.2178 103.872 75.2178C100.507 75.2178 97.7796 77.9456 97.7796 81.3105C97.7796 84.6753 100.507 87.4031 103.872 87.4031Z" fill="#F5F5F5"/>
<path d="M103.872 121.674C107.237 121.674 109.965 118.946 109.965 115.581C109.965 112.216 107.237 109.489 103.872 109.489C100.507 109.489 97.7796 112.216 97.7796 115.581C97.7796 118.946 100.507 121.674 103.872 121.674Z" fill="#F5F5F5"/>
<path d="M103.872 155.945C107.237 155.945 109.965 153.217 109.965 149.852C109.965 146.487 107.237 143.76 103.872 143.76C100.507 143.76 97.7796 146.487 97.7796 149.852C97.7796 153.217 100.507 155.945 103.872 155.945Z" fill="#F5F5F5"/>
<path d="M138.143 87.4031C141.508 87.4031 144.236 84.6753 144.236 81.3105C144.236 77.9456 141.508 75.2178 138.143 75.2178C134.778 75.2178 132.051 77.9456 132.051 81.3105C132.051 84.6753 134.778 87.4031 138.143 87.4031Z" fill="#F5F5F5"/>
<path d="M138.143 121.674C141.508 121.674 144.236 118.946 144.236 115.581C144.236 112.216 141.508 109.489 138.143 109.489C134.778 109.489 132.051 112.216 132.051 115.581C132.051 118.946 134.778 121.674 138.143 121.674Z" fill="#F5F5F5"/>
<path d="M138.143 155.945C141.508 155.945 144.236 153.217 144.236 149.852C144.236 146.487 141.508 143.76 138.143 143.76C134.778 143.76 132.051 146.487 132.051 149.852C132.051 153.217 134.778 155.945 138.143 155.945Z" fill="#F5F5F5"/>
<path d="M172.414 87.4031C175.779 87.4031 178.507 84.6753 178.507 81.3105C178.507 77.9456 175.779 75.2178 172.414 75.2178C169.049 75.2178 166.321 77.9456 166.321 81.3105C166.321 84.6753 169.049 87.4031 172.414 87.4031Z" fill="#F5F5F5"/>
<path d="M172.414 121.674C175.779 121.674 178.507 118.946 178.507 115.581C178.507 112.216 175.779 109.489 172.414 109.489C169.049 109.489 166.321 112.216 166.321 115.581C166.321 118.946 169.049 121.674 172.414 121.674Z" fill="#F5F5F5"/>
<path d="M172.414 155.945C175.779 155.945 178.507 153.217 178.507 149.852C178.507 146.487 175.779 143.76 172.414 143.76C169.049 143.76 166.321 146.487 166.321 149.852C166.321 153.217 169.049 155.945 172.414 155.945Z" fill="#F5F5F5"/>
<path d="M206.685 104.158C210.05 104.158 212.778 101.43 212.778 98.0651C212.778 94.7003 210.05 91.9725 206.685 91.9725C203.32 91.9725 200.592 94.7003 200.592 98.0651C200.592 101.43 203.32 104.158 206.685 104.158Z" fill="#F5F5F5"/>
<path d="M206.685 138.429C210.05 138.429 212.778 135.701 212.778 132.336C212.778 128.971 210.05 126.243 206.685 126.243C203.32 126.243 200.592 128.971 200.592 132.336C200.592 135.701 203.32 138.429 206.685 138.429Z" fill="#F5F5F5"/>
<path d="M206.685 172.7C210.05 172.7 212.778 169.972 212.778 166.607C212.778 163.242 210.05 160.514 206.685 160.514C203.32 160.514 200.592 163.242 200.592 166.607C200.592 169.972 203.32 172.7 206.685 172.7Z" fill="#F5F5F5"/>
<path d="M307.752 144V40.7326H339.57C346.125 40.7326 351.738 42.0772 356.411 44.7664C361.117 47.4557 364.731 51.1366 367.252 55.8092C369.773 60.4818 371.034 65.8099 371.034 71.7935C371.034 77.7098 369.773 83.0043 367.252 87.6769C364.731 92.3495 361.117 96.0472 356.411 98.7701C351.738 101.459 346.141 102.804 339.62 102.804H312.19V96.9548H339.469C344.78 96.9548 349.318 95.8791 353.083 93.7277C356.848 91.5427 359.739 88.5677 361.756 84.8027C363.773 81.0042 364.781 76.6677 364.781 71.7935C364.781 66.8856 363.773 62.5323 361.756 58.7338C359.739 54.9352 356.831 51.9602 353.033 49.8088C349.268 47.6574 344.73 46.5817 339.418 46.5817H314.055V144H307.752ZM380.728 144H374.072L411.335 40.7326H418.596L455.859 144H449.203L415.218 48.8508H414.713L380.728 144ZM390.157 105.123H439.774V110.973H390.157V105.123ZM475.121 40.7326H481.978L521.762 134.924H522.468L562.253 40.7326H569.11V144H563.059V55.7084H562.454L525.09 144H519.14L481.777 55.7084H481.172V144H475.121V40.7326ZM605.251 40.7326V144H598.948V40.7326H605.251ZM674.924 111.729H682.185L697.211 131.545L698.623 133.461L713.851 153.681H706.59L694.085 137.092L692.774 135.277L674.924 111.729ZM717.28 92.3663C717.28 103.022 715.431 112.334 711.733 120.301C708.035 128.234 702.892 134.403 696.304 138.806C689.749 143.21 682.185 145.412 673.613 145.412C665.007 145.412 657.41 143.21 650.822 138.806C644.266 134.369 639.14 128.184 635.442 120.251C631.745 112.284 629.896 102.989 629.896 92.3663C629.896 81.7101 631.745 72.4154 635.442 64.4821C639.174 56.5487 644.317 50.3803 650.872 45.9766C657.427 41.5393 665.007 39.3207 673.613 39.3207C682.185 39.3207 689.749 41.5225 696.304 45.9262C702.892 50.3298 708.035 56.5151 711.733 64.4821C715.431 72.4154 717.28 81.7101 717.28 92.3663ZM711.128 92.3663C711.128 82.7858 709.515 74.4827 706.287 67.457C703.094 60.4314 698.673 55.0024 693.026 51.1702C687.379 47.3044 680.908 45.3715 673.613 45.3715C666.318 45.3715 659.847 47.2876 654.2 51.1198C648.552 54.9184 644.115 60.3473 640.888 67.4066C637.695 74.4323 636.098 82.7522 636.098 92.3663C636.098 101.88 637.678 110.166 640.838 117.225C644.031 124.251 648.452 129.697 654.099 133.562C659.747 137.428 666.251 139.361 673.613 139.361C680.908 139.361 687.379 137.445 693.026 133.613C698.673 129.747 703.094 124.301 706.287 117.276C709.515 110.25 711.128 101.947 711.128 92.3663Z" fill="#EB4F31"/>
<path d="M446.455 201.004H440.001C439.328 197.508 438.068 194.129 436.219 190.869C434.37 187.574 431.983 184.616 429.059 181.994C426.168 179.338 422.806 177.237 418.974 175.691C415.142 174.145 410.906 173.372 406.267 173.372C399.477 173.372 393.224 175.187 387.51 178.817C381.829 182.414 377.274 187.709 373.845 194.701C370.45 201.693 368.752 210.248 368.752 220.366C368.752 230.552 370.45 239.141 373.845 246.133C377.274 253.125 381.829 258.419 387.51 262.016C393.224 265.579 399.477 267.361 406.267 267.361C410.906 267.361 415.142 266.605 418.974 265.092C422.806 263.546 426.168 261.461 429.059 258.839C431.983 256.184 434.37 253.209 436.219 249.914C438.068 246.62 439.328 243.225 440.001 239.729H446.455C445.715 243.897 444.287 247.982 442.169 251.982C440.085 255.982 437.328 259.613 433.899 262.873C430.504 266.1 426.487 268.672 421.848 270.588C417.243 272.471 412.049 273.412 406.267 273.412C397.662 273.412 390.081 271.227 383.526 266.857C376.971 262.453 371.828 256.268 368.097 248.301C364.399 240.334 362.55 231.022 362.55 220.366C362.55 209.71 364.399 200.399 368.097 192.432C371.828 184.465 376.971 178.296 383.526 173.926C390.081 169.523 397.662 167.321 406.267 167.321C412.049 167.321 417.243 168.279 421.848 170.195C426.487 172.077 430.504 174.632 433.899 177.859C437.328 181.053 440.085 184.65 442.169 188.65C444.287 192.65 445.715 196.768 446.455 201.004ZM551.575 272V194.549H557.576V206.651H558.13C559.811 202.684 562.652 199.508 566.652 197.121C570.652 194.701 575.207 193.491 580.317 193.491C580.855 193.491 581.393 193.491 581.93 193.491C582.468 193.491 582.972 193.507 583.443 193.541V199.743C583.04 199.709 582.552 199.659 581.981 199.592C581.443 199.491 580.771 199.441 579.964 199.441C575.661 199.441 571.829 200.365 568.467 202.214C565.139 204.063 562.517 206.617 560.601 209.878C558.685 213.105 557.727 216.803 557.727 220.971V272H551.575ZM627.816 273.614C620.824 273.614 614.739 271.882 609.562 268.42C604.386 264.958 600.385 260.218 597.562 254.2C594.738 248.183 593.326 241.326 593.326 233.628C593.326 225.896 594.738 219.005 597.562 212.954C600.419 206.903 604.335 202.13 609.31 198.634C614.285 195.138 619.967 193.39 626.354 193.39C630.69 193.39 634.791 194.264 638.657 196.012C642.556 197.726 645.985 200.214 648.943 203.474C651.935 206.735 654.271 210.668 655.952 215.274C657.667 219.879 658.524 225.056 658.524 230.804V234.636H597.209V229.039H652.372C652.372 223.425 651.229 218.366 648.943 213.862C646.657 209.357 643.548 205.777 639.615 203.121C635.682 200.466 631.261 199.138 626.354 199.138C621.21 199.138 616.622 200.583 612.588 203.474C608.588 206.332 605.411 210.198 603.058 215.072C600.738 219.946 599.528 225.392 599.427 231.409V233.93C599.427 240.384 600.553 246.183 602.806 251.326C605.092 256.436 608.352 260.487 612.588 263.478C616.823 266.437 621.899 267.916 627.816 267.916C632.051 267.916 635.665 267.21 638.657 265.798C641.682 264.352 644.153 262.604 646.069 260.554C647.985 258.503 649.431 256.52 650.406 254.604L656.003 256.873C654.826 259.461 652.994 262.05 650.506 264.638C648.052 267.193 644.926 269.328 641.128 271.042C637.363 272.756 632.925 273.614 627.816 273.614Z" fill="#818587"/>
<path d="M497.366 193.9C514.697 193.9 527.733 211.788 527.733 232.434C527.733 253.08 514.697 270.969 497.366 270.969C480.036 270.969 467 253.08 467 232.434C467 211.788 480.036 193.9 497.366 193.9Z" fill="#818587" stroke="#818587" stroke-width="5"/>
<path d="M497.523 201.9C510.407 201.9 521.046 215.321 521.046 232.149C521.046 248.977 510.407 262.399 497.523 262.399C484.64 262.399 474 248.977 474 232.149C474 215.321 484.64 201.9 497.523 201.9Z" stroke="white"/>
<path d="M497.628 196.4L499.187 229.691L522.131 231.954L499.187 234.217L497.628 267.508L496.068 234.217L473.124 231.954L496.068 229.691L497.628 196.4Z" fill="white"/>
<path d="M483.433 217.972L497.367 230.526L511.3 217.972L498.746 231.906L511.3 245.839L497.367 233.285L483.433 245.839L495.987 231.906L483.433 217.972Z" fill="white"/>
<defs>
<linearGradient id="paint0_linear_3018_560" x1="64.2801" y1="81.3103" x2="299.99" y2="311.751" gradientUnits="userSpaceOnUse">
<stop stop-color="#FF2129"/>
<stop offset="1" stop-color="#FFE700"/>
</linearGradient>
</defs>
</svg>
