<?xml version="1.0" encoding="UTF-8" standalone="no"?>
<!-- Created with Inkscape (http://www.inkscape.org/) -->

<svg
   width="64mm"
   height="24mm"
   viewBox="0 0 64 24"
   version="1.1"
   id="svg1"
   inkscape:version="1.4 (86a8ad7, 2024-10-11)"
   sodipodi:docname="logo_k.svg"
   xmlns:inkscape="http://www.inkscape.org/namespaces/inkscape"
   xmlns:sodipodi="http://sodipodi.sourceforge.net/DTD/sodipodi-0.dtd"
   xmlns="http://www.w3.org/2000/svg"
   xmlns:svg="http://www.w3.org/2000/svg">
  <sodipodi:namedview
     id="namedview1"
     pagecolor="#ffffff"
     bordercolor="#000000"
     borderopacity="0.25"
     inkscape:showpageshadow="2"
     inkscape:pageopacity="0.0"
     inkscape:pagecheckerboard="0"
     inkscape:deskcolor="#d1d1d1"
     inkscape:document-units="mm"
     showgrid="true"
     inkscape:zoom="5.8810095"
     inkscape:cx="121.06765"
     inkscape:cy="33.58267"
     inkscape:window-width="2560"
     inkscape:window-height="1369"
     inkscape:window-x="1912"
     inkscape:window-y="-8"
     inkscape:window-maximized="1"
     inkscape:current-layer="layer1">
    <inkscape:grid
       id="grid1"
       units="mm"
       originx="0"
       originy="0"
       spacingx="1.9999999"
       spacingy="1.9999999"
       empcolor="#0099e5"
       empopacity="0.30196078"
       color="#0099e5"
       opacity="0.14901961"
       empspacing="2"
       enabled="true"
       visible="true" />
  </sodipodi:namedview>
  <defs
     id="defs1" />
  <g
     inkscape:label="Layer 1"
     inkscape:groupmode="layer"
     id="layer1">
    <path
       id="path1"
       style="fill:#000000;stroke:none;stroke-width:0.2;stroke-linecap:round;stroke-linejoin:round;fill-opacity:1"
       d="M 1.9998779 0 L 0 1.9998779 L 0 24.000085 L 3.9997559 24.000085 L 3.9997559 17.999935 L 6.0001506 16.000057 L 9.9999064 16.000057 L 11.999784 17.999935 L 11.999784 24.000085 L 16.000057 24.000085 L 16.000057 1.9998779 L 14.000179 0 L 1.9998779 0 z M 6.0001506 3.9997559 L 9.9999064 3.9997559 L 11.999784 6.0001506 L 11.999784 9.9999064 L 9.9999064 11.999784 L 6.0001506 11.999784 L 3.9997559 9.9999064 L 3.9997559 6.0001506 L 6.0001506 3.9997559 z " />
    <path
       style="fill:#000000;fill-opacity:1;stroke:none;stroke-width:0.2;stroke-linecap:round;stroke-linejoin:round"
       d="m 15.999999,19.999999 h 10 l 2,-2 v -2 l -2,-2 h -8 l -2,-2 z"
       id="path2" />
    <path
       style="fill:#000000;fill-opacity:1;stroke:none;stroke-width:0.2;stroke-linecap:round;stroke-linejoin:round"
       d="m 29.999998,23.999999 2.000001,-2 v 2 z"
       id="path3" />
    <path
       style="fill:#000000;fill-opacity:1;stroke:none;stroke-width:0.2;stroke-linecap:round;stroke-linejoin:round"
       d="M 15.999999,1.9999999 17.999999,0 h -2 z"
       id="path4" />
    <path
       style="fill:#000000;fill-opacity:1;stroke:none;stroke-width:0.2;stroke-linecap:round;stroke-linejoin:round"
       d="M 31.999999,11.999999 29.999998,9.9999995 h -7.999999 l -2,-1.9999997 v -2 l 2,-1.9999999 h 10 z"
       id="path5" />
    <path
       style="fill:#000000;fill-opacity:1;stroke:none;stroke-width:0.2;stroke-linecap:round;stroke-linejoin:round"
       d="M 31.999999,23.999999 V 1.9999999 L 33.999998,0 h 11.999999 l 2.000002,1.9999999 V 23.999999 h -4 V 3.9999999 H 41.999997 V 11.999999 H 37.999998 V 3.9999999 H 35.999999 V 23.999999 Z"
       id="path6" />
    <path
       style="fill:#000000;fill-opacity:1;stroke:none;stroke-width:0.2;stroke-linecap:round;stroke-linejoin:round"
       d="m 51.999999,0 v 17.999999 l 1.999998,2 h 4 l 2.000001,-2 V 0 Z"
       id="path7" />
    <path
       style="fill:#000000;fill-opacity:1;stroke:none;stroke-width:0.2;stroke-linecap:round;stroke-linejoin:round"
       d="m 47.999999,21.999999 1.999998,2 h -1.999998 z"
       id="path8" />
  </g>
</svg>
