<svg version="1.1" xmlns="http://www.w3.org/2000/svg" width="139.6895" height="163.95244">
    <g transform="translate(-174.2579,-99.77922)">
        <g data-paper-data="{&quot;isPaintingLayer&quot;:true}" fill="none" fill-rule="nonzero" stroke="none"
           stroke-width="none" stroke-linecap="none" stroke-linejoin="none" stroke-miterlimit="10" stroke-dasharray=""
           stroke-dashoffset="0" font-family="none" font-weight="none" font-size="none" text-anchor="none"
           style="mix-blend-mode: normal">
            <path d="M263.2186,259.54848l-2.74694,0.22323c-2.42501,0.19707 -4.5578,-1.61514 -4.75486,-4.04014l-1.33832,-16.46871c-0.19707,-2.42501 1.61514,-4.5578 4.04014,-4.75486l2.74694,-0.22323c2.42501,-0.19707 4.5578,1.61514 4.75486,4.04014l1.33832,16.46871c0.19707,2.42501 -1.61514,4.5578 -4.04014,4.75486zM233.1258,261.99396l-2.74395,0.22299c-2.426,0.19715 -4.55879,-1.61506 -4.75586,-4.04006l-1.33832,-16.46871c-0.19707,-2.42501 1.61514,-4.5578 4.04114,-4.75495l2.74395,-0.22299c2.42501,-0.19707 4.5578,1.61514 4.75486,4.04014l1.33832,16.46871c0.19707,2.42501 -1.61514,4.5578 -4.04014,4.75486zM292.68262,249.40264l-2.74595,0.22315c-2.42501,0.19707 -4.55772,-1.61414 -4.75454,-4.03616l-1.33824,-16.46771c-0.19707,-2.42501 1.61514,-4.5578 4.04014,-4.75486l2.74595,-0.22315c2.42501,-0.19707 4.5578,1.61514 4.75486,4.04014l1.33824,16.46771c0.19682,2.42202 -1.61646,4.55389 -4.04047,4.75088zM202.30116,255.40904l-2.74395,0.22299c-2.426,0.19715 -4.55871,-1.61406 -4.75554,-4.03607l-1.33824,-16.46771c-0.19707,-2.42501 1.61514,-4.5578 4.04114,-4.75495l2.74395,-0.22299c2.42501,-0.19707 4.5578,1.61514 4.75486,4.04014l1.33824,16.46771c0.19682,2.42202 -1.61546,4.55381 -4.04047,4.75088zM244.13696,224.26411c-40.86529,3.3209 -54.4404,-1.66092 -57.62805,-3.26801l-0.75211,-0.37832l-2.45601,-30.22237c-2.57167,-31.64568 21.0813,-59.48297 52.72697,-62.05464c31.64568,-2.57167 59.48397,21.08121 62.05564,52.72689l2.45601,30.22237l-0.65692,0.49684c-2.76083,2.08949 -14.94105,9.16129 -55.74554,12.47724z"
                  data-paper-data="{&quot;origRot&quot;:0}" id="Body" fill="#c57fe5" stroke="none" stroke-width="1"
                  stroke-linecap="butt" stroke-linejoin="miter"/>
            <path d="M263.34009,261.04355l-2.74694,0.22323c-3.25228,0.26429 -6.10738,-2.16443 -6.37143,-5.41372l-1.33832,-16.46871c-0.26405,-3.24929 2.16144,-6.10714 5.41372,-6.37143l2.74694,-0.22323c3.24929,-0.26405 6.10738,2.16443 6.37143,5.41372l1.33832,16.46871c0.26405,3.24929 -2.16443,6.10738 -5.41372,6.37143zM258.5411,236.00298c-1.59873,0.12992 -2.79657,1.53857 -2.66657,3.1383l1.33832,16.46871c0.12992,1.59873 1.54156,2.79633 3.1383,2.66657l2.74694,-0.22323c1.59973,-0.13 2.79633,-1.54156 2.66657,-3.1383l-1.33832,-16.46871c-0.13,-1.59973 -1.53857,-2.79657 -3.1383,-2.66657zM233.2473,263.48903l-2.74395,0.22299c-3.24929,0.26405 -6.10838,-2.16435 -6.37243,-5.41364l-1.33832,-16.46871c-0.26405,-3.24929 2.16543,-6.10746 5.41471,-6.37151l2.74395,-0.22299c3.24929,-0.26405 6.10738,2.16443 6.37143,5.41372l1.33832,16.46871c0.26405,3.24929 -2.16443,6.10738 -5.41372,6.37143zM228.4503,238.4483c-1.60072,0.13008 -2.79757,1.53865 -2.66756,3.13838l1.33832,16.46871c0.12992,1.59873 1.53857,2.79657 3.13929,2.66649l2.74395,-0.22299c1.60072,-0.13008 2.79633,-1.54156 2.66657,-3.1383l-1.33832,-16.46871c-0.13,-1.59973 -1.53757,-2.79665 -3.1383,-2.66657zM292.80436,250.9007l-2.74595,0.22315c-3.24929,0.26405 -6.1073,-2.16343 -6.37135,-5.41272l-1.33816,-16.46672c-0.26413,-3.25029 2.16443,-6.10738 5.41372,-6.37143l2.74595,-0.22315c3.25029,-0.26413 6.1073,2.16343 6.37143,5.41372l1.33816,16.46672c0.26397,3.24829 -2.16351,6.1063 -5.4138,6.37044zM288.00545,225.86112c-1.59973,0.13 -2.79657,1.53857 -2.66657,3.1383l1.33824,16.46771c0.12992,1.59873 1.53825,2.79258 3.13797,2.66258l2.74595,-0.22315c1.59873,-0.12992 2.79665,-1.53757 2.66689,-3.13431l-1.33824,-16.46771c-0.13,-1.59973 -1.53957,-2.79649 -3.1383,-2.66657zM202.4229,256.9071l-2.74395,0.22299c-3.24929,0.26405 -6.1083,-2.16335 -6.37235,-5.41264l-1.33816,-16.46672c-0.26413,-3.25029 2.16543,-6.10746 5.41471,-6.37151l2.74395,-0.22299c3.24929,-0.26405 6.1073,2.16343 6.37143,5.41372l1.33816,16.46672c0.26397,3.24829 -2.16451,6.10638 -5.4138,6.37044zM197.62598,231.86737c-1.60072,0.13008 -2.79757,1.53865 -2.66756,3.13838l1.33824,16.46771c0.12992,1.59873 1.53825,2.79258 3.13897,2.6625l2.74395,-0.22299c1.60072,-0.13008 2.79665,-1.53757 2.66689,-3.13431l-1.33824,-16.46771c-0.13,-1.59973 -1.53757,-2.79665 -3.1383,-2.66657zM244.25845,225.75919c-48.36157,3.93008 -58.98599,-3.68138 -59.41491,-4.00871c-0.33896,-0.25739 -0.55225,-0.6474 -0.58676,-1.072l-2.45106,-30.16157c-2.63865,-32.46996 21.63059,-61.03256 54.10055,-63.67121c32.46996,-2.63865 61.03355,21.63051 63.67221,54.10047l2.45106,30.16157c0.03305,0.40666 -0.10074,0.80982 -0.37193,1.11479c-0.34453,0.39019 -9.00868,9.60424 -57.39916,13.53666zM187.18367,219.65705c2.609,1.31399 15.75122,6.45039 56.8318,3.11199c40.98988,-3.33102 52.69187,-10.46028 54.96222,-12.17781l-2.38934,-29.40208c-2.50469,-30.8214 -29.61668,-53.85808 -60.43907,-51.35332c-30.8204,2.5046 -53.85808,29.61668 -51.3534,60.43808zM269.72509,208.41246c-0.65384,0.05313 -1.25115,-0.08695 -1.7759,-0.45766c-4.6037,-3.24176 1.93874,-15.69962 4.05363,-19.44121c0.40675,-0.72332 1.3245,-0.97348 2.04384,-0.56641c0.72133,0.40691 0.97332,1.32251 0.56541,2.04392c-4.3222,7.6422 -6.16843,14.36884 -5.00014,15.4608c0.01503,-0.00022 0.02899,-0.00135 0.04394,-0.00257c1.62165,-0.13178 6.83933,-5.50807 11.35053,-11.72589c0.48644,-0.6686 1.42234,-0.8189 2.09493,-0.33278c0.67059,0.48628 0.81906,1.42434 0.33278,2.09493c-4.35671,6.00762 -9.96243,12.6214 -13.709,12.92687zM216.30685,210.65055c-5.19089,0.42183 -13.85813,-6.27916 -16.12566,-8.35431c-0.61115,-0.55733 -0.65346,-1.51003 -0.09389,-2.11836c0.5594,-0.61032 1.50912,-0.65238 2.11935,-0.09397c5.17157,4.73568 12.85982,8.67389 14.41734,7.41961c0.2034,-1.70708 -4.90254,-8.63528 -11.06168,-14.99229c-0.57635,-0.59828 -0.56195,-1.54456 0.03334,-2.12067c0.59454,-0.57304 1.54456,-0.56195 2.12067,0.03334c6.74942,6.9662 14.16201,15.93226 11.14602,19.09193c-0.67221,0.70376 -1.54881,1.05291 -2.55549,1.13472z"
                  data-paper-data="{&quot;origRot&quot;:0}" id="BodyBorder" fill="#7f4699" stroke="none"
                  stroke-width="1" stroke-linecap="butt" stroke-linejoin="miter"/>
            <path d="M199.99557,248.37166c-1.92167,0.15616 -3.77386,0.00669 -5.48752,-0.3888l0.29362,3.61309c0.19707,2.42501 2.32579,4.23654 4.75578,4.03906l2.74395,-0.22299c2.42899,-0.19739 4.2377,-2.32388 4.04022,-4.75387l-0.31419,-3.86625c-1.79808,0.83739 -3.8371,1.4014 -6.03186,1.57976zM236.85192,253.37483l0.31403,3.86426c0.19707,2.42501 -1.61015,4.55739 -4.04014,4.75486l-2.74395,0.22299c-2.42999,0.19747 -4.55855,-1.61207 -4.75586,-4.04006l-0.29362,-3.61309c1.71366,0.3955 3.56586,0.54497 5.48752,0.3888c2.19476,-0.17836 4.23394,-0.74037 6.03202,-1.57776zM266.94272,250.92952l0.31403,3.86426c0.19707,2.42501 -1.61115,4.55747 -4.04014,4.75486l-2.74495,0.22307c-2.428,0.19731 -4.55755,-1.61215 -4.75486,-4.04014l-0.29362,-3.61309c1.71366,0.3955 3.56586,0.54497 5.48752,0.3888c2.19576,-0.17844 4.23394,-0.74037 6.03202,-1.57776zM296.40823,240.78957l0.31403,3.86426c0.19715,2.426 -1.61023,4.5564 -4.04022,4.75387l-2.74595,0.22315c-2.426,0.19715 -4.55731,-1.60916 -4.75478,-4.03915l-0.29362,-3.61309c1.71366,0.3955 3.56586,0.54497 5.48752,0.3888c2.19576,-0.17844 4.23577,-0.74253 6.03302,-1.57784z"
                  data-paper-data="{&quot;origRot&quot;:0}" id="Shoes" fill="#2ac699" stroke="#138962" stroke-width="3"
                  stroke-linecap="butt" stroke-linejoin="miter"/>
            <path d="M237.28194,162.19441c0.49554,6.0979 -4.04542,11.44327 -10.14431,11.93889c-6.09889,0.49562 -11.44335,-4.04641 -11.93889,-10.14431c-0.49554,-6.0979 4.04534,-11.44426 10.14423,-11.93989c6.09889,-0.49562 11.44343,4.04741 11.93897,10.14531zM250.44522,150.00918c-6.0979,0.49554 -10.64077,5.84207 -10.14523,11.93997c0.49554,6.0979 5.84199,10.63977 11.93989,10.14423c6.0969,-0.49546 10.63886,-5.84091 10.14331,-11.93881c-0.49554,-6.0979 -5.84107,-10.64085 -11.93798,-10.14539zM268.33826,165.80278c-0.12658,0.01029 -0.25675,-0.01124 -0.37796,-0.07062c-0.36753,-0.17681 -0.52059,-0.61586 -0.34462,-0.98131c0.60274,-1.24993 0.86131,-2.64847 0.74791,-4.04387c-0.14539,-1.7891 -0.86619,-3.42409 -2.08386,-4.72875c-0.27793,-0.29646 -0.26161,-0.76232 0.03494,-1.03924c0.29854,-0.27709 0.76331,-0.26169 1.03933,0.03594c1.44621,1.54895 2.30332,3.49091 2.47577,5.61291c0.13462,1.65654 -0.17191,3.31682 -0.88799,4.8017c-0.11859,0.24441 -0.35234,0.39283 -0.60351,0.41324zM210.18994,170.52818c-0.25117,0.02041 -0.50689,-0.08924 -0.66232,-0.31037c-0.94536,-1.34886 -1.51694,-2.93778 -1.65164,-4.59532c-0.17212,-2.11802 0.36027,-4.17189 1.539,-5.93917c0.22434,-0.33828 0.68136,-0.4306 1.01981,-0.20427c0.33836,0.22533 0.42961,0.68144 0.20427,1.01981c-0.99263,1.48929 -1.44098,3.21929 -1.29591,5.00441c0.11356,1.39739 0.59447,2.73484 1.39004,3.87013c0.23375,0.33316 0.15259,0.79124 -0.17966,1.02392c-0.11202,0.07833 -0.23701,0.12059 -0.36359,0.13088z"
                  data-paper-data="{&quot;origRot&quot;:0}" fill="#2f2831" stroke="none" stroke-width="1"
                  stroke-linecap="butt" stroke-linejoin="miter"/>
            <path d="M221.06895,156.93835c-2.14141,1.89668 -2.60047,4.87766 -1.02518,6.65691c1.57529,1.77925 4.58847,1.68388 6.73095,-0.21189c2.14249,-1.89576 2.60354,-4.8769 1.02717,-6.65707c-1.57529,-1.77925 -4.58946,-1.6838 -6.73295,0.21205zM252.90414,154.68638c1.57545,1.78124 1.11532,4.76131 -1.02717,6.65707c-2.14249,1.89576 -5.15566,1.99114 -6.73195,0.21197c-1.57338,-1.78041 -1.11424,-4.76039 1.02617,-6.65699c2.14249,-1.89576 5.15766,-1.9913 6.73295,-0.21205zM228.088,163.91375c-1.35639,1.29713 -1.76182,3.0738 -0.90762,3.96755c0.85627,0.89458 2.64989,0.57024 4.00521,-0.7278c1.35739,-1.29721 1.76174,-3.0748 0.90746,-3.96954c-0.85827,-0.89442 -2.64965,-0.56725 -4.00505,0.7298zM257.1943,161.14411c0.85428,0.89475 0.45192,2.67218 -0.90646,3.96946c-1.35639,1.29713 -3.15392,1.62279 -4.01019,0.72821c-0.8522,-0.89391 -0.44578,-2.67067 0.91061,-3.96779c1.35839,-1.29729 3.15177,-1.62462 4.00604,-0.72988z"
                  data-paper-data="{&quot;origRot&quot;:0}" fill="#ffffff" stroke="none" stroke-width="1"
                  stroke-linecap="butt" stroke-linejoin="miter"/>
            <path d="M236.65213,189.59345l-0.58507,-7.18723l8.65248,-0.70314l0.58407,7.18731c0.19383,2.38514 -1.58924,4.48145 -3.97338,4.67519c-2.38613,0.19391 -4.48428,-1.587 -4.6781,-3.97214z"
                  data-paper-data="{&quot;origRot&quot;:0}" id="Tongue" fill="#ffa4dc" stroke="none" stroke-width="1"
                  stroke-linecap="butt" stroke-linejoin="miter"/>
            <path d="M248.57139,179.38448c0,0 1.01266,-0.08229 1.09366,0.91442c0.081,0.99671 -0.93166,1.07901 -0.93166,1.07901l-2.02034,0.16418l0.58407,7.18731c0.28301,3.48252 -2.3203,6.54745 -5.80481,6.83062c-3.48551,0.28325 -6.55052,-2.32105 -6.83353,-5.80357l-0.58407,-7.18731l-2.02134,0.16426c0,0 -0.92126,0.05881 -1.00096,-0.92195c-0.0797,-0.98077 0.83897,-1.07147 0.83897,-1.07147zM245.3076,188.89007l-0.58407,-7.18731l-8.65347,0.70322l0.58407,7.18731c0.19383,2.38514 2.29197,4.16604 4.6781,3.97214c2.38314,-0.19366 4.16621,-2.28998 3.97238,-4.67511z"
                  data-paper-data="{&quot;origRot&quot;:0}" id="TongueBorder" fill="#6e2c91" stroke="none"
                  stroke-width="1" stroke-linecap="butt" stroke-linejoin="miter"/>
            <path d="M257.3848,142.31481c-4.90483,0.39859 -10.49519,-0.94703 -14.5903,-3.51076c-2.29169,-1.43409 -4.42644,-2.0482 -6.52752,-1.87746c-2.93034,0.23813 -5.4375,1.94281 -8.09295,3.74883l-0.59718,0.4047c-1.62347,1.0971 -4.21121,1.88429 -6.92327,2.10468c-3.31408,0.26932 -14.29383,0.12518 -16.43892,-13.03632c-1.40418,-8.6246 2.02986,-15.91169 5.159,-20.50624l1.08278,-1.58993l-0.17144,1.91518c-0.67005,7.4959 -0.03958,14.29116 1.64689,17.73488c1.746,3.57131 5.94124,5.82391 10.2022,5.47765c0,0 0,0 0.001,-0.00008c1.4243,-0.11575 2.78989,-0.50965 4.05769,-1.1685c3.3687,-1.79475 5.96666,-2.94998 8.49134,-3.15514c2.80376,-0.22785 5.29363,0.74367 8.07279,3.15148c0.7135,0.61924 1.3999,1.25072 2.07984,1.8767c3.87041,3.56422 7.52721,6.93209 14.93081,6.33044c0.98276,-0.07986 2.02911,-0.22911 3.11114,-0.44546l1.54583,0.07102l-0.46569,0.71407c-1.95365,0.97244 -4.16596,1.56457 -6.57402,1.76026z"
                  data-paper-data="{&quot;origRot&quot;:0}" id="Hair4" fill="#f7466c" stroke="none" stroke-width="1"
                  stroke-linecap="butt" stroke-linejoin="miter"/>
            <path d="M268.29242,136.58349c-1.30748,1.54097 -2.8588,2.68638 -4.54436,3.52567c-0.25771,0.05104 -0.49748,0.10063 -0.7611,0.15315c-11.31063,2.25354 -15.1385,-3.18228 -20.55232,-7.87419c-5.40983,-4.69223 -9.41379,-3.44282 -16.00503,0.06859c-5.61291,2.92023 -12.47939,0.50145 -14.94023,-4.53277c-1.78909,-3.6571 -2.344,-10.73241 -1.69543,-17.99881c2.72107,-3.99854 5.45408,-6.33157 5.45408,-6.33157c0,0 -0.97312,5.69252 1.03396,10.20478c-0.53552,4.99077 0.27342,8.95728 3.78382,11.06688c4.96291,2.98282 11.15317,-4.19115 18.4305,-3.03781c9.66735,1.57514 12.30505,17.57607 24.4114,15.0522c2.45463,-0.5115 4.59506,-1.161 6.47492,-1.86859c-0.33927,0.57838 -0.70567,1.10679 -1.09022,1.57247z"
                  data-paper-data="{&quot;origRot&quot;:0}" id="Hair3" fill="#fff24d" stroke="none" stroke-width="1"
                  stroke-linecap="butt" stroke-linejoin="miter"/>
            <path d="M261.36272,137.60915c-6.13976,0.49894 -9.77812,-3.80249 -13.2966,-7.96217c-2.90245,-3.43118 -5.64402,-6.67277 -9.65511,-7.32603c-0.78976,-0.12544 -1.5876,-0.15291 -2.4368,-0.0839c-2.427,0.19723 -4.72019,1.15211 -6.93766,2.07575c-1.99231,0.8301 -3.87407,1.61309 -5.67713,1.75961c0,0 0,0 -0.001,0.00008c-1.33958,0.10886 -2.50211,-0.14682 -3.55475,-0.77863c-3.37131,-2.02759 -4.65073,-5.69702 -4.02566,-11.54888l0.19763,-1.85209l0.75629,1.70133c1.552,3.49277 4.51611,5.21334 8.80903,5.11229c5.81363,-0.12931 8.42965,-3.16117 10.95154,-6.09206l0.14401,-0.16621l0.22017,-0.00686c4.43558,-0.13572 8.56435,2.21258 13.38784,7.61564c4.12493,4.62208 8.39749,6.78913 12.69632,6.43979c0,0 0,0 0.001,-0.00008c3.58119,-0.29102 6.14781,-2.27644 7.08389,-3.11602c0.43488,-0.3895 0.91816,-0.81304 1.41392,-1.24361l0.74492,-0.64847l0.08202,0.98459c0.39085,4.71082 -0.52592,9.49179 -2.45213,12.78964l-0.08984,0.15378l-0.16647,0.06269c-2.07858,0.78093 -4.28134,1.41643 -6.54747,1.88954c-0.55939,0.11669 -1.11272,0.19677 -1.64795,0.24027z"
                  data-paper-data="{&quot;origRot&quot;:0}" id="Hair2" fill="#68d649" stroke="none" stroke-width="1"
                  stroke-linecap="butt" stroke-linejoin="miter"/>
            <path d="M236.87018,112.94093c3.26618,-3.79703 6.65251,-7.90581 15.9142,-7.87789c12.9677,-0.06055 18.25737,8.7951 18.98192,17.45185c-0.49583,0.42957 -0.97529,0.85079 -1.40826,1.23914c-2.38923,2.14356 -10.66822,7.6402 -20.49075,-3.36335c-5.40637,-6.057 -9.44619,-7.55771 -12.99712,-7.44974z"
                  data-paper-data="{&quot;origRot&quot;:0}" id="Hair" fill="#42b0f4" stroke="none" stroke-width="1"
                  stroke-linecap="butt" stroke-linejoin="miter"/>
            <path d="M257.49284,143.32337v0c-5.11215,0.41544 -10.94828,-0.99147 -15.2305,-3.67243c-2.10151,-1.31611 -4.03664,-1.88122 -5.91445,-1.72862c-2.66721,0.21675 -5.06884,1.84964 -7.61118,3.57824l-0.59901,0.40686c-1.75944,1.18942 -4.52669,2.03935 -7.40221,2.27303c-7.27302,0.59104 -15.69265,-2.74194 -17.50808,-13.87147c-2.61109,-16.01914 10.48356,-27.38211 11.04186,-27.8579l3.13689,-2.67186l-0.68601,4.06492c-0.01302,0.0743 -1.21002,7.45651 2.1979,11.3914c1.50023,1.73218 3.65884,2.54099 6.59987,2.47155c0.30944,-0.00709 0.60811,-0.02333 0.89815,-0.0469c0,0 0,0 0.001,-0.00008c4.74436,-0.38555 6.93627,-2.93246 9.47472,-5.88175c3.01519,-3.50273 6.43287,-7.4726 14.44147,-8.12341c0.78242,-0.06358 1.60862,-0.09461 2.4556,-0.0922c8.60893,-0.04144 15.1521,3.79418 18.41427,10.79998c3.79487,8.15341 2.14544,18.57325 -1.77658,23.18909c-2.86703,3.37531 -6.99501,5.37022 -11.93373,5.77157zM236.10499,134.93317c2.54561,-0.20687 5.08161,0.50506 7.74975,2.17644c3.76203,2.35402 8.89204,3.59056 13.3952,3.22462v0c2.8805,-0.23408 6.93305,-1.24365 9.8879,-4.72341c3.25354,-3.82911 4.60506,-12.97664 1.34197,-19.98135c-1.93738,-4.16075 -6.23138,-9.11021 -15.68887,-9.06603c-0.77373,-0.00234 -1.51796,0.02503 -2.21566,0.08173c-6.78364,0.55127 -9.51439,3.72689 -12.40847,7.09035c-2.87959,3.34423 -5.85395,6.81856 -12.57872,6.97075c-3.84337,0.0896 -6.85309,-1.09351 -8.94618,-3.51593c-2.4244,-2.80786 -3.05585,-6.7015 -3.13168,-9.64704c-3.49516,4.09054 -8.95043,12.29636 -7.32217,22.28329c1.81977,11.15827 10.60961,11.66397 14.30344,11.3638c2.80675,-0.22809 4.92106,-1.06309 5.9644,-1.76791l0.59336,-0.40238c2.75349,-1.87117 5.59912,-3.80602 9.05572,-4.08692z"
                  data-paper-data="{&quot;origRot&quot;:0}" id="HairBorder" fill="#661b4d" stroke="none"
                  stroke-width="1" stroke-linecap="butt" stroke-linejoin="miter"/>
            <path d="M312.40694,221.88962c0.5422,6.67201 -4.42931,12.52191 -11.10331,13.06427c-5.21979,0.42418 -9.92605,-2.53635 -11.99188,-7.03079c0.01441,0.14029 0.04312,0.2714 0.05495,0.41692c0.682,8.39233 -5.56785,15.74672 -13.96018,16.42872c-7.66972,0.62328 -14.45712,-4.55096 -16.09098,-11.85362c-0.2968,7.59499 -6.21756,13.94944 -13.98595,14.58073c-7.77138,0.63154 -14.64113,-4.67948 -16.15975,-12.13196c-0.43348,7.46865 -6.29713,13.67398 -13.96785,14.29734c-7.98169,0.64863 -15.01208,-4.9724 -16.26811,-12.74921c-1.74084,3.93694 -5.52201,6.81667 -10.11088,7.18958c-6.673,0.54228 -12.52306,-4.43122 -13.0651,-11.10124c-0.54228,-6.673 4.42823,-12.52282 11.10124,-13.0651c3.11872,-0.25344 31.4073,1.72977 58.60963,-0.48081c25.83982,-2.09986 50.65119,-8.39821 53.87157,-8.65992c6.674,-0.54236 12.52473,4.42707 13.06661,11.09509z"
                  data-paper-data="{&quot;origRot&quot;:0}" id="Skirt" fill="#ff94f0" stroke="#b2348e" stroke-width="3"
                  stroke-linecap="round" stroke-linejoin="round"/>
        </g>
    </g>
</svg>