<svg version="1.1" xmlns="http://www.w3.org/2000/svg" width="128.51391"
     height="226.67034" viewBox="0,0,128.51391,226.67034">
    <g transform="translate(-175.66156,-66.50346)">
        <g data-paper-data="{&quot;isPaintingLayer&quot;:true}" fill="none" fill-rule="nonzero" stroke="none"
           stroke-width="none" stroke-linecap="none" stroke-linejoin="none" stroke-miterlimit="10" stroke-dasharray=""
           stroke-dashoffset="0" font-family="none" font-weight="none" font-size="none" text-anchor="none"
           style="mix-blend-mode: normal">
            <path d="M221.874,290.331v0c-0.087,0 -0.175,-0.002 -0.263,-0.007c-3.234,-0.159 -6.194,-3.188 -8.41,-5.808c-0.157,-0.189 -0.274,-0.328 -0.367,-0.43l-0.182,-0.207c-1.802,-2.025 -2.953,-3.431 -3.516,-4.291l-0.638,-0.976l0.787,-0.858c3.562,-3.89 22.269,-20.969 26.702,-24.844l1.78,-1.524l0.982,1.42c1.247,1.981 2.5,3.953 3.763,5.93l0.702,1.098l-0.989,0.849c-2.406,2.063 -4.25,3.663 -5.433,4.764c-1.549,1.441 -3.582,3.238 -5.375,4.824c-5.706,5.045 -8.091,7.263 -8.091,7.937c0,0.3 0.312,0.627 1.079,1.357c1.274,1.217 3.184,3.041 3.194,5.272c0.004,1.287 -0.64,2.563 -1.915,3.796c-1.159,1.126 -2.442,1.698 -3.81,1.698zM239.224,231.239c2.922,4.728 6.439,10.392 9.977,16.043c11.951,19.103 17.496,27.541 18.539,28.216c0.092,0.021 0.169,0.032 0.253,0.032c0.594,0 1.536,-0.593 2.627,-1.278c2.502,-1.572 4.529,-2.607 6.376,-2.607c1.36,0 2.552,0.558 3.543,1.659c1.211,1.345 1.771,2.767 1.665,4.224c-0.246,3.26 -3.726,6.121 -5.398,7.495c-2.691,2.216 -7.51,5.224 -9.278,5.937l-0.836,0.338l-0.689,-0.579c-2.217,-1.86 -9.187,-10.957 -18.22,-24.743c-7.996,-12.203 -16.669,-26.309 -22.537,-35.993l-0.902,-0.502l-5.783,-4.061c-7.358,-5.166 -12.195,-12.942 -13.62,-21.896c0.002,0.009 0.01,0.041 0.017,0.066c-0.771,-3.513 -0.884,-9.975 -1.003,-16.815c-0.12,-6.748 -0.255,-14.397 -1.025,-20.619l-0.112,-0.909l-0.124,-0.531c-8.1,5.466 -16.452,10.231 -16.577,10.302c-1.116,0.767 -2.704,1.219 -4.262,1.219v0c-1.713,0 -3.022,-0.53 -3.684,-1.493c-0.666,-0.969 -0.699,-2.375 -0.092,-3.96c0.551,-1.438 1.569,-2.796 2.657,-3.546c0.149,-0.117 10.091,-7.887 18.742,-13.807l-0.158,-0.5l-0.603,-1.901c-2.496,-7.878 -7.854,-27.808 -3.712,-42.68c3.774,-18.84 20.463,-32.502 39.688,-32.505c15.278,0 29.105,8.48 36.086,22.132c4.975,9.057 9.402,31.622 10.797,48.181l0.009,0.112l0.623,0.773l2.866,3.475c6.046,7.331 13.363,17.586 15.462,20.554l0.085,0.12c1.752,2.205 2.194,6.44 0.296,7.958c-0.551,0.436 -1.26,0.654 -2.111,0.654v0c-1.926,0 -4.285,-1.133 -5.52,-2.644l-0.028,-0.031c-0.577,-0.613 -5.395,-5.749 -10.488,-11.819l-0.359,-0.429l-0.512,0.07c-0.315,17.841 -2.482,36.404 -16.078,51.882l0.16,0.654l0.753,2.422c1.56,5.021 3.284,14.412 -2.682,20.899c-2.377,2.575 -5.695,5.76 -10.146,9.736l-1.324,1.185l-0.945,-1.505c-1.238,-1.972 -2.503,-3.992 -3.779,-6.037l-0.648,-1.038l0.888,-0.843c5.447,-5.177 8.104,-8.82 7.895,-10.831c-0.132,-1.277 -0.314,-2.473 -0.543,-3.553l-0.212,-1.004l-0.328,-0.424l-0.262,0.155c-3.962,2.285 -9.137,3.981 -13.844,4.537l-0.949,0.112z"
                  id="Body" fill="#65cefc" stroke="none" stroke-width="1" stroke-linecap="butt"
                  stroke-linejoin="miter"/>
            <path d="M237.499,253.617c-0.185,0.16 -0.357,0.307 -0.506,0.438c-4.679,4.088 -23.193,21.028 -26.583,24.729c0.513,0.783 1.647,2.166 3.386,4.121l0.166,0.188c0.104,0.111 0.236,0.275 0.396,0.463c1.187,1.4 4.34,5.14 7.351,5.286c1.046,0.055 2.016,-0.367 2.952,-1.271c0.97,-0.942 1.46,-1.859 1.457,-2.713c-0.007,-1.595 -1.645,-3.156 -2.729,-4.191c-0.896,-0.853 -1.544,-1.472 -1.544,-2.447c0,-1.235 0.637,-2.018 8.598,-9.057c1.887,-1.672 3.838,-3.401 5.348,-4.803c1.243,-1.16 3.19,-2.844 5.479,-4.806c0.628,0.998 1.264,1.998 1.898,2.979c-2.096,1.799 -3.868,3.336 -5,4.392c-1.543,1.436 -3.511,3.171 -5.414,4.856c-2.426,2.146 -5.584,4.938 -6.949,6.354c1.422,1.353 3.792,3.623 3.806,6.706c0.008,1.84 -0.839,3.602 -2.519,5.233c-1.547,1.504 -3.296,2.269 -5.201,2.269c-0.119,0 -0.239,-0.003 -0.359,-0.013c-4.53,-0.224 -8.259,-4.634 -9.852,-6.521c-0.137,-0.165 -0.251,-0.296 -0.34,-0.396l-0.164,-0.188c-3.508,-3.941 -4.522,-5.443 -4.522,-6.689c0,-0.996 0,-1.404 12.806,-13.268c6.345,-5.877 13.253,-12.127 15.222,-13.85c0.257,-0.231 0.571,-0.494 0.927,-0.802c0,0 -9.088,-14.685 -12.41,-20.175l-0.081,-0.133c-10.447,-4.711 -18.204,-14.401 -20.132,-26.418c-0.782,-3.631 -0.892,-9.863 -1.018,-17.076c-0.11,-6.234 -0.232,-12.955 -0.807,-18.655l-0.011,0.009c-6.839,4.473 -13.149,8.097 -13.964,8.562c-1.354,0.907 -3.383,1.516 -5.371,1.516c-2.079,0 -4.111,-0.667 -5.275,-2.356c-1.052,-1.528 -1.163,-3.591 -0.312,-5.812c0.691,-1.804 1.939,-3.461 3.345,-4.446c0.849,-0.663 9.494,-7.395 17.587,-13.005l-0.015,0.006c-3.958,-12.166 -7.885,-30.966 -4.071,-44.754c3.981,-19.719 21.479,-34.024 41.631,-34.024c16.027,0 30.527,8.881 37.839,23.181c5.293,9.645 9.557,32.181 10.979,48.601c7.083,7.851 17.954,23.286 18.729,24.389c2.055,2.629 3.062,8.195 -0.084,10.701c-3.151,2.498 -8.328,0.278 -10.432,-2.3c-0.441,-0.47 -3.865,-4.121 -7.941,-8.835c-0.559,14.635 -2.975,32.618 -15.804,47.799c1.987,5.444 4.825,16.853 -2.462,24.776c-2.838,3.083 -6.731,6.712 -10.726,10.271c-0.62,-0.981 -1.251,-1.985 -1.891,-3.002c3.765,-3.369 7.39,-6.766 10.034,-9.64c5.349,-5.812 3.958,-14.271 2.354,-19.435c-2.078,2.15 -4.399,4.246 -6.968,6.248c-0.433,0.334 -0.901,0.672 -1.422,1.01c0.239,1.098 0.432,2.34 0.573,3.709c0.292,2.787 -2.808,6.801 -8.354,12.072c-0.626,-1.019 -1.264,-2.035 -1.897,-3.056c5.549,-5.325 6.874,-7.668 6.771,-8.663c-0.093,-0.866 -0.202,-1.617 -0.31,-2.262c-3.174,1.558 -7.082,2.878 -11.059,3.537c-0.679,-1.102 -1.35,-2.184 -2.016,-3.255c4.799,-0.572 9.797,-2.349 13.271,-4.349c0.073,-0.057 0.155,-0.104 0.243,-0.146c0.76,-0.452 1.446,-0.914 2.031,-1.372c3.233,-2.518 6.035,-5.167 8.462,-7.917c0.017,-0.024 0.041,-0.051 0.062,-0.073c14.021,-15.959 15.427,-35.235 15.709,-50.832c-0.002,-0.028 -0.002,-0.056 -0.002,-0.084c0.027,-1.392 0.041,-2.751 0.062,-4.072c0.019,-1.312 0.035,-2.584 0.058,-3.814c0,-0.01 0,-0.019 0,-0.029c0,-0.004 0,-0.009 0,-0.014c0,-0.003 0,-0.005 0,-0.008v-0.001c0.002,-0.073 0.002,-0.148 0.004,-0.222c0.041,-2.833 -0.105,-6.282 -0.438,-10.259c-0.011,-0.076 -0.013,-0.151 -0.009,-0.226c-1.398,-16.6 -5.852,-38.908 -10.639,-47.624c-6.731,-13.163 -20.035,-21.313 -34.743,-21.313c-18.512,0 -34.583,13.154 -38.213,31.277c-0.008,0.042 -0.02,0.087 -0.031,0.128c-3.53,12.677 -0.017,30.099 3.698,41.824c0,0 5.495,-3.844 8.808,-5.145c0.345,-0.144 0.229,-0.097 1.051,-0.092c0.822,0.005 1.061,0.516 1.23,1.104c0.169,0.588 0.249,1.242 -0.111,1.634c-0.36,0.392 -1.182,0.668 -1.697,0.981c-7.792,3.781 -27.548,19.193 -27.754,19.354c-0.028,0.021 -0.056,0.042 -0.085,0.063c-0.838,0.578 -1.666,1.695 -2.108,2.848c-0.413,1.079 -0.44,2.041 -0.073,2.574c0.804,1.169 4.082,1.111 5.845,-0.102c0.041,-0.028 0.083,-0.055 0.126,-0.079c0.199,-0.114 19.082,-10.908 27.448,-18.55c0.643,-0.777 1.248,-1.3 1.777,-1.648c0,-0.002 1.19,-0.225 1.961,0.716c0.771,0.94 0.514,1.679 -0.048,2.246c-2.885,2.912 -7.452,6.326 -12.137,9.514l0.038,-0.026c0.777,6.265 0.913,13.817 1.036,20.777c0.119,6.765 0.231,13.155 0.949,16.438c0.007,0.035 0.014,0.067 0.019,0.101c1.394,8.759 6.227,16.149 13,20.907l0.042,0.064c-1.526,-2.544 -2.422,-4.051 -2.458,-4.113c-0.322,-0.543 -0.325,-1.223 -0.009,-1.771c0.316,-0.547 0.871,-0.853 1.536,-0.874c0,0 0.498,-0.069 1.045,0.4c0.547,0.473 2.037,3.137 2.037,3.137c4.292,7.173 16.49,27.421 27.425,44.109c9.575,14.612 16.083,22.867 17.929,24.416c1.6,-0.641 6.309,-3.584 8.885,-5.703c1.515,-1.244 4.664,-3.839 4.854,-6.443c0.077,-1.046 -0.345,-2.067 -1.283,-3.108c-1.856,-2.061 -4.145,-1.209 -7.979,1.197c-1.664,1.046 -2.856,1.806 -4.123,1.428c-0.922,-0.281 -1.653,-0.5 -19.391,-28.854c-7.397,-11.827 -14.729,-23.743 -16.688,-26.931c0,0 -1.21,-1.649 -0.523,-2.623c0.687,-0.964 1.53,-0.86 1.53,-0.86c0.601,0.007 1.157,0.317 1.471,0.835c11.799,19.226 30.848,49.81 34.653,54.773c0.367,-0.209 0.831,-0.5 1.208,-0.731c2.891,-1.812 8.272,-5.199 12.438,-0.583c1.592,1.77 2.322,3.692 2.176,5.715c-0.301,4.103 -4.229,7.334 -6.115,8.896c-0.084,0.071 -8.549,6.603 -11.424,6.603c-0.079,0 -0.16,-0.005 -0.223,-0.017c-3.332,-0.618 -15.318,-18.443 -20.32,-26.082c-2.859,-4.363 -8.631,-13.466 -8.612,-13.453zM299.467,172.152c-0.022,-0.027 -0.044,-0.055 -0.065,-0.084c-0.104,-0.143 -8.627,-12.279 -15.487,-20.597c0.094,2 0.129,3.823 0.103,5.456c0,0.052 0,0.104 -0.002,0.157c-0.021,1.203 -0.037,2.448 -0.052,3.729c-0.014,1.143 -0.026,2.321 -0.047,3.532c5.32,6.339 10.345,11.663 10.396,11.717c0.035,0.036 0.066,0.073 0.104,0.112c1.333,1.674 4.447,2.684 5.562,1.802c1.104,-0.882 0.82,-4.149 -0.512,-5.824z"
                  id="BodyBorder" fill="#3d94b2" stroke="none" stroke-width="1" stroke-linecap="butt"
                  stroke-linejoin="miter"/>
            <path d="M254.016,225.438c-0.188,0.129 -1.082,0.545 -1.144,0.504c-0.431,-0.271 -0.788,-0.889 -1.166,-1.351c-7.338,-8.952 -10.375,-21.776 -8.124,-34.305c3.518,-19.584 18.465,-33.798 35.54,-33.798c0.001,0 0.002,0 0.003,0c1.719,-0.128 1.037,0.017 1.297,-0.031c0.438,-0.082 0.204,1.14 0.204,1.778c0,0.966 0.546,3 -1.501,1.753v0c-15.133,-0.001 -28.932,13.29 -32.098,30.917c-2.072,11.532 0.688,23.302 7.386,31.473c0.341,0.415 0.69,0.813 1.049,1.216c0.649,0.721 0.491,0.664 -0.353,1.193c-0.718,0.445 -0.703,0.434 -1.093,0.651z"
                  id="BellyBorder" fill="#e2a700" stroke="none" stroke-width="1" stroke-linecap="butt"
                  stroke-linejoin="miter"/>
            <path d="M280.628,159.88l-0.012,0.899c-0.221,18.844 -0.524,44.651 -24.354,63.182c-0.121,0.096 -0.25,0.191 -0.386,0.291c-7.809,-8.17 -11.252,-20.822 -8.996,-33.373c3.179,-17.697 17.039,-31.042 32.242,-31.042c0.5,0 1.002,0.015 1.506,0.043z"
                  id="Belly" fill="#ffdf24" stroke="none" stroke-width="1" stroke-linecap="butt"
                  stroke-linejoin="miter"/>
            <path d="M261.285,265.883c3.561,5.491 6.117,9.245 6.535,9.372c1.634,0.489 8.326,-7.185 12.896,-2.122c4.572,5.062 -0.979,9.795 -3.754,12.083c-2.774,2.284 -9.146,6.367 -10.285,6.203c-1.429,-0.265 -7.465,-8.106 -14.493,-18.413zM212.634,284.234c1.306,1.471 7.674,9.959 13.226,4.57c5.551,-5.396 -2.286,-9.641 -2.286,-10.611c0,-0.637 3.663,-3.899 7.524,-7.316l-6.739,-7.771c-7.589,6.979 -15.97,14.83 -15.97,15.414c0,0.98 2.939,4.246 4.245,5.714z"
                  id="Shoes" fill="#ff5122" stroke="#ad391e" stroke-width="3.5" stroke-linecap="round"
                  stroke-linejoin="round"/>
            <path d="M260.759,110.089c0,-1.361 1.103,-2.464 2.466,-2.464h0.209c1.362,0 2.465,1.103 2.465,2.464v8.719c0,1.361 -1.103,2.464 -2.465,2.464h-0.209c-1.363,0 -2.466,-1.103 -2.466,-2.464zM246.658,118.808c0,1.361 1.104,2.464 2.464,2.464h0.212c1.359,0 2.464,-1.103 2.464,-2.464v-8.719c0,-1.361 -1.104,-2.464 -2.464,-2.464h-0.212c-1.36,0 -2.464,1.103 -2.464,2.464z"
                  id="EyesBorder" fill="#2d3442" stroke="none" stroke-width="1" stroke-linecap="butt"
                  stroke-linejoin="miter"/>
            <path d="M268.811,126.12c-2.84,0 -5.146,2.306 -5.146,5.151c0,2.846 2.299,5.152 5.146,5.152M245.741,126.12c2.841,0 5.153,2.306 5.153,5.151c0,2.846 -2.306,5.152 -5.153,5.152M250.895,131.271h12.764"
                  id="Mouth" fill="none" stroke="#2d3442" stroke-width="1.8" stroke-linecap="round"
                  stroke-linejoin="round"/>
            <path d="M255.235,86.367c-1.979,0 -3.926,-0.327 -5.788,-0.972c-3.299,-1.141 -6.168,-3.217 -8.297,-6.004l-0.494,-0.647l0.273,-0.767c1.67,-4.687 3.931,-9.688 9.657,-9.688c1.371,0 2.853,0.282 4.528,0.861c9.059,3.135 7.702,9.72 5.72,15.647l-0.257,0.766l-0.78,0.208c-1.485,0.396 -3.02,0.596 -4.562,0.596z"
                  id="Hat" fill="#6ca346" stroke="none" stroke-width="1" stroke-linecap="butt" stroke-linejoin="miter"/>
            <path d="M237.653,71.584c0.884,-0.206 1.767,0.342 1.972,1.227c0.159,0.675 0.37,1.332 0.621,1.974c2.119,-4.985 6.099,-10.558 15.458,-7.32c9.296,3.219 9.044,9.99 7.65,15.208c0.606,-0.36 1.176,-0.756 1.717,-1.201c0.703,-0.575 1.74,-0.471 2.312,0.229c0.576,0.702 0.472,1.737 -0.229,2.313c-4.975,4.075 -11.982,5.252 -18.293,3.069c-6.229,-2.154 -10.996,-7.337 -12.442,-13.524c-0.206,-0.884 0.344,-1.768 1.234,-1.975zM259.412,84.322c2.074,-6.2 2.777,-11.135 -4.787,-13.753c-7.588,-2.624 -10.078,1.725 -12.282,7.912c1.89,2.474 4.519,4.433 7.595,5.497c3.121,1.08 6.432,1.153 9.474,0.344z"
                  id="HatBorder" fill="#3a6618" stroke="none" stroke-width="1" stroke-linecap="butt"
                  stroke-linejoin="miter"/>
        </g>
    </g>
</svg>