<svg version="1.1" xmlns="http://www.w3.org/2000/svg" width="125.72641"
     height="225.70346" viewBox="0,0,125.72641,225.70346">
    <g transform="translate(-178.15131,-70.58275)">
        <g data-paper-data="{&quot;isPaintingLayer&quot;:true}" fill="none" fill-rule="nonzero" stroke="none"
           stroke-width="none" stroke-linecap="none" stroke-linejoin="none" stroke-miterlimit="10" stroke-dasharray=""
           stroke-dashoffset="0" font-family="none" font-weight="none" font-size="none" text-anchor="none"
           style="mix-blend-mode: normal">
            <path d="M200.55461,284.64644v0c-0.08531,-0.01706 -0.17121,-0.03628 -0.25652,-0.05844c-3.14002,-0.79015 -5.4485,-4.34083 -7.10764,-7.34455c-0.11689,-0.21612 -0.20435,-0.37537 -0.27554,-0.49362l-0.13787,-0.23867c-1.36987,-2.33908 -2.22278,-3.9435 -2.60619,-4.89722l-0.4342,-1.08217l0.93998,-0.68699c4.25572,-3.11589 25.94891,-16.19449 31.05578,-19.12485l2.04431,-1.14532l0.68445,1.58501c0.83428,2.18709 1.6762,4.36653 2.52696,6.55283l0.47303,1.21435l-1.1363,0.63855c-2.76386,1.55108 -4.88584,2.75837 -6.26179,3.60599c-1.80152,1.10923 -4.14746,2.47263 -6.21669,3.6762c-6.5846,3.82799 -9.35827,5.53518 -9.49045,6.19609c-0.05883,0.29417 0.18298,0.67601 0.79192,1.54226c1.01059,1.44322 2.52578,3.60638 2.09805,5.79602c-0.24848,1.26279 -1.13022,2.38771 -2.62227,3.34672c-1.35732,0.87684 -2.72758,1.18611 -4.06902,0.91782zM229.15658,230.10459c1.93802,5.20924 4.27592,11.45299 6.63696,17.68811c7.97251,21.07582 11.755,30.43742 12.64537,31.30386c0.08609,0.03863 0.15944,0.06452 0.24181,0.081c0.58246,0.11649 1.62247,-0.28025 2.82662,-0.73798c2.76171,-1.05079 4.95232,-1.66816 6.76346,-1.30594c1.33359,0.26672 2.39301,1.04765 3.14884,2.32162c0.92371,1.55638 1.19395,3.06059 0.80427,4.46851c-0.88056,3.14845 -4.85407,5.27141 -6.76307,6.29082c-3.07334,1.64522 -8.38867,3.64972 -10.26217,4.00214l-0.88605,0.16748l-0.56207,-0.70288c-1.80917,-2.25867 -6.85975,-12.54594 -13.01368,-27.83574c-5.44752,-13.53417 -11.18568,-29.06716 -15.04054,-39.71391l-0.78603,-0.66915l-4.87427,-5.11628c-6.20198,-6.5087 -9.42005,-15.08231 -9.06135,-24.1419c0.0002,0.00922 0.00177,0.04216 0.00373,0.06805c-0.06707,-3.59599 1.08943,-9.95466 2.31417,-16.68517c1.20572,-6.64049 2.57344,-14.16743 3.03862,-20.41961l0.06844,-0.91331l-0.01745,-0.54501c-9.01467,3.77131 -18.13898,6.80582 -18.27547,6.85092c-1.24475,0.53324 -2.89056,0.66503 -4.4183,0.35948v0c-1.67973,-0.33595 -2.85937,-1.11237 -3.31966,-2.1865c-0.46303,-1.0808 -0.21965,-2.46596 0.68641,-3.90114c0.82232,-1.30201 2.08687,-2.434 3.30083,-2.95606c0.16905,-0.08551 11.44181,-5.75483 21.08582,-9.86327l-0.05687,-0.52128l-0.21847,-1.98234c-0.90253,-8.21452 -2.24788,-28.80828 4.73032,-42.57917c7.39554,-17.734 26.43979,-27.85771 45.29204,-24.09032c14.98131,2.99626 26.87674,14.02329 31.04479,28.77926c3.10216,9.8568 3.01783,32.85181 1.13826,49.36282l-0.01314,0.11159l0.4593,0.88017l2.12884,3.96959c4.49086,8.37436 9.6546,19.86519 11.13077,23.1872l0.05982,0.13434c1.28554,2.50578 0.88841,6.74522 -1.27044,7.86151c-0.62581,0.31947 -1.36379,0.39419 -2.19827,0.2273v0c-1.8886,-0.37772 -3.97959,-1.95136 -4.89427,-3.67522l-0.02138,-0.03589c-0.44558,-0.71425 -4.16276,-6.69541 -7.96643,-13.64635l-0.26789,-0.49107l-0.51579,-0.03177c-3.80779,17.43276 -9.57321,35.2103 -25.94068,47.72133l0.02863,0.67268l0.26338,2.52264c0.54501,5.22944 0.3938,14.77617 -6.72855,19.96717c-2.83584,2.05883 -6.71404,4.53126 -11.85836,7.55714l-1.53069,0.90233l-0.63149,-1.6611c-0.82722,-2.1765 -1.6715,-4.40536 -2.52166,-6.66089l-0.43185,-1.14493l1.03608,-0.65248c6.35652,-4.00822 9.67637,-7.0594 9.86582,-9.07233c0.121,-1.27809 0.17709,-2.48656 0.16435,-3.59049l-0.01098,-1.02608l-0.23848,-0.48009l-0.28731,0.10061c-4.33319,1.46361 -9.7403,2.11178 -14.46494,1.73386l-0.95254,-0.07629z"
                  data-paper-data="{&quot;origRot&quot;:0}" id="Body" fill="#65cefc" stroke="none" stroke-width="1"
                  stroke-linecap="butt" stroke-linejoin="miter"/>
            <path d="M223.07639,251.70972c-0.21279,0.12061 -0.41027,0.23102 -0.58207,0.33026c-5.38986,3.09099 -26.86654,16.07113 -30.91653,19.03542c0.34948,0.8684 1.19023,2.44694 2.51205,4.70502l0.12591,0.2169c0.08021,0.12924 0.17749,0.31594 0.29751,0.53167c0.88939,1.6056 3.24768,5.89133 6.17158,6.625c1.0149,0.25907 2.04883,0.0355 3.14394,-0.66738c1.1359,-0.73347 1.79623,-1.53657 1.96077,-2.37457c0.30594,-1.5654 -0.99411,-3.41732 -1.85408,-4.64481c-0.71131,-1.01216 -1.22533,-1.74622 -1.03412,-2.70228c0.2422,-1.21102 1.02039,-1.85389 10.20726,-7.19491c2.17826,-1.26946 4.43046,-2.58226 6.18609,-3.6609c1.44636,-0.8937 3.68581,-2.16316 6.31514,-3.63815c0.42008,1.10178 0.84761,2.20709 1.27691,3.29338c-2.40811,1.35301 -4.44713,2.51264 -5.76425,3.32613c-1.79466,1.10551 -4.0647,2.42086 -6.2612,3.69993c-2.79975,1.62855 -6.44398,3.74699 -8.06018,4.8678c1.12904,1.6056 3.00783,4.29632 2.41693,7.32219c-0.35301,1.80584 -1.52912,3.36751 -3.49636,4.63736c-1.81192,1.1714 -3.67698,1.57854 -5.54499,1.20494c-0.11669,-0.02334 -0.23377,-0.04981 -0.34948,-0.08315c-4.3981,-1.10806 -7.18981,-6.16373 -8.38181,-8.3265c-0.10198,-0.18866 -0.18808,-0.33948 -0.25574,-0.45499l-0.12395,-0.21651c-2.66698,-4.55244 -3.36673,-6.22414 -3.12236,-7.44594c0.19533,-0.97666 0.27535,-1.37674 15.15939,-10.49888c7.37436,-4.51852 15.37394,-9.29237 17.64261,-10.59576c0.29731,-0.17611 0.65679,-0.37242 1.06628,-0.60463c0,0 -6.03155,-16.18213 -8.21236,-22.21702l-0.05334,-0.1463c-9.32022,-6.66834 -15.02622,-17.69144 -14.56005,-29.85319c-0.05472,-3.71385 1.05962,-9.8464 2.35065,-16.94404c1.11472,-6.13451 2.31319,-12.74892 2.86722,-18.451l-0.01255,0.00667c-7.58342,3.0449 -14.48161,5.36103 -15.37198,5.65717c-1.50558,0.62385 -3.61462,0.8231 -5.56401,0.43322c-2.03863,-0.40773 -3.90036,-1.46028 -4.71051,-3.34476c-0.73191,-1.70464 -0.43616,-3.74935 0.83389,-5.76032c1.03137,-1.63345 2.5801,-3.01352 4.15197,-3.70365c0.96254,-0.48362 10.75991,-5.38947 19.79596,-9.30336l-0.01589,0.00294c-1.49519,-12.70597 -1.65895,-31.91104 4.78504,-44.6833c7.77091,-18.55533 27.73455,-29.1509 47.49521,-25.19876c15.71577,3.14315 28.19248,14.69538 32.55802,30.15168c3.29867,10.49574 3.06019,33.43035 1.23435,49.81036c5.40574,9.08763 13.03858,26.35487 13.58222,27.58844c1.4995,2.98097 1.39537,8.63637 -2.18101,10.47672c-3.57971,1.83153 -8.2208,-1.36065 -9.77835,-4.30122c-0.34026,-0.54736 -2.98175,-4.79896 -6.0541,-10.22079c-3.4183,14.24117 -9.31414,31.40113 -24.87125,43.77136c0.88076,5.72796 1.42616,17.47199 -7.27316,23.81203c-3.38751,2.46655 -7.91662,5.2616 -12.53202,7.968c-0.41557,-1.08354 -0.83742,-2.19179 -1.26554,-3.31456c4.3526,-2.5652 8.57341,-5.18531 11.72971,-7.48497c6.38495,-4.65011 6.67991,-13.21764 6.1198,-18.59593c-2.4593,1.70072 -5.14628,3.30083 -8.05802,4.76013c-0.49009,0.2426 -1.01529,0.48225 -1.59246,0.71151c0.01902,1.12355 -0.0353,2.37928 -0.16552,3.74935c-0.26025,2.79014 -4.08726,6.11823 -10.55929,10.19922c-0.414,-1.12198 -0.84036,-2.24337 -1.26083,-3.36869c6.48556,-4.13334 8.24433,-6.17099 8.33847,-7.16687c0.07864,-0.86742 0.11904,-1.62521 0.13963,-2.27887c-3.41791,0.90527 -7.50889,1.43322 -11.5379,1.29947c-0.44969,-1.21376 -0.89547,-2.40635 -1.33849,-3.58716c4.81799,0.38027 10.06743,-0.38203 13.8662,-1.66189c0.08276,-0.04158 0.17239,-0.07158 0.26691,-0.09551c0.83389,-0.29417 1.59717,-0.61267 2.26063,-0.94704c3.66404,-1.83506 6.93114,-3.8831 9.85033,-6.10372c0.02138,-0.0202 0.05021,-0.04197 0.07511,-0.05942c16.87854,-12.89934 22.03757,-31.52528 25.37292,-46.76409c0.00353,-0.02785 0.00902,-0.0553 0.01451,-0.08276c0.29947,-1.35967 0.57972,-2.68954 0.85938,-3.98077c0.27594,-1.2828 0.54108,-2.52696 0.80486,-3.72856c0.00196,-0.00981 0.00373,-0.01863 0.00569,-0.02844c0.00078,-0.00392 0.00177,-0.00883 0.00275,-0.01373c0.00059,-0.00294 0.00098,-0.0049 0.00157,-0.00784l0.0002,-0.00098c0.01628,-0.07119 0.03099,-0.14473 0.04746,-0.2169c0.5958,-2.76994 1.12904,-6.1806 1.58246,-10.14568c0.00412,-0.07668 0.01687,-0.15062 0.0355,-0.22338c1.88468,-16.55181 1.89213,-39.3001 -1.09256,-48.78565c-4.01881,-14.22744 -15.46611,-24.8283 -29.88849,-27.71278c-18.15251,-3.6305 -36.49113,6.11627 -43.60485,23.17543c-0.01608,0.03962 -0.03667,0.08139 -0.0555,0.11943c-5.94761,11.73853 -5.91957,29.51116 -4.57618,41.73704c0,0 6.14216,-2.69169 9.64597,-3.3177c0.36654,-0.07354 0.24358,-0.05021 1.04863,0.1159c0.80506,0.16611 0.9392,0.71406 0.9896,1.32378c0.0504,0.60973 0.00059,1.26671 -0.4293,1.5805c-0.42989,0.31379 -1.29005,0.42322 -1.85644,0.62914c-8.3822,2.17944 -30.77709,13.41768 -31.01067,13.53515c-0.03157,0.0151 -0.06315,0.0302 -0.0957,0.04511c-0.93508,0.40243 -1.96606,1.33535 -2.6256,2.37928c-0.61659,0.97705 -0.83173,1.91507 -0.57639,2.5097c0.55913,1.30398 3.78485,1.88997 5.7515,1.04628c0.0457,-0.01942 0.09217,-0.03765 0.13905,-0.05276c0.21749,-0.07276 20.85068,-6.95389 30.55293,-12.80677c0.7829,-0.63581 1.47872,-1.03 2.06569,-1.2675c0.00039,-0.00196 1.21102,0.01275 1.7825,1.08668c0.57168,1.07295 0.17474,1.7472 -0.48754,2.19297c-3.40007,2.28966 -8.54792,4.7417 -13.76716,6.94898l0.04236,-0.01804c-0.46676,6.29572 -1.81447,13.72774 -3.05882,20.5767c-1.21004,6.65697 -2.35339,12.94484 -2.29319,16.3049c0,0.03569 0.00059,0.06844 -0.00118,0.10276c-0.35085,8.86229 2.939,17.05661 8.64735,23.05051l0.02863,0.07099c-0.99745,-2.79387 -1.5805,-4.44733 -1.60364,-4.51518c-0.20926,-0.5956 -0.07884,-1.26299 0.3385,-1.73837c0.41714,-0.4744 1.02137,-0.66562 1.67758,-0.55579c0,0 0.50186,0.03001 0.94626,0.59717c0.44361,0.57109 1.38223,3.47557 1.38223,3.47557c2.80191,7.87544 10.79207,30.12246 18.24194,48.63092c6.52341,16.20606 11.28609,25.57707 12.79246,27.45802c1.69464,-0.31477 6.88936,-2.2771 9.83091,-3.84976c1.72955,-0.92273 5.32632,-2.84976 6.02332,-5.36593c0.28064,-1.01059 0.06707,-2.09452 -0.64856,-3.29926c-1.41576,-2.38497 -3.8274,-1.99842 -8.0588,-0.39106c-1.83682,0.69935 -3.15472,1.21082 -4.32299,0.59168c-0.84899,-0.45636 -1.52284,-0.81447 -13.3557,-32.09656c-4.93389,-13.048 -9.78659,-26.17052 -11.08233,-29.6808c0,0 -0.86311,-1.85428 0.00157,-2.67463c0.86271,-0.81055 1.66895,-0.54324 1.66895,-0.54324c0.58796,0.12473 1.07236,0.53775 1.27868,1.10727c7.79934,21.16662 20.48041,54.89251 23.23819,60.50536c0.40086,-0.13297 0.91292,-0.32732 1.3279,-0.4799c3.19022,-1.20984 9.13097,-3.47577 12.3108,1.86761c1.21396,2.04784 1.55285,4.07569 1.01294,6.03077c-1.09982,3.96429 -5.58519,6.3622 -7.7409,7.524c-0.09629,0.05315 -9.67794,4.79818 -12.49711,4.23434c-0.07747,-0.01549 -0.15591,-0.03628 -0.21534,-0.0604c-3.14609,-1.25946 -11.40356,-21.08896 -14.8103,-29.56059c-1.94783,-4.83897 -5.82249,-14.89718 -5.80641,-14.8807zM299.81761,183.97964c-0.01628,-0.03079 -0.03236,-0.06256 -0.04726,-0.09512c-0.07394,-0.16062 -6.05136,-13.73244 -11.14685,-23.23427c-0.30006,1.9796 -0.62326,3.77406 -0.96901,5.37025c-0.0102,0.05099 -0.0204,0.10198 -0.03275,0.15356c-0.25652,1.17552 -0.51637,2.39321 -0.78231,3.64639c-0.23789,1.11806 -0.48068,2.27083 -0.73877,3.45419c3.97351,7.25924 7.8568,13.46533 7.89622,13.52829c0.02726,0.04216 0.0504,0.08453 0.08002,0.13022c0.97882,1.90291 3.83427,3.50401 5.10059,2.8578c1.25554,-0.64836 1.61776,-3.90761 0.64012,-5.81131z"
                  data-paper-data="{&quot;origRot&quot;:0}" id="BodyBorder" fill="#3d94b2" stroke="none"
                  stroke-width="1" stroke-linecap="butt" stroke-linejoin="miter"/>
            <path d="M244.799,227.31719c-0.20965,0.08963 -1.16787,0.32222 -1.22063,0.26986c-0.36948,-0.35026 -0.59835,-1.02628 -0.8784,-1.55344c-5.43987,-10.21726 -5.9029,-23.38783 -1.23847,-35.23207c7.29042,-18.51376 24.73476,-29.52038 41.47817,-26.1717c0.00098,0.0002 0.00196,0.00039 0.00294,0.00059c1.71072,0.21161 1.01353,0.22004 1.27789,0.22396c0.44558,0.00549 -0.02353,1.15787 -0.14866,1.78348c-0.18945,0.94724 -0.05295,3.04882 -1.81564,1.42459v0c-14.83893,-2.96881 -30.97654,7.35788 -37.538,24.02168c-4.29337,10.9017 -3.89526,22.98442 1.0702,32.31033c0.25299,0.47382 0.51716,0.93253 0.79015,1.39811c0.495,0.83428 0.35124,0.7474 -0.58011,1.1006c-0.79133,0.29555 -0.77446,0.2877 -1.19945,0.424z"
                  data-paper-data="{&quot;origRot&quot;:0}" id="BellyBorder" fill="#e2a700" stroke="none"
                  stroke-width="1" stroke-linecap="butt" stroke-linejoin="miter"/>
            <path d="M283.75119,168.25132l-0.18808,0.87919c-3.91232,18.43472 -9.27061,43.68114 -36.27207,57.17883c-0.13748,0.07041 -0.2826,0.13826 -0.43557,0.20965c-6.05509,-9.54282 -6.94996,-22.62435 -2.27632,-34.48918c6.58793,-16.72988 22.79595,-27.09756 37.70372,-24.11601c0.49029,0.09806 0.9796,0.21122 1.46832,0.33752z"
                  data-paper-data="{&quot;origRot&quot;:0}" id="Belly" fill="#ffdf24" stroke="none" stroke-width="1"
                  stroke-linecap="butt" stroke-linejoin="miter"/>
            <path d="M243.99492,268.40234c2.41497,6.08274 4.18512,10.26511 4.57009,10.47162c1.50637,0.79996 9.57341,-5.41261 13.06173,0.44832c3.49047,5.86034 -2.88095,9.41279 -6.05077,11.11214c-3.16806,1.69562 -10.21706,4.44968 -11.30178,4.06549c-1.34928,-0.5401 -5.73032,-9.41259 -10.60047,-20.89774zM192.68976,276.85573c0.99215,1.69856 5.57186,11.2706 12.07291,7.07509c6.50145,-4.20257 -0.35085,-9.9021 -0.16062,-10.85326c0.12493,-0.62463 4.35652,-3.10491 8.81267,-5.69835l-5.08411,-8.94172c-8.81032,5.35515 -18.56828,11.41004 -18.68281,11.9827c-0.19219,0.96097 2.04922,4.73993 3.04196,6.43555z"
                  data-paper-data="{&quot;origRot&quot;:0}" id="Shoes" fill="#ff5122" stroke="#ad391e"
                  stroke-width="3.5" stroke-linecap="round" stroke-linejoin="round"/>
            <path d="M274.03286,115.5306c0.26691,-1.33457 1.56481,-2.19983 2.90134,-1.93253l0.20494,0.04099c1.33555,0.26711 2.20082,1.56501 1.9339,2.89958l-1.70994,8.54968c-0.26691,1.33457 -1.56481,2.19983 -2.90036,1.93272l-0.20494,-0.04099c-1.33653,-0.26731 -2.2018,-1.5652 -1.93488,-2.89977zM258.49575,121.31485c-0.26691,1.33457 0.59933,2.63266 1.93292,2.89938l0.20788,0.04158c1.33261,0.26652 2.63247,-0.59835 2.89938,-1.93292l1.70994,-8.54968c0.26691,-1.33457 -0.59933,-2.63266 -1.93292,-2.89938l-0.20788,-0.04158c-1.33359,-0.26672 -2.63247,0.59835 -2.89938,1.93292z"
                  data-paper-data="{&quot;origRot&quot;:0}" id="EyesBorder" fill="#2d3442" stroke="none"
                  stroke-width="1" stroke-linecap="butt" stroke-linejoin="miter"/>
            <path d="M278.78455,132.82942c-2.78485,-0.55697 -5.49831,1.25201 -6.05626,4.04176c-0.55815,2.79073 1.24396,5.50282 4.03568,6.06117M256.16256,128.30502c2.78583,0.55717 4.60069,3.27181 4.04274,6.06156c-0.55815,2.79073 -3.27161,4.59971 -6.06332,4.04136M260.20628,134.36677l12.51613,2.50323"
                  data-paper-data="{&quot;origRot&quot;:0}" id="Mouth" fill="none" stroke="#2d3442" stroke-width="1.8"
                  stroke-linecap="round" stroke-linejoin="round"/>
            <path d="M273.2684,91.18592c-1.94057,-0.38811 -3.78563,-1.0906 -5.48498,-2.08824c-3.01117,-1.76583 -5.41732,-4.36417 -6.9584,-7.51458l-0.35752,-0.73132l0.41812,-0.69857c2.55677,-4.26847 5.75464,-8.72893 11.36944,-7.60597c1.34438,0.26888 2.74229,0.83604 4.27121,1.73229c8.26826,4.85074 5.64618,11.04173 2.54029,16.46493l-0.40223,0.70072l-0.80565,0.05099c-1.53382,0.09708 -3.07824,-0.00784 -4.59029,-0.31026z"
                  data-paper-data="{&quot;origRot&quot;:0}" id="Hat" fill="#6ca346" stroke="none" stroke-width="1"
                  stroke-linecap="butt" stroke-linejoin="miter"/>
            <path d="M258.92701,73.24188c0.90723,-0.02863 1.66561,0.6819 1.69307,1.58991c0.02353,0.69307 0.10159,1.3787 0.22181,2.05745c3.05549,-4.47262 8.05116,-9.15686 16.59339,-4.14629c8.48418,4.97959 6.90917,11.56968 4.51891,16.41296c0.66483,-0.23416 1.30143,-0.51069 1.91919,-0.84095c0.80212,-0.42596 1.79858,-0.12061 2.22219,0.67797c0.42714,0.80133 0.12218,1.79584 -0.67817,2.22317c-5.67756,3.02019 -12.77932,2.80015 -18.53964,-0.57815c-5.6856,-3.33378 -9.34356,-9.35101 -9.54811,-15.70145c-0.02863,-0.90723 0.68405,-1.6662 1.59737,-1.69464zM277.76534,89.99981c3.24964,-5.67286 4.90683,-10.37415 -1.99685,-14.42473c-6.92604,-4.06117 -10.22059,-0.28496 -13.59516,5.34966c1.36811,2.79662 3.56186,5.23316 6.36946,6.87975c2.84859,1.67111 6.08097,2.39203 9.22256,2.19532z"
                  data-paper-data="{&quot;origRot&quot;:0}" id="HatBorder" fill="#3a6618" stroke="none" stroke-width="1"
                  stroke-linecap="butt" stroke-linejoin="miter"/>
        </g>
    </g>
</svg>