<svg version="1.1" xmlns="http://www.w3.org/2000/svg" width="191.43265" height="174.47666"
     viewBox="0,0,191.43265,174.47666">
    <g transform="translate(-141.26944,-90.85323)">
        <g data-paper-data="{&quot;isPaintingLayer&quot;:true}" fill="none" fill-rule="nonzero" stroke="none"
           stroke-width="none" stroke-linecap="none" stroke-linejoin="none" stroke-miterlimit="10" stroke-dasharray=""
           stroke-dashoffset="0" font-family="none" font-weight="none" font-size="none" text-anchor="none"
           style="mix-blend-mode: normal">
            <path d="M331.14087,224.7626c-1.52761,6.08447 -22.68082,0.08458 -43.19669,-5.94343c6.91641,8.19267 22.65538,22.20473 15.11439,25.80884c-7.58326,3.62383 -15.77229,-7.86242 -24.11645,-17.22229c-2.668,3.13344 -5.67044,5.95455 -8.93853,8.43028c4.01237,8.45722 13.73746,25.41807 5.80766,27.75508c-7.67885,2.26361 -13.27824,-11.69062 -16.90495,-21.20558c-8.70761,3.87771 -18.50948,5.60648 -28.66751,4.54835c-8.66611,-0.90272 -16.66516,-3.73069 -23.62119,-8.01041c-3.95879,8.71072 -9.18744,25.01776 -16.51081,22.17974c-7.26813,-2.81819 0.14553,-16.39616 6.97091,-29.587c-2.62892,-2.53099 -5.00477,-5.3101 -7.0949,-8.29371c-11.56841,6.13043 -29.89253,16.52086 -33.50335,11.09053c-3.84658,-5.78265 11.2091,-12.47782 22.28745,-17.23363c-14.12109,-1.15726 -37.46703,-3.91488 -35.92595,-11.19037c1.39957,-7.10423 26.41091,-1.61938 39.20069,0.80376c-1.97869,-6.79457 -2.71504,-14.07806 -1.93644,-21.55261c3.21946,-30.90677 30.88383,-53.35237 61.7926,-50.1327c30.90777,3.21956 53.35226,30.88483 50.13281,61.7916c-0.41432,3.97748 -1.2411,7.81246 -2.4197,11.47305c14.51979,3.33328 43.15059,10.00551 41.52998,16.4905zM285.53361,218.11061c-0.04811,-0.01104 -0.09503,-0.02397 -0.14242,-0.04198c-0.06587,0.12083 -0.1363,0.23715 -0.20396,0.35578z"
                  data-paper-data="{&quot;origPos&quot;:null,&quot;origRot&quot;:0}" id="Body" fill="#ff644a"
                  stroke="none" stroke-width="1" stroke-linecap="butt" stroke-linejoin="miter"/>
            <path d="M247.66445,160.73335c-1.94947,-2.68342 -5.42651,-4.4562 -9.38549,-4.41113c-6.04061,0.06853 -10.89043,4.332 -10.83083,9.5221c0.05939,5.19209 5.00355,9.3467 11.04416,9.27817c5.11547,-0.05731 9.36187,-3.13191 10.51409,-7.22456c-1.02713,-1.41302 -1.6393,-3.07439 -1.65898,-4.86406c-0.00688,-0.79298 0.11042,-1.56197 0.31706,-2.30053zM258.39155,172.31206c-6.03961,0.06863 -10.98079,-4.08566 -11.04118,-9.27786c-0.06049,-5.1912 4.79043,-9.45557 10.83005,-9.5242c6.0416,-0.06842 10.98378,4.08598 11.04238,9.27598c0.05839,5.19199 -4.78954,9.45667 -10.83125,9.52608z"
                  data-paper-data="{&quot;origRot&quot;:0}" id="Mask" fill="#ff775b" stroke="none" stroke-width="1"
                  stroke-linecap="butt" stroke-linejoin="miter"/>
            <path d="M259.33648,161.0594c-1.91066,-0.19903 -3.62468,1.18886 -3.82412,3.1035c-0.19923,1.91265 1.18677,3.62547 3.1024,3.82501c1.90967,0.19892 3.62279,-1.19006 3.82213,-3.10371c0.19944,-1.91464 -1.19074,-3.62588 -3.10041,-3.82481zM243.35603,166.32406c-0.19923,1.91265 -1.91048,3.30284 -3.82412,3.1035c-1.91365,-0.19934 -3.30273,-1.91147 -3.1034,-3.82512c0.19934,-1.91365 1.91147,-3.30273 3.82512,-3.1034c1.91365,0.19934 3.30184,1.91037 3.1024,3.82501z"
                  data-paper-data="{&quot;origRot&quot;:0}" id="Eyes_2_" fill="#2f261f" stroke="none" stroke-width="1"
                  stroke-linecap="butt" stroke-linejoin="miter"/>
            <path d="M265.78292,159.94228c-0.02172,-2.79328 -3.38315,-5.45387 -6.55998,-4.25958M228.65949,165.4115c-0.7793,-2.68218 1.68059,-6.1922 5.06866,-5.95892"
                  data-paper-data="{&quot;origRot&quot;:0}" id="Eye_Brows" fill="none" stroke="#2f261f"
                  stroke-width="1.5" stroke-linecap="round" stroke-linejoin="round"/>
            <path d="M251.21343,181.93012c2.30441,-0.30891 4.5654,-1.06975 5.37202,-1.34265c0.63697,0.64145 1.00241,1.54417 0.90129,2.51491l-0.09231,0.88621c-0.17851,1.71373 -1.71163,2.95758 -3.42437,2.77917c-1.11795,-0.11645 -2.02695,-0.81037 -2.48137,-1.75654c-0.29202,1.58729 -1.74456,2.71386 -3.37573,2.54394c-1.71373,-0.17851 -2.95758,-1.71163 -2.77907,-3.42536l0.09262,-0.88919c0.04528,-0.43465 0.17957,-0.83589 0.37887,-1.19518c1.75699,0.06237 3.99412,0.0712 5.40805,-0.11531z"
                  data-paper-data="{&quot;origRot&quot;:0}" id="Teeth" fill="#ffffff" stroke="#bf221f"
                  stroke-width="1.5" stroke-linecap="round" stroke-linejoin="round"/>
            <path d="M263.73201,176.47477c-4.22373,4.04416 -11.87067,6.29098 -20.30603,5.4123c-1.91365,-0.19934 -3.75564,-0.54605 -5.4957,-1.02189"
                  data-paper-data="{&quot;origRot&quot;:0}" id="Lips" fill="none" stroke="#2f261f" stroke-width="1.5"
                  stroke-linecap="round" stroke-linejoin="round"/>
            <path d="M157.63743,214.36463c0.24236,-2.50035 -1.57237,-4.73036 -4.07383,-4.99093c-1.99719,-0.20804 -3.80781,0.91039 -4.60658,2.6329c2.43891,0.92868 5.43128,1.7079 8.68041,2.35803zM163.3275,215.35448c0.48247,-2.72065 2.9702,-4.65432 5.7601,-4.3637c2.85455,0.29735 4.92904,2.80377 4.73782,5.64324c-3.362,-0.32909 -6.96821,-0.74596 -10.49793,-1.27954zM167.4004,234.2049c-3.52389,1.2637 -6.5782,1.91878 -8.66215,1.49158c-0.25048,-0.64542 -0.37315,-1.34993 -0.29648,-2.08594c0.25777,-2.47461 2.4708,-4.271 4.94441,-4.01333c2.35923,0.24575 4.08036,2.27399 4.01422,4.60769zM184.44683,226.16777c-2.86734,1.52413 -5.90049,3.10539 -8.88377,4.536c-0.57247,-0.91323 -0.87153,-2.00911 -0.75094,-3.16684c0.28751,-2.76007 2.75762,-4.76594 5.51868,-4.47833c1.90967,0.19892 3.43697,1.45291 4.11602,3.10918zM190.10578,261.10307c-0.04053,-0.01629 -0.0671,-0.04117 -0.10653,-0.05835c-0.37182,-0.70632 -0.54905,-1.52409 -0.46016,-2.37747c0.23912,-2.29558 2.2939,-3.96266 4.58749,-3.72375c1.59736,0.16639 2.87204,1.22013 3.43069,2.6135c-2.21502,2.95441 -4.68393,4.62058 -7.45149,3.54606zM203.82712,245.45246c-1.20519,2.84444 -2.51336,5.80886 -3.93583,8.40345c-1.94641,-0.72456 -3.24494,-2.67861 -3.0197,-4.84091c0.2671,-2.56413 2.56218,-4.42435 5.12531,-4.15736c0.66739,0.06952 1.28484,0.28063 1.83022,0.59482zM267.50808,250.58482c-0.20483,1.96636 -1.46441,3.54737 -3.14992,4.29476c-1.64841,-3.03512 -3.09888,-6.46485 -4.35432,-9.65308c0.83973,-0.38809 1.77975,-0.58073 2.76641,-0.47796c2.92219,0.30439 5.0417,2.91906 4.73782,5.83628zM276.47859,261.88503c-0.06185,0.59379 -0.24126,1.14818 -0.51505,1.64348c-0.0529,0.0156 -0.09679,0.04119 -0.15267,0.05649c-2.90449,0.85769 -5.51331,-0.6115 -7.82843,-3.27872c0.54515,-2.01939 2.4755,-3.40887 4.62587,-3.18487c2.38509,0.24845 4.11534,2.38219 3.87029,4.76362zM285.11544,234.50853c1.25546,-0.79822 2.7621,-1.21839 4.35746,-1.0522c3.75071,0.3907 6.47988,3.75456 6.08887,7.50825c-0.09708,0.93196 -0.37549,1.79978 -0.79978,2.57198c-3.1534,-1.95523 -6.3772,-5.31934 -9.64656,-9.02803zM319.87198,226.85936c-0.04716,-0.33871 -0.07261,-0.6832 -0.03583,-1.03629c0.24182,-2.32144 2.32107,-4.01111 4.64449,-3.76909c2.32442,0.24213 4.0121,2.32117 3.76998,4.64559c-0.01129,0.10841 -0.04625,0.21235 -0.06519,0.31695c-1.98246,0.44198 -4.84487,0.33585 -8.31346,-0.15717zM316.02714,224.66017c-0.05481,0.52615 -0.21523,1.01416 -0.43311,1.46501c-2.60689,-0.51285 -5.43808,-1.16971 -8.41802,-1.92351c-0.00006,-0.15383 -0.01415,-0.30812 0.00201,-0.46328c0.25456,-2.44378 2.44102,-4.21679 4.8848,-3.96223c2.44378,0.25456 4.21988,2.44034 3.96432,4.88401zM300.88723,220.24382c-0.08112,0.77879 -0.37145,1.47143 -0.78985,2.07131c-2.6433,-0.73281 -5.34663,-1.50705 -8.06223,-2.29867c-0.0104,-0.22831 -0.0217,-0.45771 0.00265,-0.69145c0.25446,-2.44278 2.44212,-4.21768 4.8849,-3.96322c2.44378,0.25456 4.21867,2.44222 3.96453,4.88202z"
                  data-paper-data="{&quot;origRot&quot;:0}" id="Spots" fill="#ffdf24" stroke="#e2a700"
                  stroke-width="1.3992" stroke-linecap="round" stroke-linejoin="round"/>
            <path d="M219.14462,234.45828c-4.454,-0.46295 -7.45475,-5.96848 -9.75323,-10.18531c-0.39671,-0.72802 -0.12797,-1.63807 0.59905,-2.03489c0.72792,-0.39571 1.64017,-0.12876 2.03489,0.59905c3.45918,6.34554 5.92507,9.56334 9.04659,8.38843c0.58809,-0.22126 0.94456,-0.59333 1.15483,-1.20283c0.79348,-2.29916 -0.84522,-6.94293 -2.79096,-10.14476c-0.43003,-0.70736 -0.20512,-1.63103 0.50324,-2.06095c0.70825,-0.42893 1.63003,-0.20522 2.06095,0.50324c1.76211,2.89917 4.39143,8.83352 3.0627,12.68056c-0.49982,1.44901 -1.51501,2.49848 -2.93495,3.03224c-1.06207,0.39911 -2.05414,0.52199 -2.98311,0.42522zM248.55467,232.14389c-0.34016,-0.03543 -0.68413,-0.11148 -1.03449,-0.23243c-5.55855,-1.92426 -3.15835,-9.75472 -1.57108,-14.93515l0.23794,-0.77854c0.24049,-0.79335 1.08355,-1.24242 1.87063,-0.99957c0.79236,0.24039 1.24095,1.07837 0.99957,1.87063l-0.23987,0.78739c-1.24939,4.07951 -3.13922,10.24389 -0.31623,11.22062c2.11029,0.72454 5.37392,-3.54229 8.1681,-10.60883c0.30547,-0.7705 1.17321,-1.14762 1.9468,-0.84284c0.7706,0.30448 1.14831,1.1763 0.84284,1.9468c-2.0009,5.05892 -5.97776,13.08408 -10.90421,12.57191zM191.18707,262.89374c-0.54107,-0.05636 -1.0872,-0.18966 -1.62237,-0.39924c-1.69017,-0.65564 -2.85708,-1.80774 -3.46784,-3.42472c-2.10818,-5.58045 3.1971,-15.80884 8.81321,-26.63725l0.31857,-0.61631c-2.06406,-2.06597 -3.97829,-4.2963 -5.71129,-6.65454l-1.53934,0.82093c-9.97613,5.33211 -22.39041,11.96762 -28.81565,11.29833c-1.78733,-0.18618 -3.10976,-0.90707 -3.93104,-2.14382c-0.91445,-1.37514 -1.15939,-2.90375 -0.70827,-4.41615c1.41797,-4.76171 9.71537,-8.93853 18.23229,-12.68429c-0.20986,-0.02186 -0.42282,-0.04304 -0.63467,-0.06511c-17.22381,-1.79415 -26.99488,-4.58853 -29.87129,-8.53679c-0.85744,-1.17918 -1.1608,-2.51379 -0.87605,-3.85752c1.05829,-5.37227 10.52004,-5.02309 17.54403,-4.29143c6.67289,0.69509 14.1431,2.14284 20.1451,3.30394c0.30255,0.05866 0.60102,0.1179 0.89582,0.17375c-1.58926,-6.45037 -2.04247,-13.09307 -1.34582,-19.78089c3.30006,-31.68059 31.75935,-54.76928 63.43993,-51.46922c31.68158,3.30016 54.76939,31.75835 51.46933,63.43894c-0.36096,3.46525 -1.03314,6.89708 -1.9986,10.21993c18.11262,4.19717 37.00395,9.12293 40.51957,14.85904c0.77589,1.26721 0.72831,2.38027 0.54965,3.09158c-1.00945,4.02508 -6.70721,3.91014 -10.9045,3.47292c-7.31165,-0.75962 -17.5949,-3.52089 -29.39964,-6.94536c0.8183,0.89862 1.70674,1.84777 2.6151,2.81811c7.31706,7.82118 12.43074,13.69762 11.60133,18.09837c-0.19662,1.03822 -0.84076,2.4732 -2.80248,3.411c-1.4326,0.68426 -2.95522,0.94893 -4.52572,0.78533c-6.03336,-0.62847 -11.81567,-7.33465 -17.93666,-14.43805c-0.75531,-0.87597 -1.52032,-1.76501 -2.29301,-2.64782c-2.16155,2.39293 -4.52875,4.60759 -7.06272,6.60882c0.36695,0.75307 0.76872,1.55803 1.18654,2.40186c3.99696,8.04541 8.96841,18.05736 6.67696,23.30921c-0.65245,1.49545 -1.86754,2.5432 -3.51245,3.02638c-0.9315,0.27497 -1.87597,0.36561 -2.80893,0.26842c-6.77455,-0.70367 -11.48718,-10.91287 -15.35602,-20.90247c-8.80869,3.63191 -18.44897,5.02562 -27.98736,4.03204c-8.12504,-0.84636 -15.78028,-3.31678 -22.77975,-7.34364c-0.41581,0.96109 -0.84652,1.98799 -1.29431,3.05333c-3.82655,9.12063 -8.16389,19.45789 -14.82197,18.76534c0.00131,-0.00288 0.00031,-0.00298 0.00031,-0.00298zM198.8797,226.81257c0.17804,0.01855 0.35574,0.06923 0.52553,0.15729c0.73707,0.37539 1.03018,1.27761 0.65568,2.01578c-0.405,0.79934 -0.81747,1.60293 -1.23413,2.4081l-1.25479,2.42304c-4.82995,9.31371 -10.30483,19.86727 -8.6705,24.1959c0.30493,0.80794 0.86034,1.34437 1.74651,1.68803c0.29088,0.11274 0.56822,0.18185 0.8487,0.21107c4.44306,0.46181 8.83779,-10.01123 11.74553,-16.94227c0.68726,-1.6366 1.33745,-3.18759 1.96286,-4.56822c0.0156,-0.04362 0.03419,-0.08693 0.05466,-0.12903l0.08722,-0.18094c0.25785,-0.56432 0.52164,-1.11797 0.77976,-1.62697c0.3711,-0.7345 1.26149,-1.02984 2.0008,-0.66629c0.73743,0.36235 1.04381,1.25289 0.68921,1.99313l-0.26196,0.5458c6.69977,3.90214 14.03894,6.28937 21.83774,7.10174c9.06794,0.94458 18.23511,-0.38581 26.6031,-3.85048l-0.82396,-2.15698c-0.29463,-0.77168 0.09014,-1.63747 0.86113,-1.9352c0.76702,-0.29814 1.63899,0.08527 1.93791,0.85438c0.29913,0.76712 0.6155,1.60038 0.95098,2.48188l0.3908,1.02601c2.45399,6.43991 7.56055,19.83607 13.42582,20.44703c0.54803,0.05709 1.08726,0.00568 1.64846,-0.16007c0.7998,-0.23641 1.31113,-0.66675 1.61157,-1.3503c1.73273,-3.97085 -3.49246,-14.49082 -6.61307,-20.77596c-0.58925,-1.18643 -1.14099,-2.29858 -1.61897,-3.29849c-0.05897,-0.08054 -0.10995,-0.17031 -0.15145,-0.26411l-0.36936,-0.84582c-0.22435,-0.49089 -0.43502,-0.96828 -0.61215,-1.40096c-0.3109,-0.7603 0.04801,-1.62879 0.80417,-1.94817c0.75715,-0.31927 1.63097,0.02712 1.95882,0.77914l0.19053,0.4391c2.27243,-1.84549 4.40214,-3.87476 6.34948,-6.05474l-0.75668,-0.83388c-0.55361,-0.61165 -0.51061,-1.55527 0.09737,-2.11228c0.60699,-0.55711 1.55233,-0.52097 2.11263,0.08434c1.71926,1.8531 3.44884,3.85808 5.12187,5.79786c5.46787,6.34666 11.12342,12.90892 15.97318,13.41411c1.02645,0.10692 1.98188,-0.05999 2.92047,-0.50916c0.88884,-0.4252 1.07964,-0.89596 1.1486,-1.25877c0.6126,-3.246 -6.28193,-10.61598 -10.8442,-15.4929c-2.21367,-2.36709 -4.3153,-4.61292 -5.6771,-6.40364l-6.28068,-1.84464c-0.79308,-0.23342 -1.25015,-1.06727 -1.01563,-1.86124c0.23154,-0.79429 1.07224,-1.24963 1.85946,-1.01783l0.00199,0.00021l6.7628,1.98435c13.65379,4.01221 25.60892,7.40207 33.63768,8.23639c4.50164,0.46892 7.37522,0.01419 7.68459,-1.21839c0.02377,-0.09304 0.08417,-0.33508 -0.19673,-0.79466c-3.30767,-5.39674 -29.62141,-11.43751 -40.86077,-14.01585l-1.15067,-0.26565c-0.78643,-0.18146 -1.28745,-0.9505 -1.13762,-1.74224c0.15004,-0.79373 0.86766,-1.32222 1.69862,-1.20148l0.56811,0.08632c0.93766,-3.19103 1.5847,-6.48773 1.93188,-9.8207c3.12859,-30.03449 -18.75981,-57.01546 -48.79629,-60.14426c-30.03648,-3.1288 -57.01656,18.7607 -60.14526,48.79619c-0.70856,6.8022 -0.16316,13.55404 1.6199,20.08392l3.32532,0.58467c0.80958,0.14264 1.35299,0.91008 1.22029,1.72069c-0.13369,0.81051 -0.87568,1.3606 -1.70654,1.23886c-1.02734,-0.15628 -2.30484,-0.38185 -4.14286,-0.72814l-0.14308,-0.02596c-1.03502,-0.1983 -2.12691,-0.41057 -3.27716,-0.63193c-5.94463,-1.1521 -13.34295,-2.58532 -19.88555,-3.26684c-12.3094,-1.28223 -14.09687,0.90736 -14.29464,1.90826c-0.11357,0.54014 -0.00081,0.99226 0.36252,1.49058c1.3026,1.78959 6.64032,5.11953 27.75607,7.31909c5.16217,0.53672 9.87644,0.86592 12.99581,1.08227c0.82833,0.05914 1.54417,0.10756 2.12658,0.15315c0.82421,0.02151 1.4423,0.77661 1.38358,1.60096c-0.05852,0.82236 -0.77095,1.44591 -1.59473,1.39126l-8.45647,-0.56016l-0.46411,0.19899c-8.3372,3.57445 -19.75573,8.46876 -21.02315,12.72134c-0.19959,0.67093 -0.09652,1.25475 0.33197,1.89962c0.11314,0.16863 0.45539,0.68587 1.74342,0.82004c5.51019,0.57398 17.98082,-6.09086 27.08694,-10.95659l2.70329,-1.43565c0.0012,-0.00189 0.00329,-0.00267 0.00539,-0.00346c1.51329,-0.80253 2.87845,-1.51493 4.08921,-2.11572c0.73685,-0.36563 1.63207,-0.07029 2.00496,0.6643c0.37311,0.7326 0.08342,1.63142 -0.6488,2.0106l-2.50689,1.29725c1.3785,1.84274 2.87526,3.60228 4.47025,5.25844l0.71291,-1.39062c0.29088,-0.56289 0.89354,-0.86608 1.49131,-0.80382z"
                  data-paper-data="{&quot;origRot&quot;:0}" id="BodyBorder" fill="#bf221f" stroke="none"
                  stroke-width="1" stroke-linecap="butt" stroke-linejoin="miter"/>
            <path d="M233.55322,142.51329c-4.09882,-0.42696 -7.85235,-1.29251 -9.95223,-2.56089c-2.16321,-1.30716 -2.40555,-2.79326 -2.22832,-3.80937c0.08531,-0.4908 0.54629,-0.82383 1.04145,-0.73204c0.4897,0.0862 0.81724,0.55164 0.73104,1.04134c-0.04422,0.25077 -0.17702,1.01412 1.38548,1.95909c5.37171,3.245 22.0568,3.3965 25.29712,0.89777c0.34658,-0.26753 0.30792,-0.39824 0.28937,-0.4615c-0.34333,-0.97984 -1.58623,-2.02022 -3.49876,-2.97349c-6.01796,1.45332 -17.82762,1.01039 -22.13148,-0.24729c-1.05577,-0.30804 -2.2909,-0.79563 -2.48282,-1.83913c-0.07845,-0.42441 0.00089,-1.06062 0.81948,-1.68014c3.19132,-2.41435 13.00926,-1.72042 20.17561,0.4437c1.23014,0.37145 2.57051,0.84286 3.83222,1.4227c0.85056,-0.24117 1.42751,-0.50985 1.68567,-0.78759c0.09845,-0.10537 0.1833,-0.19606 -0.07849,-0.55914c-0.67812,-0.94132 -2.44129,-1.96752 -4.72147,-2.87565c-6.72422,1.1103 -18.6648,1.19062 -19.70399,-1.11043c-0.40794,-0.90011 0.15889,-1.70873 1.68209,-2.40366c4.18627,-1.90855 12.42637,-0.51633 18.21142,1.71404c1.10676,-0.21047 2.04844,-0.46728 2.73719,-0.77659c0.64967,-0.29126 0.73832,-0.50522 0.73863,-0.50821c-0.04749,-0.54787 -1.47593,-1.38034 -3.58444,-2.15095c-0.89994,0.22296 -2.00807,0.37899 -3.33166,0.47035c-3.24467,0.22404 -12.54328,0.29704 -12.72643,-2.22049c-0.09565,-1.32102 1.6163,-1.72382 4.21776,-1.92135c3.19938,-0.24283 8.12806,0.4988 11.89414,1.79396c0.92421,-0.29182 1.0781,-0.57238 1.07962,-0.57725c-0.05628,-0.54074 -2.66864,-2.18826 -6.41537,-2.57855c-0.49433,-0.05149 -0.8534,-0.49408 -0.80191,-0.9884c0.05149,-0.49433 0.49408,-0.8534 0.9884,-0.80191c3.26135,0.33972 8.06733,1.97948 8.02533,4.41926c-0.00941,0.54395 -0.24109,1.01146 -0.69714,1.40332c1.66849,0.79615 2.84092,1.7216 3.09277,2.71102c0.15402,0.60622 0.13249,1.74914 -1.74355,2.58829c-0.23407,0.10431 -0.50912,0.20636 -0.82286,0.30338c1.57156,0.80013 2.76212,1.64804 3.34279,2.45354c0.71403,0.99232 0.69076,2.02647 -0.06544,2.8385c-0.22748,0.24374 -0.54433,0.46712 -0.93751,0.67048c1.3917,0.88596 2.49231,1.95072 2.93309,3.21117c0.16517,0.55711 0.24654,1.55189 -0.90361,2.43951c-2.54997,1.97142 -10.45064,2.50372 -17.37319,1.78263zM223.95312,133.51222c0.92719,0.52891 4.20794,1.2326 9.71572,1.42427c3.89296,0.13506 7.27008,-0.01888 9.82876,-0.33649c-0.3292,-0.11171 -0.66886,-0.21948 -1.01778,-0.3252c-7.13415,-2.15474 -16.09473,-2.51806 -18.52669,-0.76258zM226.0958,128.04781c1.98134,0.64978 8.40871,0.8739 13.77196,0.42615c-4.85747,-1.33847 -10.4719,-1.94442 -13.42339,-0.59696c-0.13817,0.06202 -0.25274,0.11946 -0.34857,0.1708zM230.82968,122.77389c1.63787,0.35661 4.55881,0.67294 8.49402,0.47961c-2.37401,-0.49965 -4.94632,-0.78469 -7.22868,-0.61022c-0.50663,0.03771 -0.92365,0.08376 -1.26534,0.13061z"
                  data-paper-data="{&quot;origRot&quot;:0}" id="Spring" fill="#7f0e0e" stroke="none" stroke-width="1"
                  stroke-linecap="butt" stroke-linejoin="miter"/>
            <path d="M225.87412,104.106c0.75016,-7.20149 7.19623,-12.43133 14.39772,-11.68117c7.20149,0.75016 12.43133,7.19623 11.68117,14.39772c-0.75016,7.20149 -7.19623,12.43133 -14.39772,11.68117c-7.20149,-0.75016 -12.43133,-7.19623 -11.68117,-14.39772z"
                  data-paper-data="{&quot;origRot&quot;:0}" id="Spot" fill="#68d649" stroke="#32b208" stroke-width="3"
                  stroke-linecap="butt" stroke-linejoin="miter"/>
        </g>
    </g>
</svg>