<?xml version="1.0" encoding="UTF-8"?>
<svg width="128" height="128" version="1.1" viewBox="0 0 33.867 33.867" xmlns="http://www.w3.org/2000/svg">
 <path d="m6.3501 6.3501v21.167h21.167v-21.167h-21.167zm4.8556 4.6215c1.1252 0.06791 2.2509 0.11498 3.3797 0.1018 1.5057 0.03186 3.0594-0.12706 4.5052 0.29611 1.1835 0.28951 2.1386 1.091 2.3849 2.0676 0.34715 1.0389-0.27845 2.14-1.2986 2.7921-0.71284 0.27531 0.20225 0.25364 0.52142 0.44184 1.2939 0.45116 2.2418 1.5321 2.1368 2.682 5e-3 1.2547-0.97136 2.4511-2.4066 2.9549-1.3467 0.54091-2.874 0.48576-4.3378 0.48266-1.519-0.01159-3.0368 0.010224-4.5533 0.084234-0.34693 0.10554-0.45675-0.21262-0.48111-0.43305-0.02718-0.12105-0.057873-0.32248 0.003617-0.38654 0.22069-0.59549 1.1189-0.39448 1.6511-0.68782 0.03215-1.2705 0.004903-2.5434 0.013953-3.8148-0.0082-1.6656 0.016117-3.3336-0.012403-4.9977-0.29893-0.2464-0.83519-0.21265-1.2237-0.33745-0.61136-0.21954-0.49237-0.83658-0.28319-1.2459zm4.3946 1.5167v2.9451c0.05112 0.16564-0.11267 0.5073 0.10284 0.53847 0.91119-0.0362 2.0596-0.097922 2.5575-0.81081 0.33788-0.58384 0.37902-1.3217 0.008785-1.9022-0.56286-0.69958-1.7313-0.73917-2.6691-0.7705zm0.45631 4.8974c-0.15354-2.73e-4 -0.30591 9.58e-4 -0.45631 0.003101v3.6231c0.01353 0.46454 0.90968 0.35196 1.3203 0.37104 0.961-0.02543 2.1604-0.14155 2.6159-0.9276 0.3547-0.76772 0.33054-1.7749-0.45734-2.3709-0.82123-0.6054-1.9478-0.69676-3.0226-0.69867z" fill="#ee4e5f" stroke-width="1.0583"/>
</svg>
