<?xml version="1.0" encoding="UTF-8" standalone="no"?>
<!-- Created with Inkscape (http://www.inkscape.org/) -->

<svg
   width="104.65984mm"
   height="16.471516mm"
   viewBox="0 0 104.65984 16.471516"
   version="1.1"
   id="svg1"
   xml:space="preserve"
   inkscape:version="1.4 (86a8ad7, 2024-10-11)"
   sodipodi:docname="copanlpjml_logo.svg"
   xmlns:inkscape="http://www.inkscape.org/namespaces/inkscape"
   xmlns:sodipodi="http://sodipodi.sourceforge.net/DTD/sodipodi-0.dtd"
   xmlns="http://www.w3.org/2000/svg"
   xmlns:svg="http://www.w3.org/2000/svg"><sodipodi:namedview
     id="namedview1"
     pagecolor="#ffffff"
     bordercolor="#000000"
     borderopacity="0.25"
     inkscape:showpageshadow="2"
     inkscape:pageopacity="0.0"
     inkscape:pagecheckerboard="0"
     inkscape:deskcolor="#d1d1d1"
     inkscape:document-units="mm"
     inkscape:zoom="1.0897758"
     inkscape:cx="178.47708"
     inkscape:cy="354.66011"
     inkscape:window-width="1920"
     inkscape:window-height="1111"
     inkscape:window-x="-9"
     inkscape:window-y="-9"
     inkscape:window-maximized="1"
     inkscape:current-layer="layer1"
     showguides="true"><inkscape:page
       x="0"
       y="0"
       width="104.65984"
       height="16.471516"
       id="page1"
       margin="0"
       bleed="0" /></sodipodi:namedview><defs
     id="defs1" /><g
     inkscape:label="Layer 1"
     inkscape:groupmode="layer"
     id="layer1"
     transform="translate(84.13677,-79.001679)"><g
       id="g204-8-1"
       transform="translate(171.07293,8.7837383)"
       inkscape:export-filename="copanlpjml\logo_large.svg"
       inkscape:export-xdpi="96"
       inkscape:export-ydpi="96"><path
         style="fill:#666a6e"
         d="m -180.91196,82.459928 c -1.20991,-0.29367 -2.22719,-1.23204 -2.60705,-2.40483 -0.29169,-0.900582 -0.33329,-0.854353 1.00747,-1.119761 1.30589,-0.258506 1.24235,-0.269389 1.38654,0.237509 0.28294,0.994632 1.31039,1.393462 2.19268,0.851152 0.57418,-0.35293 0.56945,-0.31822 0.56945,-4.175722 v -3.471334 l -1.8415,-0.02282 -1.8415,-0.02282 v -1.056644 -1.056682 h 3.175 3.175 v 4.518111 c 0,4.843931 -0.02,5.123141 -0.4269,5.954931 -0.71367,1.459 -2.83618,2.24296 -4.78919,1.76894 z m -21.70792,-6.145986 v -6.096 h 1.31234 1.31233 v 4.910667 4.910669 h 2.32834 2.32833 v 1.18534 1.18533 h -3.64067 -3.64067 z m 9.56734,0 v -6.096 h 3.03644 c 4.91615,0 5.97082,0.54697 6.36113,3.298965 0.42893,3.024332 -1.20319,4.490369 -4.99907,4.490369 h -1.77383 v 2.201342 2.20133 h -1.31234 -1.31233 z m 6.06922,-0.757206 c 0.50042,-0.227201 0.61945,-0.504679 0.61945,-1.444127 0,-1.45533 -0.17101,-1.566333 -2.413,-1.566333 h -1.60867 l -0.023,1.5875 -0.023,1.5875 1.54703,-0.0019 c 1.3364,-0.0016 1.59527,-0.02376 1.90126,-0.16268 z m 13.74278,2.281206 v -4.572 h 1.30915 1.30916 l 0.0243,0.783167 c 0.0243,0.783167 0.0243,0.783167 0.16745,0.467459 0.87583,-1.932297 3.82986,-1.976958 4.72237,-0.0714 l 0.20066,0.428405 0.23315,-0.408241 c 1.06345,-1.86203 3.93385,-1.908712 4.86888,-0.07918 0.41702,0.815953 0.45491,1.209783 0.45625,4.742955 l 0.001,3.280831 h -1.26439 -1.26438 l -0.0268,-3.1115 c -0.0333,-3.865667 -0.12904,-4.169831 -1.31281,-4.169831 -1.34311,0 -1.46564,0.344546 -1.46564,4.121059 v 3.164682 l -1.29117,-0.0234 -1.29117,-0.0234 -0.0423,-3.221244 c -0.0384,-2.919066 -0.0567,-3.243097 -0.1951,-3.454209 -0.46399,-0.707574 -1.53952,-0.75401 -2.17932,-0.09409 l -0.29258,0.301779 -0.0241,3.255049 -0.024,3.255055 h -1.30946 -1.30945 z m 15.40933,-1.524 v -6.096 h 1.31234 1.31233 v 4.910667 4.910669 h 2.32833 2.32834 v 1.18534 1.18533 h -3.64067 -3.64067 z"
         id="path205-2-6"
         sodipodi:nodetypes="cssssscccccccsccccccccccccccccccssscccccccssccccccccccscscssccccssscccccsccccccccccccccccccc" /><path
         style="fill:#000000"
         d="m -235.91324,86.659042 c -0.13411,-0.134115 -0.0645,-12.623651 0.0707,-12.675514 0.0704,-0.02703 0.37524,-0.07447 0.67734,-0.105417 l 0.54926,-0.05627 v 0.573611 0.573612 l 0.42604,-0.398508 c 3.15554,-2.951636 7.25209,1.505029 5.22655,5.685994 -0.93978,1.939825 -3.77553,2.971859 -5.34329,1.944621 -0.30786,-0.201715 -0.3093,-0.191901 -0.3093,2.108793 0,2.387599 0.0627,2.162972 -0.635,2.274716 -0.18626,0.02983 -0.39857,0.07168 -0.47179,0.09299 -0.0732,0.02131 -0.15894,0.01293 -0.1905,-0.01863 z m 4.34529,-5.603095 c 1.19557,-0.620085 1.83127,-2.082536 1.60372,-3.689376 -0.34717,-2.451458 -2.46997,-3.186062 -4.1713,-1.443496 l -0.48042,0.492061 v 2.05643 2.05643 l 0.27054,0.308125 c 0.46654,0.531362 1.95037,0.648801 2.77746,0.219826 z m -20.45489,1.422678 c -3.82796,-0.758931 -4.36286,-6.70309 -0.75513,-8.391352 1.2755,-0.596881 3.46905,-0.444313 4.33622,0.301598 l 0.22055,0.189704 -0.24737,0.458823 c -0.28651,0.53143 -0.3308,0.539572 -1.12125,0.206147 -2.1303,-0.898595 -3.91573,0.20248 -4.13495,2.550023 -0.25135,2.691691 2.04209,4.313481 4.38056,3.097678 0.38328,-0.19927 0.70716,-0.35167 0.71974,-0.338667 0.0126,0.013 0.12029,0.244411 0.23937,0.514239 l 0.2165,0.490598 -0.39504,0.250525 c -1.00202,0.635463 -2.33414,0.893739 -3.4592,0.670684 z m 8.47105,-0.03084 c -2.23699,-0.543464 -3.56051,-3.082721 -2.91741,-5.597228 0.79629,-3.113429 4.65021,-4.235056 6.85792,-1.995896 3.06642,3.110099 0.21589,8.602897 -3.94051,7.593124 z m 2.23054,-1.410953 c 2.49177,-1.245151 1.75066,-5.932292 -0.96048,-6.07459 -1.83555,-0.09634 -2.79055,0.940507 -2.79055,3.029723 0,2.617444 1.75519,4.042202 3.75103,3.044867 z m 15.90793,1.362093 c -0.9438,-0.368766 -1.35468,-0.965142 -1.34847,-1.957245 0.01,-1.597386 1.54115,-2.648144 4.60978,-3.163479 0.69505,-0.116725 0.49946,-1.906149 -0.24222,-2.216044 -0.67542,-0.282208 -1.97947,-0.08286 -2.88113,0.440428 -0.50322,0.292054 -0.56355,0.268122 -0.76992,-0.305435 l -0.18376,-0.510735 0.27271,-0.16726 c 1.3838,-0.848703 4.14647,-1.059016 4.9566,-0.377331 0.56704,0.477129 0.63059,0.816011 0.69861,3.725061 0.069,2.952299 0.0941,3.093124 0.5962,3.349276 0.36361,0.185503 0.36421,0.140784 -0.0128,0.947557 -0.24804,0.530864 -1.85961,-0.26398 -1.85961,-0.917183 0,-0.08736 -0.16216,0.011 -0.46897,0.284455 -1.03292,0.920627 -2.35801,1.262198 -3.36707,0.867935 z m 2.18504,-1.3437 c 0.2794,-0.132289 0.72708,-0.440882 0.99483,-0.685762 l 0.48684,-0.445236 v -0.838171 c 0,-0.460994 -0.0286,-0.838122 -0.0635,-0.838062 -0.56523,9.76e-4 -2.42788,0.640128 -2.88779,0.990919 -1.42533,1.087152 -0.1969,2.605372 1.46962,1.816312 z m 5.969,-2.882948 c 0,-3.616835 0.0162,-4.145815 0.12807,-4.188752 0.0704,-0.02703 0.36923,-0.07385 0.66398,-0.10405 l 0.53593,-0.05491 0.054,0.700077 c 0.068,0.881389 0.0229,0.862821 0.73753,0.303644 1.91539,-1.498696 4.03639,-1.518867 4.74958,-0.04517 0.22219,0.459099 0.22219,0.459099 0.26342,3.993932 l 0.0412,3.534834 h -0.69863 -0.69863 l -0.0347,-3.2385 c -0.0296,-2.761075 -0.0547,-3.275975 -0.17024,-3.4927 -0.58031,-1.088525 -2.0926,-0.730743 -3.87262,0.9162 l -0.34423,0.318492 v 2.748254 2.748254 h -0.67734 -0.67733 z"
         id="path204-4-8" /><path
         style="font-weight:800;font-size:15.1694px;font-family:'Open Sans';-inkscape-font-specification:'Open Sans Ultra-Bold';fill:#f05d2b;stroke-width:0.502708;stroke-dasharray:2.01083, 2.01083"
         d="m -207.93228,80.80797 q 0,-0.785135 0.45923,-1.103633 0.46664,-0.318498 1.11845,-0.318498 0.61477,0 1.0666,0.318498 0.45182,0.318498 0.45182,1.103633 0,0.748101 -0.45182,1.081413 -0.45183,0.333312 -1.0666,0.333312 -0.65181,0 -1.11845,-0.333312 -0.45923,-0.333312 -0.45923,-1.081413 z m 0,-5.851477 q 0,-0.777728 0.45923,-1.096226 0.46664,-0.318499 1.11845,-0.318499 0.61477,0 1.0666,0.318499 0.45182,0.318498 0.45182,1.096226 0,0.762914 -0.45182,1.096226 -0.45183,0.325905 -1.0666,0.325905 -0.65181,0 -1.11845,-0.325905 -0.45923,-0.333312 -0.45923,-1.096226 z"
         id="text1-5"
         aria-label=":" /></g></g></svg>
