<?xml version="1.0" encoding="UTF-8" standalone="no"?>
<!-- Created with Inkscape (http://www.inkscape.org/) -->

<svg
   width="52.885849mm"
   height="42.283886mm"
   viewBox="0 0 52.885849 42.283886"
   version="1.1"
   id="svg1"
   xml:space="preserve"
   inkscape:version="1.4 (86a8ad7, 2024-10-11)"
   sodipodi:docname="copanlpjml_logo.svg"
   xmlns:inkscape="http://www.inkscape.org/namespaces/inkscape"
   xmlns:sodipodi="http://sodipodi.sourceforge.net/DTD/sodipodi-0.dtd"
   xmlns="http://www.w3.org/2000/svg"
   xmlns:svg="http://www.w3.org/2000/svg"><sodipodi:namedview
     id="namedview1"
     pagecolor="#ffffff"
     bordercolor="#000000"
     borderopacity="0.25"
     inkscape:showpageshadow="2"
     inkscape:pageopacity="0.0"
     inkscape:pagecheckerboard="0"
     inkscape:deskcolor="#d1d1d1"
     inkscape:document-units="mm"
     inkscape:zoom="1.0897758"
     inkscape:cx="178.47708"
     inkscape:cy="354.66011"
     inkscape:window-width="1920"
     inkscape:window-height="1111"
     inkscape:window-x="-9"
     inkscape:window-y="-9"
     inkscape:window-maximized="1"
     inkscape:current-layer="layer1"
     showguides="true"><inkscape:page
       x="0"
       y="2.2411081e-22"
       width="52.885849"
       height="42.283886"
       id="page1"
       margin="0"
       bleed="0" /></sodipodi:namedview><defs
     id="defs1" /><g
     inkscape:label="Layer 1"
     inkscape:groupmode="layer"
     id="layer1"
     transform="translate(315.62119,-125.60225)"><g
       id="g7"
       transform="translate(12.805912,24.698645)"><g
         id="g42"><path
           style="fill:#ec5021"
           d="m -306.11827,143.14274 -1.32088,-0.0443 -0.64577,-0.0996 -0.64576,-0.0996 -0.55771,-0.1183 -0.5577,-0.1183 -0.70636,-0.19727 -0.70637,-0.19728 -0.73193,-0.25991 -0.73193,-0.2599 -0.62163,-0.27412 -0.62163,-0.27412 -0.64055,-0.3554 -0.64054,-0.35541 -0.48624,-0.32598 -0.48623,-0.32599 -0.57047,-0.47969 -0.57048,-0.47969 -0.54883,-0.61262 -0.54883,-0.61263 -0.40911,-0.6108 -0.4091,-0.6108 -0.26635,-0.53034 -0.26635,-0.53033 -0.20359,-0.53198 -0.2036,-0.53198 -0.17166,-0.66367 -0.17167,-0.66367 -0.0945,-0.71592 -0.0945,-0.71592 0.0296,-1.17412 0.0296,-1.17411 0.15168,-0.79962 0.15168,-0.79962 0.04,-0.1043 0.04,-0.1043 -0.61134,0.0385 -0.61133,0.0385 -1.88061,0.008 -1.8806,0.008 -0.29152,-0.12877 -0.29151,-0.12877 -0.19594,-0.18778 -0.19594,-0.18779 -0.11226,-0.21781 -0.11227,-0.21781 4e-5,-0.3986 5e-5,-0.3986 0.16775,-0.35224 0.16775,-0.35223 0.86611,-1.35024 0.86611,-1.35024 0.28698,-0.38876 0.28697,-0.38877 -0.002,-0.0515 -0.002,-0.0515 -0.36517,-0.21171 -0.36516,-0.2117 -1.58506,-0.95472 -1.58506,-0.95473 -0.2562,-0.24251 -0.25621,-0.24252 -0.0813,-0.1889 -0.0814,-0.18891 3.3e-4,-0.28074 3.3e-4,-0.28074 0.0616,-0.22175 0.0616,-0.22175 0.17111,-0.19488 0.1711,-0.19488 1.10255,-0.66584 1.10254,-0.66583 0.94948,-0.58075 0.94948,-0.58075 -0.39618,-0.65567 -0.39618,-0.65567 -0.87113,-1.35023 -0.87113,-1.35024 -0.11507,-0.25977 -0.11508,-0.25977 0.0358,-0.34268 0.0358,-0.34269 0.11478,-0.22499 0.11478,-0.22498 0.2081,-0.18271 0.2081,-0.18272 0.29414,-0.0873 0.29413,-0.0874 1.59996,0.0536 1.59996,0.0536 0.74945,0.002 0.74945,0.002 0.0822,-0.19079 0.0822,-0.19079 0.0691,-1.4383 0.0691,-1.43829 0.0766,-0.92048 0.0766,-0.92047 0.16216,-0.29793 0.16215,-0.29793 0.19603,-0.14951 0.19602,-0.14952 0.20356,-0.0851 0.20356,-0.085 h 0.32666 0.32665 l 0.21164,0.0884 0.21163,0.0884 1.26881,1.02343 1.2688,1.02344 0.6542,0.5319 0.6542,0.53191 h 0.0622 0.0622 l 0.14942,-0.0681 0.14943,-0.0681 0.19089,-0.2981 0.1909,-0.29809 1.16563,-1.55644 1.16563,-1.55644 0.15525,-0.13322 0.15525,-0.13322 0.23483,-0.12879 0.23482,-0.12878 0.38159,-0.002 0.38159,-0.002 0.26143,0.14631 0.26144,0.14631 0.18661,0.24498 0.18661,0.24498 0.53293,1.63361 0.53293,1.6336 0.19082,0.63308 0.19083,0.63307 0.12853,0.0323 0.12853,0.0323 0.63697,-0.17343 0.63696,-0.17342 1.11541,-0.33787 0.74399,-0.20924 -0.87286,-3.43659 5.59671,2.77492 -3.07085,6.07849 -0.97428,-2.75183 -0.89446,0.31884 -1.35023,0.42528 -1.35024,0.42528 -0.49859,0.13955 -0.49858,0.13956 h -0.20991 -0.2099 l -0.31841,-0.0946 -0.31841,-0.0945 -0.24119,-0.24301 -0.24118,-0.243 -0.42932,-1.29153 -0.42932,-1.29153 -0.1664,-0.35223 -0.16641,-0.35224 h -0.0256 -0.0256 l -0.28999,0.41094 -0.29,0.41094 -0.65952,0.79253 -0.65953,0.79253 -0.26707,0.27562 -0.26707,0.27562 -0.29421,0.12656 -0.2942,0.12656 -0.41566,-0.0219 -0.41566,-0.0219 -0.26694,-0.13029 -0.26694,-0.1303 -0.78977,-0.62374 -0.78977,-0.62374 -0.57048,-0.56259 -0.57048,-0.56259 -0.023,0.0264 -0.023,0.0264 -0.0931,1.81988 -0.0931,1.81989 -0.0905,0.2548 -0.0905,0.2548 -0.18016,0.22747 -0.18016,0.22748 -0.39156,0.19276 -0.39156,0.19277 -1.14616,-0.0129 -1.14616,-0.0129 -0.61133,-0.0387 -0.61134,-0.0387 0.22179,0.40393 0.22178,0.40393 0.58944,0.90737 0.58943,0.90737 0.14644,0.28225 0.14643,0.28225 -0.005,0.42479 -0.005,0.4248 -0.067,0.17585 -0.067,0.17586 -0.14022,0.18384 -0.14022,0.18384 -1.55822,0.95109 -1.55822,0.95109 v 0.0511 0.0511 l 0.19484,0.14862 0.19485,0.14862 0.39406,0.17867 0.39405,0.17867 0.98148,0.62513 0.98148,0.62512 0.16668,0.15131 0.16669,0.15131 0.0828,0.15853 0.0828,0.15852 -10e-4,0.42854 -0.001,0.42853 -0.10766,0.23482 -0.10767,0.23483 -0.35121,0.5577 -0.35121,0.55771 -0.37218,0.67512 -0.37219,0.67511 -0.17131,0.25363 -0.17131,0.25362 0.0203,0.0193 0.0203,0.0193 0.96864,-0.0798 0.96865,-0.0798 0.89066,-0.0407 0.89067,-0.0406 0.26632,0.0746 0.26632,0.0746 0.2337,0.20004 0.2337,0.20004 0.16502,0.33605 0.16502,0.33605 0.0195,0.70447 0.0195,0.70447 -0.15288,1.0781 -0.15289,1.0781 -0.0685,0.91256 -0.0685,0.91256 0.0687,0.83017 0.0687,0.83018 0.1451,0.57201 0.1451,0.57201 0.23177,0.52523 0.23178,0.52522 0.33903,0.51422 0.33903,0.51423 0.70878,0.70447 0.70877,0.70447 0.52761,0.37148 0.52761,0.37148 0.5681,0.32166 0.5681,0.32166 0.74115,0.32069 0.74115,0.32069 0.77555,0.22598 0.77555,0.22597 0.76318,0.15146 0.76318,0.15146 0.82188,0.0955 0.82188,0.0955 1.26218,0.0165 1.26218,0.0165 0.26417,0.11769 0.26418,0.11769 0.24504,0.26621 0.24505,0.26621 0.0628,0.22629 0.0628,0.22629 -2.5e-4,0.23483 -2.5e-4,0.23482 -0.13876,0.29353 -0.13877,0.29353 -0.16886,0.15829 -0.16887,0.1583 -0.26982,0.11931 -0.26982,0.1193 -0.4053,0.0239 -0.4053,0.0239 z"
           id="path8"
           sodipodi:nodetypes="cccccccccccccccccccccccccccccccccccccccccccccccccccccccccccccccccccccccccccccccccccccccccccccccccccccccccccccccccccccccccccccccccccccccccccccccccccccccccccccccccccccccccccccccccccccccccccccccccccccccccccccccccccccccccccccccccccccccccccccccccccccccccccccccccccccccccccccccccccccccccccccc" /><path
           style="fill:#000000;fill-opacity:1"
           d="m -304.76803,133.41536 -0.26418,-0.0194 -0.499,-0.0618 -0.499,-0.0618 -0.55931,-0.14104 -0.5593,-0.14104 -0.40616,-0.15288 -0.40616,-0.15288 -0.52117,-0.26131 -0.52118,-0.26131 -0.33324,-0.21312 -0.33325,-0.21311 -0.44335,-0.33743 -0.44336,-0.33744 -0.54234,-0.57305 -0.54233,-0.57305 -0.35526,-0.53111 -0.35525,-0.53112 -0.25794,-0.51358 -0.25794,-0.51359 -0.11934,-0.31107 -0.11935,-0.31106 -0.14511,-0.52873 -0.14512,-0.52872 -0.0876,-0.61604 -0.0875,-0.61604 v -0.90995 -0.90994 l 0.086,-0.60488 0.086,-0.60488 0.12602,-0.53988 0.12602,-0.53989 0.17393,-0.499 0.17393,-0.499 0.34382,-0.70447 0.34381,-0.70447 0.40272,-0.61641 0.40272,-0.61641 0.44987,-0.53549 0.44987,-0.5355 0.59554,-0.56626 0.59554,-0.56626 0.54146,-0.40697 0.54147,-0.40697 0.49373,-0.30794 0.49373,-0.30793 0.7039,-0.31608 0.70391,-0.31608 0.64633,-0.22233 0.64633,-0.22234 0.52835,-0.12208 0.52835,-0.12208 0.64577,-0.0993 0.64576,-0.0994 1.26218,-3e-5 1.26218,-3e-5 0.67512,0.12262 0.67511,0.12261 0.52836,0.15337 0.52835,0.15337 0.6305,0.26577 0.63051,0.26577 0.51052,0.32052 0.51053,0.32052 0.48646,0.40965 0.48646,0.40964 0.4032,0.48273 0.40321,0.48272 0.25074,0.37339 0.25074,0.37339 0.31283,0.65396 0.31283,0.65397 0.1869,0.61641 0.18689,0.61641 0.007,0.58706 0.007,0.58706 -0.16862,0.3434 -0.16862,0.34341 -0.26849,0.17027 -0.26849,0.17027 h -0.32922 -0.32921 l -0.30726,-0.15311 -0.30725,-0.15311 -0.1454,-0.2138 -0.1454,-0.2138 -0.14981,-0.499 -0.1498,-0.499 -0.11222,-0.30689 -0.11223,-0.3069 -0.24271,-0.48563 -0.24271,-0.48564 -0.23494,-0.35223 -0.23493,-0.35224 -0.36023,-0.37194 -0.36023,-0.37194 -0.35369,-0.25486 -0.35368,-0.25487 -0.49755,-0.24119 -0.49755,-0.24118 -0.46964,-0.14185 -0.46965,-0.14185 -0.52835,-0.10048 -0.52836,-0.10047 -0.93929,-5.9e-4 -0.9393,-5.9e-4 -0.58706,0.10227 -0.58705,0.10227 -0.58706,0.15118 -0.58706,0.15119 -0.51992,0.19747 -0.51992,0.19747 -0.51313,0.26502 -0.51314,0.26502 -0.40524,0.27047 -0.40524,0.27046 -0.47966,0.40237 -0.47967,0.40236 -0.3862,0.4266 -0.38621,0.4266 -0.34956,0.46965 -0.34956,0.46965 -0.24419,0.42566 -0.24419,0.42567 -0.2298,0.533 -0.22979,0.53301 -0.1422,0.49072 -0.14221,0.49072 -0.091,0.61285 -0.091,0.61285 0.001,0.52082 10e-4,0.52081 0.0584,0.41095 0.0584,0.41094 0.11994,0.46964 0.11993,0.46965 0.28298,0.58706 0.28298,0.58706 0.26539,0.37533 0.2654,0.37533 0.46089,0.46646 0.4609,0.46646 0.48952,0.32652 0.48952,0.32652 0.52878,0.22797 0.52877,0.22797 0.57348,0.14497 0.57348,0.14497 0.63905,0.0512 0.63905,0.0512 0.56761,-0.0481 0.56762,-0.0481 0.48909,-0.11633 0.48909,-0.11633 0.48422,-0.20441 0.48422,-0.2044 0.48443,-0.32251 0.48443,-0.32251 0.35602,-0.37277 0.35603,-0.37277 0.25239,-0.37353 0.2524,-0.37353 0.16672,-0.3677 0.16672,-0.36769 0.12491,-0.46224 0.12492,-0.46225 0.0322,-0.6488 0.0322,-0.6488 -0.0988,-0.49597 -0.0988,-0.49596 -0.24464,-0.499 -0.24464,-0.499 -0.39728,-0.39268 -0.39728,-0.39268 -0.42638,-0.20987 -0.42637,-0.20987 -0.44029,-0.0929 -0.4403,-0.0929 -0.67512,0.0282 -0.67511,0.0282 -0.38861,0.14352 -0.38861,0.14352 -0.28456,0.16677 -0.28457,0.16676 -0.27624,0.27624 -0.27624,0.27625 -0.18856,0.37352 -0.18855,0.37352 -0.0295,0.36752 -0.0295,0.36752 0.0995,0.26058 0.0995,0.26057 0.22724,0.2053 0.22724,0.2053 0.2243,0.0635 0.2243,0.0635 0.32694,0.0357 0.32694,0.0357 0.32786,-0.0953 0.32786,-0.0953 h 0.317 0.317 l 0.30027,0.14963 0.30028,0.14964 0.14179,0.18792 0.14178,0.18793 0.0685,0.19955 0.0685,0.19956 -5.7e-4,0.24074 -5.8e-4,0.24074 -0.1382,0.29679 -0.1382,0.29679 -0.25504,0.2183 -0.25503,0.2183 -0.37316,0.11526 -0.37315,0.11525 -0.51365,0.0625 -0.51364,0.0625 -0.5246,-0.0646 -0.52459,-0.0646 -0.35224,-0.0886 -0.35223,-0.0886 -0.499,-0.24456 -0.499,-0.24456 -0.39112,-0.39061 -0.39111,-0.39062 -0.23761,-0.4915 -0.23761,-0.4915 -0.11936,-0.499 -0.11937,-0.499 -4.1e-4,-0.44981 -4.1e-4,-0.4498 0.0832,-0.43466 0.0832,-0.43466 0.18289,-0.47425 0.18289,-0.47425 0.2399,-0.37311 0.23989,-0.37311 0.2534,-0.29842 0.25341,-0.29841 0.40045,-0.32762 0.40044,-0.32762 0.38123,-0.23072 0.38124,-0.23073 0.41094,-0.16407 0.41094,-0.16407 0.70447,-0.14399 0.70447,-0.14398 1.02735,0.0284 1.02736,0.0285 0.46964,0.12793 0.46965,0.12793 0.53555,0.25266 0.53555,0.25267 0.35602,0.24177 0.35603,0.24177 0.35721,0.33071 0.35721,0.33072 0.36056,0.47681 0.36057,0.47681 0.28127,0.58706 0.28126,0.58706 0.14516,0.54296 0.14516,0.54296 0.0713,0.5662 0.0713,0.5662 -0.0337,0.65201 -0.0337,0.65202 -0.0932,0.43531 -0.0932,0.43531 -0.17206,0.51359 -0.17207,0.51359 -0.26631,0.56987 -0.2663,0.56988 -0.32738,0.49203 -0.32739,0.49202 -0.4751,0.50191 -0.4751,0.50191 -0.50441,0.37926 -0.50441,0.37925 -0.76318,0.37685 -0.76318,0.37684 -0.5577,0.17453 -0.55771,0.17452 -0.50164,0.0933 -0.50165,0.0933 -0.70182,0.0581 -0.70183,0.0581 -0.23482,-0.009 -0.23483,-0.009 z"
           id="path42" /><path
           style="fill:#666a6e;fill-opacity:1"
           d="m -282.21068,106.48349 6.66943,3.05767 -3.25148,0.97551 0.0921,0.51802 0.12954,0.72873 0.0295,1.45246 0.0295,1.45246 -0.0712,0.77836 -0.0712,0.77836 -0.11081,0.62028 -0.11082,0.62028 -0.14991,0.52449 -0.1499,0.52448 -0.30296,0.61443 -0.30295,0.61444 -0.41428,0.41883 -0.41428,0.41883 -0.33756,0.22255 -0.33756,0.22255 0.003,0.0357 0.003,0.0357 0.41627,0.29353 0.41628,0.29353 0.35903,0.38787 0.35904,0.38787 0.21342,0.43401 0.21341,0.43402 0.19055,0.58706 0.19055,0.58705 0.0276,0.76318 0.0276,0.76318 -0.0949,0.40364 -0.0949,0.40364 -0.2371,0.45574 -0.2371,0.45574 -0.31564,0.3488 -0.31564,0.34879 -0.32809,0.22597 -0.3281,0.22596 0.0522,0.0335 0.0522,0.0335 0.29785,0.45748 0.29786,0.45748 0.1182,0.3159 0.11819,0.3159 0.0692,0.39763 0.0693,0.39763 -0.0337,0.70758 -0.0337,0.70758 -0.12436,0.44029 -0.12436,0.4403 -0.23022,0.46964 -0.23022,0.46965 -0.20746,0.27895 -0.20747,0.27895 -0.24886,0.18083 -0.24886,0.18084 -0.0821,0.0464 -0.0821,0.0464 0.30109,0.60919 0.3011,0.6092 0.0999,0.41094 0.0999,0.41094 2e-5,0.64576 3e-5,0.64577 -0.18,0.51433 -0.18,0.51434 -0.19756,0.32659 -0.19756,0.3266 -0.28128,0.31595 -0.28127,0.31596 -0.47529,0.35814 -0.47528,0.35814 -0.59368,0.28326 -0.59368,0.28326 -0.46964,0.15234 -0.46965,0.15234 -0.38159,0.0872 -0.38159,0.0872 -0.58706,0.0978 -0.58705,0.0978 -2.08406,0.0152 -2.08406,0.0152 -0.20653,-0.0235 -0.20547,-0.0235 -0.54383,-0.0886 -0.54382,-0.0886 -0.49704,-0.17985 -0.49705,-0.17985 -0.35711,-0.23081 -0.3571,-0.23081 -0.29117,-0.27236 -0.29117,-0.27235 -0.23293,-0.34882 -0.23293,-0.34881 -0.12174,-0.39039 -0.12175,-0.39039 -0.0324,-0.61641 -0.0324,-0.61641 0.12263,-0.51129 0.12263,-0.51128 0.17023,-0.37543 0.17022,-0.37543 0.29573,-0.43825 0.29572,-0.43824 0.29671,-0.32465 0.29671,-0.32464 0.46641,-0.30621 0.46641,-0.30621 -0.17026,-0.37548 -0.17025,-0.37549 -0.13151,-0.45723 -0.1315,-0.45723 0.002,-0.85124 0.002,-0.85123 0.16224,-0.46965 0.16225,-0.46965 0.20402,-0.36613 0.20402,-0.36614 0.34098,-0.42909 0.34098,-0.42908 0.56082,-0.45107 0.56081,-0.45106 -0.10903,-0.21385 -0.10903,-0.21385 -0.0686,-0.33019 -0.0685,-0.33019 0.0299,-0.76338 0.0299,-0.76338 0.15447,-0.52835 0.15448,-0.52836 0.22964,-0.46964 0.22965,-0.46965 0.52416,-0.74599 c 0.7138,-1.38459 1.74716,-2.43571 3.15012,-3.05332 0.69163,-0.22801 1.26664,-0.41745 1.93944,-0.56979 l 0.44119,-0.0676 0.44029,-0.0675 0.52836,-0.17214 0.52835,-0.17213 0.3916,-0.23208 0.3916,-0.23207 0.18342,-0.18342 0.18341,-0.18342 0.14341,-0.283 0.14341,-0.28301 0.14533,-0.50151 0.14534,-0.50151 0.10335,-0.6613 0.10336,-0.66131 10e-4,-1.35024 10e-4,-1.35023 -0.13109,-0.64577 -2.42571,1.28629 m -2.99191,27.27768 0.73178,-0.13225 0.44234,-0.11312 0.44234,-0.11312 0.35948,-0.16821 0.35948,-0.16822 0.24045,-0.21723 0.24046,-0.21724 0.15774,-0.33235 0.15774,-0.33236 0.004,-0.41268 0.004,-0.41267 -0.16434,-0.3359 -0.16434,-0.33591 -0.2745,-0.16136 -0.27449,-0.16136 -0.76318,0.0103 -0.76318,0.0103 -2.08406,0.0574 -2.08406,0.0574 -0.44872,0.11908 -0.44872,0.11908 -0.37219,0.18789 -0.37219,0.18788 -0.33261,0.33991 -0.33261,0.33992 -0.1867,0.37924 -0.18669,0.37924 -0.0319,0.23801 -0.0319,0.23801 0.0389,0.20746 0.0389,0.20746 0.15181,0.18042 0.15181,0.18042 0.22653,0.11557 0.22653,0.11556 0.22106,0.0549 0.22106,0.0549 2.08406,-0.017 2.08405,-0.017 z m 2.29861,-6.4857 0.56474,-0.0878 0.25714,-0.10011 0.25715,-0.1001 0.23482,-0.15198 0.23482,-0.15198 0.20325,-0.40499 0.20324,-0.405 0.0234,-0.3675 0.0234,-0.3675 -0.10362,-0.31199 -0.10363,-0.312 -0.28608,-0.30248 -0.28608,-0.30249 -0.3371,-0.15128 -0.33709,-0.15128 -0.35108,-0.1 -0.35108,-0.1 -1.497,-0.008 -1.497,-0.008 -0.42717,0.0458 -0.42717,0.0458 -0.39471,0.15721 -0.39471,0.15721 -0.36436,0.22927 -0.36435,0.22927 -0.28982,0.31711 -0.28982,0.31711 -0.13671,0.28098 -0.13671,0.28098 -0.023,0.39732 -0.023,0.39732 0.0733,0.17707 0.0733,0.17708 0.25607,0.2254 0.25606,0.2254 0.39993,0.12859 0.39992,0.12859 0.40744,0.0516 0.40743,0.0516 1.79053,-0.0238 1.79053,-0.0238 z m 0.55067,-6.66731 0.82189,-0.0555 0.20627,-0.0596 0.20628,-0.0596 0.32208,-0.19223 0.32207,-0.19224 0.18573,-0.27752 0.18572,-0.27753 0.0642,-0.29915 0.0641,-0.29915 -0.0616,-0.3916 -0.0616,-0.3916 -0.17077,-0.36741 -0.17077,-0.36741 -0.31106,-0.32965 -0.31106,-0.32964 -0.34015,-0.23152 -0.34016,-0.23151 -0.48244,-0.23149 -0.48243,-0.23149 -0.66318,-0.0693 -0.66319,-0.0693 -0.2754,0.0735 -0.2754,0.0735 -0.27723,0.17767 -0.27724,0.17767 -0.31631,0.34166 -0.31631,0.34165 -0.22961,0.35141 -0.22961,0.35141 -0.43445,0.84955 -0.43445,0.84955 -0.0254,0.49234 -0.0254,0.49233 0.12721,0.16072 0.1272,0.16072 0.18711,0.0541 0.1871,0.0541 1.67311,0.004 1.67312,0.004 z"
           id="path7"
           sodipodi:nodetypes="ccccccccccccccccccccccccccccccccccccccccccccccccccccccccccccccccccccccccccccccccccccccccccccccccccccccccccccccccccccccccccccccccccccccccccccccccccccccccccccccccccccccccccccccccccccccccccccccccccccccccccccccccccccccccccccccccccccccccccccccccccccccccccccccccccccccccccccccccccccccc" /></g></g></g></svg>
