<?xml version="1.0" encoding="UTF-8" standalone="no"?>
<!-- Created with Inkscape (http://www.inkscape.org/) -->

<svg
   width="106.19176mm"
   height="37.895313mm"
   viewBox="0 0 106.19176 37.895313"
   version="1.1"
   id="svg1"
   xml:space="preserve"
   inkscape:version="1.4 (86a8ad7, 2024-10-11)"
   sodipodi:docname="copanlpjml_logo.svg"
   xmlns:inkscape="http://www.inkscape.org/namespaces/inkscape"
   xmlns:sodipodi="http://sodipodi.sourceforge.net/DTD/sodipodi-0.dtd"
   xmlns="http://www.w3.org/2000/svg"
   xmlns:svg="http://www.w3.org/2000/svg"><sodipodi:namedview
     id="namedview1"
     pagecolor="#ffffff"
     bordercolor="#000000"
     borderopacity="0.25"
     inkscape:showpageshadow="2"
     inkscape:pageopacity="0.0"
     inkscape:pagecheckerboard="0"
     inkscape:deskcolor="#d1d1d1"
     inkscape:document-units="mm"
     inkscape:zoom="1.0897758"
     inkscape:cx="178.47708"
     inkscape:cy="354.66011"
     inkscape:window-width="1920"
     inkscape:window-height="1111"
     inkscape:window-x="-9"
     inkscape:window-y="-9"
     inkscape:window-maximized="1"
     inkscape:current-layer="layer1"
     showguides="true"><inkscape:page
       x="0"
       y="0"
       width="106.19176"
       height="37.895313"
       id="page1"
       margin="0"
       bleed="0" /></sodipodi:namedview><defs
     id="defs1" /><g
     inkscape:label="Layer 1"
     inkscape:groupmode="layer"
     id="layer1"
     transform="translate(294.48049,-23.174597)"><g
       id="g204"
       transform="translate(-39.270789,-43.823045)"
       inkscape:export-filename="..\..\Pictures\copanlpjml_logo.png"
       inkscape:export-xdpi="96"
       inkscape:export-ydpi="96"><path
         style="fill:#f05d2b"
         d="m -201.89228,86.591327 c -2.64499,-0.481743 -4.56494,-2.484785 -4.7825,-4.989463 -0.0627,-0.722377 -0.10063,-0.86674 -0.25868,-0.985959 -0.18462,-0.139262 -0.18352,-0.141066 0.37966,-0.618843 0.72688,-0.616655 0.72452,-0.61761 0.72452,0.293409 v 0.772584 l -0.24514,-0.04903 c -0.87414,-0.174829 0.0377,2.553977 1.25417,3.753195 1.55953,1.537436 5.77154,2.175644 6.11703,0.92686 0.23119,-0.835652 0.2192,-1.062298 -0.0731,-1.381263 -0.55155,-0.60184 -0.24541,-1.166459 0.99421,-1.833656 0.37859,-0.203764 0.77073,-0.457451 0.87142,-0.563748 0.1838,-0.194024 0.47942,-0.265704 0.47942,-0.116247 0,0.182208 -0.42621,0.531252 -1.143,0.936054 -1.14023,0.64394 -1.40478,1.051874 -0.87453,1.348519 0.21973,0.122924 0.23839,0.115058 0.65796,-0.277406 2.00233,-1.872939 6.23282,-0.39919 4.38759,1.528475 -0.61925,0.64692 -1.1522,0.411388 -0.82971,-0.366682 0.31294,-0.755032 -0.69752,-0.965892 -2.24064,-0.467567 -0.2794,0.09023 -0.76627,0.191694 -1.08194,0.225481 -0.63109,0.06755 -0.73839,0.160474 -0.73839,0.639454 0,1.047455 -1.5948,1.590747 -3.59834,1.225832 z m 8.25374,-1.503594 c 1.37558,-1.476502 -2.31472,-2.598118 -3.8241,-1.162284 -0.60933,0.579646 -0.36303,0.643587 0.91512,0.237564 1.9325,-0.613892 3.14026,-0.169708 2.62128,0.964042 -0.0966,0.21113 0.0764,0.187478 0.2877,-0.03932 z m 1.54615,-5.337012 c 0.0214,-0.05821 0.12549,-0.372533 0.2312,-0.6985 0.23254,-0.717053 0.29076,-0.791514 0.51119,-0.653848 0.1442,0.09005 0.19605,0.07063 0.38866,-0.145539 0.34918,-0.391897 0.79282,-0.662695 1.45422,-0.887652 0.81711,-0.277915 0.79988,-0.261713 0.65275,-0.61383 -0.4235,-1.013581 0.26272,-2.070741 0.91849,-1.414975 0.30185,0.301853 0.37098,0.734879 0.19597,1.227628 -0.077,0.216852 -0.14003,0.412634 -0.14003,0.435072 0,0.115931 1.28441,0.497099 1.50891,0.447791 0.30336,-0.06663 0.64087,-0.409411 0.81606,-0.828814 0.15745,-0.376904 0.14244,-0.381338 -0.33785,-0.09987 -0.87722,0.514086 -1.34434,-0.147832 -0.53072,-0.752045 0.15304,-0.11365 0.35378,-0.167974 0.6066,-0.164152 0.39458,0.006 0.54457,-0.174319 0.43459,-0.522374 -0.0232,-0.07355 -0.0611,-0.193407 -0.0841,-0.266349 -0.0346,-0.109638 -0.10428,-0.0884 -0.40217,0.12258 -0.50387,0.356855 -0.76795,0.406761 -0.988,0.186711 -0.31367,-0.31367 0.0298,-0.796874 0.63609,-0.894989 0.65083,-0.105314 0.7187,-0.136505 0.88288,-0.405787 0.20465,-0.335629 0.2138,-0.760251 0.0233,-1.08266 l -0.14368,-0.243226 -0.25849,0.196447 c -0.82657,0.628183 -1.6077,0.632679 -1.451,0.0084 0.0727,-0.289465 0.49008,-0.528197 1.04475,-0.597498 1.15322,-0.144086 1.78232,-2.001433 1.11702,-3.297902 -0.7474,-1.456467 -3.89395,-1.425796 -5.45777,0.0532 -0.4683,0.442902 -0.63382,0.51001 -0.63382,0.25698 0,-0.239564 0.7855,-0.923309 1.37809,-1.199568 2.08389,-0.971483 4.76141,-0.471442 5.14915,0.96163 0.23363,0.863525 -0.0248,2.71468 -0.44074,3.157469 -0.16843,0.179286 -0.16905,0.191948 -0.0226,0.468077 0.1997,0.376674 0.19838,1.124726 -0.003,1.504086 -0.11455,0.216149 -0.13808,0.37613 -0.0934,0.635 0.0328,0.19033 0.0596,0.422254 0.0595,0.515387 -0.003,2.219425 -0.75762,2.981565 -2.39277,2.415443 l -0.7834,-0.271232 -0.51541,0.16959 c -1.15513,0.380088 -1.48347,0.536137 -1.73796,0.825984 -0.27186,0.309629 -0.32382,0.529303 -0.1632,0.689924 0.17847,0.178472 0.008,0.329708 -0.67575,0.599951 -0.76589,0.302651 -0.80864,0.311922 -0.75394,0.163507 z m 4.12509,-3.645388 c -0.003,-0.330958 -0.16962,-0.566779 -0.39975,-0.566779 -0.30212,0 -0.39104,0.727842 -0.13379,1.095116 l 0.14111,0.20146 0.19756,-0.229676 c 0.12002,-0.139533 0.1965,-0.33582 0.19487,-0.500121 z m 2.00804,0.0048 c 0.15168,-0.171342 0.15039,-0.172777 -0.0999,-0.111753 -0.29359,0.07159 -0.48245,0.207315 -0.42279,0.303849 0.065,0.105103 0.35343,-9.21e-4 0.52267,-0.192096 z m -0.27664,-1.343201 c 0.12514,-0.09844 0.20958,-0.196948 0.18762,-0.218902 -0.0587,-0.05868 -0.64633,0.23488 -0.64633,0.322868 0,0.131552 0.22377,0.08083 0.45871,-0.103966 z m -0.16888,-2.078633 c 0.16257,-0.07752 0.27732,-0.170498 0.255,-0.20661 -0.0541,-0.08747 -0.50888,0.07522 -0.63495,0.227131 -0.13641,0.16437 0.009,0.156534 0.37995,-0.02052 z m -19.23823,3.680019 c -0.30773,-0.30773 0.0953,-0.978207 0.81684,-1.358994 0.3503,-0.184864 0.31638,-0.308563 -0.14989,-0.546517 -1.05826,-0.540066 -0.97114,-1.086667 0.2536,-1.591223 0.35181,-0.144937 0.30632,-0.416907 -0.12284,-0.734351 -0.9683,-0.716241 -0.75614,-1.415397 0.39185,-1.291311 0.58197,0.0629 0.60601,0.0031 0.23429,-0.583085 -0.67134,-1.058586 -0.20695,-1.654486 1.06825,-1.37078 0.95194,0.211787 1.13163,0.0765 1.13163,-0.851985 0,-0.578676 0.18488,-0.798821 0.67084,-0.798821 0.3481,0 0.85316,0.325788 0.85316,0.550333 0,0.716793 1.07129,0.659958 1.3959,-0.07406 0.4317,-0.976158 1.6521,-0.953423 1.6521,0.03078 0,0.737926 0.43751,0.965952 0.82001,0.427385 0.40289,-0.567275 0.96979,-0.660909 1.26584,-0.20908 0.20604,0.314456 0.0234,0.477368 -0.24868,0.221787 -0.27475,-0.258106 -0.33385,-0.240621 -0.80517,0.238188 -0.62156,0.631442 -1.19997,0.497066 -1.32593,-0.30804 -0.13797,-0.881823 -0.6053,-1.043644 -0.98479,-0.340999 -0.62232,1.152271 -1.52096,1.203542 -2.12911,0.121475 -0.36397,-0.647598 -0.70572,-0.487937 -0.82971,0.38764 -0.14308,1.01032 -0.39609,1.177821 -1.44018,0.953458 -1.11127,-0.2388 -1.36681,0.100925 -0.72192,0.959749 0.50471,0.67214 0.22827,1.071459 -0.6748,0.974748 -0.69161,-0.07406 -0.84177,0.111266 -0.37657,0.46476 1.04263,0.792259 1.05742,1.345912 0.0441,1.650871 -0.66668,0.200643 -0.67367,0.489863 -0.0198,0.818593 0.50351,0.253129 0.65334,0.406257 0.65334,0.667745 0,0.261489 -0.14983,0.414617 -0.65334,0.667746 -0.42728,0.214807 -0.60498,0.481099 -0.43443,0.651009 0.0955,0.09516 0.226,0.05899 0.80125,-0.222106 1.06291,-0.519379 1.83332,-0.693788 3.05935,-0.692584 1.05058,10e-4 1.1921,-0.04464 0.84435,-0.2725 -0.49936,-0.327196 -1.31223,-0.442571 -1.66949,-0.236961 -0.63922,0.36789 -1.26399,0.132568 -1.14734,-0.43215 0.0303,-0.146733 0.0894,-0.606772 0.13119,-1.022309 0.10553,-1.047915 0.16335,-1.154568 0.7863,-1.450236 0.59717,-0.28344 0.66566,-0.432857 0.44786,-0.977177 -0.29571,-0.73905 -0.0809,-1.02181 0.74962,-0.986561 0.43379,0.01841 0.50682,-0.0025 0.62921,-0.180534 0.52742,-0.766997 0.79199,-0.836544 1.4529,-0.38192 0.35306,0.242861 0.56678,0.32108 1.0395,0.380437 0.68771,0.08635 0.92133,0.212685 1.07374,0.580635 0.0802,0.193675 0.15659,0.257382 0.28696,0.239392 0.16122,-0.02225 0.18776,0.04138 0.28713,0.688459 0.14009,0.912197 0.0917,0.944572 -0.642,0.42933 -0.65149,-0.457521 -0.70216,-0.535669 -0.43876,-0.676636 0.55474,-0.296887 0.13998,-0.835183 -0.72638,-0.942742 -0.54042,-0.06709 -0.71141,-0.128969 -1.03124,-0.373178 -0.49399,-0.377193 -0.49976,-0.376296 -0.9655,0.150074 -0.3938,0.445066 -0.39605,0.446179 -0.90303,0.446179 -0.63306,0 -0.65754,0.02592 -0.48971,0.518494 0.27297,0.801128 0.13032,1.149491 -0.57208,1.397041 -0.5258,0.185308 -0.67371,0.440596 -0.61156,1.055536 0.0346,0.34241 0.0134,0.626957 -0.0632,0.846667 -0.1883,0.540422 -0.0114,0.685901 0.50583,0.416117 0.74665,-0.389402 2.32366,0.0669 2.38492,0.690061 0.0403,0.409972 -0.17506,0.568612 -0.65319,0.481155 -1.07072,-0.19585 -2.35293,0.0204 -3.56492,0.601229 -0.64397,0.308614 -1.15163,0.384501 -1.33636,0.199767 z"
         id="path206" /><path
         style="fill:#666a6e"
         d="m -218.19085,104.77423 c -0.11629,-0.0806 -0.27861,-0.23081 -0.36072,-0.33375 -0.14928,-0.18715 -0.14928,-0.18715 -0.65038,0.0165 -4.44195,1.80493 -9.44291,-2.6611 -7.32565,-6.542034 l 0.28695,-0.525982 -0.17529,-0.396264 c -0.26508,-0.599274 -0.1516,-1.249218 0.35325,-2.023105 0.21184,-0.324724 0.22034,-0.38398 0.20651,-1.439333 -0.0152,-1.158353 0.0152,-1.481667 0.13941,-1.481667 0.0415,0 0.0755,0.51435 0.0755,1.143 0,1.272104 -0.0196,1.241569 0.59548,0.929907 0.59996,-0.304019 0.51145,-0.887574 -0.13461,-0.887574 -0.16035,0 -0.29154,-0.0381 -0.29154,-0.08467 0,-0.04657 0.1524,-0.08467 0.33867,-0.08467 0.54604,0 0.52975,-0.782222 -0.0187,-0.898137 -0.59992,-0.126793 -0.86022,-2.702336 -0.33216,-3.286527 0.0873,-0.09662 0.1839,-0.30902 0.21459,-0.472003 0.16287,-0.864992 1.97741,-2.7061 2.67168,-2.710796 0.11894,-8.05e-4 0.30484,-0.09486 0.4131,-0.209019 0.21535,-0.227078 0.65762,-0.345793 0.98352,-0.263998 0.1235,0.031 0.38263,-0.01675 0.63869,-0.117682 0.54629,-0.215329 0.77869,-0.214111 1.02907,0.0054 l 0.19988,0.175234 -0.254,-0.06003 c -0.62943,-0.148747 -1.16202,0.07859 -1.21377,0.51809 -0.0678,0.575983 1.24867,0.708609 1.42908,0.143969 0.23479,-0.734818 0.72763,-0.977593 1.42585,-0.702378 0.24169,0.09527 0.5428,0.174561 0.66914,0.176211 0.12633,0.0016 0.32495,0.05745 0.44136,0.124 0.11642,0.06655 0.34294,0.12235 0.50337,0.124 0.19832,0.002 0.36763,0.07574 0.52887,0.230222 0.23717,0.227223 0.23717,0.227223 0.7243,0.07146 1.39241,-0.445238 3.0533,-0.139572 3.73494,0.687365 l 0.25927,0.314542 0.36313,-0.386051 c 1.11761,-1.18816 4.64069,-1.441639 5.52366,-0.397417 0.83988,0.993251 0.93022,2.412546 0.23803,3.739223 -0.29481,0.565034 -0.29683,0.5759 -0.13952,0.749899 0.24811,0.274433 0.21162,0.981216 -0.0729,1.41108 -0.22092,0.333828 -0.22169,0.340181 -0.0592,0.487248 0.48862,0.442196 -0.13998,1.85978 -0.93683,2.112691 -0.27073,0.08593 -0.32536,-0.04133 -0.0859,-0.200015 0.88366,-0.585463 1.25922,-1.342992 0.90557,-1.826629 -0.10607,-0.145058 -0.13392,-0.137339 -0.49275,0.136565 -0.40905,0.312233 -0.89431,0.545552 -0.97235,0.467515 -0.0887,-0.08866 0.0532,-0.215175 0.3028,-0.26999 1.04456,-0.229424 1.66639,-1.702098 1.05111,-2.489346 -0.0142,-0.01814 -0.15063,0.06194 -0.30324,0.177951 -1.05641,0.803049 -1.43791,0.646074 -1.55441,-0.639601 l -0.0588,-0.648377 h -0.49133 c -0.59708,0 -0.56287,-0.05374 -0.6353,0.997907 -0.0674,0.978673 -0.0376,1.028137 0.5259,0.872549 0.52875,-0.145994 0.50314,0.03655 -0.0325,0.231858 -1.64847,0.601062 -3.00526,2.759467 -2.47055,3.930187 0.14916,0.326582 1.08834,0.07032 1.59345,-0.434786 0.29919,-0.299193 0.25383,-0.83803 -0.0666,-0.791002 -0.53159,0.07802 -0.36463,-0.679202 0.20986,-0.951815 0.59166,-0.280761 1.01306,0.367331 0.91378,1.405327 l -0.0456,0.476558 0.59036,0.231619 c 0.82365,0.323149 1.62117,-3.36e-4 1.76422,-0.715594 0.0518,-0.258933 0.14622,-0.327775 0.24046,-0.175294 0.0905,0.146387 -0.19723,0.573182 -0.66347,0.984246 l -0.45541,0.401515 0.17266,0.292626 c 0.38851,0.658471 0.25038,2.213959 -0.2927,3.296271 l -0.26452,0.527172 0.30321,0.335619 c 1.26659,1.40196 0.49733,4.13775 -1.07555,3.82511 -0.41231,-0.082 -0.58565,-0.0844 -0.724,-0.0104 -0.10005,0.0536 -0.58963,0.13016 -1.08796,0.17025 -1.98665,0.15984 -2.36691,-0.14595 -2.45351,-1.97298 -0.0412,-0.86838 -0.0592,-0.94428 -0.28541,-1.20194 -0.29797,-0.33937 -0.32601,-0.57326 -0.0361,-0.30087 l 0.20542,0.19297 0.17558,-0.34417 c 0.29984,-0.58773 0.1349,-0.703623 -0.40909,-0.28743 -0.25541,0.19541 -0.41999,0.24204 -1.02399,0.29012 -0.39582,0.0315 -0.95779,0.0844 -1.24883,0.11759 -0.33955,0.0387 -0.52917,0.0297 -0.52917,-0.0252 0,-0.047 0.23532,-0.11211 0.52292,-0.14465 0.68574,-0.0776 1.06354,-0.2806 1.53839,-0.82668 0.48941,-0.562806 0.53371,-0.343959 0.0534,0.263695 -0.30098,0.380765 -0.32038,0.430945 -0.16661,0.430945 1.13068,0 2.44633,-2.040997 1.74211,-2.702575 -0.22863,-0.214789 -0.44219,-0.189882 -0.68649,0.08006 -0.0832,0.09194 -0.20844,0.167172 -0.27829,0.167172 -0.21309,0 0.14684,-0.341439 0.55024,-0.521965 0.36187,-0.161942 0.53722,-0.440357 0.37777,-0.599811 -0.0619,-0.06186 -0.15324,-0.04646 -0.30177,0.05086 -0.11717,0.07677 -0.25247,0.139586 -0.30068,0.139586 -0.21954,0 -0.0387,-0.182283 0.53622,-0.540644 0.34313,-0.213861 0.67164,-0.446404 0.73003,-0.516763 0.0584,-0.07036 0.13961,-0.127926 0.18047,-0.127926 0.15281,0 0.0644,0.166326 -0.25537,0.480467 -0.7319,0.718999 -0.54233,1.578738 0.25994,1.178945 0.24291,-0.121043 0.50385,-0.220079 0.57988,-0.220079 0.0836,0 0.21922,-0.172887 0.3431,-0.43738 0.75193,-1.605409 2.33116,-0.62677 1.7305,1.07238 -0.11523,0.325967 -0.21031,0.746115 -0.2113,0.933662 -0.002,0.363598 -0.19013,0.717338 -0.38169,0.717338 -0.064,0 -0.12849,0.08316 -0.14337,0.184801 -0.0591,0.403412 -0.82054,0.351572 -1.91311,-0.130225 l -0.65395,-0.288376 -0.2225,0.26381 -0.2225,0.263809 0.31798,0.361244 c 0.25401,0.28858 0.35485,0.51023 0.50127,1.10193 0.38374,1.55062 0.70508,2.60797 0.82979,2.73034 0.17806,0.17471 0.10564,-0.37225 -0.23724,-1.79181 -0.32422,-1.34234 -0.31218,-1.62683 0.0704,-1.66372 0.15134,-0.0146 0.27517,-0.004 0.27517,0.0245 0,0.45819 0.92549,3.28045 1.11393,3.39692 0.59768,0.36938 0.61243,-2.55544 0.0151,-2.99222 -0.38881,-0.28431 -0.38134,0.24985 0.0203,1.44965 0.16643,0.49724 0.28499,0.95063 0.26345,1.00755 -0.0572,0.15119 -0.2671,-0.37812 -0.61943,-1.5621 -0.23411,-0.78668 -0.36484,-1.08992 -0.53078,-1.2312 -0.26468,-0.22535 -0.18531,-0.23641 0.42062,-0.0586 0.82998,0.24354 0.98397,0.54353 1.09277,2.12881 0.0363,0.52855 0.0857,0.98071 0.10978,1.00482 0.14328,0.14328 0.9661,0.11883 1.21143,-0.036 1.15621,-0.72969 0.541,-3.906389 -0.75746,-3.911199 -0.47218,-0.0017 -0.67396,-0.129916 -0.32515,-0.206527 0.74017,-0.162569 1.11842,-2.250343 0.56783,-3.1342 -0.64891,-1.041692 -1.74922,-0.962015 -3.03927,0.220083 -0.73207,0.670806 -0.72265,0.473745 0.0124,-0.260159 1.97988,-1.976708 4.0347,-0.525395 3.28974,2.323538 -0.35046,1.340274 0.0721,1.279574 0.53901,-0.07742 0.6279,-1.825023 -0.0543,-3.272747 -1.60862,-3.413687 -0.57031,-0.05171 -0.71465,-0.145628 -0.33921,-0.220714 0.46049,-0.0921 0.56045,-1.024533 0.16387,-1.528694 -0.21725,-0.276197 -0.3353,-0.276353 -0.66269,-8.72e-4 -0.29874,0.25137 -0.27275,0.373283 0.0796,0.373283 0.62637,0 0.3842,0.975524 -0.35103,1.414079 -1.03833,0.619345 -1.40158,0.577567 -1.62084,-0.186413 l -0.1215,-0.423333 -0.24035,0.465667 c -0.14162,0.274369 -0.25236,0.410894 -0.26958,0.332336 -0.0294,-0.133987 0.22493,-0.759299 0.41696,-1.025264 0.32554,-0.450887 -0.49182,-1.674435 -1.2696,-1.900543 -1.46442,-0.425717 -5.01189,1.29325 -5.01189,2.428566 0,1.48038 2.28871,2.393814 3.51367,1.40232 l 0.254,-0.20559 -0.22926,-0.104542 c -0.1967,-0.08969 -0.29234,-0.07741 -0.67338,0.08651 -0.47587,0.204715 -0.68884,0.20077 -1.72203,-0.03189 -0.50266,-0.113194 -0.50541,-0.115427 -0.26212,-0.212345 0.13523,-0.05387 0.45908,-0.229267 0.71967,-0.389768 0.7658,-0.471677 0.86562,-0.464685 1.73309,0.121387 0.55528,0.375158 0.8535,0.520553 1.143,0.557267 0.79378,0.100669 0.94565,0.137209 0.89705,0.215839 -0.0623,0.100779 -0.57029,0.100563 -1.00569,-4.27e-4 -0.2956,-0.06856 -0.3947,-0.04344 -0.92638,0.234853 -0.75351,0.394403 -1.70229,0.443075 -2.31641,0.118831 -0.4641,-0.24503 -0.44788,-0.253166 -0.44788,0.224647 v 0.412849 l 0.48684,0.05842 c 0.47232,0.05667 0.57991,0.05869 1.36386,0.02553 0.31889,-0.01349 0.40228,0.02161 0.61383,0.258378 0.68995,0.772191 -0.28793,2.395354 -1.10029,1.826351 -0.2923,-0.204733 -1.4489,0.06653 -1.4489,0.339821 0,0.06099 -0.0762,0.179852 -0.16934,0.264142 -0.45108,0.40823 0.75543,0.58192 1.47916,0.21295 0.35721,-0.18212 0.47158,-0.15983 0.33017,0.0644 -0.18062,0.28634 -1.95064,0.40126 -2.23377,0.14503 -0.33202,-0.30048 -1.60756,0.60523 -1.60756,1.14146 0,0.65688 1.07912,1.07948 1.64815,0.64546 0.33479,-0.25536 0.38385,-0.26659 0.38385,-0.0878 0,0.24069 -0.72013,0.48564 -1.23766,0.42098 -0.5446,-0.068 -0.67541,0.11586 -0.59311,0.8338 0.10522,0.9178 0.9139,1.37789 1.69841,0.96628 0.21927,-0.11504 0.2908,-0.11608 0.60572,-0.009 0.33562,0.11435 0.39618,0.10818 1.00715,-0.1027 0.54444,-0.18792 0.73125,-0.21494 1.14984,-0.16636 0.60737,0.0705 1.03152,-0.10415 1.68931,-0.69557 0.45038,-0.40492 0.61563,-0.43959 0.37981,-0.0797 -0.38774,0.59176 -1.30148,1.02926 -1.99767,0.95649 -0.36698,-0.0383 -0.60581,-0.01 -0.97572,0.11773 -0.50255,0.1729 -0.78596,0.2122 -2.10732,0.29216 -0.63592,0.0385 -0.79727,0.0218 -0.97366,-0.10045 z m -1.36384,-0.40877 0.68674,-0.21694 v -0.59455 c 0,-0.327 0.0411,-0.67137 0.0914,-0.76526 0.074,-0.13825 0.0498,-0.23066 -0.127,-0.48582 -0.45219,-0.65251 0.0591,-1.43784 1.21846,-1.8714 1.2934,-0.483698 1.00807,-0.871209 -0.40411,-0.548814 -0.80796,0.184454 -0.88081,0.248794 -0.57036,0.503804 0.41106,0.33764 0.17083,0.34715 -0.368,0.0146 -0.63087,-0.3894 -0.63524,-0.38911 -1.33046,0.0869 -1.10308,0.75529 -2.09075,0.93041 -3.0819,0.54641 -0.25611,-0.0992 -0.47139,-0.18043 -0.47838,-0.18045 -0.0708,-2.4e-4 -0.20458,0.91705 -0.16473,1.12949 0.0574,0.30599 0.44521,0.72044 0.87843,0.93878 0.29145,0.14689 0.36483,0.13077 0.67485,-0.14833 0.22588,-0.20335 0.26923,-0.0381 0.0661,0.25196 -0.46707,0.66684 -1.82292,-0.29311 -1.82292,-1.29065 0,-0.54237 -0.12678,-0.65147 -0.39487,-0.3398 -1.0322,1.2 1.77517,2.99828 3.51339,2.25052 0.80909,-0.34806 1.24517,-1.05941 0.89002,-1.45184 -0.19299,-0.21326 0.0101,-0.20016 0.22479,0.0145 0.22936,0.22935 0.21348,0.40524 -0.0781,0.865 -1.27374,2.00849 -5.58381,0.56442 -4.82366,-1.61616 0.0995,-0.28549 0.29581,-0.43418 0.5732,-0.43418 0.29566,0 0.29197,-0.17019 -0.0134,-0.62078 -0.76343,-1.126245 -0.84752,-1.999781 -0.2993,-3.108943 0.81128,-1.641368 3.71077,-3.174118 4.55653,-2.40871 0.1235,0.111761 0.25231,0.138284 0.5062,0.10423 0.36602,-0.04909 0.5595,0.07202 0.23821,0.149115 -0.10668,0.0256 -0.71028,0.136142 -1.34134,0.245653 -1.76431,0.306172 -2.67054,0.878166 -3.25323,2.053383 -1.05411,2.126035 0.93972,3.941912 2.89404,2.635732 l 0.35609,-0.238003 -0.18658,-0.316004 c -0.10263,-0.173803 -0.24382,-0.427451 -0.31377,-0.563664 -0.21692,-0.422432 -0.37423,-0.457996 -0.66222,-0.149707 -0.49123,0.525867 -1.20062,0.232712 -1.20062,-0.496156 0,-0.66133 0.38322,-1.180811 0.87107,-1.180811 0.1324,0 0.31769,-0.04119 0.41175,-0.09153 0.24935,-0.133447 0.31595,-0.0049 0.0917,0.176972 -0.1178,0.09551 -0.22006,0.306592 -0.26496,0.546956 -0.10258,0.549073 -0.1782,0.574127 -0.1782,0.05904 0,-0.709588 -0.63467,-0.454682 -0.73466,0.295066 -0.11296,0.846952 0.81547,1.01475 1.08816,0.196668 0.0223,-0.06678 0.0979,-0.06766 0.26761,-0.0031 0.34661,0.13178 0.71517,0.111251 1.54624,-0.08613 0.83237,-0.197687 1.02599,-0.161817 1.27242,0.235722 0.26489,0.427328 0.71207,0.613536 0.81696,0.340191 0.16445,-0.428561 1.73438,-0.805281 1.95154,-0.468292 0.30883,0.479247 -0.59418,0.830456 -2.13522,0.830456 h -1.26771 l -0.3059,-0.373315 -0.30591,-0.373315 -0.52526,0.14414 c -0.47437,0.130174 -0.52298,0.164134 -0.50164,0.350499 0.0922,0.804833 1.35595,1.313877 2.3372,0.941403 l 0.40706,-0.154516 -0.28328,-0.181355 c -0.34039,-0.217925 -0.12215,-0.258478 0.27785,-0.05163 0.89966,0.465234 3.29121,-0.243534 3.29121,-0.975397 0,-0.266259 0.19458,-0.340317 0.54292,-0.206643 0.17335,0.06652 0.0878,0.202795 -0.12724,0.202795 -0.0918,0 -0.19105,0.06668 -0.22045,0.148166 -0.0294,0.08149 -0.12345,0.249299 -0.20901,0.372904 -0.29812,0.430704 -0.10106,0.687116 0.34914,0.454307 0.26424,-0.136646 0.59597,-0.73521 0.59597,-1.075357 0,-0.622027 -1.04035,-1.040522 -1.1166,-0.449164 -0.0264,0.204767 -0.0264,0.204767 -0.39897,-0.04638 -0.47863,-0.322636 -0.93842,-0.338563 -1.28777,-0.04461 -0.135,0.113597 -0.40879,0.231033 -0.60842,0.260969 -0.35885,0.05381 -0.47503,0.02439 -1.65973,-0.420258 -0.43433,-0.163016 -0.74086,-0.120704 -1.25125,0.172718 -0.44209,0.254158 -0.61752,0.265271 -0.40041,0.02536 0.46402,-0.512737 1.248,-0.571258 2.24993,-0.16795 1.15751,0.465936 1.543,0.263255 1.8026,-0.94776 0.0938,-0.437565 -0.60026,-1.058176 -1.04935,-0.938306 -0.39905,0.106512 -0.55905,-0.0086 -0.20111,-0.144701 0.59693,-0.226951 0.64294,-0.500406 0.0849,-0.504641 -0.33038,-0.0025 -0.34351,-0.01126 -0.19049,-0.127 0.0904,-0.06837 0.23374,-0.124307 0.31856,-0.124307 0.32646,0 0.78634,-0.909904 0.62786,-1.242254 -0.28653,-0.600849 -0.13808,-0.950814 0.84746,-1.997833 0.58307,-0.619434 0.65793,-0.877565 0.45734,-1.576972 -0.17589,-0.613281 -0.31324,-0.642355 -0.71329,-0.150983 -0.2214,0.271941 -0.7248,0.686616 -1.32592,1.092226 -0.53296,0.359619 -1.09676,0.791952 -1.25288,0.960742 -0.17412,0.188247 -0.31417,0.276579 -0.36226,0.228487 -0.13895,-0.138944 0.24832,-0.511818 1.13924,-1.096898 1.64194,-1.078296 1.63115,-1.064157 1.11131,-1.455813 l -0.38,-0.286298 -0.47213,0.180672 c -0.55513,0.212437 -0.82398,0.408236 -1.18986,0.866555 -0.15963,0.199963 -0.29112,0.298959 -0.32476,0.244521 -0.0311,-0.05031 0.0515,-0.226466 0.18356,-0.391461 0.13205,-0.164995 0.29724,-0.391881 0.36709,-0.50419 0.0699,-0.112309 0.2032,-0.20549 0.29633,-0.207068 0.25799,-0.0044 1.09787,-0.4462 1.12173,-0.5901 0.0506,-0.304906 -0.099,-0.346433 -0.61196,-0.169941 -0.39393,0.13553 -0.84274,0.160619 -0.50977,0.0285 1.78005,-0.706324 1.53576,-0.927185 -0.92512,-0.836388 -1.28785,0.04752 -1.65721,0.141786 -1.65721,0.422955 0,0.0652 -0.0957,0.232303 -0.2127,0.371332 -0.30256,0.359571 -0.45707,0.86008 -0.5659,1.833111 -0.12986,1.161003 -0.27313,1.265128 -0.20956,0.152307 0.0288,-0.503839 0.0163,-0.885571 -0.0298,-0.914082 -0.17271,-0.106744 -0.42136,0.132308 -0.42267,0.406355 -0.002,0.40323 -0.13559,0.570322 -0.20466,0.255836 -0.10286,-0.468314 0.14061,-0.835962 0.58696,-0.886323 0.34252,-0.03865 0.40661,-0.589772 0.12424,-1.068354 -0.18234,-0.309032 -0.0507,-0.611304 0.26614,-0.611304 0.11951,0 0.0878,0.09918 -0.0682,0.213235 -0.13475,0.09853 -0.13463,0.118382 0.002,0.326834 0.22641,0.345536 0.56485,0.238369 0.56485,-0.178858 0,-0.136913 0.0931,-0.252512 0.30313,-0.376442 0.16673,-0.09837 0.33723,-0.268517 0.37889,-0.378106 0.23897,-0.628524 1.20515,-0.67595 1.43536,-0.07046 0.0626,0.164623 0.15431,0.204741 0.56615,0.247616 0.27031,0.02814 0.67021,0.07026 0.88867,0.09359 0.47777,0.05104 1.43803,-0.887975 1.13481,-1.109696 -0.81863,-0.598597 -4.8959,-0.343359 -5.82703,0.364773 -0.68478,0.520781 -1.58691,1.811891 -1.59055,2.276357 -6.8e-4,0.08661 -0.0631,0.328932 -0.13866,0.538482 -0.16376,0.45402 -0.26593,3.51384 -0.12427,3.721616 0.0732,0.107345 0.18599,0.10358 0.87261,-0.02912 0.43371,-0.08382 1.16955,-0.170151 1.63522,-0.19184 1.2792,-0.05958 1.35139,-0.08528 0.88762,-0.315968 -0.20879,-0.103854 -0.58003,-0.316382 -0.82499,-0.472284 -0.4772,-0.303721 -0.47382,-0.303902 -1.04418,0.05602 -0.48922,0.308716 -0.68462,-0.2697 -0.32139,-0.951356 0.0983,-0.184471 0.23444,-0.440177 0.30253,-0.568235 0.10883,-0.204649 0.28074,-0.318109 0.28074,-0.185279 0,0.02616 -0.13646,0.327411 -0.30325,0.669459 -0.39438,0.808789 -0.37854,1.082363 0.0445,0.768988 0.39815,-0.294916 0.73978,-0.278944 1.19851,0.05603 0.2049,0.149618 0.60114,0.387743 0.88054,0.529166 0.80744,0.4087 0.77645,0.423358 -1.32888,0.628568 -3.15789,0.307807 -4.9404,1.85675 -3.96079,3.441796 0.17133,0.277218 0.17133,0.277218 -0.11745,0.771994 -1.36979,2.346883 -0.50438,4.656903 2.26998,6.059223 1.52518,0.77092 2.95445,0.9141 4.44006,0.44479 z m -2.74226,-1.0531 c -0.18289,-0.0752 -0.13222,-0.11029 0.29634,-0.20521 0.11641,-0.0258 0.28786,-0.1622 0.381,-0.30316 0.17875,-0.27053 0.35033,-0.35028 0.26278,-0.12213 -0.0901,0.23475 0.0359,0.2969 0.29338,0.14478 0.13649,-0.0806 0.24944,-0.16695 0.25099,-0.19184 0.006,-0.0991 0.34323,-0.44709 0.38884,-0.40147 0.18636,0.18636 -0.64681,1.02049 -0.87713,0.87815 -0.0398,-0.0246 -0.23676,0.0289 -0.43769,0.11884 -0.20093,0.09 -0.37069,0.16089 -0.37725,0.15762 -0.007,-0.003 -0.0881,-0.0373 -0.18126,-0.0756 z m 0.635,-6.508163 c 0,-0.08082 1.22409,-1.284309 1.30629,-1.284309 0.12318,0 -0.13705,0.327608 -0.65572,0.8255 -0.54355,0.521783 -0.65057,0.597255 -0.65057,0.458809 z m 1.65458,-2.040523 c -0.0266,-0.04304 0.0284,-0.102621 0.1222,-0.132395 0.20037,-0.0636 0.1944,0.01882 0.0779,-1.07657 -0.0509,-0.479135 -0.1635,-1.033996 -0.25014,-1.233024 -0.31577,-0.725398 -0.44253,-2.115511 -0.20017,-2.195147 0.0619,-0.02034 0.0906,0.21623 0.0875,0.721964 -0.004,0.66297 0.0234,0.806198 0.23143,1.207193 0.16824,0.324265 0.25807,0.662241 0.31268,1.176418 0.0421,0.396793 0.0969,0.863198 0.1216,1.036456 0.0452,0.316653 -0.36422,0.719648 -0.503,0.495105 z m 1.18176,-0.175119 c -0.0518,-0.08379 -0.0343,-0.0934 0.21028,-0.1156 0.18891,-0.01714 0.20492,-0.288908 0.0387,-0.657458 -0.2102,-0.466142 0.72904,-2.428111 1.16915,-2.442237 0.15581,-0.005 0.035,0.271892 -0.30058,0.6887 -0.84772,1.05303 -0.90682,1.229892 -0.607,1.816372 l 0.21158,0.41389 -0.21763,0.1905 c -0.23278,0.203753 -0.41977,0.242977 -0.50453,0.105833 z m -0.59166,-2.981008 c -0.0635,-0.156337 0.0887,-0.711292 0.21683,-0.790476 0.10907,-0.06741 0.0961,0.107388 -0.0411,0.554151 -0.0868,0.282616 -0.13217,0.343641 -0.17577,0.236325 z m 9.18532,12.506573 c 0,-0.28821 -0.90156,-3.34158 -1.02434,-3.46921 -0.52938,-0.55028 -0.64007,2.17675 -0.12054,2.96965 0.19227,0.29345 1.14488,0.70911 1.14488,0.49956 z m 0.76668,-1.45099 c -0.39581,-1.43305 -0.57469,-1.89391 -0.73508,-1.89391 -0.2218,0 0.50815,2.78159 0.83968,3.19976 0.2537,0.32 0.21662,-0.14284 -0.1046,-1.30585 z m -11.72115,-1.87524 c 0.45402,-0.23436 0.87914,-0.59503 0.87914,-0.74586 0,-0.181283 -0.18903,-0.143799 -0.51272,0.10167 -1.60565,1.21764 -3.67348,0.34159 -3.66577,-1.553043 0.007,-1.611811 1.31066,-2.914887 3.32075,-3.318128 0.95788,-0.192159 1.18758,-0.345768 0.51484,-0.344302 -2.41668,0.0053 -4.68722,2.489584 -4.09573,4.481361 0.38523,1.297222 2.28869,2.034272 3.55949,1.378302 z m 12.39937,-1.037647 c 0.0901,-0.0482 0.16377,-0.139073 0.16377,-0.201929 0,-0.06286 0.0895,-0.172941 0.19894,-0.244633 0.15886,-0.10409 0.20958,-0.232209 0.25179,-0.63599 0.0291,-0.278103 0.13004,-0.701488 0.22439,-0.940856 0.24167,-0.613118 0.22089,-0.819876 -0.11632,-1.15708 -0.58483,-0.58483 -0.92937,-0.395482 -1.52205,0.836468 -0.42694,0.887439 -0.7482,1.341106 -0.86615,1.223152 -0.0277,-0.0277 0.0442,-0.176692 0.15986,-0.331092 0.41393,-0.552761 0.52947,-0.856231 0.29984,-0.787563 -0.52413,0.156734 -0.84226,0.606681 -0.96305,1.362065 -0.0824,0.515611 1.58481,1.190095 2.16898,0.877458 z m -9.91156,-0.919788 c 0,-0.293163 -0.82243,-0.676609 -0.96309,-0.449024 -0.11655,0.188592 0.58575,0.72111 0.79989,0.606508 0.0898,-0.04804 0.1632,-0.118906 0.1632,-0.157484 z m 2.18016,-0.04783 c 0.58512,-0.272408 0.58331,-0.416548 -0.005,-0.367794 -0.45151,0.03744 -1.24424,0.355542 -1.24424,0.499279 0,0.159264 0.80678,0.07432 1.24883,-0.131485 z m 2.19657,-2.8156 0.21615,-0.141625 -0.24327,-0.194667 c -0.35304,-0.282502 -0.83035,-0.222286 -1.34381,0.169531 -0.45702,0.348744 0.85046,0.507786 1.37093,0.166761 z m 4.30096,-3.11741 c 0.4288,-0.786627 0.42776,-0.82672 -0.0263,-1.023097 -1.63498,-0.707086 -3.68608,-0.402891 -5.57928,0.827453 -0.71472,0.46448 -0.87275,0.367018 -0.20361,-0.125574 1.82026,-1.34 3.95985,-1.609788 6.11927,-0.771601 0.39409,0.152969 0.39409,0.152969 0.80236,-0.112603 l 0.40826,-0.265573 -0.29905,-0.124949 c -0.16447,-0.06872 -0.41123,-0.151704 -0.54835,-0.184403 -0.82986,-0.197897 -1.07283,-1.872351 -0.45027,-3.103047 0.21402,-0.423081 1.17462,-0.754287 1.17462,-0.404998 0,0.04657 -0.13628,0.08467 -0.30284,0.08467 -0.49152,0 -0.9645,0.628442 -0.96669,1.284428 -9.4e-4,0.282974 3.03265,0.333597 3.60322,0.06013 0.59866,-0.286932 0.38333,-1.113412 -0.43525,-1.670549 l -0.41677,-0.283659 -0.0274,0.274384 c -0.0357,0.357318 0.14912,0.558707 0.39297,0.428199 0.21015,-0.112468 0.35411,-0.119566 0.35411,-0.01746 0,0.09942 -0.66656,0.364505 -0.76444,0.304014 -0.12371,-0.07646 -0.25094,-0.648782 -0.19435,-0.874264 0.0557,-0.221992 -0.0224,-0.227569 -0.73454,-0.05242 l -0.21167,0.05206 0.21076,-0.184571 c 0.48367,-0.423586 1.54202,-0.03838 2.03641,0.741185 0.61212,0.965227 0.29649,1.631854 -0.77264,1.631854 h -0.35125 l 0.0586,0.5715 c 0.0845,0.823575 0.12629,0.952501 0.30896,0.952501 0.12217,0 0.16015,-0.06139 0.16015,-0.258842 0,-0.335738 0.16854,-1.029521 0.27649,-1.138159 0.0823,-0.08283 0.0601,0.213955 -0.0746,0.994834 -0.12423,0.720577 0.61702,0.0745 0.87468,-0.762377 0.63507,-2.062685 -0.20731,-3.450004 -2.09464,-3.449657 -1.62048,2.97e-4 -2.3613,0.714154 -2.84213,2.738695 -0.34511,1.453096 -0.38701,1.490518 -1.77016,1.581184 -2.34536,0.15374 -3.6697,0.764639 -4.564,2.105303 -0.61024,0.914835 -0.0179,1.327021 1.0009,0.696474 2.4486,-1.515487 4.10855,-1.463023 4.93568,0.155996 0.2571,0.50325 0.27774,0.487942 0.91278,-0.67706 z m -14.87529,-0.987325 c 0.13446,-0.134459 0.13122,-0.57541 -0.004,-0.576889 -0.0582,-6.36e-4 -0.18829,-0.02328 -0.28908,-0.05031 -0.24703,-0.06626 -0.39979,0.208413 -0.28452,0.511592 0.0898,0.23606 0.3961,0.297352 0.57784,0.11561 z m 0.22215,-1.358817 c 0.0616,-0.385317 -0.0383,-0.526398 -0.44522,-0.62857 -0.40636,-0.102037 -0.71425,0.705316 -0.3822,1.002236 0.40283,0.360221 0.73398,0.210673 0.82742,-0.373666 z m 11.03883,0.05731 1.10856,-0.233254 0.067,-0.472984 c 0.29143,-2.056776 -0.84969,-3.079988 -2.56579,-2.300674 -0.69591,0.316027 -1.3059,1.636291 -0.90809,1.965489 0.2213,0.18313 0.44836,0.76041 0.45039,1.145081 l 0.002,0.351548 0.36875,-0.110977 c 0.20281,-0.06104 0.86759,-0.21594 1.4773,-0.344229 z m -0.32039,-0.691835 c -0.54225,-0.04769 -0.84619,-0.376369 -0.66601,-0.720221 0.1354,-0.258395 0.26693,-0.171337 0.21594,0.142924 -0.0599,0.369038 0.0824,0.509306 0.39578,0.390159 0.18701,-0.0711 0.22196,-0.136262 0.22196,-0.413777 v -0.329386 l -0.5747,-0.04112 c -0.51756,-0.03703 -1.02114,-0.192007 -0.92767,-0.285485 0.0199,-0.01987 0.26883,-0.0043 0.55323,0.03458 0.28439,0.03889 0.77368,0.03982 1.0873,0.0021 0.66105,-0.07958 0.74016,-0.0513 0.37894,0.135497 -0.31194,0.161308 -0.41396,0.47855 -0.25539,0.794113 0.0626,0.124625 0.12778,0.255165 0.1448,0.29009 0.017,0.03493 -0.0199,0.05684 -0.082,0.04871 -0.0621,-0.0081 -0.28359,-0.0298 -0.49223,-0.04815 z m 4.6571,0.861768 c 0.0454,-0.119448 0.0826,-0.476382 0.0826,-0.793186 v -0.576007 l -0.35821,-0.04805 c -0.45533,-0.06107 -0.44105,-0.08747 -0.33596,0.620575 0.13028,0.877736 0.43157,1.270193 0.6116,0.796664 z m 0.58502,-0.460155 c 0.12842,-0.794593 0.11825,-0.931334 -0.0692,-0.931334 -0.19425,0 -0.26117,0.219282 -0.26272,0.860909 -0.002,0.924366 0.18746,0.964607 0.33196,0.07043 z m -2.67101,0.0036 c 0.29199,-0.111015 0.47582,-0.501388 0.65956,-1.400637 0.39012,-1.909268 1.39319,-2.836334 3.06889,-2.836334 2.17828,0 2.91616,1.436401 2.10944,4.106334 -0.0997,0.32983 0.26598,-0.09476 0.52955,-0.614927 0.62324,-1.230001 0.24945,-3.011566 -0.73664,-3.510968 -1.92671,-0.975775 -5.66723,0.194726 -5.07056,1.586702 0.19572,0.456581 0.19718,0.464859 0.0822,0.464859 -0.0478,0 -0.21342,-0.27784 -0.36818,-0.617423 -0.80109,-1.757886 -2.89559,-2.082029 -4.90453,-0.759021 -1.34953,0.88874 -1.75433,2.092579 -0.99867,2.969915 l 0.24215,0.281137 0.17864,-0.250876 c 0.0983,-0.137982 0.29953,-0.569293 0.44728,-0.95847 1.04817,-2.760842 4.44667,-1.876844 3.8883,1.011404 -0.10683,0.552638 0.24627,0.766427 0.87258,0.528305 z m -0.68068,-0.130637 c 0.4568,-1.625338 0.0948,-2.750886 -1.08328,-3.368467 -1.22693,-0.643175 -3.09084,0.463119 -3.41586,2.027428 -0.0715,0.344208 -0.21977,0.455269 -0.3064,0.229525 -0.15199,-0.396103 0.99169,-1.907125 1.80572,-2.385679 1.79063,-1.052689 3.9936,1.034572 3.29794,3.124725 -0.10993,0.330297 -0.3817,0.669839 -0.29812,0.372468 z m -12.42388,-0.51017 c 0.24411,-0.372555 -0.49698,-0.84602 -0.8568,-0.547393 -0.30099,0.2498 0.0514,0.632566 0.69747,0.757513 0.0106,0.002 0.0823,-0.09251 0.15933,-0.21012 z m 0.65907,-1.469095 0.49894,-0.780189 -0.22378,-0.233573 c -0.29281,-0.305631 -0.28351,-0.386548 0.026,-0.226481 0.7371,0.381168 1.53144,-0.302221 1.07571,-0.925462 -0.1982,-0.271057 -0.54592,-0.09068 -1.30142,0.675091 -1.27186,1.289144 -1.60849,2.003508 -1.04008,2.207126 0.41413,0.148354 0.40914,0.152064 0.96461,-0.716512 z m -0.51177,-0.05787 c -0.11924,-0.119238 -0.1949,-0.238699 -0.16813,-0.265468 0.0783,-0.07834 0.47729,0.220242 0.47729,0.357218 0,0.175112 -0.0601,0.157261 -0.30916,-0.09175 z m 4.64832,-0.390773 c 0.25952,-0.132625 -0.009,-0.493095 -0.36725,-0.493095 -0.18326,0 -0.58525,0.319806 -0.58525,0.465603 0,0.203077 0.57637,0.219713 0.9525,0.02749 z m 3.683,-1.254167 c 0.3333,-0.203216 0.34081,-0.275675 0.0521,-0.502783 -0.31315,-0.246323 -0.44435,-0.219854 -0.58557,0.118135 -0.24095,0.576677 -0.0304,0.728469 0.53348,0.384648 z m -5.3525,-0.104193 c 0.3861,-0.103264 0.3861,-0.103264 0.36105,-0.486833 -0.0435,-0.665853 -1.16805,-0.55272 -1.16805,0.117506 0,0.492406 0.12793,0.550952 0.807,0.369327 z m 4.53123,-0.158621 c 0.21381,-0.399524 -0.21566,-0.844065 -0.58883,-0.609477 -0.18947,0.11911 -0.45513,0.595125 -0.3905,0.699703 0.1078,0.174424 0.87554,0.103691 0.97933,-0.09023 z m -1.1219,-0.188625 c 0.19633,-0.542935 0.0624,-0.734823 -0.513,-0.734823 -0.55267,0 -1.02778,0.878078 -0.51644,0.954462 0.75398,0.112629 0.92227,0.07672 1.02944,-0.219639 z m 1.45634,18.26864 c 0,-0.11787 0.26728,-0.54612 0.34084,-0.54612 0.11141,0 0.10454,0.0504 -0.0467,0.34287 -0.11176,0.21612 -0.29416,0.34215 -0.29416,0.20325 z m 2.06625,-0.35562 c 0.52158,-1.69261 -0.21817,-2.51134 -1.85503,-2.05305 -0.48889,0.13688 -0.59657,0.0461 -0.16114,-0.13581 1.43022,-0.59759 2.8387,0.43165 2.34638,1.71461 -0.10461,0.27259 0.18451,0.0613 0.37383,-0.27317 0.4276,-0.75548 0.30893,-1.53389 -0.27076,-1.7761 -0.6984,-0.29181 -3.17505,-0.0926 -3.82239,0.30752 -0.34772,0.21491 -0.50434,0.13942 -0.19987,-0.0963 0.62568,-0.48449 0.8249,-0.52369 2.47867,-0.4878 1.03542,0.0225 1.60578,0.069 1.73676,0.14162 0.5414,0.30024 0.67628,1.11446 0.30727,1.85495 -0.29712,0.59626 -1.07654,1.26703 -0.93372,0.80357 z m 35.051,-0.73319 c -1.20991,-0.29367 -2.22719,-1.23204 -2.60705,-2.40483 -0.29169,-0.900582 -0.33329,-0.854353 1.00747,-1.119761 1.30589,-0.258506 1.24235,-0.269389 1.38654,0.237509 0.28294,0.994632 1.31039,1.393462 2.19268,0.851152 0.57418,-0.35293 0.56945,-0.31822 0.56945,-4.175722 v -3.471334 l -1.8415,-0.02282 -1.8415,-0.02282 V 92.00457 90.947888 h 3.175 3.175 v 4.518111 c 0,4.843931 -0.02,5.123141 -0.4269,5.954931 -0.71367,1.459 -2.83618,2.24296 -4.78919,1.76894 z m -21.70792,-6.145986 v -6.096 h 1.31234 1.31233 v 4.910667 4.910669 h 2.32834 2.32833 v 1.18534 1.18533 h -3.64067 -3.64067 z m 9.56734,0 v -6.096 h 3.03644 c 4.91615,0 5.97082,0.54697 6.36113,3.298965 0.42893,3.024332 -1.20319,4.490369 -4.99907,4.490369 h -1.77383 v 2.201342 2.20133 h -1.31234 -1.31233 z m 6.06922,-0.757206 c 0.50042,-0.227201 0.61945,-0.504679 0.61945,-1.444127 0,-1.45533 -0.17101,-1.566333 -2.413,-1.566333 h -1.60867 l -0.023,1.5875 -0.023,1.5875 1.54703,-0.0019 c 1.3364,-0.0016 1.59527,-0.02376 1.90126,-0.16268 z m 13.74278,2.281206 v -4.572 h 1.30915 1.30916 l 0.0243,0.783167 c 0.0243,0.783167 0.0243,0.783167 0.16745,0.467459 0.87583,-1.932297 3.82986,-1.976958 4.72237,-0.0714 l 0.20066,0.428405 0.23315,-0.408241 c 1.06345,-1.86203 3.93385,-1.908712 4.86888,-0.07918 0.41702,0.815953 0.45491,1.209783 0.45625,4.742955 l 0.001,3.280831 h -1.26439 -1.26438 l -0.0268,-3.1115 c -0.0333,-3.865667 -0.12904,-4.169831 -1.31281,-4.169831 -1.34311,0 -1.46564,0.344546 -1.46564,4.121059 v 3.164682 l -1.29117,-0.0234 -1.29117,-0.0234 -0.0423,-3.221244 c -0.0384,-2.919066 -0.0567,-3.243097 -0.1951,-3.454209 -0.46399,-0.707574 -1.53952,-0.75401 -2.17932,-0.09409 l -0.29258,0.301779 -0.0241,3.255049 -0.024,3.255055 h -1.30946 -1.30945 z m 15.40933,-1.524 v -6.096 h 1.31234 1.31233 v 4.910667 4.910669 h 2.32833 2.32834 v 1.18534 1.18533 h -3.64067 -3.64067 z M -196.09261,86.60532 c -0.35694,-0.179938 -0.28595,-0.91617 0.10015,-1.038714 0.24968,-0.07925 0.29472,0.02847 0.13109,0.313575 -0.27816,0.484667 -0.10455,0.563239 0.73192,0.33126 0.42409,-0.117615 0.8294,-0.163086 1.36517,-0.153156 1.52906,0.02834 1.92269,-0.475707 1.94431,-2.489688 0.0129,-1.205754 0.074,-1.366545 0.50322,-1.324567 0.34523,0.03377 0.42294,0.211946 0.74025,1.697411 0.27286,1.277366 0.43,1.75708 0.57557,1.75708 0.15037,0 0.0989,-0.596318 -0.1229,-1.424277 -0.33023,-1.232634 -0.25702,-1.814882 0.20957,-1.666792 0.25585,0.08121 0.55861,0.747009 0.81477,1.791813 0.23964,0.977402 0.38493,1.299256 0.5865,1.299256 0.1639,0 0.18476,0.103615 -0.29829,-1.481667 -0.54298,-1.781978 -0.53937,-1.905 0.056,-1.905 0.50938,0 0.8158,0.569293 1.11676,2.074826 0.36046,1.803131 1.36727,1.680585 1.36727,-0.166419 0,-1.340062 -0.48666,-2.332489 -1.22766,-2.503529 -0.77588,-0.179089 -2.37128,-0.03546 -2.47023,0.222388 -0.0785,0.204579 -0.17129,0.136605 -0.70477,-0.516266 l -0.51888,-0.635 h 0.71818 c 0.88616,0 1.00108,0.03755 0.93391,0.30516 -0.0346,0.137741 -0.014,0.205559 0.0641,0.211313 0.0633,0.0047 0.57221,0.01418 1.13101,0.02117 1.70165,0.02126 2.14318,0.447538 2.34012,2.259282 0.17317,1.593157 -0.0312,2.246198 -0.73159,2.337847 -0.7524,0.09845 -0.95472,-0.15392 -1.27149,-1.586094 -0.25971,-1.174219 -0.47623,-1.686007 -0.71328,-1.686007 -0.21837,0 -0.24428,-0.154898 0.24924,1.490004 0.47503,1.583265 0.48974,1.685828 0.25956,1.809017 -0.5677,0.303828 -0.86604,-0.03255 -1.19283,-1.344953 -0.14402,-0.57838 -0.32254,-1.18798 -0.39671,-1.354667 -0.22417,-0.503805 -0.23298,-0.08719 -0.0166,0.783862 0.28119,1.131817 0.27592,1.95264 -0.0127,1.986265 -0.52873,0.06159 -0.7357,-0.358008 -1.13759,-2.30623 -0.33916,-1.644117 -0.5434,-1.565328 -0.53582,0.206702 0.008,1.80183 -0.76398,2.636066 -2.31848,2.506425 -0.54309,-0.04529 -0.77087,-0.0237 -1.22302,0.115958 -0.64643,0.199663 -0.76008,0.206446 -1.04579,0.06242 z m -6.30767,-1.240243 c -1.31655,-0.321936 -1.90987,-1.452561 -1.25679,-2.394953 l 0.22149,-0.319603 -0.21927,-0.3175 c -0.99954,-1.447367 -0.34541,-3.592003 1.4449,-4.737251 0.37275,-0.238443 0.44467,-0.325116 0.44467,-0.535851 0,-0.288934 0.0455,-0.298031 0.80995,-0.162012 0.96027,0.170857 0.95832,0.155608 0.10403,0.812969 -0.47097,0.3624 -0.65998,0.407071 -0.65998,0.155978 0,-0.386866 -0.56758,-0.07008 -1.30873,0.730449 -1.09133,1.178769 -1.28956,2.647963 -0.48744,3.612808 l 0.23215,0.279257 0.40299,-0.178259 c 0.96626,-0.427423 2.51697,-0.567281 2.6907,-0.242672 0.37226,0.695591 -1.6362,1.39575 -2.76605,0.964255 -0.43476,-0.166037 -0.52929,-0.122589 -0.75134,0.345358 -0.62961,1.326811 2.04548,2.347257 3.26501,1.24548 0.36336,-0.328278 0.467,-0.324875 0.38231,0.01255 -0.14392,0.573398 -1.54546,0.974291 -2.5486,0.728993 z m 1.73253,-2.760813 c 0.66027,-0.385621 0.14149,-0.505485 -1.03848,-0.239939 -0.71015,0.159817 -0.93208,0.259702 -0.85481,0.384731 0.0989,0.160046 1.56306,0.04807 1.89329,-0.144792 z m 4.91121,-3.470449 c -0.80718,-0.248827 -1.43302,-1.04249 -1.43302,-1.817291 0,-2.546314 6.46868,-4.135226 6.74796,-1.657511 0.0304,0.269663 0.10087,0.4342 0.22352,0.521862 0.21872,0.156318 0.13865,0.235213 -0.64395,0.634497 -0.65582,0.334604 -0.69245,0.326354 -0.62832,-0.14152 0.0823,-0.600416 0.36353,-1.180576 0.51241,-1.057023 0.19054,0.158139 0.24359,-0.03981 0.0902,-0.336488 -0.6135,-1.186371 -4.86672,-0.207154 -5.7661,1.327526 -0.58617,1.000224 0.40263,2.338338 1.73499,2.347896 1.05688,0.0076 1.68156,-0.797527 1.05837,-1.364072 -0.3752,-0.341099 -1.2407,-0.195802 -1.47831,0.248174 -0.21025,0.392859 0.31235,0.521684 0.9085,0.22395 0.5628,-0.281073 0.64551,0.01839 0.0974,0.352575 -0.68547,0.41793 -1.58707,-0.01993 -1.38059,-0.670478 0.21182,-0.667394 1.67711,-0.913799 2.16786,-0.364552 0.94373,1.056213 -0.572,2.257662 -2.21087,1.752455 z m 1.40577,-6.945542 c -0.18625,-0.186245 -0.24829,-0.495595 -0.15517,-0.773612 0.0778,-0.232225 0.0716,-0.237986 -0.34526,-0.321134 -0.69926,-0.139474 -0.57477,-0.26453 0.32197,-0.323435 0.9941,-0.0653 1.31529,-0.206367 1.31529,-0.577686 V 69.93066 l 0.63443,0.05945 c 1.1624,0.108926 1.15295,0.09457 0.46242,0.702215 -0.67438,0.593444 -0.72969,0.614215 -0.84285,0.316562 -0.0919,-0.241697 -0.0853,-0.239429 -0.37563,-0.129046 -0.21731,0.08262 -0.21731,0.08262 -0.0805,0.424658 0.2784,0.695798 -0.4418,1.376748 -0.93475,0.8838 z m 0.63091,-0.335253 c 0.0822,-0.09903 0.0851,-0.178735 0.0122,-0.338667 -0.1157,-0.253927 -0.31416,-0.270474 -0.43931,-0.03663 -0.19855,0.370986 0.16535,0.69072 0.42713,0.375295 z"
         id="path205"
         sodipodi:nodetypes="cscscsscsscssssccssssscscsscscssscssssccscsscccsccssscssssccsccscsscscccccccssscsccsssssscsscsscsssscscscccscsssscsccsscccscssscscssssssscscsssscsssssssssssscssssssscsssscsscsscccccccccscccscccccssscsssscccscssssssscccssssccssccssssscccscscsssssscsssssssscssscssscsssssssscsscscccscsscscccssssccscccscsssccssscsscsscsssscsccccsccccsccccsssssscssccccscscscscscccscccssssssssssscscsscsccsssscsccsscsccsccscsssscsssscssssssssccssscscscsccssscssssscssscscccccssccccssccscccscsscscccsccccccscsscccsccccsscsssscsscccsccccccssccsccccscsssccccscssssscssccscssssssssssscsscccscscsccccccccssssscccccccsccccccccccccccccccssscccccccssccccccccccscscssccccssscccccscccccccccccccccccccssssscssscsssssssssscscccsssssssscsscsssssscsssssssscscscsssssssscsssssscscssssssccccssscsssscccccscc" /><path
         style="fill:#000000"
         d="m -235.91324,86.659042 c -0.13411,-0.134115 -0.0645,-12.623651 0.0707,-12.675514 0.0704,-0.02703 0.37524,-0.07447 0.67734,-0.105417 l 0.54926,-0.05627 v 0.573611 0.573612 l 0.42604,-0.398508 c 3.15554,-2.951636 7.25209,1.505029 5.22655,5.685994 -0.93978,1.939825 -3.77553,2.971859 -5.34329,1.944621 -0.30786,-0.201715 -0.3093,-0.191901 -0.3093,2.108793 0,2.387599 0.0627,2.162972 -0.635,2.274716 -0.18626,0.02983 -0.39857,0.07168 -0.47179,0.09299 -0.0732,0.02131 -0.15894,0.01293 -0.1905,-0.01863 z m 4.34529,-5.603095 c 1.19557,-0.620085 1.83127,-2.082536 1.60372,-3.689376 -0.34717,-2.451458 -2.46997,-3.186062 -4.1713,-1.443496 l -0.48042,0.492061 v 2.05643 2.05643 l 0.27054,0.308125 c 0.46654,0.531362 1.95037,0.648801 2.77746,0.219826 z m -20.45489,1.422678 c -3.82796,-0.758931 -4.36286,-6.70309 -0.75513,-8.391352 1.2755,-0.596881 3.46905,-0.444313 4.33622,0.301598 l 0.22055,0.189704 -0.24737,0.458823 c -0.28651,0.53143 -0.3308,0.539572 -1.12125,0.206147 -2.1303,-0.898595 -3.91573,0.20248 -4.13495,2.550023 -0.25135,2.691691 2.04209,4.313481 4.38056,3.097678 0.38328,-0.19927 0.70716,-0.35167 0.71974,-0.338667 0.0126,0.013 0.12029,0.244411 0.23937,0.514239 l 0.2165,0.490598 -0.39504,0.250525 c -1.00202,0.635463 -2.33414,0.893739 -3.4592,0.670684 z m 8.47105,-0.03084 c -2.23699,-0.543464 -3.56051,-3.082721 -2.91741,-5.597228 0.79629,-3.113429 4.65021,-4.235056 6.85792,-1.995896 3.06642,3.110099 0.21589,8.602897 -3.94051,7.593124 z m 2.23054,-1.410953 c 2.49177,-1.245151 1.75066,-5.932292 -0.96048,-6.07459 -1.83555,-0.09634 -2.79055,0.940507 -2.79055,3.029723 0,2.617444 1.75519,4.042202 3.75103,3.044867 z m 15.90793,1.362093 c -0.9438,-0.368766 -1.35468,-0.965142 -1.34847,-1.957245 0.01,-1.597386 1.54115,-2.648144 4.60978,-3.163479 0.69505,-0.116725 0.49946,-1.906149 -0.24222,-2.216044 -0.67542,-0.282208 -1.97947,-0.08286 -2.88113,0.440428 -0.50322,0.292054 -0.56355,0.268122 -0.76992,-0.305435 l -0.18376,-0.510735 0.27271,-0.16726 c 1.3838,-0.848703 4.14647,-1.059016 4.9566,-0.377331 0.56704,0.477129 0.63059,0.816011 0.69861,3.725061 0.069,2.952299 0.0941,3.093124 0.5962,3.349276 0.36361,0.185503 0.36421,0.140784 -0.0128,0.947557 -0.24804,0.530864 -1.85961,-0.26398 -1.85961,-0.917183 0,-0.08736 -0.16216,0.011 -0.46897,0.284455 -1.03292,0.920627 -2.35801,1.262198 -3.36707,0.867935 z m 2.18504,-1.3437 c 0.2794,-0.132289 0.72708,-0.440882 0.99483,-0.685762 l 0.48684,-0.445236 v -0.838171 c 0,-0.460994 -0.0286,-0.838122 -0.0635,-0.838062 -0.56523,9.76e-4 -2.42788,0.640128 -2.88779,0.990919 -1.42533,1.087152 -0.1969,2.605372 1.46962,1.816312 z m 5.969,-2.882948 c 0,-3.616835 0.0162,-4.145815 0.12807,-4.188752 0.0704,-0.02703 0.36923,-0.07385 0.66398,-0.10405 l 0.53593,-0.05491 0.054,0.700077 c 0.068,0.881389 0.0229,0.862821 0.73753,0.303644 1.91539,-1.498696 4.03639,-1.518867 4.74958,-0.04517 0.22219,0.459099 0.22219,0.459099 0.26342,3.993932 l 0.0412,3.534834 h -0.69863 -0.69863 l -0.0347,-3.2385 c -0.0296,-2.761075 -0.0547,-3.275975 -0.17024,-3.4927 -0.58031,-1.088525 -2.0926,-0.730743 -3.87262,0.9162 l -0.34423,0.318492 v 2.748254 2.748254 h -0.67734 -0.67733 z"
         id="path204" /></g></g></svg>
