<?xml version="1.0" encoding="UTF-8" standalone="no"?>
<!-- Created with Inkscape (http://www.inkscape.org/) -->

<svg
   width="22"
   height="22"
   viewBox="0 0 22 22"
   version="1.1"
   id="svg1"
   xmlns="http://www.w3.org/2000/svg"
   xmlns:svg="http://www.w3.org/2000/svg">
  <defs
     id="defs1">
    <rect
       x="413.38043"
       y="413.38043"
       width="793.70074"
       height="380.32034"
       id="rect171" />
    <rect
       x="413.38043"
       y="413.38043"
       width="793.70074"
       height="380.32034"
       id="rect165" />
  </defs>
  <path
     id="path18"
     style="fill:#ffffff;fill-opacity:1;stroke:none;stroke-width:1.32186;stroke-dasharray:none;stroke-opacity:1"
     d="M 0 0 L 0 4 L 2 4 L 2 2 L 20 2 L 20 10.628906 A 7 7 0 0 1 21.998047 11.998047 L 22 11.998047 L 22 0 L 0 0 z M 8 5.5 C 6.9376244 5.5 5.9268223 5.9208318 5.1738281 6.6738281 C 4.4208338 7.4268217 4 8.4376258 4 9.5 C 4 10.562372 4.4208345 11.573179 5.1738281 12.326172 C 5.926822 13.079171 6.9376234 13.5 8 13.5 C 9.0623764 13.5 10.073178 13.07917 10.826172 12.326172 C 11.579166 11.573179 12 10.562373 12 9.5 C 12 8.4376254 11.579167 7.4268216 10.826172 6.6738281 C 10.073179 5.9208315 9.0623759 5.5 8 5.5 z M 8 7.5 C 8.587693 7.5 8.990056 7.6658356 9.4121094 8.0878906 C 9.8341638 8.5099438 10 8.9123084 10 9.5 C 10 10.087687 9.8341644 10.490056 9.4121094 10.912109 C 8.9900547 11.334168 8.5876912 11.5 8 11.5 C 7.4123085 11.5 7.009945 11.334168 6.5878906 10.912109 C 6.1658364 10.490057 6 10.087688 6 9.5 C 6 8.912308 6.1658371 8.5099437 6.5878906 8.0878906 C 7.0099446 7.6658353 7.4123075 7.5 8 7.5 z M 8 15 C 6.1547671 15 4.3172377 15.250614 2.8320312 15.816406 C 2.0894281 16.099303 1.4268624 16.458843 0.90234375 16.972656 C 0.37782513 17.486472 0 18.208336 0 19 L 0 22 L 12.228516 22 A 7 7 0 0 1 10.787109 20 L 2 20 L 2 19 C 2 18.791666 2.0596771 18.638528 2.3007812 18.402344 C 2.5418854 18.166159 2.9730756 17.900696 3.5429688 17.683594 C 4.6827547 17.249388 6.345243 17 8 17 C 8.7184464 17 9.4353333 17.049935 10.113281 17.138672 A 7 7 0 0 1 10.103516 17 A 7 7 0 0 1 10.361328 15.148438 C 9.5936913 15.04936 8.7984428 15 8 15 z " />
  <path
     style="stroke-width:0.0229166"
     d="M 7.6083249,20.166644 Z"
     id="path24" />
  <path
     style="stroke-width:0.0229166"
     d="M 7.3333265,10.99999 Z"
     id="path23" />
  <path
     id="path20"
     style="fill:#5dc3e5;fill-opacity:1;stroke-width:0.0250015"
     d="m 16.15092,12.000056 -0.300446,1.500095 c -0.200013,0.08334 -0.387524,0.170419 -0.562535,0.262072 -0.175008,0.09165 -0.353621,0.205455 -0.536966,0.338873 l -1.451085,-0.451737 -0.999353,1.700391 1.14851,1.001487 c -0.03333,0.233348 -0.04901,0.449885 -0.04901,0.649898 0,0.200012 0.01568,0.416568 0.04901,0.649901 l -1.14851,0.999349 0.999353,1.70039 1.451085,-0.449601 c 0.183345,0.133342 0.361954,0.245027 0.536966,0.33668 0.175007,0.09165 0.36252,0.178734 0.562535,0.262073 l 0.300446,1.500094 h 1.998704 l 0.300446,-1.500094 c 0.200013,-0.08334 0.387527,-0.170419 0.562535,-0.262073 0.175007,-0.09162 0.35362,-0.203338 0.536965,-0.33668 l 1.451086,0.449563 0.999352,-1.70039 -1.148509,-0.999349 c 0.03334,-0.200013 0.04901,-0.409784 0.04901,-0.626464 0,-0.21668 -0.01568,-0.424316 -0.04901,-0.624329 L 22.000008,15.400849 21.000655,13.649314 19.54957,14.15006 C 19.366225,14.00005 19.187616,13.875023 19.012605,13.775017 18.837594,13.674973 18.65008,13.583433 18.45007,13.50017 l -0.300446,-1.500095 z m 0.999352,3.000193 c 0.550033,0 1.02104,0.196384 1.41273,0.588102 0.391692,0.39168 0.588105,0.8627 0.588105,1.412735 0,0.55003 -0.196418,1.021035 -0.588105,1.412727 -0.391692,0.39168 -0.862697,0.585974 -1.41273,0.585974 -0.550033,0 -1.02104,-0.194306 -1.41273,-0.585974 -0.391693,-0.39168 -0.588106,-0.862697 -0.588106,-1.412727 0,-0.550035 0.196418,-1.021047 0.588106,-1.412735 0.391692,-0.391676 0.862697,-0.588102 1.41273,-0.588102 z" />
</svg>
