<svg width="500" height="500" viewBox="0 0 500 500" fill="none" xmlns="http://www.w3.org/2000/svg">
<path d="M500 500H0V0H500V500ZM431.5 25C430.672 25 430 25.6716 430 26.5V67H388V26.5C388 25.6716 387.328 25 386.5 25C385.672 25 385 25.6716 385 26.5V67H343V26.5C343 25.6716 342.328 25 341.5 25C340.672 25 340 25.6716 340 26.5V67H298V26.5C298 25.6716 297.328 25 296.5 25C295.672 25 295 25.6716 295 26.5V67H253V26.5C253 25.6716 252.328 25 251.5 25C250.672 25 250 25.6716 250 26.5V67H208V26.5C208 25.6716 207.328 25 206.5 25C205.672 25 205 25.6716 205 26.5V67H163V26.5C163 25.6716 162.328 25 161.5 25C160.672 25 160 25.6716 160 26.5V67H118V26.5C118 25.6716 117.328 25 116.5 25C115.672 25 115 25.6716 115 26.5V67H73V26.5C73 25.6716 72.3284 25 71.5 25C70.6716 25 70 25.6716 70 26.5V67H28V26.5C28 25.6716 27.3284 25 26.5 25C25.6716 25 25 25.6716 25 26.5V473.5C25 473.552 25.0027 473.603 25.0078 473.653C25.0846 474.41 25.7233 475 26.5 475H473.5C474.328 475 475 474.328 475 473.5C475 472.672 474.328 472 473.5 472H433V430H473.5C474.328 430 475 429.328 475 428.5C475 427.672 474.328 427 473.5 427H433V385H473.5C474.328 385 475 384.328 475 383.5C475 382.672 474.328 382 473.5 382H433V340H473.5C474.328 340 475 339.328 475 338.5C475 337.672 474.328 337 473.5 337H433V295H473.5C474.328 295 475 294.328 475 293.5C475 292.672 474.328 292 473.5 292H433V250H473.5C474.328 250 475 249.328 475 248.5C475 247.672 474.328 247 473.5 247H433V205H473.5C474.328 205 475 204.328 475 203.5C475 202.672 474.328 202 473.5 202H433V160H473.5C474.328 160 475 159.328 475 158.5C475 157.672 474.328 157 473.5 157H433V115H473.5C474.328 115 475 114.328 475 113.5C475 112.672 474.328 112 473.5 112H433V70H473.5C474.328 70 475 69.3284 475 68.5C475 67.6716 474.328 67 473.5 67H433V26.5C433 25.6716 432.328 25 431.5 25ZM160 472H143.688C149.157 471.568 154.596 471.074 160 470.51V472ZM205 472H163V470.188C177.278 468.621 191.306 466.545 205 463.793V472ZM250 472H208V463.178C222.413 460.165 236.446 456.385 250 451.642V472ZM295 472H253V450.572C267.613 445.275 281.655 438.832 295 430.988V472ZM340 472H298V430H340V472ZM385 472H343V430H385V472ZM430 472H388V430H430V472ZM70 471.849C56.0629 471.993 42.0421 471.998 28.002 471.998C28.02 457.479 28.3007 443.486 28.832 430H70V471.849ZM115 470.721C101.135 471.329 87.1131 471.649 73 471.815V430H115V470.721ZM160 467.49C146.219 468.936 132.195 469.917 118 470.584V430H160V467.49ZM205 460.735C191.323 463.504 177.296 465.593 163 467.168V430H205V460.735ZM250 448.465C236.464 453.259 222.432 457.077 208 460.117V430H250V448.465ZM290.712 430C278.675 436.851 266.076 442.586 253 447.384V430H290.712ZM115 427H73V385H115V427ZM160 427H118V385H160V427ZM205 427H163V385H205V427ZM250 427H208V385H250V427ZM295 427H253V385H295V427ZM340 427H301.528C303.014 426.059 304.491 425.102 305.958 424.123C317.978 416.103 329.357 406.827 340 396.102V427ZM385 427H343V393.021C345.474 390.43 347.904 387.756 350.294 385H385V427ZM430 427H388V385H430V427ZM70 427H28.9541C29.5728 412.41 30.4887 398.419 31.6895 385H70V427ZM340 391.805C328.878 403.33 316.936 413.191 304.292 421.627C302.214 423.013 300.116 424.359 298 425.67V385H340V391.805ZM28.6787 385C28.4413 387.663 28.215 390.347 28 393.055V385H28.6787ZM346.297 385C345.207 386.228 344.107 387.439 343 388.633V385H346.297ZM34.0537 340C32.0205 353.34 30.3144 367.329 28.9512 382H28V340H34.0537ZM115 382H73V340H115V382ZM160 382H118V340H160V382ZM205 382H163V340H205V382ZM295 382H253V340H295V382ZM377.784 340C369.065 355.83 359.403 369.753 348.913 382H343V340H377.784ZM385 382H352.85C363.159 369.69 372.647 355.762 381.209 340H385V382ZM430 382H388V340H430V382ZM70 382H31.9619C33.331 367.318 35.0439 353.329 37.085 340H70V382ZM42.6943 295C39.5762 308.221 36.8458 322.207 34.5195 337H28V295H42.6943ZM115 337H73V295H115V337ZM160 337H118V295H160V337ZM205 337H163V295H205V337ZM295 337H253V295H295V337ZM385 326.008C383.185 329.768 381.324 333.432 379.414 337H343V295H385V326.008ZM385 337H382.814C383.55 335.607 384.279 334.2 385 332.778V337ZM430 337H388V326.7C392.748 316.805 397.166 306.253 401.229 295H430V337ZM70 337H37.5537C39.8935 322.191 42.6427 308.207 45.7773 295H70V337ZM398.034 295C394.894 303.617 391.547 311.814 388 319.609V295H398.034ZM55.7666 250C51.1699 263.051 47.0417 277.029 43.4131 292H28V250H55.7666ZM115 292H73V250H115V292ZM160 292H118V250H160V292ZM205 292H163V250H205V292ZM295 292H253V250H295V292ZM385 292H343V270.72H343.014C343.014 265.025 343.022 261.015 343.651 258.069C343.959 256.631 344.401 255.531 345.009 254.66C345.608 253.801 346.418 253.095 347.566 252.509C349.943 251.296 353.687 250.631 359.73 250.306C365.727 249.983 373.74 250 384.514 250H385V292ZM411.541 250C407.89 264.993 403.736 278.97 399.113 292H388V250H411.541ZM430 292H402.297C406.885 278.949 411.006 264.971 414.627 250H430V292ZM70 292H46.498C50.1559 277.007 54.3192 263.03 58.9502 250H70V292ZM70 215.481C65.2775 225.324 60.8819 235.816 56.8369 247H28V205H70V215.481ZM115 247H73V216.172C74.8452 212.348 76.7394 208.625 78.6826 205H115V247ZM160 247H118V205H160V247ZM205 247H163V205H205V247ZM295 247H253V205H295V247ZM420.468 205C418.133 219.809 415.39 233.793 412.262 247H388V205H420.468ZM430 247H415.344C418.456 233.779 421.181 219.793 423.502 205H430V247ZM70 247H60.0312C63.1524 238.45 66.4782 230.314 70 222.573V247ZM364.505 205C361.624 205.876 358.802 206.956 356.16 208.266C350.719 210.962 345.922 214.689 343 219.627V205H364.505ZM75.2822 205C74.5139 206.453 73.7529 207.921 73 209.404V205H75.2822ZM70 202H28V160H70V202ZM105.289 160C94.967 172.309 85.4657 186.238 76.8906 202H73V160H105.289ZM160 202H118V160H160V202ZM205 202H163V160H205V202ZM295 202H253V160H295V202ZM340 202H298V160H340V202ZM385 202H343V160H385V202ZM426.047 160C424.681 174.682 422.972 188.671 420.936 202H388V160H426.047ZM430 202H423.967C425.996 188.66 427.698 174.671 429.059 160H430V202ZM115 202H80.3154C89.0486 186.17 98.7247 172.247 109.228 160H115V202ZM70 157H28V115H70V157ZM115 149.139C112.576 151.68 110.192 154.3 107.849 157H73V115H115V149.139ZM385 157H343V115H385V157ZM429.049 115C428.432 129.59 427.516 143.581 426.318 157H388V115H429.049ZM430 157H429.33C429.564 154.365 429.788 151.709 430 149.03V157ZM115 157H111.846C112.889 155.826 113.941 154.667 115 153.524V157ZM70 112H28V70H70V112ZM115 112H73V70H115V112ZM160 112H118V70H160V112ZM250 112H208V93.6113C221.538 88.8057 235.57 84.9781 250 81.9297V112ZM295 112H253V81.3086C266.679 78.5305 280.706 76.4342 295 74.8535V112ZM340 112H298V74.5303C311.784 73.0783 325.808 72.0931 340 71.4229V112ZM385 112H343V71.2852C356.868 70.674 370.891 70.3523 385 70.1846V112ZM429.996 70C429.978 84.5194 429.7 98.513 429.17 112H388V70.1514C401.941 70.0064 415.961 70.0002 429.996 70ZM205 112H167.484C179.463 105.186 191.997 99.4764 205 94.6943V112ZM205 91.5059C190.389 96.8138 176.347 103.27 163 111.127V70H205V91.5059ZM250 78.8672C235.59 81.8884 221.556 85.6792 208 90.4346V70H250V78.8672ZM295 71.834C280.725 73.4061 266.696 75.4898 253 78.251V70H295V71.834ZM314.501 70C308.969 70.437 303.467 70.9372 298 71.5107V70H314.501Z" fill="#E92063"/>
</svg>
