<?xml version="1.0" encoding="UTF-8"?>
<svg width="226" height="64" version="1.1" viewBox="0 0 226 64" xmlns="http://www.w3.org/2000/svg">
 <g fill="#605d5c" stroke-linecap="square">
  <path d="m74.58 48.528v-29.815h10.853q4.9899 0 7.672 1.8296t2.6821 5.1563q0 2.4118-1.6425 4.2207-1.6217 1.8089-4.1583 2.5158v0.08317q3.1811 0.39504 5.0731 2.3494 1.9128 1.9544 1.9128 4.7612 0 4.0959-2.9316 6.5077-2.9316 2.391-8.0047 2.391zm6.7156-24.867v7.0691h2.9524q2.0791 0 3.2642-0.99799 1.2059-1.0188 1.2059-2.786 0-3.285-4.9068-3.285zm0 12.059v7.8592h3.6385q2.3286 0 3.6385-1.0812 1.3306-1.0812 1.3306-2.9524 0-1.7881-1.3099-2.8068-1.2891-1.0188-3.6177-1.0188z" stroke-linejoin="bevel" stroke-width="4" aria-label="B"/>
  <path d="m147.48 28.604c-1.0248 0-2.0016 0.11318-2.9277 0.33984-0.93612 0.22027-1.7746 0.5711-2.5059 1.0586l-0.00195 0.001953h-0.00196c-0.73075 0.4935-1.3168 1.135-1.7441 1.9043-0.4389 0.78101-0.65039 1.7037-0.65039 2.7422 0 1.3369 0.3951 2.5258 1.1797 3.4922l0.00195 0.001953c0.78958 0.96081 1.9527 1.7419 3.4629 2.3711h0.00196v0.001953c0.56755 0.23218 1.096 0.45907 1.584 0.68164 0.47431 0.21636 0.87486 0.43926 1.2012 0.66211h0.00195l0.00391 0.001953c0.32572 0.21715 0.56613 0.44322 0.73242 0.67188 0.14899 0.20486 0.2168 0.41425 0.2168 0.68359 0 0.18778-0.0427 0.34701-0.13281 0.50977-0.0836 0.1433-0.21852 0.28507-0.4336 0.42383-0.19946 0.12573-0.47583 0.23858-0.83398 0.32422h-0.00195c-0.34001 0.08311-0.76226 0.12891-1.2617 0.12891-0.84509 0-1.6805-0.1447-2.5156-0.43945-0.8276-0.30076-1.5944-0.74616-2.3066-1.3438l-0.82226-0.68945v5.5449c0.72881 0.37375 1.8468 0.78607 2.8047 0.9668 0.96145 0.17971 1.9689 0.26953 3.0215 0.26953 1.0302 0 2.0121-0.09992 2.9434-0.29883 0.95197-0.20166 1.8018-0.53381 2.5352-1.0039l0.00196-0.001953 0.00195-0.001953c0.74129-0.48469 1.3352-1.1218 1.7637-1.8926v-0.001953c0.44962-0.80226 0.66211-1.7682 0.66211-2.873 0-0.80431-0.11924-1.5269-0.37305-2.1621v-0.001953c-0.24883-0.63109-0.61107-1.1954-1.0801-1.6836-0.46134-0.48017-1.0122-0.90378-1.6465-1.2715-0.61293-0.36902-1.2998-0.71198-2.0625-1.0312h-0.00195l-0.00195-0.001953c-0.53687-0.22156-1.0155-0.43242-1.4375-0.63477l-0.00391-0.001953c-1e-3 -5.61e-4 -0.00291-0.001353-0.00391-0.001953-0.40881-0.20485-0.75215-0.40707-1.0254-0.60156l-0.0039-0.003907c-1e-3 -7.12e-4 -0.00291-0.001153-0.00391-0.001953-0.262-0.19588-0.4504-0.38954-0.57422-0.57031-0.11295-0.1724-0.16601-0.34773-0.16601-0.57227 0-0.2006 0.0461-0.34954 0.14062-0.49414l0.00195-0.003907 0.00196-0.003906c0.10273-0.16317 0.24904-0.30838 0.46289-0.43945 0.21052-0.12903 0.48899-0.23692 0.83789-0.31445l0.0039-0.001953 0.00586-0.001954c0.34499-0.084329 0.7395-0.12891 1.1836-0.12891 0.32222 0 0.66355 0.024869 1.0254 0.074219h0.00195c0.36538 0.04872 0.73197 0.12622 1.0996 0.23242l0.00391 0.001953h0.00586c0.36456 0.09722 0.71519 0.22337 1.0547 0.37695h0.00196l0.00195 0.001953c0.34629 0.15301 0.66068 0.32773 0.94531 0.52539l0.78516 0.54688v-5.1934l-0.32031-0.12305c-0.66914-0.25666-1.398-0.4429-2.1816-0.56055-0.78051-0.12706-1.6652-0.18945-2.6582-0.18945z"/>
  <path d="m123.77 28.916-7.1602 19.672h5.6367l1.3164-4.1543h5.8281l1.4082 4.1543h5.6582l-6.9961-19.672h-5.6914zm2.5566 6.4746 1.6309 4.8145h-3.1777l1.5469-4.8145z"/>
  <path d="m102.2 28.916v19.672h12.121v-4.4121h-6.9141v-15.26h-5.207z"/>
  <path d="m177.49 25.834h-8.5037v22.694h-6.7364v-22.694h-8.4621v-7.1205h23.702z" stroke-linejoin="bevel" stroke-width="4" aria-label="T"/>
  <path d="m197.48 28.85 5.7266 9.8242-6.2754 9.8477h6.2246l3.373-6.2949 3.3301 6.2949h6.1797l-6.0606-9.916 5.9004-9.7559h-5.875l-3.123 5.8359-0.00976 0.027344c-0.07 0.17595-0.087 0.24882-0.14649 0.4043-0.0485-0.11745-0.0832-0.27138-0.13476-0.38086v-0.001953l-2.8066-5.8848h-6.3027z" stroke-linecap="square"/>
  <path d="m182.59 28.85-7.1602 19.672h5.6367l1.3145-4.1543h5.8301l1.4082 4.1543h5.6562l-6.9961-19.672h-5.6894zm2.5566 6.4766 1.6309 4.8125h-3.1777l1.5469-4.8125z" stroke-linecap="square"/>
 </g>
 <g transform="translate(13.978 72.713)">
  <g fill="#eb9597">
   <path d="m7.9684-60.478-11.911 12.666 2.9148 2.7409 13.037-13.867z"/>
   <path d="m20.072-60.994-19.043 20.252 2.6228 2.4668 19.043-20.252z"/>
   <path d="m22.746-52.997-14.051 14.944 2.3307 2.1927 14.051-14.944z"/>
   <path d="m32.061-35.238-9.6647 10.276 1.3124 1.2334 9.6626-10.278z"/>
   <path d="m30.042-39.029-9.6626 10.278 1.6024 1.5055 9.6627-10.276z"/>
  </g>
  <path d="m15.163-68-0.13891 0.5926-0.13392 0.56543-0.76429 3.2417-0.44668 1.8919 0.41212 0.15518c2.7754 1.0413 5.0186 2.5879 5.6772 3.6623 0.43372 0.70738 0.82512 2.297 1.0306 4.1634 0.20544 1.8664 0.25714 4.0306 0.15577 6.007-0.08396 1.636-0.23048 3.1045-0.37087 4.309l-0.07364 0.62256 4.2128-0.45392 0.05074-0.39087c0.16252-1.2294 0.33889-2.7703 0.46014-4.4892 0.29617-4.1992 0.50412-9.4247-1.6205-13.307l-2e-3 -7.7e-5c-1.6844-3.0777-4.675-4.8458-7.8937-6.317zm-21.101 1.4804s-0.28965 5.8761 0.3786 12.441c0.61984 6.0886 1.6032 12.742 5.9258 16.227 1.9125 1.542 4.289 2.2558 7.3997 2.4231 3.1108 0.16732 6.9808-0.19581 12.011-0.82574l0.0118-0.0034c6.242-0.93448 6.4958-0.94434 6.7833-0.94779 1.0214-0.01239 1.9913 0.08315 2.7396 0.26736 0.7483 0.18425 1.2472 0.48983 1.3744 0.68215-0.03209-0.04854 0.05121 0.13318 0.08993 0.39256 0.03871 0.25938 0.06792 0.61531 0.08803 1.0297 0.0402 0.82879 0.04149 1.901 0.0163 3.0284-0.04678 2.0933-0.18962 4.2424-0.31886 5.5562-1.8041 0.18752-3.294 0.0075-4.3395-0.34081-0.56507-0.18828-1.0132-0.41388-1.3278-0.62361s-0.49207-0.42606-0.51671-0.47405l-0.03639-0.06791-0.0545-0.05494c-0.08175-0.08223-0.23966-0.365-0.35987-0.78055-0.12021-0.41556-0.2195-0.96009-0.28884-1.5831-0.13867-1.2459-0.15966-2.8051-0.05747-4.3514 0.0033-0.05063 0.0081-0.10352 0.01253-0.1676l0.04538-0.6491-4.1048 0.78465-0.02326 0.38805c-0.01116 0.18745-0.02922 0.3781-0.03938 0.59656-0.08245 1.7756-0.12744 3.6443 0.08787 5.3065s0.68227 3.1498 1.745 4.0883c1.8943 1.6727 6.3903 2.9709 12.039 1.5171l0.32777-0.08273 0.40991-3.0799 7.7e-5 -2e-3c0.19752-1.4513 0.35711-4.2645 0.33107-6.9924-0.01302-1.3643-0.07275-2.7019-0.20311-3.8353s-0.30166-2.045-0.66976-2.6694c-0.69042-1.1711-1.8385-1.7978-3.0983-2.1093s-2.6574-0.33666-4.0003-0.31754l-0.02155 0.0011-11.922 1.1987c-1.8543 0.05155-3.931-0.10418-5.7172-0.44842-1.7886-0.34471-3.2914-0.91574-3.9352-1.5112-0.67229-0.62179-1.4578-2.3174-2.0361-4.4869s-0.99764-4.819-1.1706-7.4235c-0.36927-5.5655-0.0028-10.587-0.0028-10.587l0.030947-0.4327-6.5055-0.9235-0.59869-0.13329s-0.00179 0.04529-0.00186 0.04684z" fill="#f00"/>
  <g fill="#eb9597">
   <path d="m39.358-53.393c3.7178-2.2207 0.03814-6.4611-2.6151-7.048-2.2915-0.50685-3.9367 0.84539-2.3931 4.5666 1.1965 2.8845 2.3089 4.0937 5.0082 2.4813z"/>
   <path d="m-4.0901-28.729c-0.50959 10.5 13.316 17.069 25.713 14.886 4.9051-0.86388 8.9874-2.1791 12.306-5.4828-18.024 4.9003-26.026-0.43728-30.782-6.2804-1.2634-1.5522-6.9007-7.1992-7.237-3.1226z"/>
   <path d="m43.962-50.176c5.1635 11.89-1.1457 23.973-7.4564 28.853 4.9948-10.841 5.5476-19.633 2.8651-24.889-0.48472-2.9383 2.8647-6.6809 4.5913-3.9644z"/>
  </g>
 </g>
</svg>
