<?xml version="1.0" encoding="UTF-8"?>
<svg id="Layer_1" data-name="Layer 1" xmlns="http://www.w3.org/2000/svg" viewBox="0 0 200 120">
  <path d="m164.66,66.56l-6.1-16.37c-.42-1.13-1.35-2.02-2.51-2.4-3.69-.82-7.74-1.91-12.05-3.36-4.06-1.36-7.74-2.84-11.02-4.32-.33-.11-.98-.28-1.78-.18-.59.07-1.16.27-1.67.6l-14.7,9.45c-.76.49-1.3,1.21-1.57,2.01-.37,1.1-.09,2.1.05,2.55.92,3.11,2.27,6.03,3.09,8.24.32.86,2.29,6.32,3.02,8.13.09.22.37.9.98,1.48.43.41.95.73,1.53.92,3.93.9,8.23,2.09,12.78,3.65,3.74,1.28,7.17,2.65,10.29,4.03.33.11.98.28,1.78.18.59-.07,1.16-.27,1.67-.6l14.7-9.45c1.53-.98,2.15-2.87,1.52-4.57Zm-11.46.32c-1.76,3.3-6.69,4.09-11.02,1.76-4.33-2.33-6.41-6.9-4.66-10.2s6.69-4.09,11.02-1.76c4.33,2.33,6.41,6.9,4.66,10.2Z"/>
  <path d="m167.03,66.99l-6.44-18.53c-.44-1.28-1.44-2.27-2.71-2.7-4.03-.88-8.46-2.06-13.16-3.64-4.43-1.49-8.44-3.11-12.01-4.74-.36-.12-1.07-.3-1.95-.18-.65.09-1.28.33-1.84.71l-16.26,10.98c-.84.57-1.44,1.39-1.75,2.31-.42,1.26-.13,2.39.01,2.9.96,3.52,2.4,6.82,3.26,9.32.33.97,2.41,7.16,3.18,9.21.09.25.39,1.02,1.05,1.67.46.46,1.03.82,1.67,1.03,4.3.97,8.98,2.25,13.95,3.95,4.08,1.4,7.82,2.9,11.22,4.43.36.12,1.07.3,1.95.18.65-.09,1.28-.33,1.84-.71l16.26-10.98c1.69-1.14,2.4-3.29,1.74-5.22Zm-3.02,4.57l-15.32,10.06c-.53.35-1.12.56-1.74.64-.84.11-1.5-.06-1.85-.18-3.23-1.44-6.79-2.86-10.66-4.19-4.72-1.62-9.17-2.84-13.25-3.77-.6-.2-1.14-.53-1.59-.96-.63-.61-.92-1.33-1.01-1.56-.74-1.91-2.76-7.66-3.08-8.56-.83-2.32-2.22-5.39-3.16-8.67-.14-.48-.42-1.53-.04-2.69.28-.85.85-1.61,1.64-2.13l15.32-10.06c.53-.35,1.12-.56,1.74-.64.84-.11,1.5.06,1.85.18,3.4,1.54,7.21,3.07,11.42,4.49,4.47,1.5,8.66,2.62,12.49,3.47,1.21.4,2.16,1.33,2.59,2.52l6.24,17.23c.65,1.79-.02,3.78-1.61,4.83Z"/>
  <g>
    <path d="m88.94,77.06c9.42,27.13,39.05,41.49,66.18,32.07,27.13-9.42,41.49-39.05,32.07-66.18C177.77,15.81,148.14,1.46,121.01,10.88c-27.13,9.42-41.49,39.05-32.07,66.18Zm93.52-32.47c8.51,24.52-4.46,51.3-28.98,59.82-24.52,8.51-51.3-4.46-59.82-28.98-8.51-24.52,4.46-51.3,28.98-59.82s51.3,4.46,59.82,28.98Z"/>
    <path d="m23.55,108.23c-4.17,1.45-8.73-.76-10.18-4.93s.76-8.73,4.93-10.18l7.12-2.47c-2.47-1.11-5.34-1.32-8.1-.36-5.74,1.99-8.78,8.26-6.78,14,1.99,5.74,8.26,8.78,14,6.78,2.76-.96,4.88-2.91,6.13-5.31l-7.12,2.47Z"/>
    <polygon points="18.3 93.12 21.13 92.13 33.42 87.87 87.26 69.17 92.51 84.29 38.66 102.98 26.38 107.25 23.55 108.23 24.53 111.06 96.33 86.14 89.11 65.35 17.32 90.28 18.3 93.12"/>
    <path d="m23.54,94.47c.18.52.75.8,1.27.62l49.12-17.06c.52-.18.8-.75.62-1.27s-.75-.8-1.27-.62l-49.12,17.06c-.52.18-.8.75-.62,1.27Z"/>
    <path d="m89.8,88.4l1.92-.67c-1.86-3.11-3.43-6.46-4.67-10.02s-2.08-7.16-2.55-10.76l-1.92.67c.5,3.59,1.35,7.19,2.58,10.75s2.8,6.91,4.63,10.04Z"/>
    <path d="m123.3,17.49c-13.87,4.82-24.55,16.13-28.54,30.27h0c-.09.3-.05.63.15.9.34.45.98.53,1.42.19.18-.14.29-.34.35-.54h0c3.7-13.04,13.49-24.14,27.27-28.92,3.28-1.14,6.61-1.85,9.93-2.17h0c.32-.05.62-.22.77-.53.26-.5.06-1.11-.44-1.37-.17-.09-.35-.11-.53-.09h0c-3.54.34-7.03,1.11-10.39,2.27Z"/>
  </g>
</svg>