<?xml version="1.0" encoding="UTF-8" standalone="no"?>
<svg
   viewBox="0 0 40 40"
   version="1.1"
   id="svg7"
   sodipodi:docname="icon_monochrome.svg"
   inkscape:version="1.3.2 (091e20e, 2023-11-25, custom)"
   width="512"
   height="512"
   xmlns:inkscape="http://www.inkscape.org/namespaces/inkscape"
   xmlns:sodipodi="http://sodipodi.sourceforge.net/DTD/sodipodi-0.dtd"
   xmlns="http://www.w3.org/2000/svg"
   xmlns:svg="http://www.w3.org/2000/svg">
  <defs
     id="defs7" />
  <sodipodi:namedview
     id="namedview7"
     pagecolor="#ffffff"
     bordercolor="#000000"
     borderopacity="0.25"
     inkscape:showpageshadow="2"
     inkscape:pageopacity="0.0"
     inkscape:pagecheckerboard="0"
     inkscape:deskcolor="#d1d1d1"
     inkscape:zoom="1.7324219"
     inkscape:cx="256"
     inkscape:cy="256"
     inkscape:window-width="1920"
     inkscape:window-height="1129"
     inkscape:window-x="-8"
     inkscape:window-y="-8"
     inkscape:window-maximized="1"
     inkscape:current-layer="svg7" />
  <g
     fill="none"
     stroke="#000"
     stroke-linecap="round"
     stroke-linejoin="round"
     id="g7"
     style="stroke:#ffffff;stroke-opacity:1"
     transform="translate(-4.0940657,-3.986532)">
    <path
       d="M 8.8429,43.5 H 39.1571"
       id="path1"
       style="stroke:#ffffff;stroke-opacity:1" />
    <rect
       height="26.8958"
       rx="1.6555001"
       width="7.0517998"
       x="13.4223"
       y="13.5728"
       id="rect1"
       style="stroke:#ffffff;stroke-opacity:1" />
    <path
       d="m 13.4223,18.6161 h 7.0518"
       id="path2"
       style="stroke:#ffffff;stroke-opacity:1" />
    <rect
       height="26.8958"
       rx="1.6555001"
       width="7.0517998"
       x="20.4741"
       y="13.5728"
       id="rect2"
       style="stroke:#ffffff;stroke-opacity:1" />
    <path
       d="m 20.4741,18.6161 h 7.0518"
       id="path3"
       style="stroke:#ffffff;stroke-opacity:1" />
    <rect
       height="26.8958"
       rx="1.6555001"
       width="7.0517998"
       x="27.5259"
       y="13.5728"
       id="rect3"
       style="stroke:#ffffff;stroke-opacity:1" />
    <path
       d="m 27.5259,18.6161 h 7.0518"
       id="path4"
       style="stroke:#ffffff;stroke-opacity:1" />
    <path
       d="M 37.5124,17.0019 C 37.5124,8.9812 32.0208,4.5 24,4.5 15.9792,4.5 10.4876,8.9812 10.4876,17.0019"
       id="path5"
       style="stroke:#ffffff;stroke-opacity:1" />
    <path
       d="m 9.504,17.0019 h 0.9836 v 9.5135 H 9.504 A 3.2625,3.2625 0 0 1 6.2415,23.2529 V 20.2645 A 3.2625,3.2625 0 0 1 9.504,17.0019 Z"
       id="path6"
       style="stroke:#ffffff;stroke-opacity:1" />
    <path
       d="m 40.7749,17.0019 h 0.9836 v 9.5135 h -0.9836 a 3.2625,3.2625 0 0 1 -3.2625,-3.2625 v -2.9884 a 3.2625,3.2625 0 0 1 3.2625,-3.2626 z"
       transform="rotate(180,39.63545,21.7587)"
       id="path7"
       style="stroke:#ffffff;stroke-opacity:1" />
  </g>
</svg>
