<?xml version="1.0" encoding="UTF-8"?>
<!DOCTYPE svg PUBLIC "-//W3C//DTD SVG 1.1//EN" "http://www.w3.org/Graphics/SVG/1.1/DTD/svg11.dtd">
<!-- Creator: CorelDRAW 2018 (64 Bit) -->
<svg xmlns="http://www.w3.org/2000/svg" xml:space="preserve" width="34px" height="34px" version="1.1" style="shape-rendering:geometricPrecision; text-rendering:geometricPrecision; image-rendering:optimizeQuality; fill-rule:evenodd; clip-rule:evenodd"
viewBox="0 0 4.501 4.479"
 xmlns:xlink="http://www.w3.org/1999/xlink">
 <defs>
  <style type="text/css">
   <![CDATA[
    .fil0 {fill:#00589C}
    .fil1 {fill:white}
   ]]>
  </style>
 </defs>
 <g id="Ebene_x0020_1">
  <metadata id="CorelCorpID_0Corel-Layer"/>
  <path class="fil0" d="M4.501 2.81c-0.302,-0.222 -0.314,-0.213 -0.318,-0.575 -0.004,-0.478 0.072,-0.275 0.292,-0.587 -0.072,-0.183 -0.145,-0.366 -0.217,-0.549 -0.423,-0.103 -0.278,0.147 -0.65,-0.229 -0.286,-0.289 -0.181,-0.207 -0.193,-0.627 -0.187,-0.078 -0.376,-0.158 -0.564,-0.237 -0.337,0.256 -0.115,0.305 -0.6,0.31 -0.498,0.004 -0.278,-0.079 -0.631,-0.316 -0.175,0.084 -0.351,0.167 -0.527,0.25 -0.043,0.422 0.097,0.335 -0.239,0.663 -0.235,0.23 -0.251,0.197 -0.6,0.151 -0.085,0.204 -0.17,0.408 -0.254,0.613 0.28,0.205 0.319,0.227 0.322,0.561 0.005,0.41 -0.046,0.341 -0.298,0.596 0.077,0.194 0.156,0.388 0.234,0.582 0.379,0.007 0.344,-0.085 0.625,0.193 0.294,0.289 0.21,0.268 0.197,0.644 0.2,0.076 0.4,0.151 0.6,0.226 0.384,-0.399 0.283,-0.309 0.851,-0.305 0.112,0.1 0.225,0.2 0.337,0.299 0.184,-0.081 0.367,-0.162 0.55,-0.243 0.044,-0.713 0.013,-0.322 0.399,-0.836 0.145,0.013 0.289,0.025 0.434,0.038 0.083,-0.207 0.167,-0.415 0.25,-0.622z"/>
  <path class="fil1" d="M2.232 0.785c0.854,0 1.547,0.658 1.547,1.47 0,0.093 -0.01,0.185 -0.027,0.274 -0.168,0.047 -0.344,0.083 -0.525,0.107 -0.186,0.026 -0.38,0.039 -0.58,0.039 -0.38,0 -0.742,-0.049 -1.073,-0.137 -0.332,-0.089 -0.631,-0.217 -0.885,-0.376 0.05,-0.768 0.722,-1.377 1.543,-1.377zm1.484 1.883c-0.016,0.053 -0.035,0.104 -0.057,0.155 -0.154,0.039 -0.314,0.069 -0.478,0.09 -0.17,0.021 -0.349,0.033 -0.534,0.033 -0.38,0 -0.742,-0.05 -1.071,-0.139 -0.331,-0.09 -0.629,-0.22 -0.88,-0.381 -0.004,-0.039 -0.008,-0.079 -0.009,-0.119 0.25,0.148 0.539,0.268 0.855,0.352 0.341,0.091 0.714,0.141 1.105,0.141 0.203,0 0.403,-0.013 0.597,-0.04 0.163,-0.022 0.321,-0.053 0.472,-0.092zm-0.232 0.45c-0.281,0.367 -0.737,0.606 -1.252,0.606 -0.665,0 -1.232,-0.399 -1.45,-0.958 0.22,0.116 0.465,0.212 0.73,0.283 0.35,0.095 0.733,0.148 1.135,0.148 0.191,0 0.38,-0.013 0.566,-0.036 0.092,-0.012 0.182,-0.026 0.271,-0.043z"/>
 </g>
</svg>
