<?xml version="1.0" encoding="UTF-8" standalone="no"?>
<!-- Created with Inkscape (http://www.inkscape.org/) -->

<svg
   width="211.7254mm"
   height="224.14598mm"
   viewBox="0 0 211.7254 224.14598"
   version="1.1"
   id="svg1"
   xml:space="preserve"
   inkscape:version="1.3 (0e150ed, 2023-07-21)"
   sodipodi:docname="roo.svg"
   inkscape:export-filename="roo-export.svg"
   inkscape:export-xdpi="96"
   inkscape:export-ydpi="96"
   xmlns:inkscape="http://www.inkscape.org/namespaces/inkscape"
   xmlns:sodipodi="http://sodipodi.sourceforge.net/DTD/sodipodi-0.dtd"
   xmlns="http://www.w3.org/2000/svg"
   xmlns:svg="http://www.w3.org/2000/svg"><sodipodi:namedview
     id="namedview1"
     pagecolor="#ffffff"
     bordercolor="#999999"
     borderopacity="1"
     inkscape:showpageshadow="0"
     inkscape:pageopacity="0"
     inkscape:pagecheckerboard="0"
     inkscape:deskcolor="#d1d1d1"
     inkscape:document-units="mm"
     inkscape:zoom="3.9874929"
     inkscape:cx="732.79128"
     inkscape:cy="460.94126"
     inkscape:window-width="1440"
     inkscape:window-height="769"
     inkscape:window-x="0"
     inkscape:window-y="25"
     inkscape:window-maximized="1"
     inkscape:current-layer="layer1" /><defs
     id="defs1" /><g
     inkscape:label="Layer 1"
     inkscape:groupmode="layer"
     id="layer1"
     transform="translate(-231.77176,-40.550188)"><path
       id="path10"
       style="fill:#426b62;fill-opacity:1;fill-rule:evenodd;stroke-width:0.352999;stroke-linejoin:round"
       d="M 427.41563 98.461899 L 418.82236 123.83554 L 406.57556 100.49175 L 402.92152 107.46135 L 412.8682 136.69161 L 408.60541 147.04395 L 411.48792 153.70245 L 418.28906 150.86025 L 422.0449 170.35053 L 429.35402 174.91821 L 438.18552 171.46726 L 441.3321 163.85377 L 439.80971 154.81918 L 433.51603 147.71316 L 427.12056 145.98768 L 423.87218 139.28783 L 433.21114 109.24057 L 431.89184 99.596713 L 427.41563 98.461899 z M 427.58048 155.67339 L 434.01678 157.66397 L 431.69444 166.82052 L 426.85029 164.69713 L 427.58048 155.67339 z " /><path
       style="fill:#707070;fill-opacity:1;fill-rule:evenodd;stroke-width:0.352999;stroke-linejoin:round"
       d="m 276.53754,177.20528 -18.58368,2.47066 4.29681,12.99782 13.32008,-0.32226 6.4452,-14.60912 z"
       id="path15" /><path
       style="fill:#d29f66;fill-opacity:1;fill-rule:evenodd;stroke-width:0.352999;stroke-linejoin:round"
       d="m 315.13905,92.550239 -18.70953,-14.987214 -5.7794,-18.02384 0.78367,-15.085168 17.92586,6.465073 23.31345,28.11327 21.94208,-2.350937 10.5792,-19.689085 21.15841,-14.301523 1.27344,19.591129 -16.75042,26.643935 16.3586,23.313441 -2.64483,16.75042 -26.05619,10.08943 7.54258,14.39948 25.8603,2.15503 9.20784,-9.10988 8.90249,3.84936 0.99103,14.17448 -38.59454,14.49744 2.61731,10.67716 9.92103,5.68143 2.74275,10.67716 -8.81602,25.07665 -6.07325,8.32623 24.19506,2.44889 7.05279,15.37904 -105.40026,-0.39183 0.44249,-20.15118 -9.75794,-8.13162 -26.02116,-7.66695 -19.74823,-10.22261 -10.2226,-20.44521 7.43462,-42.28442 23.00087,-25.09185 9.52561,-2.78798 -15.79859,38.79944 1.16168,20.21288 6.04062,19.51588 7.2023,3.25265 25.09184,-47.62805 15.3339,-21.60687 z"
       id="path14" /><path
       style="fill:#707070;fill-opacity:1;fill-rule:evenodd;stroke-width:0.352999;stroke-linejoin:round"
       d="m 236.35909,201.77699 1.89956,16.75059 18.9955,16.23253 32.29239,8.28895 -1.03613,4.66254 -26.76639,2.93567 -11.22463,-2.41761 -1.03613,11.39732 23.65806,3.6264 25.21222,-5.52597 1.3815,-19.1682 -9.84314,-10.01581 -35.40072,-10.18851 z"
       id="path16" /><path
       style="fill:#edce9e;fill-opacity:1;fill-rule:evenodd;stroke-width:0.352999;stroke-linejoin:round"
       d="m 331.3197,195.6251 c 1.0298,-5.85131 3.63513,-9.02422 6.31476,-12.07082 l 12.85917,-0.8 8.69566,6.1417 5.53363,1.64183 7.23625,-3.22287 3.10123,18.42509 -5.6552,19.64127 -9.36458,10.51993 -8.75647,7.5403 -29.73554,-2.97963 10.58074,-15.14141 2.85803,-18.4859 z"
       id="path13"
       sodipodi:nodetypes="cccccccccccccc" /><path
       style="fill:#707070;fill-opacity:1;fill-rule:evenodd;stroke-width:0.352999;stroke-linejoin:round"
       d="m 388.3232,207.82102 -3.28105,13.46954 28.32061,4.48985 7.77089,2.76299 -10.36119,6.73477 0.86341,8.63432 17.09598,-4.14447 4.14448,-6.56209 -2.59029,-15.19641 -30.04746,-9.15238 z"
       id="path17" /><path
       style="fill:#322d22;fill-opacity:1"
       d="m 260.71452,264.48701 c -7.00529,-0.64254 -15.30305,-2.45273 -15.60507,-3.40433 -0.40447,-1.27434 0.30335,-2.38729 1.52256,-2.39401 0.97434,-0.005 1.08498,-0.35906 1.62097,-5.18172 0.49263,-4.43251 0.47725,-4.55749 -0.63947,-5.19492 -0.64532,-0.36836 -0.78961,-0.62371 -0.78961,-1.39737 0,-1.33386 0.33967,-1.37804 4.46562,-0.58083 12.20434,2.35808 21.6604,2.69075 31.12273,1.09491 8.78674,-1.48191 6.8406,-2.7759 -11.92941,-7.93186 -25.90766,-7.11662 -34.09551,-14.13302 -35.7028,-30.5947 -0.20821,-2.13247 -0.6132,-4.98997 -0.89998,-6.35 -6.63248,-31.4536 2.5698,-60.18624 24.98238,-78.00355 14.83133,-11.79045 28.81106,-13.25482 19.01812,-1.99213 -12.08179,13.89506 -18.21723,30.25964 -18.22267,48.60395 -0.002,6.96668 -0.21976,6.57488 3.23043,5.81397 3.96715,-0.87493 7.22017,-1.32396 12.95366,-1.78807 4.76868,-0.38601 5.2884,-0.47644 5.71784,-0.99494 0.25982,-0.31368 1.80763,-2.59545 3.43959,-5.0706 1.63196,-2.47514 5.79194,-8.25847 9.24441,-12.85183 13.95822,-18.57081 16.71363,-25.4059 15.81753,-39.23721 -0.60729,-9.37374 -0.14161,-15.01591 1.70117,-20.61106 0.37292,-1.13228 0.67804,-2.16218 0.67804,-2.28867 0,-0.12649 -1.34363,-0.959353 -2.98584,-1.850813 -14.19408,-7.70507 -21.94826,-21.885842 -22.00153,-40.236191 -0.0307,-10.571222 2.05211,-12.086301 12.0294,-8.750437 14.41425,4.819347 27.0003,16.868906 31.87206,30.513498 1.0439,2.92369 0.79363,2.82252 4.1508,1.6779 4.72725,-1.61174 8.68844,-2.0377 13.31532,-1.43182 4.13324,0.54123 3.71515,0.74775 4.75801,-2.350302 3.62612,-10.7723 11.58096,-20.352784 22.51528,-27.116472 10.41935,-6.445148 14.1223,-5.332111 14.92249,4.485417 1.1048,13.554815 -5.21632,28.214217 -15.54146,36.042407 -2.28913,1.73555 -2.26451,1.51625 -0.4961,4.41915 0.78082,1.28175 2.04688,3.5806 2.81348,5.108573 3.04419,6.06769 6.44677,9.84978 12.80073,14.22854 2.80366,1.9321 3.32593,6.10287 1.48176,11.83292 -3.78989,11.77564 -14.11899,18.65313 -28.01461,18.65313 -2.49386,0 -2.47663,0.21978 0.7015,8.94674 1.15402,3.16888 13.32786,6.1124 21.10059,5.10193 4.24121,-0.55137 4.00321,-0.44993 4.9393,-2.10518 3.08045,-5.44704 9.91419,-8.55629 15.52392,-7.06314 1.89701,0.50494 1.83455,0.56005 3.41542,-3.01391 1.74195,-3.93814 1.79525,-3.33381 -0.83712,-9.49134 -9.3837,-21.94991 -10.09805,-27.44631 -4.46856,-34.38181 3.30447,-4.071093 3.48025,-3.853433 9.23061,11.42968 3.24489,8.62418 4.10495,10.73328 4.37686,10.73328 0.59174,0 2.52934,-6.49891 7.09536,-23.79846 1.13778,-4.310783 1.47102,-4.481323 4.45875,-2.281883 4.36522,3.213503 6.64638,9.224033 5.88979,15.518753 -0.68822,5.72587 -3.24408,14.08058 -8.54562,27.93426 l -0.5225,1.36538 0.96958,2.72648 c 1.17419,3.30181 1.20156,3.33721 2.7474,3.55194 18.22276,2.53132 17.60977,33.85781 -0.63751,32.57997 -8.36771,-0.58598 -13.51055,-8.68582 -12.29491,-19.36415 0.16567,-1.45521 0.32551,-2.88396 0.35522,-3.175 0.0864,-0.84641 -0.44651,-0.62459 -2.02186,0.84162 l -1.47283,1.3708 0.15999,2.26714 c 0.19487,2.76126 -0.33009,5.00625 -1.63337,6.98519 -0.48208,0.732 -1.30482,2.22141 -1.82831,3.30978 -2.79288,5.80665 -9.78753,7.49334 -15.50906,3.73987 -0.64324,-0.42199 -0.72037,-0.40079 -2.51354,0.69095 -3.99062,2.4296 -9.93029,4.69612 -15.21139,5.8045 -3.49157,0.7328 -3.34042,0.52915 -2.66663,3.5929 0.65911,2.99698 0.77224,3.17758 2.23443,3.56703 6.36488,1.69527 10.45216,10.08132 11.27752,16.64232 0.38643,3.07179 -0.19129,4.07592 1.72913,4.07592 17.10948,0 38.71531,4.82126 42.4496,11.04874 1.49055,2.48571 2.19965,15.83483 0.88466,18.66498 -1.67319,3.60112 -9.8638,7.13962 -19.7973,8.55283 -4.50674,0.64116 -4.31104,1.00231 -4.3418,-8.01494 -0.008,-2.3657 -0.0834,-3.80168 0.0479,-4.71161 0.24452,-1.69471 1.2056,-1.56473 4.65202,-2.21802 1.94093,-0.36792 3.63757,-0.73606 3.77032,-0.81811 2.44052,-1.50833 -13.95659,-4.91125 -27.25461,-5.65619 -4.85393,-0.27192 -4.10883,-0.55467 -5.79058,2.19741 -1.72447,2.822 -4.02196,5.72198 -6.89404,8.7019 -2.66884,2.76906 -2.67506,2.756 1.12216,2.36018 13.45212,-1.40222 21.92601,2.43492 26.37523,11.94322 2.39346,5.11497 2.35937,8.75455 -0.0931,9.94178 l -1.14908,0.55626 h -53.89674 -53.89673 l -1.64838,0.67848 c -3.74301,1.54062 -7.49994,2.545 -12.39663,3.31412 -4.04811,0.63584 -16.7704,0.92353 -21.53093,0.48688 z m 5.53663,-3.86228 c 0.4533,-1.1813 0.79284,-8.58665 0.40495,-8.83202 -0.75732,-0.47905 -5.23212,-0.30744 -5.50623,0.21118 -0.29183,0.55213 -0.83222,5.31698 -0.83222,7.33806 v 1.43034 l 1.25677,0.0991 c 3.35917,0.26487 4.50359,0.20451 4.67673,-0.24666 z m 10.76877,0.0164 c 0.48985,-0.13586 0.60976,-0.73365 1.0429,-5.19947 0.39358,-4.05792 0.48036,-3.90414 -2.1926,-3.88554 -4.74189,0.033 -4.51266,-0.25175 -4.85603,6.03221 l -0.1931,3.53391 2.88422,-0.18086 c 1.58632,-0.0995 3.07789,-0.23459 3.31461,-0.30025 z m -20.57214,-1.2289 c 0.0883,-0.32742 0.23959,-2.28794 0.33613,-4.35671 l 0.17553,-3.76139 -0.66852,-0.25417 c -0.36768,-0.13979 -1.50149,-0.33624 -2.51957,-0.43656 l -1.85106,-0.1824 -0.15508,1.15525 c -0.99621,7.42085 -0.96212,7.68731 1.03272,8.07172 2.63077,0.50697 3.46401,0.45315 3.64985,-0.23574 z m 29.22175,0.0985 c 2.92141,-0.64273 2.84113,-0.51336 3.36117,-5.41627 0.53875,-5.07935 0.707,-4.85512 -2.98442,-3.97725 -3.42136,0.81365 -3.13205,0.41872 -3.64051,4.96961 -0.63121,5.64946 -0.86518,5.33232 3.26376,4.42391 z m 9.56139,-3.46603 c 3.36557,-1.69894 3.48264,-10.81996 0.11824,-9.21274 l -1.82631,0.87245 -0.16264,1.85208 c -0.71412,8.13194 -0.79942,7.83609 1.87071,6.48821 z m 40.44222,-1.7689 c 0.0449,-0.3148 -0.2895,-1.3074 -0.74299,-2.20577 -0.98843,-1.95805 -0.96876,-2.74281 0.0717,-2.86238 1.42244,-0.16347 3.56095,1.6947 4.82799,4.19507 0.36598,0.72223 0.69318,1.31783 0.72711,1.32357 4.3811,0.74018 5.18993,0.16654 3.69971,-2.62395 -2.4632,-4.61241 1.16078,-3.97504 4.27487,0.75185 l 1.22648,1.86167 h 1.30168 c 3.87192,0 -0.60241,-6.99409 -6.15466,-9.62072 -5.08193,-2.40414 -11.17331,-2.55926 -21.08744,-0.537 -12.54142,2.55817 -17.54546,0.99691 -10.21189,-3.18611 25.28591,-14.42291 25.14718,-44.81318 -0.22421,-49.11438 -3.48673,-0.59111 -4.31068,-1.02928 -4.02824,-2.14219 0.27169,-1.07053 1.02663,-1.30119 4.25867,-1.30119 24.37697,0 32.51003,26.96433 14.48952,48.03854 -1.71445,2.00498 -1.61337,2.07644 2.21142,1.56339 5.61618,-0.75335 10.96499,-0.2627 15.07558,1.38288 l 1.77721,0.71147 3.47337,-1.75536 c 16.38016,-8.27812 24.02143,-25.24954 20.79032,-46.17576 -0.402,-2.60355 -0.67775,-2.81533 -2.0507,-1.57495 -4.19678,3.79153 -8.57159,3.07701 -15.79542,-2.57983 -3.22319,-2.52401 -3.62642,-2.61473 -11.77396,-2.64883 -14.28834,-0.0598 -21.57051,-3.42575 -25.79895,-11.92479 -3.10479,-6.24051 -0.84545,-9.03253 2.86238,-3.53724 5.34871,7.92718 11.33524,10.51608 23.43575,10.13489 7.89092,-0.24858 10.67789,0.57675 14.97895,4.43584 3.99581,3.58521 4.31411,3.46728 3.46388,-1.28343 -0.65449,-3.657 1.96901,-1.71621 2.77777,2.05492 0.91306,4.25744 3.78151,2.1109 3.03461,-2.27088 -0.79255,-4.64957 0.0393,-5.05734 1.94761,-0.95469 1.0866,2.33609 1.45035,1.44045 0.66094,-1.62742 -1.97158,-7.66212 -7.29296,-11.38805 -18.76398,-13.1382 -5.7584,-0.87856 -7.236,-1.26876 -9.71965,-2.56669 -4.93269,-2.57776 -8.41122,-9.07184 -4.85932,-9.07184 0.22263,0 1.31684,0.82031 2.43158,1.82291 3.92967,3.53436 5.99538,4.38555 13.2346,5.45342 5.3435,0.78822 7.93546,1.42541 10.82993,2.66237 2.59957,1.11093 2.58767,1.11068 2.36127,0.0493 -0.69861,-3.27503 -8.7769,-26.41411 -9.46532,-27.11205 -0.17523,-0.17765 -1.50383,-0.62365 -2.95245,-0.99113 -4.93174,-1.25103 -11.7586,-5.11721 -12.20971,-6.91457 -0.42056,-1.67564 0.88197,-1.79718 4.3561,-0.40649 6.46442,2.5877 12.79203,3.67038 18.95755,3.24371 2.81359,-0.1947 2.88914,-0.39729 0.58349,-1.56458 -2.95251,-1.49478 -5.74286,-4.44784 -5.74286,-6.07773 0,-2.12355 1.66553,-2.26715 3.58182,-0.30882 6.89493,7.04619 16.83668,7.03985 21.06939,-0.0134 1.30223,-2.17002 1.25391,-2.33746 -0.87332,-3.02616 -7.85184,-2.54209 -7.6308,-12.58969 0.27697,-12.58969 1.3885,0 1.15728,-0.47496 -1.44007,-2.95804 -3.35219,-3.20472 -5.47985,-6.09108 -7.84236,-10.63885 -4.69314,-9.034313 -10.44944,-13.951873 -18.87342,-16.123493 -8.0458,-2.07412 -14.22878,-1.51102 -22.41494,2.04141 -2.76096,1.19813 -3.54242,0.55242 -5.24718,-4.33562 -5.24786,-15.047192 -15.33842,-25.370367 -29.20987,-29.883235 -4.40074,-1.431714 -4.25898,-1.540604 -4.21344,3.236449 0.17007,17.840624 7.00288,29.905066 20.73647,36.613626 5.53355,2.70302 5.91589,3.35088 4.21382,7.140263 -2.44507,5.44356 -3.11372,10.63443 -2.48263,19.27311 1.24597,17.0553 -1.43961,24.13525 -17.39148,45.84894 -17.89381,24.35707 -22.73891,35.49822 -22.80691,52.44376 -0.0397,9.89407 0.018,10.0192 5.42599,11.76377 19.53183,6.30077 22.06491,9.07828 20.09661,22.03583 -1.42791,9.40009 -3.77492,8.2869 17.29886,8.20487 l 17.47386,-0.068 z m 11.15879,-143.55941 c -2.48595,-1.25957 -3.46454,-5.43095 -2.00795,-8.55914 1.70074,-3.65252 6.38985,-3.76196 8.12261,-0.18957 2.55059,5.25851 -1.51697,11.07827 -6.11466,8.74871 z M 319.62809,86.715117 c -6.2067,-4.90611 -10.62711,-12.27907 -10.62711,-17.725342 0,-6.00061 8.35564,3.752672 12.27711,14.330682 1.64522,4.43792 1.09692,5.56598 -1.65,3.39466 z m 70.54505,167.670023 c 0.46954,-0.56582 -0.28709,-1.83852 -2.57424,-4.3301 -2.58572,-2.81682 -2.71482,-3.43447 -0.70284,-3.36258 3.01522,0.10775 6.67266,2.81504 8.26849,6.12047 0.9373,1.94142 0.89113,1.91737 3.53018,1.83815 l 2.24895,-0.0675 -0.0497,-1.12066 c -0.18118,-4.08428 -5.25986,-9.12151 -10.66591,-10.57887 -5.39544,-1.4545 -18.7592,0.28169 -29.43925,3.82467 -4.7602,1.57914 -4.65391,1.49215 -3.82448,3.13003 0.36353,0.71789 0.85097,1.94564 1.08319,2.72834 0.23223,0.7827 0.55774,1.58637 0.72337,1.78594 0.42447,0.51146 30.97854,0.54271 31.40225,0.0321 z M 295.36711,242.4705 c 2.82339,-1.59911 3.01003,-4.88693 0.38536,-6.78823 -1.66535,-1.20637 -1.73067,-1.14629 -1.92376,1.76953 -0.39139,5.91041 -0.33881,6.08192 1.5384,5.0187 z m 120.23749,-0.57738 c 1.86803,-0.49716 1.86744,-0.49574 1.86744,-4.50746 0,-4.37567 0.0853,-4.2527 -2.5305,-3.64843 l -2.09161,0.48318 -0.17227,1.45033 c -0.22762,1.9163 -0.26636,5.66386 -0.064,6.19119 0.19933,0.51946 1.12025,0.52906 2.99094,0.0312 z m -125.29755,-2.32465 c 0.0935,-1.20055 0.17064,-3.27808 0.17151,-4.61674 l 0.002,-2.43393 -0.8599,-0.64693 c -3.52464,-2.65169 -4.21381,-2.07963 -4.26111,3.53702 l -0.0384,4.55479 1.98437,0.88634 c 2.8508,1.27334 2.80146,1.29439 3.00191,-1.28055 z m 70.70436,1.02099 c 19.01175,-6.56449 30.52366,-33.87449 19.40646,-46.03847 -2.86147,-3.13091 -3.81615,-3.17166 -3.43672,-0.1467 2.34719,18.71265 -3.41828,34.14207 -16.82118,45.01644 -2.44324,1.98232 -2.25463,2.24121 0.85144,1.16873 z m 61.54767,-0.54388 c 2.88708,-0.87614 2.84958,-0.80719 2.85451,-5.24791 0.005,-4.32638 0.0374,-4.28778 -2.70187,-3.19684 -2.27676,0.90674 -2.25838,0.86447 -2.29479,5.27771 -0.0325,3.93363 -0.0923,3.84513 2.14215,3.16704 z m -141.39542,-6.32773 c 0.40241,-5.26111 0.53366,-4.95235 -2.49821,-5.87712 -3.44978,-1.05225 -3.38608,-1.1375 -3.69221,4.94124 -0.20969,4.16367 -0.44134,3.76814 2.79858,4.77832 3.25918,1.01619 2.99755,1.31257 3.39184,-3.84244 z m 148.35896,2.62441 c 2.75709,-2.10293 2.82721,-9.74923 0.0725,-7.90154 l -1.13473,0.76109 -0.18012,3.43047 c -0.24252,4.61886 -0.18285,4.79706 1.24239,3.70998 z m -158.74626,-1.27171 c 0.28288,-1.49192 0.68236,-3.63356 0.89015,-5.04886 0.58543,-3.98754 0.47063,-4.72717 -2.29186,-5.43183 -3.91973,-0.79708 -3.24002,-0.64215 -3.72168,4.41928 -0.37556,3.94653 -1.56673,4.65973 2.46112,5.59828 z m -9.30759,-3.17795 c 0.0826,-0.32905 0.23278,-2.53091 0.33377,-4.89302 l 0.18361,-4.29476 -1.72238,-0.78096 c -3.46662,-1.57184 -3.28162,-1.82701 -3.56285,4.91399 -0.19033,4.56179 -0.3857,4.14307 2.3948,5.13247 1.80897,0.6437 2.19516,0.63105 2.37305,-0.0777 z m -8.6882,-3.9658 c 0.256,-1.04445 0.53344,-8.68879 0.32863,-9.05474 -0.24463,-0.43706 -2.96414,-1.99161 -3.48413,-1.99161 -0.47977,0 -0.67157,1.5765 -0.75501,6.2058 l -0.0618,3.42767 1.5875,0.98787 c 1.86956,1.16339 2.18982,1.22047 2.38479,0.42501 z m 172.02317,-1.2591 c 7.64359,-3.46577 6.88922,-6.62999 -1.2776,-9.83413 -2.75199,-1.54363 -2.8396,2.35898 -3.61862,4.83486 -1.15387,4.00886 -1.21308,3.63118 0.74762,4.76879 2.0952,1.21564 1.98889,1.20973 4.1486,0.23048 z m -8.24645,-5.04773 c 1.87967,-7.44645 2.06952,-6.6625 -1.88071,-7.76583 -7.01164,-1.95839 -10.19849,-2.2339 -10.98176,-0.97864 -0.15792,0.25308 -0.30849,0.21973 -1.0381,3.19277 -0.72961,2.97304 -1.23493,5.47962 -1.12293,5.57017 0.11201,0.0906 1.81099,0.42776 3.77552,0.74934 1.96453,0.32158 4.88156,0.92767 6.48229,1.34686 1.60073,0.4192 3.07754,0.74513 3.2818,0.7243 0.25509,-0.026 0.52054,0.97745 1.48389,-2.83897 z m -171.04612,1.27975 c 0.0277,-0.17984 0.24209,-3.52533 0.36879,-5.75469 0.16048,-2.8235 0.18503,-2.75249 -1.41139,-4.08228 -1.5237,-1.26922 -2.90332,4.84708 -1.63,7.22631 0.63982,1.19551 2.59624,3.10659 2.6726,2.61066 z m 24.67143,-2.18281 c -0.44893,-4.17376 -0.62718,-8.27318 -0.48102,-11.06275 l 0.17761,-3.38983 -2.93228,-2.79005 c -10.25533,-9.75786 -14.36572,-23.13156 -12.43753,-40.46714 1.42599,-12.82049 5.70483,-24.65129 12.89033,-35.6411 2.42654,-3.71127 1.85297,-3.67372 -3.32302,0.21754 -16.71143,12.5635 -26.44524,32.04806 -26.96401,53.975 -0.38658,16.33937 2.7776,24.12387 12.48934,30.7262 7.45882,5.07071 20.80728,10.53975 20.58058,8.43213 z m 127.15343,0.30769 c 0.35148,-0.4235 1.64442,-3.74956 2.26173,-7.04781 0.53081,-2.8361 0.68618,-2.68554 -3.00517,-2.91215 -1.54995,-0.0951 -3.61578,-0.24446 -4.59074,-0.33181 -2.06367,-0.18489 -1.85487,-0.52998 -2.27392,3.75809 -0.143,1.46329 -0.30364,1.23534 -0.71145,2.86086 -0.88924,3.54454 -1.341,3.09663 3.59283,3.56223 2.25557,0.21286 4.17576,0.40442 4.26708,0.42569 0.0913,0.0213 0.29816,-0.12053 0.45964,-0.3151 z M 239.7067,213.50701 c 0.0146,-0.69122 0.0764,-2.03067 0.13742,-2.97656 0.1652,-2.56267 -1.17795,-5.68865 -1.64488,-3.82824 -0.3146,1.25346 0.1671,5.77162 0.82421,7.73084 0.2599,0.77493 0.65873,0.23437 0.68325,-0.92604 z m 31.9812,-16.07343 c 0.18638,-0.87313 0.38198,-1.70657 0.43466,-1.85209 0.30615,-0.84573 -0.33753,-0.97108 -2.63924,-0.51397 -2.84699,0.56541 -2.88602,0.78045 -0.54901,3.02457 2.0192,1.93893 2.20879,1.89359 2.75359,-0.65851 z m -4.93323,-5.83613 c 1.25062,-0.2268 1.20102,-0.11337 2.65448,-6.07012 0.63914,-2.61938 1.2065,-4.9411 1.2608,-5.15938 0.15948,-0.64101 -8.37526,0.19473 -9.57769,0.93787 -1.1044,0.68256 2.84806,10.90609 4.10055,10.60658 0.30184,-0.0722 1.00467,-0.21391 1.56186,-0.31495 z m 6.98162,-1.65248 c 0.17697,-0.11245 1.02204,-1.8668 1.87794,-3.89855 0.8559,-2.03175 1.87196,-4.31521 2.25792,-5.07436 0.97385,-1.91547 0.96477,-1.93013 -1.08419,-1.7508 -2.27388,0.19901 -2.04096,-0.13502 -3.21567,4.61159 -1.58378,6.39948 -1.56206,7.20892 0.164,6.11212 z M 377.50425,174.1226 c 5.08359,-1.18864 11.38359,-3.69342 12.94241,-5.14568 l 0.57411,-0.53486 -0.6376,-1.25825 c -0.92654,-1.82844 -1.48701,-3.96482 -1.69344,-6.45498 l -0.18146,-2.189 -5.55625,0.0913 c -5.97773,0.0983 -8.08608,-0.13323 -12.63373,-1.38725 -2.88573,-0.79574 -2.83252,-0.91981 -1.55025,3.61457 0.58586,2.07172 1.61456,5.96763 2.286,8.6576 1.59194,6.37773 0.92183,5.89916 6.45021,4.60651 z m 55.98318,-2.18021 c 9.63999,-4.56782 6.0222,-22.26682 -4.58772,-22.4441 -1.5046,-0.0251 -2.79282,-0.1029 -2.86271,-0.17279 -0.23715,-0.23714 -1.67769,-3.9352 -1.67769,-4.30684 0,-0.92296 -0.78618,-0.20145 -1.73346,1.59087 -0.96693,1.82951 -1.01429,2.02056 -0.70964,2.86305 0.44522,1.23123 0.40972,3.41584 -0.0985,6.06146 -2.12959,11.08615 4.17971,19.95743 11.66971,16.40835 z m -5.42396,-3.2806 c -4.77526,-2.54814 -5.40201,-13.0913 -0.90865,-15.28526 3.11667,-1.52177 6.82586,0.66852 8.07029,4.76553 2.10331,6.9247 -2.16079,13.18825 -7.16164,10.51973 z m 3.60665,-6.1668 c 0.26406,-2.23668 -0.83061,-4.8812 -2.02052,-4.8812 -1.41556,0 -1.10502,5.20581 0.40034,6.71117 0.69693,0.69693 1.41801,-0.11751 1.62018,-1.82997 z m -25.40239,2.8375 c 2.42889,-1.2514 3.83589,-3.8323 3.11431,-5.71269 -0.22178,-0.57797 -0.52602,-0.52715 -1.55841,0.26029 -0.61427,0.46852 -1.44613,0.75757 -2.68533,0.93306 -2.86587,0.40586 -3.97919,1.49226 -3.82821,3.73564 0.1041,1.54673 2.68482,1.95469 4.95764,0.7837 z m -9.834,-1.82332 c 0.36768,-0.54108 0.97663,-1.90901 1.35323,-3.03985 0.92522,-2.77819 1.38491,-3.12012 4.19468,-3.12012 3.66931,0 5.69115,-1.5561 5.31261,-4.08882 -0.89115,-5.96243 -9.37834,-4.67905 -12.62202,1.90862 -2.10988,4.28502 -0.53851,11.72495 1.7615,8.34017 z m 17.88605,-13.76674 c 4.38814,-4.80057 5.90185,-7.64073 9.9014,-18.57791 4.87247,-13.32428 6.75226,-20.95217 6.39695,-25.95781 -0.25239,-3.55573 -1.48379,-6.08915 -2.04815,-4.21376 -0.10948,0.3638 -1.03954,3.63829 -2.0668,7.27664 -2.0993,7.43526 -4.8649,15.82769 -6.84418,20.7692 -3.69471,9.22424 -4.97265,12.26874 -6.4195,15.29338 -1.68101,3.51415 -1.75962,3.87189 -1.26073,5.73719 0.41243,1.54204 0.66483,1.50679 2.34101,-0.32693 z m 4.57773,-11.17888 c -0.31185,-0.12449 -0.75833,-0.49952 -0.99218,-0.83339 -1.36506,-1.94889 1.3442,-4.25151 2.96827,-2.52276 1.43367,1.52607 -0.0877,4.10998 -1.97609,3.35615 z m -3.95784,-9.8101 c 0.8852,-2.23818 0.91185,-2.01134 -0.65178,-5.54745 -2.01989,-4.56793 -3.97415,-9.65951 -5.66207,-14.75182 -1.56377,-4.71779 -1.92258,-5.23015 -2.33955,-3.34074 -0.9121,4.13303 2.1497,15.15357 6.74804,24.28871 0.88811,1.76433 0.9608,1.73958 1.90536,-0.6487 z M 372.46034,80.686177 c 8.24172,-6.69226 13.00522,-17.498112 13.00522,-29.50192 0,-5.160242 0.0693,-5.115481 -4.41214,-2.847938 -9.88434,5.001276 -17.99464,14.047056 -21.23537,23.684756 -1.42161,4.227762 -1.51181,3.893072 1.4182,5.262272 2.80802,1.31219 4.65788,2.48081 6.72227,4.24668 1.7817,1.52405 1.52685,1.57182 4.50182,-0.84385 z"
       id="path4"
       sodipodi:nodetypes="sscssssssscsscsssssssssssssssssssssssssssssssssssscsssssscssssssssssssssssssssssscccssssssscsssssscsssscsscsssssssssscsscssscsscsssssssssscsssssssssssssssssssssssssssssssssssssssssssssssccssssssssssssscssssssssssssssscsssscccsscsccsssssscsssssssssscssscsssccscssssssssscsssssssssssssssssssssssscsssssssssssssssssssssssssssssssssssssssscsscssssssssssssssssssssssssssssssssssssssssssssssssssssssssssssss" /></g></svg>
