<?xml version="1.0" standalone="no"?>
<!DOCTYPE svg PUBLIC "-//W3C//DTD SVG 20010904//EN"
 "http://www.w3.org/TR/2001/REC-SVG-20010904/DTD/svg10.dtd">
<svg version="1.0" xmlns="http://www.w3.org/2000/svg"
 width="960.000000pt" height="960.000000pt" viewBox="0 0 960.000000 960.000000"
 preserveAspectRatio="xMidYMid meet">

<g transform="translate(0.000000,960.000000) scale(0.100000,-0.100000)"
fill="#000000" stroke="none">
<path d="M1234 7249 c-3 -6 -6 -741 -5 -1633 l1 -1621 432 -2 c238 -1 495 0
571 4 l137 6 -2 221 -3 221 -290 5 -290 5 -3 1395 c-2 1069 -6 1396 -15 1402
-20 13 -525 10 -533 -3z"/>
<path d="M7420 6171 c-98 -15 -240 -56 -317 -91 -24 -11 -45 -20 -49 -20 -22
0 -160 -97 -227 -159 -105 -99 -189 -212 -249 -337 -66 -139 -82 -218 -82
-429 0 -181 14 -265 57 -350 11 -22 29 -58 40 -80 76 -152 209 -301 352 -394
162 -106 301 -159 478 -181 111 -14 174 -13 292 5 321 48 534 172 738 427 148
185 221 519 169 768 -25 117 -73 251 -116 322 -199 331 -506 508 -901 522 -71
3 -155 1 -185 -3z m253 -476 c142 -37 264 -129 326 -245 72 -134 94 -277 67
-424 -28 -144 -59 -209 -140 -292 -107 -108 -215 -154 -360 -154 -152 0 -250
43 -355 156 -126 135 -177 271 -168 449 11 215 104 384 255 463 113 58 260 77
375 47z"/>
<path d="M5209 6135 c-166 -31 -341 -102 -445 -181 -65 -49 -184 -169 -216
-219 -69 -108 -112 -213 -124 -305 -8 -61 -20 -72 -29 -28 -11 47 -87 196
-130 252 -213 279 -460 414 -796 433 -258 15 -504 -60 -739 -225 -168 -117
-305 -313 -362 -519 -19 -67 -22 -104 -23 -268 0 -171 2 -199 24 -275 51 -181
146 -338 280 -462 159 -148 408 -270 606 -297 328 -46 636 50 866 270 164 157
299 427 316 634 l7 80 17 -72 c16 -68 104 -263 119 -263 4 0 12 -11 18 -25 17
-38 151 -174 212 -215 219 -149 458 -192 718 -130 94 23 216 79 271 127 22 18
43 33 47 33 12 0 -6 -304 -21 -365 -34 -127 -132 -252 -242 -306 -41 -21 -61
-24 -148 -23 -137 2 -179 15 -236 74 -43 43 -89 135 -89 175 0 24 -18 28 -144
30 -72 2 -170 12 -243 26 -68 12 -125 20 -128 17 -10 -10 -25 -113 -25 -173 0
-143 37 -235 133 -333 110 -112 222 -184 363 -232 85 -30 267 -53 364 -47 317
20 629 181 771 397 72 109 80 128 141 325 34 111 37 214 31 1134 l-6 908 -239
7 c-131 4 -243 4 -248 1 -6 -3 -10 -40 -10 -81 0 -41 -2 -74 -5 -74 -2 0 -23
17 -45 38 -149 137 -389 199 -611 157z m350 -464 c152 -47 267 -170 301 -321
8 -36 11 -114 9 -220 -4 -158 -5 -167 -31 -211 -96 -163 -326 -237 -553 -179
-98 25 -150 55 -209 121 -114 127 -160 305 -120 468 43 173 171 309 329 347
78 19 204 17 274 -5z m-2035 -46 c151 -40 281 -172 336 -344 81 -257 29 -502
-140 -654 -123 -110 -266 -148 -432 -113 -196 42 -339 188 -403 411 -22 77
-24 250 -2 321 54 182 188 315 375 374 71 23 190 25 266 5z"/>
</g>
</svg>
