<?xml version="1.0" encoding="UTF-8"?>
<svg id="a" data-name="Layer_1" xmlns="http://www.w3.org/2000/svg" viewBox="0 0 173.23 115.69" fill="white">
  
  <g opacity="0.75">
    <polygon points="25.86 83.4 25.86 76.4 7 57.54 0 64.54 18.86 83.4 25.86 83.4"/>
    <polygon points="32.29 83.4 39.29 83.4 58.16 64.54 51.16 57.54 32.29 76.4 32.29 83.4"/>
    <polygon points="25.86 89.83 18.86 89.83 0 108.69 7 115.69 25.86 96.83 25.86 89.83"/>
    <polygon points="32.29 89.83 32.29 96.83 51.16 115.69 58.16 108.69 39.29 89.83 32.29 89.83"/>
  </g>
  <g opacity="0.75">
    <polygon points="83.33 25.86 83.33 18.86 64.47 0 57.47 7 76.33 25.86 83.33 25.86"/>
    <polygon points="89.76 25.86 96.76 25.86 115.62 7 108.62 0 89.76 18.86 89.76 25.86"/>
    <polygon points="83.33 32.29 76.33 32.29 57.47 51.16 64.47 58.16 83.33 39.29 83.33 32.29"/>
    <polygon points="89.76 32.29 89.76 39.29 108.62 58.16 115.62 51.16 96.76 32.29 89.76 32.29"/>
  </g>
  <g>
    <polygon points="140.94 83.4 140.94 76.4 122.07 57.54 115.07 64.54 133.94 83.4 140.94 83.4"/>
    <polygon points="147.37 83.4 154.37 83.4 173.23 64.54 166.23 57.54 147.37 76.4 147.37 83.4"/>
    <polygon points="140.94 89.83 133.94 89.83 115.07 108.69 122.07 115.69 140.94 96.83 140.94 89.83"/>
    <polygon points="147.37 89.83 147.37 96.83 166.23 115.69 173.23 108.69 154.37 89.83 147.37 89.83"/>
  </g>
</svg>