<?xml version="1.0" standalone="no"?>
<!DOCTYPE svg PUBLIC "-//W3C//DTD SVG 20010904//EN"
 "http://www.w3.org/TR/2001/REC-SVG-20010904/DTD/svg10.dtd">
<svg version="1.0" xmlns="http://www.w3.org/2000/svg"
 width="670.000000pt" height="639.000000pt" viewBox="0 0 670.000000 639.000000"
 preserveAspectRatio="xMidYMid meet">

<g transform="translate(0.000000,639.000000) scale(0.100000,-0.100000)"
fill="#000000" stroke="none">
<path d="M967 6114 c-134 -42 -260 -145 -353 -290 -19 -29 -39 -65 -44 -79 -5
-14 -18 -44 -29 -68 -11 -23 -31 -99 -45 -167 l-26 -125 0 -879 c0 -507 4
-894 9 -915 5 -20 17 -74 26 -121 12 -60 33 -119 73 -200 51 -103 66 -124 150
-207 51 -51 97 -93 103 -93 6 0 23 -8 37 -19 15 -10 50 -26 77 -37 45 -16 96
-19 540 -24 477 -5 491 -6 530 -27 54 -29 78 -57 114 -133 59 -125 36 -296
-52 -388 -68 -71 -11 -66 -847 -72 l-755 -5 0 -515 c0 -454 2 -526 18 -604 62
-310 257 -547 503 -611 86 -22 1677 -22 1772 0 108 26 178 68 278 170 78 79
98 107 142 196 51 106 75 180 88 279 l8 55 12 -74 c17 -97 64 -226 116 -315
51 -87 172 -211 252 -256 127 -72 104 -70 1026 -70 908 0 881 -2 1007 62 161
80 312 284 364 491 37 148 39 181 37 689 l-3 503 -755 5 c-844 6 -781 0 -853
79 -66 74 -95 226 -63 333 30 96 74 152 144 184 l53 24 442 0 c275 0 466 4
503 11 137 25 284 134 382 282 50 75 86 160 118 272 l29 100 3 921 c1 551 -1
944 -7 975 -61 346 -241 589 -490 663 -48 14 -153 16 -910 16 -923 0 -897 1
-1007 -53 -75 -37 -163 -114 -222 -195 -29 -38 -52 -74 -52 -79 0 -6 -6 -16
-14 -22 -21 -18 -85 -196 -100 -281 -8 -41 -14 -65 -15 -52 -2 46 -33 178 -53
222 -95 219 -200 339 -364 417 l-79 38 -885 2 c-758 2 -892 0 -933 -13z m3889
-1746 c77 -42 141 -156 152 -267 10 -108 -51 -239 -141 -303 -32 -23 -37 -23
-398 -28 l-365 -5 -66 -33 c-78 -40 -126 -87 -164 -162 l-29 -55 0 -645 0
-645 63 -3 c34 -2 62 -6 62 -11 0 -4 -15 -25 -33 -47 -18 -21 -58 -73 -90
-114 -53 -71 -145 -191 -267 -348 -30 -39 -109 -142 -174 -228 -119 -156 -120
-157 -135 -133 -9 13 -28 37 -42 54 -25 30 -55 68 -263 340 -59 77 -131 172
-160 210 -30 39 -88 115 -130 170 l-77 100 66 3 66 3 -3 652 -3 652 -29 50
c-41 71 -82 111 -156 153 l-65 37 -372 5 -371 5 -49 41 c-93 79 -133 216 -104
356 20 97 98 190 174 208 17 5 716 7 1552 7 1405 -2 1522 -3 1551 -19z"/>
</g>
</svg>
