<?xml version="1.0" encoding="UTF-8" standalone="no"?>
<svg
   xmlns:dc="http://purl.org/dc/elements/1.1/"
   xmlns:cc="http://creativecommons.org/ns#"
   xmlns:rdf="http://www.w3.org/1999/02/22-rdf-syntax-ns#"
   xmlns:svg="http://www.w3.org/2000/svg"
   xmlns="http://www.w3.org/2000/svg"
   aria-hidden="true"
   focusable="false"
   data-prefix="fas"
   data-icon="thumbtack"
   class="svg-inline--fa fa-thumbtack fa-w-12"
   role="img"
   viewBox="0 0 384 512"
   version="1.1"
   id="svg164">
  <metadata
     id="metadata170">
    <rdf:RDF>
      <cc:Work
         rdf:about="">
        <dc:format>image/svg+xml</dc:format>
        <dc:type
           rdf:resource="http://purl.org/dc/dcmitype/StillImage" />
        <dc:title></dc:title>
      </cc:Work>
    </rdf:RDF>
  </metadata>
  <defs
     id="defs168" />
  <path
     id="path162"
     d="M 56 0 C 42.745 0 32 10.745 32 24 L 32 72 C 32 85.255 42.745 96 56 96 L 98.207031 96 L 85.972656 214.26758 C 37.465656 236.82058 9.4739031e-15 277.261 0 328 C 0 341.255 10.745 352 24 352 L 29.087891 352 L 160 352 L 224.00195 352 L 341.51367 352 L 360.00195 352 C 373.25695 352 384.00195 341.255 384.00195 328 C 384.00095 276.817 346.01734 236.58058 298.02734 214.26758 L 285.79297 96 L 328 96 C 341.255 96 352 85.255 352 72 L 352 24 C 352 10.745 341.255 0 328 0 L 56 0 z M 160 371.50391 L 160 456.00781 C 160 457.24981 160.2897 458.47494 160.8457 459.58594 L 184.8457 507.58594 C 187.7867 513.46794 196.20925 513.47894 199.15625 507.58594 L 223.15625 459.58594 A 8.008 8.008 0 0 0 224.00195 456.00781 L 224.00195 371.50391 L 160 371.50391 z "
     style="stroke:none;fill:#374151;fill-opacity:1" />
</svg>
