<?xml version="1.0" encoding="UTF-8" standalone="no"?>
<!-- Created with Inkscape (http://www.inkscape.org/) -->

<svg
   width="70"
   height="24"
   viewBox="0 0 70 24"
   version="1.1"
   id="svg1"
   xml:space="preserve"
   xmlns="http://www.w3.org/2000/svg"
   xmlns:svg="http://www.w3.org/2000/svg"><defs
     id="defs1"><rect
       x="-150"
       y="-55"
       width="155.99998"
       height="163.35802"
       id="rect1" /><rect
       x="413.38043"
       y="413.38043"
       width="793.70074"
       height="380.32034"
       id="rect171" /><rect
       x="413.38043"
       y="413.38043"
       width="793.70074"
       height="380.32034"
       id="rect165" /><rect
       x="413.38043"
       y="413.38043"
       width="793.70074"
       height="380.32034"
       id="rect171-6" /><rect
       x="413.38043"
       y="413.38043"
       width="793.70074"
       height="380.32034"
       id="rect165-2" /><rect
       x="413.38043"
       y="413.38043"
       width="793.70074"
       height="380.32034"
       id="rect171-9" /><rect
       x="413.38043"
       y="413.38043"
       width="793.70074"
       height="380.32034"
       id="rect165-20" /><rect
       x="413.38043"
       y="413.38043"
       width="793.70074"
       height="380.32034"
       id="rect171-5" /><rect
       x="413.38043"
       y="413.38043"
       width="793.70074"
       height="380.32034"
       id="rect165-9" /></defs><path
     id="path1"
     style="fill:#5dc3e5;fill-opacity:1;stroke:none;stroke-width:6.94894;stroke-dasharray:none;stroke-opacity:1"
     d="m 6,6 v 12 h 7.199219 V 16.191406 H 8.021484 V 12.673828 H 12.625 V 10.931641 H 8.021484 V 7.8085938 h 5.177735 V 6 Z m 13.1875,0 c -0.777642,0 -1.44999,0.1476355 -2.019531,0.4433594 -0.569542,0.2847713 -1.014399,0.6957374 -1.332031,1.2324218 -0.306676,0.5257314 -0.458985,1.150166 -0.458985,1.8730469 v 4.9023439 c 0,0.722881 0.152309,1.351988 0.458985,1.888672 0.317632,0.525731 0.762489,0.936698 1.332031,1.232422 C 17.73751,17.857037 18.409858,18 19.1875,18 c 0.766691,0 1.436312,-0.142963 2.005859,-0.427734 0.569542,-0.295724 1.012453,-0.706691 1.330078,-1.232422 C 22.84107,15.80316 23,15.174053 23,14.451172 h -2.070313 c 0,0.55859 -0.152309,0.992151 -0.458984,1.298828 -0.295724,0.295724 -0.724612,0.443359 -1.283203,0.443359 -0.558591,0 -0.9902,-0.147635 -1.296875,-0.443359 -0.306675,-0.306677 -0.460938,-0.740238 -0.460938,-1.298828 V 9.5488281 c 0,-0.5585895 0.154263,-0.9855255 0.460938,-1.28125 0.306675,-0.3066765 0.738284,-0.4609375 1.296875,-0.4609375 0.558591,0 0.987479,0.154261 1.283203,0.4609375 0.306675,0.2957245 0.458984,0.7226605 0.458984,1.28125 H 23 C 23,8.8259472 22.84107,8.2015125 22.523437,7.6757812 22.205812,7.1390969 21.762901,6.7281307 21.193359,6.4433594 20.623812,6.1476355 19.954191,6 19.1875,6 Z M 25,6 v 12 h 2 V 8.9921875 l 2,2.3769535 V 8.2929688 L 27,6 Z" /><path
     id="path2"
     style="font-weight:bold;font-size:26.6667px;font-family:'JetBrains Mono';-inkscape-font-specification:'JetBrains Mono Bold';white-space:pre;fill:#4da19b;fill-opacity:1;stroke-width:10.5202"
     d="M 40.904297 5.078125 C 40.487811 5.078125 40.159083 5.1870533 39.917969 5.40625 C 39.676848 5.6144875 39.556641 5.9000398 39.556641 6.2617188 C 39.556641 6.6234006 39.676848 6.9136141 39.917969 7.1328125 C 40.159083 7.3410483 40.487811 7.4453125 40.904297 7.4453125 C 41.320771 7.4453125 41.649507 7.3410485 41.890625 7.1328125 C 42.131748 6.9136141 42.253906 6.6234005 42.253906 6.2617188 C 42.253906 5.9000398 42.131748 5.6144875 41.890625 5.40625 C 41.649507 5.1870533 41.320771 5.078125 40.904297 5.078125 z M 61.947266 5.9980469 L 61.947266 8.53125 L 62.013672 10.601562 C 61.838324 10.031659 61.532141 9.5893216 61.09375 9.2714844 C 60.666311 8.9536388 60.140343 8.7929687 59.515625 8.7929688 C 58.627864 8.7929688 57.913984 9.1057495 57.376953 9.7304688 C 56.839905 10.355189 56.572266 11.198601 56.572266 12.261719 L 56.572266 14.712891 C 56.572266 15.765059 56.839905 16.601842 57.376953 17.226562 C 57.924953 17.851273 58.638826 18.164062 59.515625 18.164062 C 60.151296 18.164062 60.681928 18.005336 61.109375 17.6875 C 61.536812 17.369655 61.833649 16.925391 61.998047 16.355469 L 61.998047 18 L 64.001953 18 L 64.001953 5.9980469 L 61.947266 5.9980469 z M 33 6 L 31 8.2929688 L 31 11.369141 L 33 8.9921875 L 33 18 L 35 18 L 35 6 L 33 6 z M 51.246094 8.7929688 C 50.588495 8.7929688 50.044628 8.9629706 49.617188 9.3027344 C 49.189751 9.6315315 48.922105 10.080467 48.8125 10.650391 L 48.8125 8.9589844 L 46.806641 8.9589844 L 46.806641 18 L 48.861328 18 L 48.861328 12.34375 C 48.861328 11.773832 49.004099 11.336178 49.289062 11.029297 C 49.584983 10.722422 49.990742 10.568359 50.505859 10.568359 C 50.99906 10.568359 51.388869 10.722422 51.673828 11.029297 C 51.969747 11.325211 52.117188 11.753531 52.117188 12.3125 L 52.117188 18 L 54.171875 18 L 54.171875 12.064453 C 54.171875 11.0671 53.90422 10.273486 53.367188 9.6816406 C 52.841106 9.0898004 52.133852 8.7929687 51.246094 8.7929688 z M 37.224609 8.9589844 L 37.224609 10.816406 L 40.017578 10.816406 L 40.017578 16.142578 L 37.224609 16.142578 L 37.224609 18 L 44.611328 18 L 44.611328 16.142578 L 42.072266 16.142578 L 42.072266 8.9589844 L 37.224609 8.9589844 z M 60.287109 10.568359 C 60.813189 10.568359 61.218934 10.727086 61.503906 11.044922 C 61.799818 11.362758 61.947266 11.813655 61.947266 12.394531 L 61.947266 14.564453 C 61.947266 15.145337 61.799818 15.594264 61.503906 15.912109 C 61.218934 16.229944 60.813189 16.388672 60.287109 16.388672 C 59.761031 16.388672 59.350611 16.245908 59.054688 15.960938 C 58.769734 15.675985 58.626953 15.238321 58.626953 14.646484 L 58.626953 12.3125 C 58.626953 11.720664 58.769735 11.281055 59.054688 10.996094 C 59.350611 10.711141 59.761031 10.568359 60.287109 10.568359 z " /><path
     id="path4"
     style="fill:#ffffff;fill-opacity:1;stroke:none;stroke-width:2.78195;stroke-dasharray:none;stroke-opacity:1"
     d="M 0,0 V 24 H 23 V 22 H 2 V 2 H 68 V 22 H 37 v 2 H 70 V 0 Z m 25,20 v 4 h 10 v -4 h -2 v 2 h -6 v -2 z" /><g
     id="layer1"
     transform="translate(19,2)" /></svg>
