<?xml version="1.0" encoding="UTF-8" standalone="no"?>
<svg
   width="236"
   height="64"
   version="1.1"
   viewBox="0 0 236 64"
   id="svg10"
   sodipodi:docname="blastax_banner_raw.svg"
   inkscape:version="1.3.2 (091e20e, 2023-11-25, custom)"
   xmlns:inkscape="http://www.inkscape.org/namespaces/inkscape"
   xmlns:sodipodi="http://sodipodi.sourceforge.net/DTD/sodipodi-0.dtd"
   xmlns="http://www.w3.org/2000/svg"
   xmlns:svg="http://www.w3.org/2000/svg">
  <defs
     id="defs10" />
  <sodipodi:namedview
     id="namedview10"
     pagecolor="#ffffff"
     bordercolor="#000000"
     borderopacity="0.25"
     inkscape:showpageshadow="2"
     inkscape:pageopacity="0.0"
     inkscape:pagecheckerboard="0"
     inkscape:deskcolor="#d1d1d1"
     inkscape:zoom="3.2096019"
     inkscape:cx="121.97775"
     inkscape:cy="1.7136082"
     inkscape:window-width="1920"
     inkscape:window-height="1009"
     inkscape:window-x="-8"
     inkscape:window-y="-8"
     inkscape:window-maximized="1"
     inkscape:current-layer="svg10"
     showguides="true">
    <sodipodi:guide
       position="179.99312,12.667814"
       orientation="0,-1"
       id="guide13"
       inkscape:locked="false" />
  </sodipodi:namedview>
  <g
     id="g2"
     transform="translate(2.3707656,0.10658241)">
    <path
       style="color:#000000;fill:#eb9597;-inkscape-stroke:none"
       d="M 19.19687,10.407581 6.8046875,22.603516 9.6113281,25.455078 23.175781,12.103516 Z"
       id="path39-4"
       sodipodi:nodetypes="ccccc" />
    <path
       style="color:#000000;fill:#eb9597;-inkscape-stroke:none"
       d="m 31.310547,10.361328 -19.8125,19.5 2.525391,2.566406 19.812499,-19.5 z"
       id="path27-5" />
    <path
       style="color:#000000;fill:#eb9597;-inkscape-stroke:none"
       d="M 33.673828,18.455078 19.054687,32.84375 21.298828,35.125 35.917969,20.736328 Z"
       id="path28-1" />
    <path
       style="color:#000000;fill:#eb9597;-inkscape-stroke:none"
       d="m 42.621094,35.994141 -10.054688,9.894531 1.263672,1.283203 10.052734,-9.896484 z"
       id="path29-6" />
    <path
       style="color:#000000;fill:#eb9597;-inkscape-stroke:none"
       d="m 40.423828,32.695312 -10.052734,9.896485 1.542968,1.566406 10.052735,-9.894531 z"
       id="path30-5" />
    <path
       id="path9-3"
       style="opacity:1;fill:#eb9597;fill-opacity:1;stroke:none;stroke-width:2.4;stroke-dasharray:none;stroke-opacity:1"
       d="m 55.347656,20.949219 c -1.140164,-0.06334 -4.8776,1.786379 -3.912109,6.863281 1.991833,10.473783 0.220037,16.549112 -0.847655,24.523438 1.413166,-1.691352 2.748934,-3.689444 4.023437,-6.035157 5.218557,-9.604713 3.888547,-25.17644 0.736327,-25.351562 z"
       sodipodi:nodetypes="sscsss" />
    <path
       id="path6-0"
       style="color:#000000;fill:#ee4e5f;fill-opacity:1;stroke:#ee4e5f;stroke-width:1.29985;stroke-dasharray:none;stroke-opacity:1"
       d="m 44.589934,98.365702 c 0,0 5.688336,6.398488 13.036425,12.555258 6.83939,5.73049 14.539697,11.51884 22.11835,10.89395 6.70168,-0.55258 11.991125,-6.07319 20.963811,-17.38475 5.42104,-7.190908 5.7202,-7.512998 6.02455,-7.817029 2.13047,-2.1282 4.49871,-3.593675 5.83408,-3.288998 1.40888,0.321447 5.02115,4.20306 7.34209,7.148707 0.59723,-0.767406 1.24584,-1.587827 1.83156,-2.293398 -0.10128,-0.13735 -0.95075,-1.334865 -1.05423,-1.473147 -2.47428,-3.306381 -5.56068,-7.152813 -8.66619,-8.029472 -3.35485,-0.947052 -6.3539,1.662701 -9.03359,4.351105 L 92.028248,106.15363 c -3.760363,3.88146 -9.250527,7.73173 -12.367337,7.7765 -3.293946,0.0473 -10.217124,-4.28626 -15.965594,-9.44867 C 57.579723,98.989324 52.794523,93.340161 52.794523,93.340161 Z m 20.582508,-21.683367 4.122782,6.751051 c 3.98786,-1.71124 7.881135,-2.41895 10.014343,-1.855894 2.827832,0.746396 8.093755,5.285852 11.982797,9.680134 1.60192,1.810032 2.963599,3.506479 4.058193,4.913098 L 98.26241,92.625609 C 97.177351,91.187122 95.788166,89.410769 94.166187,87.50762 90.187935,82.839722 85.09792,77.289196 79.242693,75.435598 74.609039,73.968717 69.917939,75.033526 65.172442,76.682335 Z m 62.373418,23.742935 c 0.32008,-0.26923 0.44973,-0.28236 0.51993,-0.27855 0.0702,0.004 0.2994,0.0439 0.77468,0.51166 l 3.31445,3.26418 -3.07172,3.18637 c -0.0421,-0.0124 -0.0459,-0.005 -0.17471,-0.0773 -0.14039,-0.0786 -0.70989,-0.52684 -0.89906,-0.67943 l -1.39029,2.55045 c 0.29433,0.23406 0.59697,0.4554 0.92542,0.63918 0.47523,0.2659 1.012,0.48556 1.65641,0.49927 0.64442,0.0137 1.37761,-0.27008 1.85211,-0.76196 l 5.1675,-5.35983 -5.3765,-5.291463 c -0.78995,-0.777406 -1.70231,-1.308228 -2.69645,-1.362206 -0.99415,-0.05398 -1.98759,0.234759 -5.88934,5.124649 -3.90176,4.88988 -6.22242,7.60108 -7.73535,7.55785 -1.57161,-0.0449 -5.12837,-3.08126 -8.13379,-6.57703 -0.0555,-0.0646 -0.10429,-0.12491 -0.15917,-0.18923 l -2.54903,3.68561 c 0.19108,0.21938 0.36616,0.43197 0.56475,0.65422 3.44805,3.85879 7.37993,7.88248 10.90264,7.75074 3.23897,-0.12113 5.5251,-3.76184 9.70479,-10.73173 2.56382,-3.99706 2.6305,-4.06309 2.69273,-4.11543 z"
       transform="matrix(0.48238866,0.49614641,-0.50896502,0.47032665,34.588226,-64.512147)"
       sodipodi:nodetypes="ccsccscccsccccccccssccsscscccccccsscccsssccccscss" />
    <path
       id="path26-2"
       style="opacity:1;fill:#eb9597;fill-opacity:1;stroke:none;stroke-width:2.4;stroke-dasharray:none;stroke-opacity:1"
       d="m 48.182515,10.161407 c -3.720725,2.525462 -0.429603,12.625677 1.919656,10.092189 2.258303,-2.4354 3.655594,-4.238354 3.007025,-6.434904 -0.914166,-3.096065 -3.867102,-4.3764793 -4.926681,-3.657285 z"
       sodipodi:nodetypes="ssss" />
    <path
       d="M 9.5183376,45.241912 C 9.0087514,55.742387 22.834223,62.311109 35.231328,60.127755 40.136416,59.26388 44.218774,57.948656 47.537086,54.644982 29.512617,59.545304 21.511447,54.2077 16.755298,48.364542 15.491849,46.812333 9.8545484,41.165324 9.5183376,45.241912 Z"
       style="fill:#eb9597;fill-opacity:1;stroke:none;stroke-width:2.4;stroke-dasharray:none;stroke-opacity:1"
       id="path1-2"
       sodipodi:nodetypes="cscsc" />
  </g>
  <text
     xml:space="preserve"
     style="font-weight:bold;font-size:42.5808px;font-family:'Segoe Script';-inkscape-font-specification:'Segoe Script Bold';fill:#2c2c2c;fill-opacity:1;stroke:none;stroke-width:4;stroke-linejoin:bevel"
     x="75.169746"
     y="51.332188"
     id="text10"><tspan
       sodipodi:role="line"
       id="tspan10"
       x="75.169746"
       y="51.332188"
       style="font-style:normal;font-variant:normal;font-weight:bold;font-stretch:normal;font-family:'Microsoft Tai Le';-inkscape-font-specification:'Microsoft Tai Le Bold';fill:#2c2c2c;fill-opacity:1;stroke-width:4">B</tspan></text>
  <text
     xml:space="preserve"
     style="font-weight:bold;font-size:26.6667px;font-family:'Segoe Script';-inkscape-font-specification:'Segoe Script Bold';letter-spacing:3px;fill:#2c2c2c;fill-opacity:1;stroke:#2c2c2c;stroke-width:1;stroke-linecap:square;stroke-linejoin:miter;stroke-dasharray:none;stroke-opacity:1"
     x="104.56437"
     y="51.772808"
     id="text12"><tspan
       sodipodi:role="line"
       id="tspan12"
       x="104.56437"
       y="51.772808"
       style="font-style:normal;font-variant:normal;font-weight:bold;font-stretch:normal;font-size:26.6667px;font-family:'Microsoft Tai Le';-inkscape-font-specification:'Microsoft Tai Le Bold';letter-spacing:3px;fill:#2c2c2c;fill-opacity:1;stroke:#2c2c2c;stroke-width:1;stroke-linecap:square;stroke-linejoin:miter;stroke-dasharray:none;stroke-opacity:1">LAS</tspan></text>
  <text
     xml:space="preserve"
     style="font-weight:bold;font-size:42.5808px;font-family:'Segoe Script';-inkscape-font-specification:'Segoe Script Bold';fill:#2c2c2c;fill-opacity:1;stroke:none;stroke-width:4;stroke-linejoin:bevel"
     x="157.14459"
     y="51.332188"
     id="text13"><tspan
       sodipodi:role="line"
       id="tspan13"
       x="157.14459"
       y="51.332188"
       style="font-style:normal;font-variant:normal;font-weight:bold;font-stretch:normal;font-family:'Microsoft Tai Le';-inkscape-font-specification:'Microsoft Tai Le Bold';fill:#2c2c2c;fill-opacity:1;stroke-width:4">T</tspan></text>
  <text
     xml:space="preserve"
     style="font-weight:bold;font-size:26.6667px;font-family:'Segoe Script';-inkscape-font-specification:'Segoe Script Bold';letter-spacing:3px;fill:#2c2c2c;fill-opacity:1;stroke:#2c2c2c;stroke-width:1;stroke-linecap:square;stroke-linejoin:miter;stroke-dasharray:none;stroke-opacity:1"
     x="180.01668"
     y="51.332188"
     id="text14"><tspan
       sodipodi:role="line"
       id="tspan14"
       x="180.01668"
       y="51.332188"
       style="font-style:normal;font-variant:normal;font-weight:bold;font-stretch:normal;font-size:26.6667px;font-family:'Microsoft Tai Le';-inkscape-font-specification:'Microsoft Tai Le Bold';letter-spacing:3px;fill:#2c2c2c;fill-opacity:1;stroke:#2c2c2c;stroke-width:1;stroke-linecap:square;stroke-linejoin:miter;stroke-dasharray:none;stroke-opacity:1">AX</tspan></text>
</svg>
