<?xml version="1.0" encoding="UTF-8"?>
<svg width="128" height="128" version="1.1" viewBox="0 0 33.867 33.867" xmlns="http://www.w3.org/2000/svg">
 <g transform="rotate(90 16.933 16.933)" fill="#ee4e5f">
  <path d="m6.6143 7.444v18.979l5.5567-9e-6c0.11678-0.23661 0.24872-0.47209 0.39998-0.70557 0.59206-0.9139 1.4714-1.8878 2.6552-3.0205-0.95412-0.92074-1.7182-1.7306-2.3012-2.5066-0.78033-1.0389-1.2785-2.0868-1.2785-3.2576s0.49813-2.218 1.2785-3.257c0.58289-0.77604 1.3471-1.5865 2.3012-2.5072-1.1837-1.1327-2.0631-2.1059-2.6552-3.0198-0.15108-0.2332-0.28279-0.46855-0.39946-0.70494l-5.5572 8.8e-6zm7.8738 4e-7c0.54291 0.72084 1.351 1.5866 2.4454 2.6101 1.0943-1.0237 1.9023-1.8892 2.4454-2.6101h-4.8907zm7.2074-1.452e-4c-0.11672 0.23639-0.2484 0.47174-0.39946 0.70494-0.59204 0.91389-1.4715 1.887-2.6552 3.0198 0.95412 0.92074 1.7183 1.7312 2.3012 2.5072 0.78033 1.0389 1.2785 2.0861 1.2785 3.257s-0.49819 2.2187-1.2785 3.2576c-0.58289 0.77603-1.3471 1.5859-2.3012 2.5066 1.1838 1.1327 2.0631 2.1065 2.6552 3.0205 0.15126 0.23348 0.28316 0.46896 0.39998 0.70557l5.5562 1.45e-4v-18.979l-5.5567-1.448e-4zm-4.7621 4.8446c-0.86086 0.8186-1.5689 1.5395-2.0955 2.1647h4.1915c-0.52661-0.62509-1.2352-1.3461-2.096-2.1647zm-3.1507 3.742c-0.15224 0.34673-0.21601 0.64245-0.21601 0.90243 0 0.20163 0.03918 0.42494 0.12661 0.67618h6.4803c0.08742-0.25124 0.12661-0.47455 0.12661-0.67618 0-0.25996-0.06376-0.55569-0.21601-0.90243zm0.86869 3.1572c0.54401 0.67767 1.3162 1.4712 2.2821 2.3896 0.96585-0.91848 1.738-1.712 2.2821-2.3896h-4.5641zm2.2821 4.6233c-1.0946 1.0239-1.9024 1.8909-2.4454 2.612h4.8912c-0.54305-0.72119-1.3511-1.588-2.4459-2.612z"/>
 </g>
</svg>
