<?xml version="1.0" encoding="UTF-8"?>
<svg width="128" height="128" version="1.1" viewBox="0 0 33.867 33.867" xmlns="http://www.w3.org/2000/svg">
 <path d="m16.934 5.6633c-6.2242 0-11.27 5.0468-11.27 11.27s5.0468 11.27 11.27 11.27 11.27-5.0448 11.27-11.27-5.0468-11.27-11.27-11.27zm-5.2922 4.391c4.0041 0 3.8325 0.6313 6.4405 1.9353l0.36174 0.18087 1.9291 4.75e-4v-1.3229l3.175 2.1167-3.175 2.1167v-1.3229l-1.9281 4.2e-5 -0.36277 0.18035c-2.608 1.304-2.437 1.9363-6.441 1.9363v-1.588c3.4471 0 3.0713-0.38905 4.8623-1.3229-1.791-0.93351-1.4147-1.3219-4.8618-1.3219zm-5.1e-4 8.4672c4.0041 0 3.8331 0.63235 6.441 1.9363l0.3607 0.17932 1.9302 5.7e-4v-1.3229l3.175 2.1167-3.175 2.1167v-1.3229l-1.9276-5.4e-5 -0.36329 0.1819c-2.608 1.304-2.4365 1.9348-6.4405 1.9348v-1.5875c3.4471 0 3.0708-0.38839 4.8618-1.3219-1.791-0.93388-1.4152-1.3234-4.8623-1.3234z" fill="#ee4e5f"/>
</svg>
