<?xml version="1.0" encoding="UTF-8"?>
<svg width="128" height="128" version="1.1" viewBox="0 0 33.867 33.867" xml:space="preserve" xmlns="http://www.w3.org/2000/svg"><path d="m10.875 11.906c-3.0295 0-3.4596 0.021296-3.0298 2.9962l1.5147 10.486c0.37808 2.9912 0.30322 2.9957 3.0298 2.9957h9.0884c2.7266 0 2.5948 0.0159 3.0298-2.9957l1.5147-10.486c0.42825-2.9646 2.45e-4 -2.9962-3.0293-2.9962h-12.118zm4.8406 2.6686h2.4247l-0.62116 4.006 3.1626-2.4717 1.1834 2.0149-3.8189 1.511 3.8189 1.4873-1.1834 2.0381-3.1626-2.5182 0.62116 4.0293h-2.4247l0.63252-4.006-3.1513 2.4717-1.1948-2.0149 3.8189-1.511-3.8189-1.4873 1.1948-2.0149 3.1513 2.4717-0.63252-4.006z" fill="#ee4e5f" stroke-linecap="square" stroke-width="3.175"/><path d="m14.288 5.2917c-1.3229 0-1.3229 1.3229-1.3229 2.6459h-5.2917c-1.0135 0-1.0135 2.6459 0 2.6459h18.521c1.0135 0 1.0135-2.6459 0-2.6459h-5.2917c0-1.3229 0-2.6459-1.3229-2.6459z" fill="#ee4e5f" stroke-linecap="square" stroke-width="3.175"/></svg>
