<?xml version="1.0" encoding="UTF-8"?>
<svg width="128" height="128" version="1.1" viewBox="0 0 33.867 33.867" xmlns="http://www.w3.org/2000/svg">
 <path d="m16.933 5.6629c-6.2242 0-11.27 5.0458-11.27 11.27s5.0458 11.27 11.27 11.27 11.27-5.0458 11.27-11.27-5.0458-11.27-11.27-11.27zm3.3064 6.5739c0.30597 0.5884 0.48872 0.98947 0.48872 1.6415 0 0.51227-0.1108 0.96078-0.332 1.345-0.22121 0.37256-0.60553 0.76832-1.1527 1.1875-0.47735 0.37257-0.81506 0.71028-1.013 1.013-0.18628 0.3027-0.27869 0.65187-0.27869 1.0477v0.22699l-2.3927 0.22699v-0.68097c0-0.54721 0.10999-1.0309 0.3312-1.45 0.23285-0.43078 0.63475-0.87848 1.2052-1.3442 0.38421-0.30271 0.64628-0.55945 0.78599-0.76903 0.15135-0.22121 0.22699-0.45344 0.22699-0.69793 0-0.326-0.1108-0.57661-0.33201-0.75125-0.20957-0.18628-0.54115-0.27951-0.99521-0.27951-0.41913 0-0.83248 0.11083-1.24 0.33201-0.39585 0.20958-0.77404 0.4831-1.135 0.82074l-1.2925-1.467c0.46571-0.50063 1.1294-1.2265 1.8231-1.5757 2.6839-1.351 4.6157-0.14675 5.3026 1.1741zm-3.493 7.7185c0.2445 0 0.47141 0.06425 0.68097 0.19226 0.22121 0.12802 0.3962 0.29693 0.52426 0.50649 0.13972 0.20958 0.20922 0.43649 0.20922 0.68099 0 0.25614-0.06418 0.48917-0.19226 0.69875-0.12807 0.20956-0.30225 0.37842-0.52346 0.50649-0.22121 0.12802-0.45425 0.19226-0.69875 0.19226-0.25614 0-0.49531-0.06425-0.71652-0.19226-0.20957-0.12803-0.37842-0.29693-0.50649-0.50649-0.12807-0.20958-0.19145-0.4426-0.19145-0.69875 0-0.2445 0.06337-0.47141 0.19145-0.68099 0.12807-0.20956 0.29692-0.37842 0.50649-0.50649 0.22121-0.12803 0.46038-0.19226 0.71652-0.19226z" fill="#ee4e5f"/>
</svg>
