<?xml version="1.0" encoding="UTF-8"?>
<svg width="128" height="128" version="1.1" viewBox="0 0 33.867 33.867" xmlns="http://www.w3.org/2000/svg">
 <path d="m16.933 5.7217c-6.2242 0-11.27 5.0464-11.27 11.27s5.0464 11.27 11.27 11.27 11.27-5.0449 11.27-11.27-5.0464-11.27-11.27-11.27zm4.6752 4.6623 1.8707 1.8697c-1.9375 1.4755-3.7351 3.0372-5.4111 4.6742 1.9549 1.8691 3.6082 3.122 5.4147 4.6809l-1.8697 1.8707c-1.4764-1.9387-3.0392-3.7373-4.6773-5.4142-1.6796 1.7316-3.2335 3.5409-4.6778 5.4178l-1.8707-1.8697c2.3128-1.809 4.0274-3.3239 5.4137-4.6778-1.7314-1.6794-3.5406-3.2331-5.4173-4.6773l1.8697-1.8707c1.8077 2.311 3.3216 4.0248 4.6747 5.4106 1.8688-1.9547 3.1216-3.6079 4.6804-5.4142z" fill="#ee4e5f"/>
</svg>
