<?xml version="1.0" encoding="UTF-8"?>
<svg width="128" height="128" version="1.1" viewBox="0 0 33.867 33.867" xmlns="http://www.w3.org/2000/svg">
 <path d="m16.934 5.6633c-6.2242 0-11.27 5.0464-11.27 11.27s5.0464 11.27 11.27 11.27 11.27-5.0454 11.27-11.27-5.0464-11.27-11.27-11.27zm-0.79324 3.4577h1.5875v0.79324 3.1383h0.002067v0.79531c0 0.060241-0.001147 0.11901-0.002067 0.17828v0.18087h-0.004134c-0.085121 2.6829-1.1232 4.3562-2.5074 5.2695-1.2619 0.83256-2.6868 1.0811-3.8654 1.2971l2.3792 1.5891-1.8681 0.37207-3.3606-2.2448 2.2448-3.36 1.8686-0.37207-1.6495 2.4696c1.2072-0.23259 2.4554-0.46818 3.3781-1.0769 1.0226-0.67468 1.7802-1.7439 1.7968-4.2215v-0.5147-3.5001-0.79324zm5.132 7.7355 1.8681 0.37156 2.2448 3.3606-3.3606 2.2448-1.8681-0.37207 2.4645-1.6464c-1.1891-0.21847-2.6559-0.46324-3.9378-1.309-0.33382-0.22025-0.64731-0.48476-0.93225-0.79686l0.81184-1.4805c0.2806 0.40334 0.62016 0.70387 0.9953 0.95137 0.9051 0.59716 2.1233 0.8351 3.3089 1.0635l-1.5948-2.387z" fill="#ee4e5f"/>
</svg>
