<?xml version="1.0" encoding="UTF-8"?>
<svg width="128" height="128" version="1.1" viewBox="0 0 33.867 33.867" xmlns="http://www.w3.org/2000/svg">
 <path d="m16.934 5.6633c-6.2242 0-11.27 5.0466-11.27 11.27s5.0466 11.27 11.27 11.27 11.27-5.0451 11.27-11.27-5.0466-11.27-11.27-11.27zm-5.8214 5.4498c3.2881 0 5.1276 1.5293 6.3961 2.9006 0.63424 0.68566 1.1562 1.3186 1.6759 1.74 0.51969 0.42137 0.98962 0.65061 1.7167 0.65061l1.3239 1.8e-5v-1.3229l3.1751 2.1166-3.1751 2.1168v-1.3229l-1.3239 4.66e-4c-0.72708 2.56e-4 -1.197 0.22666-1.7167 0.64803-0.51969 0.42137-1.0416 1.0569-1.6759 1.7425-1.2685 1.3713-3.108 2.9001-6.3961 2.9001v-1.5875c2.8304 0 4.0513-1.1166 5.2302-2.3911 0.39934-0.43172 0.78078-0.886 1.2036-1.3121h-6.4513v-1.588h6.4513c-0.42277-0.42623-0.80421-0.88087-1.2036-1.3126-1.1789-1.2745-2.3998-2.3926-5.2302-2.3926z" fill="#ee4e5f"/>
</svg>
