<?xml version="1.0" encoding="UTF-8"?>
<svg width="128" height="128" version="1.1" viewBox="0 0 33.867 33.867" xmlns="http://www.w3.org/2000/svg">
 <path d="m16.934 5.6633c-6.2234 0-11.27 5.0453-11.27 11.27s5.0468 11.27 11.27 11.27 11.27-5.0463 11.27-11.27-5.046-11.27-11.27-11.27zm3.7037 4.1264 3.175 2.1167-3.175 2.1167-3.2e-5 -1.3229-0.2646 0.01347c-2.4577 0.13187-3.5976 1.1864-4.7 2.3782-0.39939 0.43173-0.78079 0.88636-1.2036 1.3126h5.9036l0.2646-7e-5 3.2e-5 -1.3229 3.175 2.1167-3.175 2.1167-3.2e-5 -1.323-0.2646 6.54e-4h-5.9036c0.42282 0.4261 0.80422 0.88036 1.2036 1.3121 1.1024 1.1918 2.2423 2.2449 4.7 2.3766l0.2646 0.01485v-1.3229l3.175 2.1167-3.175 2.1167v-1.3229l-0.2646 2.35e-4v-0.01602c-2.9578-0.15469-4.6674-1.589-5.8658-2.8846-0.6343-0.6856-1.1562-1.3212-1.6759-1.7425-0.5197-0.42137-0.98963-0.6479-1.7167-0.64803l-1.8542-8.23e-4v-1.5875l1.8542 3.06e-4c0.72708 1.2e-4 1.197-0.22924 1.7167-0.65061 0.5197-0.4214 1.0416-1.0543 1.6759-1.74 1.1984-1.2956 2.908-2.7304 5.8658-2.8851v-0.01602l0.2646-2.92e-4 3.2e-5 -1.3226z" fill="#ee4e5f"/>
</svg>
