<?xml version="1.0" encoding="UTF-8"?>
<svg width="128" height="128" version="1.1" viewBox="0 0 33.867 33.867" xmlns="http://www.w3.org/2000/svg">
 <path d="m7.4084 6.3501-3.7042 21.167h26.459l-4.2334-21.167h-18.521zm2.9802 3.6587c0.14446 0.013844 0.34588 0.028002 0.60359 0.041858 0.2579 0.013844 0.5216 0.027498 0.79117 0.041342 0.27152 0 0.52514 0.006876 0.7612 0.020671h0.50902c0.20375 0 0.36153 0.01417 0.47233 0.041858 0.11214 0.013844 0.20085 0.034324 0.26665 0.062012 0.065899 0.027688 0.10816 0.06917 0.12661 0.12454 0.029919 0.055363 0.054195 0.11102 0.072865 0.1664l3.2474 9.3225 3.2019-9.3225c0.034461-0.12458 0.099582-0.22173 0.19534-0.29094 0.095391-0.069219 0.34074-0.10387 0.73691-0.10387h0.39016c0.17932-0.013844 0.37153-0.020671 0.57516-0.020671 0.20164-0.013844 0.40276-0.027498 0.6041-0.041342 0.2012-0.013844 0.37385-0.028002 0.51832-0.041858 0.034286 0.069219 0.057523 0.13853 0.069247 0.20774l0.027906 0.16588c0.037518 0.22148-0.003315 0.35328-0.12299 0.39481-0.22367 0.041532-0.40163 0.083014-0.53382 0.12454-0.12092 0.041532-0.21123 0.096671-0.27079 0.16588-0.061757 0.055364-0.0984 0.12468-0.11007 0.20774-0.011771 0.083051-0.009683 0.1802 0.005684 0.29094 0.003842 0.027688 0.04588 0.29078 0.12713 0.78911 0.093605 0.49834 0.21026 1.1138 0.35089 1.8474 0.1419 0.73366 0.29435 1.5303 0.45682 2.3885 0.16398 0.85824 0.32376 1.6743 0.47853 2.4495 0.15409 0.76134 0.28735 1.4261 0.4005 1.9937 0.11381 0.56755 0.18821 0.91361 0.22169 1.0382 0.020784 0.13843 0.052748 0.25605 0.097153 0.35295 0.057356 0.083051 0.1362 0.1592 0.23668 0.22841 0.11572 0.06922 0.26861 0.1317 0.45786 0.18707 0.18733 0.041531 0.42797 0.082497 0.72141 0.12402 0.17076 0.027687 0.27713 0.15949 0.31988 0.39481 0.017602 0.096895 0.023561 0.21453 0.018087 0.35295-0.53981-0.027688-1.0334-0.054995-1.4805-0.082683-0.4294-0.013844-0.91834-0.021188-1.4676-0.021188-0.50351 0-1.0441 0.007393-1.6227 0.021188-0.56248 0.027688-1.0342 0.054995-1.4144 0.082683-0.039709-0.13843-0.062886-0.25606-0.069247-0.35295-0.009997-0.15227 0.005915-0.25624 0.047542-0.31161 0.056597-0.055363 0.10723-0.083199 0.15245-0.083199 0.60993-0.096895 0.99888-0.20718 1.1674-0.33177 0.16628-0.13843 0.23552-0.34637 0.20826-0.62322-0.004091-0.041532-0.040419-0.26313-0.10904-0.66457-0.053669-0.40144-0.12382-0.89978-0.20981-1.495-0.071308-0.59523-0.16084-1.2385-0.26769-1.9306-0.092232-0.69213-0.18628-1.3428-0.28216-1.9518-0.081955-0.60907-0.15565-1.1353-0.22118-1.5782-0.052575-0.44296-0.089016-0.71288-0.11007-0.80978l-3.7926 9.9049c-0.076298 0.12458-0.14535 0.21438-0.20671 0.26975-0.04624 0.06922-0.11524 0.10335-0.20722 0.10335h-0.13746c-0.061314 0-0.10749-0.006371-0.13798-0.020154l-4.0091-11.545c-0.032649 0.17995-0.092407 0.5465-0.18087 1.1002-0.07506 0.53986-0.17306 1.1627-0.29404 1.8686-0.10919 0.70597-0.23046 1.4538-0.36484 2.2428-0.12039 0.77519-0.23497 1.4951-0.34365 2.1596-0.10946 0.66444-0.20717 1.2253-0.29249 1.6821-0.069408 0.44296-0.10699 0.68505-0.11214 0.72658-0.015433 0.12458-0.014221 0.23538 0.003618 0.33228 0.019648 0.08305 0.070487 0.1592 0.15193 0.22841 0.081683 0.069219 0.20897 0.13118 0.38293 0.18655 0.17584 0.041532 0.41945 0.089837 0.7302 0.14521 0.16317 0.027687 0.23361 0.15949 0.21188 0.39481-0.003836 0.041532-0.016657 0.096673-0.038241 0.16588-0.005138 0.055364-0.018136 0.11786-0.039791 0.18707-0.40998-0.027688-0.78934-0.054995-1.1374-0.082683-0.34938-0.013844-0.69914-0.021188-1.0501-0.021188-0.30516 0-0.68778 0.007393-1.1477 0.021188-0.46252 0.027688-0.87989 0.054995-1.2516 0.082683-0.020538-0.055363-0.023943-0.11786-0.011369-0.18707l0.029973-0.16588c0.027661-0.15227 0.067589-0.24941 0.12041-0.29094 0.055242-0.055363 0.12165-0.090027 0.19947-0.10387 0.48343-0.096895 0.84-0.20718 1.0697-0.33177 0.22869-0.12458 0.37621-0.31153 0.44339-0.5607 0.016627-0.11074 0.080736-0.44263 0.19276-0.99633 0.11343-0.56755 0.2481-1.2324 0.40256-1.9937 0.15516-0.77519 0.31517-1.5918 0.47956-2.45 0.16488-0.87208 0.312-1.675 0.44184-2.4087 0.14325-0.7475 0.25531-1.3703 0.33745-1.8686 0.093682-0.49833 0.14238-0.76142 0.14625-0.78911 0.032862-0.23532-0.008069-0.40178-0.12196-0.49868-0.11122-0.11074-0.37389-0.20737-0.78704-0.29042-0.12431-0.013844-0.1649-0.14564-0.12247-0.39481l0.028422-0.16588c0.011787-0.069219 0.034385-0.13853 0.06873-0.20774z" fill="#ee4e5f"/>
</svg>
