<?xml version="1.0" encoding="UTF-8"?>
<svg width="64" height="64" version="1.1" viewBox="0 0 64 64" xmlns="http://www.w3.org/2000/svg">
 <g fill="#eb6572">
  <path d="m22.036 14.234-11.911 12.666 2.9148 2.7409 13.037-13.867z"/>
  <path d="m34.14 13.718-19.043 20.252 2.6228 2.4668 19.043-20.252z"/>
  <path d="m36.814 21.715-14.051 14.944 2.3307 2.1927 14.051-14.944z"/>
  <path d="m46.129 39.474-9.6647 10.276 1.3124 1.2334 9.6626-10.278z"/>
  <path d="m44.11 35.683-9.6626 10.278 1.6024 1.5055 9.6627-10.276z"/>
 </g>
 <path d="m29.231 6.7124-0.13891 0.5926-0.13392 0.56543-0.76429 3.2417-0.44668 1.8919 0.41212 0.15518c2.7754 1.0413 5.0186 2.5879 5.6772 3.6623 0.43372 0.70738 0.82512 2.297 1.0306 4.1634 0.20544 1.8664 0.25714 4.0306 0.15577 6.007-0.08396 1.636-0.23048 3.1045-0.37087 4.309l-0.07364 0.62256 4.2128-0.45392 0.05074-0.39087c0.16252-1.2294 0.33889-2.7703 0.46014-4.4892 0.29617-4.1992 0.50412-9.4247-1.6205-13.307l-2e-3 -7.7e-5c-1.6844-3.0777-4.675-4.8458-7.8937-6.317zm-21.101 1.4804s-0.28965 5.8761 0.3786 12.441c0.61984 6.0886 1.6032 12.742 5.9258 16.227 1.9125 1.542 4.289 2.2558 7.3997 2.4231 3.1108 0.16732 6.9808-0.19581 12.011-0.82574l0.0118-0.0034c6.242-0.93448 6.4958-0.94434 6.7833-0.94779 1.0214-0.01239 1.9913 0.08315 2.7396 0.26736 0.7483 0.18425 1.2472 0.48983 1.3744 0.68215-0.03209-0.04854 0.05121 0.13318 0.08993 0.39256 0.03871 0.25938 0.06792 0.61531 0.08803 1.0297 0.0402 0.82879 0.04149 1.901 0.0163 3.0284-0.04678 2.0933-0.18962 4.2424-0.31886 5.5562-1.8041 0.18752-3.294 0.0075-4.3395-0.34081-0.56507-0.18828-1.0132-0.41388-1.3278-0.62361s-0.49207-0.42606-0.51671-0.47405l-0.03639-0.06791-0.0545-0.05494c-0.08175-0.08223-0.23966-0.365-0.35987-0.78055-0.12021-0.41556-0.2195-0.96009-0.28884-1.5831-0.13867-1.2459-0.15966-2.8051-0.05747-4.3514 0.0033-0.05063 0.0081-0.10352 0.01253-0.1676l0.04538-0.6491-4.1048 0.78465-0.02326 0.38805c-0.01116 0.18745-0.02922 0.3781-0.03938 0.59656-0.08245 1.7756-0.12744 3.6443 0.08787 5.3065s0.68227 3.1498 1.745 4.0883c1.8943 1.6727 6.3903 2.9709 12.039 1.5171l0.32777-0.08273 0.40991-3.0799 7.7e-5 -2e-3c0.19752-1.4513 0.35711-4.2645 0.33107-6.9924-0.01302-1.3643-0.07275-2.7019-0.20311-3.8353s-0.30166-2.045-0.66976-2.6694c-0.69042-1.1711-1.8385-1.7978-3.0983-2.1093s-2.6574-0.33666-4.0003-0.31754l-0.02155 0.0011-11.922 1.1987c-1.8543 0.05155-3.931-0.10418-5.7172-0.44842-1.7886-0.34471-3.2914-0.91574-3.9352-1.5112-0.67229-0.62179-1.4578-2.3174-2.0361-4.4869s-0.99764-4.819-1.1706-7.4235c-0.36927-5.5655-0.0028-10.587-0.0028-10.587l0.03095-0.4327-6.5055-0.9235-0.59869-0.13329s-0.0018 0.04529-0.0019 0.04684z" fill="#e0061d"/>
 <g fill="#eb6572">
  <path d="m53.426 21.319c3.7178-2.2207 0.03814-6.4611-2.6151-7.048-2.2915-0.50685-3.9367 0.84539-2.3931 4.5666 1.1965 2.8845 2.3089 4.0937 5.0082 2.4813z"/>
  <path d="m9.9779 45.983c-0.50959 10.5 13.316 17.069 25.713 14.886 4.9051-0.86388 8.9874-2.1791 12.306-5.4828-18.024 4.9003-26.026-0.43728-30.782-6.2804-1.2634-1.5522-6.9007-7.1992-7.237-3.1226z"/>
  <path d="m58.03 24.537c5.1635 11.89-1.1457 23.973-7.4564 28.853 4.9948-10.841 5.5476-19.633 2.8651-24.889-0.48472-2.9383 2.8647-6.6809 4.5913-3.9644z"/>
 </g>
</svg>
