<?xml version="1.0" encoding="UTF-8" standalone="no"?>
<!-- Created with Inkscape (http://www.inkscape.org/) -->

<svg
   width="64mm"
   height="24mm"
   viewBox="0 0 64 24"
   version="1.1"
   id="svg1"
   inkscape:version="1.4 (86a8ad7, 2024-10-11)"
   sodipodi:docname="logo_wi.svg"
   xmlns:inkscape="http://www.inkscape.org/namespaces/inkscape"
   xmlns:sodipodi="http://sodipodi.sourceforge.net/DTD/sodipodi-0.dtd"
   xmlns="http://www.w3.org/2000/svg"
   xmlns:svg="http://www.w3.org/2000/svg">
  <sodipodi:namedview
     id="namedview1"
     pagecolor="#ffffff"
     bordercolor="#000000"
     borderopacity="0.25"
     inkscape:showpageshadow="2"
     inkscape:pageopacity="0.0"
     inkscape:pagecheckerboard="0"
     inkscape:deskcolor="#d1d1d1"
     inkscape:document-units="mm"
     showgrid="true"
     inkscape:zoom="5.8810095"
     inkscape:cx="121.06765"
     inkscape:cy="33.58267"
     inkscape:window-width="2560"
     inkscape:window-height="1369"
     inkscape:window-x="1912"
     inkscape:window-y="-8"
     inkscape:window-maximized="1"
     inkscape:current-layer="layer1">
    <inkscape:grid
       id="grid1"
       units="mm"
       originx="0"
       originy="0"
       spacingx="1.9999999"
       spacingy="1.9999999"
       empcolor="#0099e5"
       empopacity="0.30196078"
       color="#0099e5"
       opacity="0.14901961"
       empspacing="2"
       enabled="true"
       visible="true" />
  </sodipodi:namedview>
  <defs
     id="defs1" />
  <g
     inkscape:label="Layer 1"
     inkscape:groupmode="layer"
     id="layer1">
    <path
       style="fill:#ffffff;fill-opacity:1;stroke:none;stroke-width:0.2;stroke-linecap:round;stroke-linejoin:round"
       d="M 3.9999999,5.9999998 5.9999998,3.9999999 H 9.9999995 L 11.999999,5.9999998 V 9.9999995 L 9.9999995,11.999999 H 5.9999998 L 3.9999999,9.9999995 Z"
       id="path9" />
    <path
       style="fill:#ffffff;fill-opacity:1;stroke:none;stroke-width:0.2;stroke-linecap:round;stroke-linejoin:round"
       d="m 3.9999999,23.999999 v -6 l 1.9999999,-2 h 3.9999997 l 1.9999995,2 v 6 z"
       id="path10" />
    <path
       style="fill:#ffffff;fill-opacity:1;stroke:none;stroke-width:0.2;stroke-linecap:round;stroke-linejoin:round"
       d="m 13.999999,0 2,1.9999999 V 0 Z"
       id="path11" />
    <path
       style="fill:#ffffff;fill-opacity:1;stroke:none;stroke-width:0.2;stroke-linecap:round;stroke-linejoin:round"
       d="m 15.999999,19.999999 h 10 l 2,-2 v -2 l -2,-2 h -8 l -2,-2 V 1.9999999 L 17.999999,0 h 14 v 3.9999999 h -10 l -2,1.9999999 v 2 l 2,1.9999997 h 7.999999 l 2.000001,1.9999995 v 10 l -2.000001,2 H 15.999999 Z"
       id="path12" />
    <path
       style="fill:#ffffff;fill-opacity:1;stroke:none;stroke-width:0.2;stroke-linecap:round;stroke-linejoin:round"
       d="M 35.999999,23.999999 V 3.9999999 h 1.999999 v 7.9999991 h 3.999999 V 3.9999999 h 2.000002 V 23.999999 Z"
       id="path13" />
    <path
       style="fill:#ffffff;fill-opacity:1;stroke:none;stroke-width:0.2;stroke-linecap:round;stroke-linejoin:round"
       d="M 31.999999,1.9999999 33.999998,0 h -1.999999 z"
       id="path14" />
    <path
       style="fill:#ffffff;fill-opacity:1;stroke:none;stroke-width:0.2;stroke-linecap:round;stroke-linejoin:round"
       d="m 45.999997,0 h 2.000002 v 1.9999999 z"
       id="path15" />
    <path
       style="fill:#ffffff;fill-opacity:1;stroke:none;stroke-width:0.2;stroke-linecap:round;stroke-linejoin:round"
       d="m 63.999998,0 v 21.999999 l -2.000001,2 h -12 l -1.999998,-2 V 0 h 4 v 17.999999 l 1.999998,2 h 4 l 2.000001,-2 V 0 Z"
       id="path16" />
  </g>
</svg>
