<svg width="132" height="44" version="1.1" viewBox="0 0 132 44" xmlns="http://www.w3.org/2000/svg">
 <g transform="scale(.99582 1.0042)" fill="#f00" stroke-width="3.6" aria-label="3">
  <path d="m114.85 14.662q0.62624 0.53678 0.99687 1.2525 0.37063 0.7157 0.37063 1.9043 0 1.3419-0.53678 2.505-0.52399 1.163-1.6231 1.9937-1.0736 0.80517-2.5305 1.2397-1.4442 0.42175-3.5146 0.42175-2.3644 0-4.0642-0.37063-1.687-0.37063-2.7478-0.83073v-4.1792h0.49843q1.0991 0.66458 2.62 1.1502 1.5336 0.48566 2.7989 0.48566 0.74127 0 1.6103-0.11502 0.86906-0.1278 1.4697-0.53678 0.47288-0.31951 0.75405-0.76682 0.28117-0.4601 0.28117-1.3164 0-0.83073-0.38341-1.278-0.38342-0.4601-1.0097-0.6518-0.62624-0.20449-1.5081-0.21727-0.88185-0.02556-1.6359-0.02556h-1.048v-3.3996h1.0863q0.99687 0 1.7637-0.0639 0.76682-0.0639 1.3036-0.29395 0.56234-0.24283 0.84351-0.63902 0.28117-0.40897 0.28117-1.1886 0-0.57512-0.29395-0.92019-0.29395-0.35785-0.74127-0.56234-0.49843-0.23005-1.1758-0.30673-0.67737-0.076683-1.163-0.076683-1.2014 0-2.6072 0.42175-1.4058 0.40897-2.7222 1.1886h-0.47287v-4.1281q1.048-0.42175 2.85-0.80517 1.802-0.39619 3.6552-0.39619 1.802 0 3.1568 0.31951 1.3547 0.30673 2.2366 0.83073 1.048 0.62624 1.5592 1.5209 0.51122 0.89463 0.51122 2.096 0 1.5848-0.9841 2.8373-0.98409 1.2397-2.5944 1.5848v0.17893q0.6518 0.08946 1.3803 0.35785 0.72849 0.26839 1.3292 0.7796z"/>
 </g>
 <g transform="scale(.99953 1.0005)" fill="#000" aria-label="TaxI">
  <path d="m31.946 14.89h-7.7702v20.069h-6.4167v-20.069h-7.7702v-4.8125h21.957z"/>
  <path d="m46.835 30.063v-3.9102q-1.2198 0.10026-2.6402 0.28407-1.4204 0.1671-2.1556 0.40104-0.90234 0.28407-1.3869 0.83551-0.46788 0.53472-0.46788 1.4204 0 0.58485 0.10026 0.95248t0.5013 0.70182q0.38433 0.3342 0.91906 0.5013 0.53472 0.15039 1.671 0.15039 0.90235 0 1.8214-0.36762 0.93577-0.36762 1.6376-0.96919zm0 2.9076q-0.48459 0.36762-1.2031 0.88564-0.71854 0.51801-1.3535 0.8188-0.88564 0.40104-1.8381 0.58485-0.95248 0.20052-2.0888 0.20052-2.6736 0-4.4783-1.6543-1.8047-1.6543-1.8047-4.2277 0-2.0553 0.91906-3.3587 0.91906-1.3034 2.6068-2.0553 1.671-0.75196 4.1441-1.0694t5.13-0.46788v-0.10026q0-1.554-1.27-2.1389-1.27-0.60156-3.7431-0.60156-1.4872 0-3.1749 0.53472-1.6877 0.51801-2.423 0.80208h-0.55143v-4.5284q0.95248-0.25065 3.0914-0.58485 2.1556-0.35091 4.3112-0.35091 5.13 0 7.4026 1.5875 2.2893 1.5708 2.2893 4.9462v12.767h-5.9655z"/>
  <path d="m77.949 34.959h-7.0182l-4.0104-5.6146-4.1107 5.6146h-6.8846l7.4026-9.3744-7.2856-9.3911h7.0182l3.9436 5.5143 3.9603-5.5143h6.9013l-7.3023 9.2407z"/>
  <path d="m95.01 34.959h-14.571v-4.4115h4.0773v-16.058h-4.0773v-4.4115h14.571v4.4115h-4.0773v16.058h4.0773z"/>
 </g>
</svg>
