<?xml version="1.0" encoding="UTF-8"?>
<svg width="140" height="44" version="1.1" viewBox="0 0 140 44" xmlns="http://www.w3.org/2000/svg">
 <g stroke-width="1.1428">
  <g transform="matrix(.87502 0 0 .87502 4.9735 2.0764)" aria-label="Τ  Ι">
   <path d="m13.698 36.712v-21.249h-8.5938v-5.5469h22.492v5.5469h-8.5938v21.249z"/>
   <path d="m81.534 36.828h-13.664v-5.0781h4.1797v-16.64h-4.1797v-5.0781h13.664v5.0781h-4.1797v16.64h4.1797z"/>
  </g>
  <g transform="matrix(.87502 0 0 .87502 4.9735 2.0764)" aria-label="ΑΧ">
   <path d="m24.613 36.828 6.877-20.357h5.5781l6.877 20.357h-5.2637l-1.2715-4.1562h-6.3984l-1.2715 4.1562zm11.676-7.8477-2.0781-6.7129-2.0781 6.7129z"/>
   <path d="m64.995 36.828h-5.9336l-3.9102-6.4941-3.9922 6.4941h-5.6602l6.6035-10.254-6.3438-10.104h5.9199l3.6641 6.1387 3.7598-6.1387h5.6738l-6.3848 9.8984z"/>
  </g>
 </g>
 <g transform="translate(0 -.72681)" fill="#f00" aria-label="2.2">
  <path d="m100.02 35.731q-0.32-0.096-1.056-0.192-0.736-0.064-1.728-0.16-0.992-0.064-2.144-0.16-1.152-0.064-2.336-0.128-1.152-0.032-2.24-0.064t-1.92-0.032q-0.8 0-1.312 0.032t-0.896 0.064q-0.352 0.032-0.608 0.064-0.256 0.064-0.576 0.096-0.032 0-0.128-0.064-0.096-0.032-0.096-0.096 0-0.096-0.064-0.224-0.032-0.128-0.064-0.224 0-0.128 0.096-0.256t0.384-0.288q0.8-0.608 1.92-1.472t2.304-1.888q1.184-1.056 2.368-2.176 1.184-1.152 2.112-2.304 0.928-1.184 1.504-2.304 0.576-1.152 0.608-2.176 0-1.088-0.288-2.112-0.256-1.024-0.8-1.792-0.544-0.8-1.344-1.248-0.8-0.48-1.856-0.48-0.928 0-1.696 0.416t-1.344 1.024q-0.544 0.608-0.864 1.344t-0.32 1.344q0 0.16-0.032 0.256-0.032 0.064-0.192 0.064t-0.416-0.16q-0.224-0.192-0.448-0.448-0.192-0.288-0.352-0.608t-0.16-0.64q0-0.928 0.832-1.568 0.864-0.672 2.496-1.472 1.376-0.64 2.88-1.056t2.656-0.416q1.024 0 1.888 0.416 0.896 0.384 1.536 1.12 0.672 0.736 1.024 1.792 0.384 1.024 0.384 2.304 0 1.152-0.576 2.336-0.544 1.184-1.472 2.4-0.896 1.184-2.048 2.336t-2.368 2.208q-1.184 1.024-2.304 1.952-1.12 0.896-1.984 1.6 0.32 0.128 1.6 0.32t3.296 0.192q1.248 0 2.4-0.032t2.112-0.224q0.96-0.224 1.664-0.736 0.704-0.512 1.088-1.472 0.032-0.032 0.128-0.064t0.192 0.032q0.096 0.032 0.16 0.16t0 0.352q-0.128 0.32-0.256 0.832-0.128 0.48-0.256 1.024-0.096 0.544-0.224 1.088t-0.256 0.928q-0.16 0.64-0.608 0.64z"/>
  <path d="m108.01 32.179q0.16 0.032 0.512 0.352 0.384 0.32 0.768 0.736t0.672 0.8 0.288 0.512q0 0.16-0.384 0.48t-0.896 0.64q-0.48 0.352-0.96 0.608-0.448 0.256-0.64 0.256-0.096 0-0.48-0.32-0.352-0.288-0.736-0.672t-0.704-0.736q-0.288-0.384-0.288-0.512 0-0.16 0.416-0.48 0.416-0.352 0.896-0.704 0.512-0.384 0.96-0.64 0.48-0.288 0.576-0.32z"/>
  <path d="m128.44 35.731q-0.32-0.096-1.056-0.192-0.736-0.064-1.728-0.16-0.992-0.064-2.144-0.16-1.152-0.064-2.336-0.128-1.152-0.032-2.24-0.064t-1.92-0.032q-0.8 0-1.312 0.032t-0.896 0.064q-0.352 0.032-0.608 0.064-0.256 0.064-0.576 0.096-0.032 0-0.128-0.064-0.096-0.032-0.096-0.096 0-0.096-0.064-0.224-0.032-0.128-0.064-0.224 0-0.128 0.096-0.256t0.384-0.288q0.8-0.608 1.92-1.472t2.304-1.888q1.184-1.056 2.368-2.176 1.184-1.152 2.112-2.304 0.928-1.184 1.504-2.304 0.576-1.152 0.608-2.176 0-1.088-0.288-2.112-0.256-1.024-0.8-1.792-0.544-0.8-1.344-1.248-0.8-0.48-1.856-0.48-0.928 0-1.696 0.416t-1.344 1.024q-0.544 0.608-0.864 1.344t-0.32 1.344q0 0.16-0.032 0.256-0.032 0.064-0.192 0.064t-0.416-0.16q-0.224-0.192-0.448-0.448-0.192-0.288-0.352-0.608t-0.16-0.64q0-0.928 0.832-1.568 0.864-0.672 2.496-1.472 1.376-0.64 2.88-1.056t2.656-0.416q1.024 0 1.888 0.416 0.896 0.384 1.536 1.12 0.672 0.736 1.024 1.792 0.384 1.024 0.384 2.304 0 1.152-0.576 2.336-0.544 1.184-1.472 2.4-0.896 1.184-2.048 2.336t-2.368 2.208q-1.184 1.024-2.304 1.952-1.12 0.896-1.984 1.6 0.32 0.128 1.6 0.32t3.296 0.192q1.248 0 2.4-0.032t2.112-0.224q0.96-0.224 1.664-0.736t1.088-1.472q0.032-0.032 0.128-0.064t0.192 0.032q0.096 0.032 0.16 0.16t0 0.352q-0.128 0.32-0.256 0.832-0.128 0.48-0.256 1.024-0.096 0.544-0.224 1.088t-0.256 0.928q-0.16 0.64-0.608 0.64z"/>
 </g>
</svg>
